<?xml version="1.0" encoding="utf-8"?>
<!-- Generator: Adobe Illustrator 22.1.0, SVG Export Plug-In . SVG Version: 6.00 Build 0)  -->
<svg version="1.1" id="Layer_1" xmlns="http://www.w3.org/2000/svg" xmlns:xlink="http://www.w3.org/1999/xlink" x="0px" y="0px"
	 viewBox="0 0 107 107" style="enable-background:new 0 0 107 107;" xml:space="preserve">
<style type="text/css">
	.st0{fill:#BC4DA5;}
	.st1{fill:#E4B8DB;}
</style>
<g>
	<path class="st0" d="M60,88.3c0-0.8,0-1.3,0-1.7c0-6.3,0-12.5,0-18.8c0-0.5,0-0.9,0.1-1.4c0.2-1.3,1.1-2,2.3-2.1
		c1.2,0,2.2,0.8,2.3,2.1c0,0.3,0,0.7,0,1c0,8.4,0,16.9,0,25.3c0,0.3,0,0.5,0,0.8c-0.1,0.9-0.4,1.7-1.3,2.1c-1,0.4-1.8,0.2-2.6-0.5
		c-2.2-2-4.6-3.9-6.6-6.1c-2.3-2.5-4.8-3.3-8.1-3.2c-9.3,0.2-18.6,0.1-27.9,0.1c-5.2,0-9.3-3.2-10.7-8.1c-0.3-1-0.4-2.1-0.4-3.1
		c0-8.5,0-17,0-25.4c0-6.8,5.7-11.5,11.3-11.4c7.4,0.1,14.9,0,22.3,0c1.7,0,1.7,0,1.7-1.8c0-4.4,0-8.7,0-13.1
		c0-7,4.8-11.8,11.8-11.8c11.5,0,23,0,34.5,0c6.6,0,11.4,4.8,11.4,11.4c0,8.4,0,16.7,0,25.1c0,6.9-4.8,11.6-11.6,11.6
		c-10.2,0-20.4,0-30.5,0c-0.9,0-1.7,0.2-2.4,0.9c-2.8,2.6-5.7,5.2-8.6,7.8c-0.9,0.8-1.8,1.4-3,0.9c-1.3-0.6-1.5-1.7-1.5-3
		c0-7.4,0-14.7,0-22.1c0-1.2-0.3-1.5-1.5-1.5c-7.2,0.1-14.5,0-21.7,0c-1.8,0-3.5,0.3-5,1.5c-1.5,1.3-2.4,2.8-2.4,4.8
		c0,8.7,0,17.5,0,26.2c0,3.7,2.9,6.3,6.9,6.3c7.1,0,14.2,0,21.4,0c3.6,0,7.1,0,10.7,0c1.3,0,2.2,0.4,3.1,1.2c1.6,1.5,3.2,3,4.8,4.5
		C59,87.5,59.4,87.8,60,88.3z M47,61.6c0.6-0.4,0.9-0.7,1.2-0.9c1.4-1.2,2.8-2.4,4.1-3.7c1.6-1.6,3.5-2.1,5.8-2.1
		c10.1,0.1,20.3,0,30.4,0c4.1,0,6.7-2.6,6.7-6.8c0-8.4,0-16.9,0-25.3c0-4.1-2.6-6.7-6.7-6.7c-11.5,0-23.1,0-34.6,0c-4.4,0-7,2.7-7,7
		c0,12.3,0,24.6,0,36.9C47,60.4,47,60.8,47,61.6z"/>
	<path class="st0" d="M22,61.5c0-1.3,1-2.3,2.4-2.3c1.3,0,2.4,1,2.4,2.3c0,1.3-1.1,2.3-2.4,2.3C23,63.8,22,62.9,22,61.5z"/>
	<path class="st0" d="M32.3,59.2c1.4,0,2.4,0.9,2.4,2.3c0,1.4-0.9,2.3-2.3,2.4c-1.3,0-2.4-1-2.4-2.3C30,60.3,31,59.2,32.3,59.2z"/>
	<path class="st1" d="M47,61.6c0-0.7,0-1.1,0-1.5c0-12.3,0-24.6,0-36.9c0-4.4,2.6-7,7-7c11.5,0,23.1,0,34.6,0c4.1,0,6.7,2.6,6.7,6.7
		c0,8.4,0,16.9,0,25.3c0,4.2-2.6,6.7-6.7,6.8c-10.1,0-20.3,0-30.4,0c-2.3,0-4.2,0.5-5.8,2.1c-1.3,1.3-2.8,2.5-4.1,3.7
		C47.9,60.9,47.6,61.1,47,61.6z M78.2,31.1c-0.1-0.3-0.1-0.9-0.2-1.5c-0.7-3.2-4.1-5.5-7.4-5.1c-3.6,0.5-6.3,3.4-6.2,6.8
		c0,1.3,0.8,2.1,2,2.3c1.2,0.2,2.2-0.5,2.5-1.8c0.1-0.4,0.1-0.8,0.2-1.1c0.3-1,1-1.5,1.9-1.6c1-0.1,1.7,0.3,2.2,1.2
		c0.5,0.9,0.1,1.7-0.6,2.3c-0.7,0.6-1.4,1.2-2.1,1.8c-1.2,1.1-2.1,2.3-2.2,3.9c-0.1,1.3,0.7,2.3,1.8,2.6c1.2,0.2,2.2-0.4,2.7-1.6
		c0.3-0.6,0.7-1.3,1.2-1.8c0.5-0.6,1.2-1.1,1.8-1.6C77.2,34.7,78.1,33.2,78.2,31.1z M70.7,43.2c-1.3,0-2.2,1-2.2,2.3
		c0,1.3,1,2.3,2.2,2.3c1.2,0,2.3-1.2,2.3-2.4C73,44.2,71.9,43.2,70.7,43.2z"/>
	<path class="st0" d="M78.2,31.1c0,2.1-0.9,3.6-2.3,4.9c-0.6,0.6-1.3,1-1.8,1.6c-0.5,0.5-0.9,1.1-1.2,1.8c-0.5,1.2-1.5,1.9-2.7,1.6
		c-1.2-0.2-2-1.3-1.8-2.6c0.1-1.7,1.1-2.9,2.2-3.9c0.7-0.6,1.4-1.2,2.1-1.8c0.7-0.6,1-1.4,0.6-2.3c-0.5-0.9-1.2-1.3-2.2-1.2
		c-1,0.1-1.7,0.6-1.9,1.6c-0.1,0.4-0.1,0.8-0.2,1.1c-0.3,1.2-1.3,1.9-2.5,1.8c-1.2-0.2-2-1-2-2.3c-0.1-3.4,2.6-6.3,6.2-6.8
		c3.3-0.4,6.7,1.9,7.4,5.1C78,30.1,78.1,30.7,78.2,31.1z"/>
	<path class="st0" d="M70.7,43.2c1.2,0,2.3,1,2.3,2.2c0,1.3-1.1,2.4-2.3,2.4c-1.2,0-2.2-1-2.2-2.3C68.5,44.2,69.4,43.2,70.7,43.2z"
		/>
</g>
</svg>
