<?xml version="1.0" encoding="utf-8"?>
<!-- Generator: Adobe Illustrator 22.1.0, SVG Export Plug-In . SVG Version: 6.00 Build 0)  -->
<svg version="1.1" id="Layer_1" xmlns="http://www.w3.org/2000/svg" xmlns:xlink="http://www.w3.org/1999/xlink" x="0px" y="0px"
	 viewBox="0 0 107 107" style="enable-background:new 0 0 107 107;" xml:space="preserve">
<style type="text/css">
	.st0{fill:#CFEDE2;}
	.st1{fill:#6CA68B;}
</style>
<g>
	<g>
		<path class="st0" d="M64.7,5.2H25.6c-5.6,0-10.1,4.5-10.1,10.1v78.4c0,5.6,4.5,10.1,10.1,10.1h55.7c5.6,0,10.1-4.5,10.1-10.1V30.4
			L64.7,5.2z M45.1,61.4H29.4V45.7h15.7V61.4z M45.5,34.1H27.6V14.3h17.8V34.1z"/>
	</g>
	<g>
		<path class="st1" d="M67,0.5H24.4c-6.2,0-11.3,5.1-11.3,11.3v83.4c0,6.2,5.1,11.3,11.3,11.3h58.1c6.2,0,11.3-5.1,11.3-11.3v-68
			L67,0.5z M82.5,99.6H24.4c-2.4,0-4.4-2-4.4-4.4V11.8c0-2.4,2-4.4,4.4-4.4l40,0v14.8c0,4.3,3.5,7.8,7.8,7.8l14.5,0l0.2,65.3
			C86.9,97.7,84.9,99.6,82.5,99.6z"/>
		<path class="st1" d="M28.6,35.7h17.5c1.5,0,2.7-1.2,2.7-2.7V15.6c0-1.5-1.2-2.7-2.7-2.7H28.6c-1.5,0-2.7,1.2-2.7,2.7v17.5
			C26,34.5,27.2,35.7,28.6,35.7z M31.3,18.3h12.1v12.1H31.3V18.3z"/>
		<path class="st1" d="M28.6,64.9h17.5c1.5,0,2.7-1.2,2.7-2.7V44.8c0-1.5-1.2-2.7-2.7-2.7H28.6c-1.5,0-2.7,1.2-2.7,2.7v17.5
			C26,63.7,27.2,64.9,28.6,64.9z M31.3,47.5h12.1v12.1H31.3V47.5z"/>
		<path class="st1" d="M37.1,88.8h-5.8V76.6h12.1v3.4l1.6,1.6l3.7-3.7v-4c0-1.5-1.2-2.7-2.7-2.7H28.6c-1.5,0-2.7,1.2-2.7,2.7v17.5
			c0,1.5,1.2,2.7,2.7,2.7H43c-0.6-0.3-1.2-0.6-1.7-1.1L37.1,88.8z"/>
		<path class="st1" d="M55.4,75.1L45.1,85.4L41,81.4c-1-1-2.7-1-3.8,0c-1,1-1,2.7,0,3.8l6,6c0.5,0.5,1.2,0.8,1.9,0.8
			c0.7,0,1.4-0.3,1.9-0.8l12.2-12.2c1-1,1-2.7,0-3.8C58.1,74.1,56.4,74.1,55.4,75.1z"/>
	</g>
</g>
</svg>
