<?xml version="1.0" encoding="utf-8"?>
<!-- Generator: Adobe Illustrator 22.1.0, SVG Export Plug-In . SVG Version: 6.00 Build 0)  -->
<svg version="1.1" id="Layer_1" xmlns="http://www.w3.org/2000/svg" xmlns:xlink="http://www.w3.org/1999/xlink" x="0px" y="0px"
	 viewBox="0 0 107 107" style="enable-background:new 0 0 107 107;" xml:space="preserve">
<style type="text/css">
	.st0{fill:#ABC0D9;}
	.st1{fill:#5881B2;}
</style>
<g>
	<path class="st0" d="M63.7,106.3c-3.9,0-5.1-0.1-5.6-0.1c-0.7-0.1-1.8-0.1-3.5-0.1c-3,0-6.9,0.2-8.4,0.2l-2-19.9l-20.8,2.5
		c-0.5-1.4-1.8-5.2-3.3-10c-0.9-3-3.1-6.9-5.2-10.7c-2.2-4.1-4.6-8.3-4.9-10.6l0,0c0,0,0.2-3.4,5.9-10.8l0.1-0.2l0.1-0.2
		c0.2-1.2,1.5-7.7,6.8-13c0,0,0.1-0.1,0.5-0.1c0.3,0,0.6,0,1,0.1h0.2l0.2-0.1C27,28.8,35.3,29,39.5,21c2-3.8,10.8-7.7,21.3-7.7
		c6.3,0,12.5,1.6,17.9,4.5c4.9,2.7,11.9,15,13.7,22.6c1.7,7.1,1.4,11,0.9,13.1c-0.6,2.3-3.3,10.4-6.5,14.3c-0.8,1-1.7,1.9-2.6,2.7
		c-2.7,2.5-5.5,5.1-5.5,12.8c0,8.3,1.5,19.6,2,22.7C78,106.1,69.5,106.3,63.7,106.3L63.7,106.3z"/>
	<g>
		<path class="st1" d="M57.2,106.3c-1.1,0-2-0.7-2.3-1.8c-0.6-2.2-1.1-4.5-1.4-6.9c-0.2-1.7-0.3-3.5-0.4-5.1c0-0.7-0.1-1.3-0.1-1.9
			c0.3-7.1,1.2-12.9,2.9-18.2c0-0.1,0.1-0.2,0.1-0.3c0.2-0.5,0.6-1.4-0.2-2.1c-0.3-0.3-0.6-0.4-1-0.4c-0.6,0-1,0.3-1.3,0.6
			c-0.1,0.1-0.2,0.1-0.3,0.2c-3.9,2.3-7.5,4.2-11,5.6c-0.7,0.3-1.4,0.4-1.9,0.4c-1,0-1.7-0.4-2.1-1.3c-0.3-0.6-0.3-1.2-0.1-1.7
			c0.3-0.7,1-1.3,2.1-1.8c10.3-4.3,19.3-10.7,27-19c3.5-3.8,3.5-8.8,0.1-12.2c-1.6-1.6-3.8-2.6-6.1-2.6c-2.4,0-4.7,1-6.3,2.8
			C44.7,51.8,31.7,58.3,16.3,59.7c-0.7,0.1-1.4,0.1-2.2,0.1c-0.6,0-1.2,0-1.8,0C10.8,59.7,10,59,10,57.6s0.7-2.2,2.2-2.4
			c1-0.1,2-0.2,3-0.3c3.6-0.4,7.3-0.8,11-1.8c9.7-2.9,18.1-8.1,24.9-15.5c2.9-3.2,6.3-4.8,10-4.8c1.2,0,2.5,0.2,3.8,0.5
			c4.2,1.1,7.5,4,9.1,8.1s1.1,8.5-1.3,12.1c-1,1.6-2.2,3.1-3.3,4.7c-2.1,2.9-4.3,5.8-5.9,9.2c-5.2,10.9-6.6,22.4-4.1,34.2
			c0,0.2,0.1,0.5,0.2,0.7c0.1,0.3,0.2,0.6,0.2,1c0.2,1.5-0.5,2.6-1.8,3C57.6,106.2,57.4,106.3,57.2,106.3z"/>
		<path class="st1" d="M28.3,20c-0.6,0-1.1-0.2-1.6-0.7c-1.4-1.4-0.5-2.9,0.2-3.7c4.6-5.2,10.2-9.1,16.7-11.7c6-2.4,12-3.6,17.8-3.6
			c7.5,0,15.1,2,22.4,5.9c2.5,1.3,3,2.1,3,3.2c0,0.6-0.2,1.2-0.6,1.6c-0.4,0.4-1,0.7-1.7,0.7c-0.4,0-0.7-0.1-1.1-0.2
			c-0.9-0.4-1.8-0.8-2.6-1.3c-0.7-0.3-1.3-0.7-2-1c-5.3-2.5-11.4-3.8-17.6-3.8c-11,0-21.5,4.2-28.8,11.6l-0.5,0.5
			c-0.5,0.5-1.1,1.1-1.6,1.6C29.7,19.6,29,20,28.3,20z"/>
		<path class="st1" d="M94.1,53c-1.3,0-2.2-0.8-2.3-2.2c-0.1-1,0-2,0-2.9c0-0.4,0-0.7,0-1c0.7-12.3-7.6-24.9-19.4-29.3l-0.2-0.1
			c-0.5-0.2-1-0.4-1.4-0.6c-1.5-1.1-1.4-2.1-1.1-2.8c0.4-1,1.1-1.6,2.1-1.6c0.2,0,0.3,0,0.5,0c1.7,0.2,3.3,1,4.8,1.8
			c13,6.4,21.1,20.9,19.6,35.4c-0.2,1.9-0.6,3-2.3,3.2C94.4,52.9,94.2,53,94.1,53z"/>
		<path class="st1" d="M80.5,106.3c-1,0-1.9-0.7-2.4-2c-1.8-4.4-2.7-8.5-2.7-12.4v-1.5c-0.1-8.6,2.7-16.3,8.4-23
			c1-1.2,1.9-2.5,2.8-3.7c0.4-0.6,0.8-1.1,1.2-1.7c0.7-0.9,1.5-1.4,2.3-1.4c0.4,0,0.8,0.1,1.2,0.4c1.3,0.8,1.5,2.2,0.6,3.7
			c-1.1,1.9-2.4,3.6-3.8,5.2l-1,1.3c-7,8.9-8.7,18.8-5.2,29.7c0.1,0.4,0.3,0.8,0.4,1.1c0.1,0.2,0.2,0.5,0.3,0.7
			c0.6,1.8,0.2,3.1-1.3,3.6C81,106.2,80.8,106.3,80.5,106.3z"/>
		<path class="st1" d="M41.8,37.1c-0.5,0-1-0.2-1.5-0.7c-1.1-1-1.2-2-0.4-3c4.7-5.9,9.4-9.3,14.9-10.7c2.2-0.6,4.4-0.9,6.6-1
			c6.1,0.3,11.1,2.2,15.4,5.6c1.3,1,1.7,1.9,1.5,3s-1,1.8-2.1,1.8c-0.6,0-1.3-0.2-1.9-0.7c-2.5-1.8-5.5-3.7-9.2-4.4
			c-1.4-0.2-2.7-0.4-4-0.4c-5.1,0-9.7,1.9-13.7,5.7c-0.6,0.6-1.2,1.1-1.7,1.7c-0.8,0.8-1.6,1.6-2.4,2.3
			C42.8,36.8,42.3,37.1,41.8,37.1z"/>
		<path class="st1" d="M45.6,106.3c-1.2,0-2.1-1-2.4-2.5c-0.6-2.9-0.7-5.8-0.9-8.7c-0.1-1.6-0.2-3.1-0.3-4.7c-0.1-0.7-0.2-2.6-2-2.6
			c-0.4,0-0.9,0.1-1.6,0.4c-4.1,1.5-8.5,2.4-12.2,3c-1.5,0-2.5-0.8-2.7-2.2c-0.2-1.3,0.7-2.3,2.2-2.6c4.5-0.9,9.1-1.8,13.4-3.6
			c0.4-0.2,0.8-0.3,1.2-0.5c0.6-0.3,1.3-0.6,2-0.8c0.6-0.2,1.2-0.3,1.6-0.3c0.5,0,1.9,0,2.3,2.5c0.5,3.4,0.9,7.1,1.1,11.3
			c0.1,2.5,0.4,5.2,0.7,8.2c0.2,1.8-0.5,3-1.9,3.3C45.9,106.3,45.7,106.3,45.6,106.3z"/>
		<path class="st1" d="M18.8,70.6c-3.2,0-3.6-1.1-3.7-2.2c-0.1-1.1,0.2-2.4,2.8-2.7c9.2-0.9,18.1-3.8,26.5-8.6
			c0.5-0.3,1-0.4,1.5-0.4c0.8,0,1.5,0.4,2,1.2c0.7,1.2,0.2,2.6-1.3,3.5c-7.2,4.4-15.3,7.3-24.7,8.8c-0.9,0.1-1.7,0.2-2.4,0.3
			L18.8,70.6L18.8,70.6z"/>
		<path class="st1" d="M73.8,68.6c-0.4,0-0.9-0.1-1.3-0.4c-1.6-1.1-1-2.7-0.5-3.6c0.9-1.7,2.2-3.2,3.5-4.7l0.8-1
			c3.8-4.6,5.3-9.8,4.4-15.6l-0.1-0.7c-0.1-0.4-0.2-0.9-0.2-1.3c-0.2-1.5,0.5-2.3,1.9-2.7c0.2-0.1,0.5-0.1,0.7-0.1
			c0.9,0,1.6,0.5,2,1.6c0.6,1.3,0.6,2.8,0.7,4.1c0,0.7,0.1,1.3,0.2,1.9c-0.2,7-2.3,12.4-6.6,17c-0.8,0.9-1.5,1.8-2.1,2.8
			c-0.3,0.5-0.7,0.9-1,1.4C75.4,68.1,74.6,68.6,73.8,68.6z"/>
		<path class="st1" d="M68.8,106.3c-1.1,0-2-0.8-2.4-2c-1.1-3.5-1.8-7.3-2.1-11.2c0-0.6,0-1.2,0-1.9v-0.9c0-4.2,0.5-8.3,1.6-12.1
			c0.3-1,1-2.6,2.5-2.6c0.2,0,0.4,0,0.7,0.1c1.9,0.5,1.9,2.4,1.5,3.8c-1.9,7.4-1.8,15,0.2,22.5l0.1,0.3c0.1,0.2,0.1,0.4,0.2,0.7
			c0.3,1.7-0.3,2.9-1.6,3.3C69.2,106.2,69,106.3,68.8,106.3z"/>
		<path class="st1" d="M41.4,22c-0.8,0-1.4-0.4-1.8-1c-0.7-1.1-0.3-2.7,0.9-3.6c5.3-3.8,11.4-6,17.9-6.6c0.2,0,0.4,0,0.6,0
			c1.4,0,2.2,0.4,2.6,1.5c0.4,0.9,0.2,1.7-0.6,2.5c-0.4,0.4-0.9,0.6-1.8,0.7c-5.9,0.6-11.4,2.6-16.1,5.9C42.6,21.8,42,22,41.4,22z"
			/>
		<path class="st1" d="M19.3,48.2c-1.9,0-3.1-0.8-3.3-2c-0.1-1.8,1-2.4,2-2.6c4.5-0.9,8.5-2.2,12.2-3.9c0.4-0.2,0.7-0.3,1.1-0.3
			c1,0,1.6,0.8,1.9,1.4c0.7,1.3,0.3,2.4-0.9,3.1C28.5,46,24,47.5,19.3,48.2z"/>
		<path class="st1" d="M24.1,35.3c-1.1,0-1.7-0.8-2-1.4c-0.3-0.6-0.3-1.2-0.1-1.7c0.2-0.6,0.7-1.1,1.4-1.4c2.3-1,4.3-2.3,6.3-3.6
			c0.5-0.3,1-0.7,1.5-1s1-0.5,1.6-0.5c1.1,0,2.3,0.8,2.3,2.3c0,0.5-0.2,1.2-0.9,1.8c-2.6,2.3-5.6,4.1-9.1,5.4
			C24.7,35.2,24.4,35.3,24.1,35.3z"/>
		<path class="st1" d="M56.5,53.4c-0.7,0-1.4-0.3-1.8-0.8c-0.9-1.2-0.8-2.2,0.2-3.3c1.3-1.4,2.8-2.9,4.7-4.7c0.5-0.4,1-0.6,1.5-0.6
			c0.4,0,0.8,0.1,1.2,0.3c0.9,0.4,1.2,1.2,1.2,1.5c0,1.2-0.2,1.7-0.5,2.1c-1.8,2.1-3.4,3.8-5,5C57.7,53.2,57.1,53.4,56.5,53.4z"/>
		<path class="st1" d="M23.2,81.2c-1.8,0-3.1-0.9-3.1-2.2c-0.1-1.4,0.6-2.3,2.1-2.6c2.2-0.4,4.2-0.8,6.1-1.1c0.2,0,0.4,0,0.6,0
			c1.2,0,1.9,0.6,2.3,1.9c0.5,1.8-0.8,2.5-1.7,2.7c-1.6,0.4-3.2,0.8-4.7,1C24.2,81,23.7,81.1,23.2,81.2z"/>
	</g>
</g>
</svg>
