<?xml version="1.0" encoding="utf-8"?>
<!-- Generator: Adobe Illustrator 22.1.0, SVG Export Plug-In . SVG Version: 6.00 Build 0)  -->
<svg version="1.1" id="Layer_1" xmlns="http://www.w3.org/2000/svg" xmlns:xlink="http://www.w3.org/1999/xlink" x="0px" y="0px"
	 viewBox="0 0 107 107" style="enable-background:new 0 0 107 107;" xml:space="preserve">
<style type="text/css">
	.st0{fill:#FFB7C1;}
	.st1{fill:#FE4A65;}
	.st2{fill:#FFFFFF;}
</style>
<g>
	<g>
		<path class="st0" d="M90.1,73.2H31c-2.3,0-4.1-1.8-4.1-4.1V34.5c0-2.3,1.8-4.1,4.1-4.1h59.1c2.3,0,4.1,1.8,4.1,4.1v34.6
			C94.1,71.4,92.3,73.2,90.1,73.2z"/>
		<g>
			<path class="st1" d="M96.8,60.3c0-12.7,0-25.3,0-38c0-4.3-2.5-7.3-6.4-7.9c-1.6-0.2-3.3-0.1-4.9-0.1c-0.8,0-0.9,0.4-0.9,1.1
				c0,1.2,0,2.4,0,3.5c-0.2,3.3-3,5.8-6.3,5.7c-3.3-0.1-5.9-2.7-6-6c0-0.9-0.1-1.7,0-2.6c0.1-1.3-0.4-1.8-1.7-1.7
				c-6.3,0.1-12.6,0-18.8,0c-3.9,0-3.9,0-4,3.9c-0.1,3.7-2.6,6.4-6.2,6.4c-3.5,0-6.1-2.7-6.1-6.5c0-3.8,0-3.8-3.9-3.8
				c-5.5,0-8.4,2.9-8.4,8.4c0,15.7,0,31.4,0,47c0,5.3,3,8.3,8.2,8.3c9.5,0,19,0,28.5,0c9.7,0,19.4,0,29.1,0c4.6,0,7.7-3.1,7.7-7.7
				C96.8,67,96.8,63.7,96.8,60.3z M91.9,67.9c0,1.9-0.9,2.8-2.8,2.8c-19.3,0-38.6,0-57.9,0c-2.1,0-3-0.8-3-2.8c0-5,0-10,0-15
				c0-0.5,0-1,0-1.5c0-5.4,0-10.7-0.1-16.1c0-1.6,1-1.4,1.9-1.4c16.1,0,32.2,0,48.3,0c4,0,8.1,0,12.1,0c1.1,0,1.5,0.3,1.5,1.5
				C91.8,46.2,91.9,57.1,91.9,67.9z"/>
			<path class="st1" d="M41.5,21.7c2,0,3.6-1.5,3.7-3.7c0.1-1.2,0-2.4,0-3.7c0-1.2,0.1-2.4,0-3.7C45.1,8.5,43.5,7,41.5,7
				c-1.9,0-3.5,1.6-3.6,3.7c-0.1,2.4-0.1,4.9,0,7.3C38,20.1,39.6,21.6,41.5,21.7z"/>
			<path class="st1" d="M74.7,18.3c0.2,1.9,1.8,3.4,3.7,3.4c1.8,0,3.4-1.4,3.5-3.2c0.1-2.7,0.2-5.5,0-8.2c-0.1-2-1.9-3.3-3.8-3.2
				c-1.9,0.1-3.4,1.6-3.5,3.6c-0.1,1.2,0,2.4,0,3.7c0,0,0,0,0,0C74.7,15.6,74.6,16.9,74.7,18.3z"/>
			<path class="st1" d="M63.7,46.2c1.3,0,2.5,0,3.8,0c0,0,0,0,0,0c1.2,0,2.4,0,3.7,0c0.8,0,1.1-0.3,1.1-1.1c0-1.7,0-3.5,0-5.2
				c0-0.8-0.3-1.1-1.1-1.1c-2.5,0-5.1,0-7.6,0c-0.8,0-1.1,0.3-1.1,1.1c0,1.7,0,3.5,0,5.2C62.4,46,62.9,46.2,63.7,46.2z"/>
			<path class="st1" d="M63.7,56c1.3,0,2.5,0,3.8,0c0,0,0,0,0,0c1.2,0,2.4,0,3.7,0c0.8,0,1.1-0.3,1.1-1.1c0-1.7,0-3.5,0-5.2
				c0-0.8-0.3-1.1-1.1-1.1c-2.5,0-5.1,0-7.6,0c-0.8,0-1.1,0.3-1.1,1.1c0,1.7,0,3.5,0,5.2C62.4,55.8,62.9,56,63.7,56z"/>
			<g>
				<path class="st1" d="M80.6,52.5l-2.3-2.3l1.5-1.5l2.3,2.3l2.3-2.3l1.4,1.4l-2.3,2.3l2.3,2.3l-1.5,1.5L82,53.9l-2.4,2.4l-1.4-1.4
					L80.6,52.5z"/>
			</g>
			<g>
				<path class="st1" d="M50.6,42.6l-2.3-2.3l1.5-1.5l2.3,2.3l2.3-2.3l1.4,1.4l-2.3,2.3l2.3,2.3l-1.5,1.5L52,44l-2.4,2.4l-1.4-1.4
					L50.6,42.6z"/>
			</g>
			<path class="st1" d="M78.3,46.2c1.3,0,2.5,0,3.8,0c1.2,0,2.4,0,3.7,0c0.7,0,1.2-0.2,1.1-1c0-1.8,0-3.6,0-5.3c0-0.7-0.3-1-1-1
				c-2.6,0-5.2,0-7.8,0c-0.7,0-1,0.3-1,1c0,1.7,0,3.5,0,5.2C77.1,45.9,77.5,46.2,78.3,46.2z"/>
			<path class="st1" d="M33,54.9c0,0.8,0.3,1.1,1.1,1.1c1.2,0,2.4,0,3.7,0c1.3,0,2.6,0,4,0c0.8,0,1.1-0.3,1.1-1.1c0-1.7,0-3.5,0-5.2
				c0-0.8-0.3-1.1-1.1-1.1c-2.5,0-5.1,0-7.6,0c-0.8,0-1.1,0.3-1.1,1.1C33,51.5,33,53.2,33,54.9z"/>
			<path class="st1" d="M56.4,48.7c-2.5,0-5,0-7.5,0c-0.8,0-1.2,0.3-1.2,1.1c0,1.7,0,3.4,0,5c0,1,0.4,1.2,1.3,1.2c1.2,0,2.3,0,3.5,0
				c1.3,0,2.5,0,3.8,0c0.8,0,1.2-0.3,1.2-1.1c0-1.7,0-3.4,0-5C57.5,49,57.3,48.7,56.4,48.7z"/>
			<path class="st1" d="M41.7,58.5c-1.2,0-2.4,0-3.7,0c-1.3,0-2.5,0-3.8,0c-0.8,0-1.2,0.3-1.2,1.2c0,1.7,0,3.4,0,5
				c0,0.8,0.3,1.2,1.2,1.2c2.5,0,5,0,7.5,0c0.8,0,1.2-0.3,1.2-1.2c0-1.7,0-3.4,0-5C42.8,58.8,42.5,58.4,41.7,58.5z"/>
			<path class="st1" d="M57.5,59.7c0-0.8-0.3-1.2-1.1-1.2c-2.5,0-5,0-7.5,0c-0.8,0-1.2,0.3-1.2,1.1c0,1.7,0,3.4,0,5
				c0,1,0.4,1.2,1.3,1.2c1.2,0,2.3,0,3.5,0c1.3,0,2.5,0,3.8,0c0.8,0,1.2-0.3,1.2-1.1C57.5,63,57.5,61.3,57.5,59.7z"/>
			<path class="st1" d="M71,58.5c-2.2,0-4.4,0.1-6.6,0c-1.5-0.1-2.2,0.3-2,1.9c0,0.5,0,1,0,1.5c0,0.9,0.1,1.8,0,2.7
				c0,0.8,0.2,1.2,1.1,1.2c2.5,0,5.1,0,7.6,0c0.8,0,1.1-0.3,1.1-1.1c0-1.7,0-3.4,0-5C72.3,58.8,71.9,58.5,71,58.5z"/>
			<path class="st1" d="M87,59.6c0-0.8-0.3-1.1-1.1-1.1c-2.5,0-5.1,0-7.6,0c-0.8,0-1.1,0.3-1.1,1.1c0,1.7,0,3.5,0,5.2
				c0,0.8,0.3,1.1,1.1,1.1c1.3,0,2.5,0,3.8,0c1.3,0,2.5,0,3.8,0c0.8,0,1.1-0.3,1.1-1.1C86.9,63,86.9,61.3,87,59.6z"/>
		</g>
	</g>
	<path class="st2" d="M40.6,59.1c0.7-1,1.5-1.9,2.1-2.9c3.3-5.6,2-12.9-2.9-17.2c-3.3-2.8-7.1-3.9-11.3-3.3
		c-5.5,0.8-10,5.1-11.3,10.5c-1.5,6.7,2,13.3,8.3,15.9c0.1,0,0.3,0.2,0.3,0.3c0,1.4,0,2.9,0,4.3c-5.4-1.3-11.7-6.4-13.1-14.5
		c-1.4-8.9,3.7-16.9,11.5-19.9c7.9-3,16.9-0.1,21.5,6.9c4.7,7.1,3.7,16-1.2,21.6C42.8,59.4,42.8,59.4,40.6,59.1z"/>
	<path class="st0" d="M36.3,59.2c0-0.5,0-1.1,0-1.6c0-3.2,0-6.4,0-9.5c0-2.6-1.7-4.6-4.2-5.2c-2.9-0.6-5.9,1.4-6.2,4.4
		c-0.1,0.7-0.1,1.5-0.1,2.2c0,3.3,0,6.6,0,9.9c0,0.1,0,0.2,0,0.3c-3.2-1.3-7.2-5.5-6.6-11.5c0.6-5.5,5-9.8,10.5-10.3
		c6.1-0.5,11,3.7,12.2,9C43.1,52.7,39.9,57.4,36.3,59.2z"/>
	<path class="st1" d="M45.8,63.4c1.5-2,3.4-2.8,5.8-2.1c2.1,0.5,3.3,2.1,3.9,4.7c0-0.1,0.1-0.2,0.1-0.2c1.5-1.7,3.3-2.3,5.5-1.7
		c2.1,0.6,3.4,2.1,3.8,4.3c0,0.2,0,0.5,0,0.8c0,7.1,0,14.2,0,21.2c0,4.6-3,8.4-7.5,9.4c-0.7,0.2-1.5,0.3-2.2,0.3c-6.5,0-13,0-19.6,0
		c-2.7,0-5-0.9-6.9-2.8c-4.5-4.5-9.1-9-13.6-13.5c-1.5-1.5-2-3.4-1.3-5.4c0.7-2,2.1-3.2,4.2-3.5c1.7-0.2,3.1,0.2,4.4,1.4
		c1,1,2,2,3,3c0.1,0.1,0.2,0.2,0.2,0.3c0,0,0.1,0,0.1,0c0-3.4,0-6.8,0-10.3c-0.9-0.3-1.9-0.6-2.8-1c-6.5-2.8-10.7-7.6-12.4-14.5
		c-1.9-8.2,1.6-16.8,8.6-21.4c3.7-2.4,7.8-3.6,12.2-3.4c9,0.3,17,6.8,19,15.5c1.6,7,0.1,13.2-4.6,18.6
		C45.8,63.1,45.8,63.2,45.8,63.4C45.7,63.4,45.8,63.4,45.8,63.4z M28.7,65.4C28.7,65.4,28.7,65.4,28.7,65.4c0,3.4,0,6.7,0,10.1
		c0,2.4,0,4.8,0,7.3c0,0.3-0.1,0.7-0.3,1c-0.5,0.8-1.5,0.8-2.2,0.1c-1.9-1.9-3.7-3.7-5.6-5.6c-1-1-2.5-1-3.5,0c-1,1-0.9,2.5,0.1,3.5
		c4.3,4.3,8.7,8.7,13,13c1.7,1.7,3.7,2.5,6.1,2.5c6.2-0.1,12.4,0,18.6,0c0.6,0,1.2,0,1.8-0.1c3.2-0.7,5.5-3.4,5.5-6.8
		c0-2.1,0-4.2,0-6.2c0-5,0-10,0-15c0-1.7-1.5-2.9-3.1-2.4c-1.1,0.3-1.7,1.3-1.7,2.4c0,2.3,0,4.6,0,7c0,0.8-0.6,1.4-1.4,1.4
		c-0.6,0-1.3,0-1.9,0c-0.5,0-0.9-0.3-1.1-0.7c-0.1-0.3-0.2-0.6-0.2-0.9c0-3.2,0-6.5,0-9.7c0-0.9-0.5-1.6-1.3-2.1
		c-0.8-0.4-1.7-0.4-2.4,0.1c-0.8,0.5-1.1,1.3-1.1,2.2c0,3.1,0,6.2,0,9.4c0,1.1-0.6,1.8-1.7,1.7c-0.5,0-1,0-1.5,0
		c-1,0-1.6-0.6-1.6-1.6c0-1.2,0-2.3,0-3.5c0-2.7,0-5.5,0-8.2c0-1.4-1.5-2.5-2.9-2.2c-1.2,0.3-2,1.2-2,2.5c0,3.8,0,7.7,0,11.5
		c0,1-0.6,1.5-1.5,1.5c-0.6,0-1.1,0-1.7,0c-0.7,0-1.2-0.4-1.4-1.1c0-0.2,0-0.4,0-0.6c0-9.1,0-18.3,0-27.4c0-0.2,0-0.3,0-0.5
		c-0.1-1.7-1.6-2.7-3.2-2.3c-1.1,0.3-1.7,1.3-1.7,2.5C28.7,53.9,28.7,59.7,28.7,65.4z M40.6,59.1c2.2,0.3,2.2,0.3,4,1.8
		c4.9-5.7,5.9-14.5,1.2-21.6c-4.6-7-13.6-9.9-21.5-6.9c-7.8,3-12.9,11-11.5,19.9c1.3,8.1,7.7,13.2,13.1,14.5c0-1.4,0-2.9,0-4.3
		c0-0.1-0.2-0.2-0.3-0.3c-6.4-2.6-9.9-9.2-8.3-15.9c1.2-5.4,5.8-9.7,11.3-10.5c4.3-0.6,8,0.5,11.3,3.3c4.9,4.2,6.1,11.6,2.9,17.2
		C42.1,57.2,41.3,58.1,40.6,59.1z M36.3,59.2c3.5-1.8,6.8-6.6,5.6-12.3c-1.1-5.3-6.1-9.5-12.2-9c-5.5,0.4-9.9,4.7-10.5,10.3
		c-0.6,6,3.4,10.2,6.6,11.5c0-0.1,0-0.2,0-0.3c0-3.3,0-6.6,0-9.9c0-0.7,0-1.5,0.1-2.2c0.3-2.9,3.3-5,6.2-4.4
		c2.5,0.6,4.2,2.6,4.2,5.2c0,3.2,0,6.4,0,9.5C36.3,58.2,36.3,58.7,36.3,59.2z"/>
	<path class="st2" d="M28.7,65.4c0-5.7,0-11.5,0-17.2c0-1.2,0.6-2.1,1.7-2.5c1.5-0.5,3.1,0.6,3.2,2.3c0,0.2,0,0.3,0,0.5
		c0,9.1,0,18.3,0,27.4c0,0.2,0,0.4,0,0.6c0.1,0.6,0.7,1.1,1.4,1.1c0.6,0,1.1,0,1.7,0c0.9,0,1.5-0.6,1.5-1.5c0-3.8,0-7.7,0-11.5
		c0-1.3,0.8-2.3,2-2.5c1.4-0.3,2.9,0.8,2.9,2.2c0,2.7,0,5.5,0,8.2c0,1.2,0,2.3,0,3.5c0,1,0.6,1.6,1.6,1.6c0.5,0,1,0,1.5,0
		c1.1,0.1,1.7-0.6,1.7-1.7c0-3.1,0-6.2,0-9.4c0-0.9,0.3-1.7,1.1-2.2c0.8-0.5,1.6-0.6,2.4-0.1c0.8,0.4,1.3,1.1,1.3,2.1
		c0,3.2,0,6.5,0,9.7c0,0.3,0.1,0.6,0.2,0.9c0.2,0.5,0.6,0.7,1.1,0.7c0.6,0,1.3,0,1.9,0c0.8,0,1.4-0.6,1.4-1.4c0-2.3,0-4.6,0-7
		c0-1.2,0.7-2.1,1.7-2.4c1.6-0.5,3.1,0.7,3.1,2.4c0,5,0,10,0,15c0,2.1,0,4.2,0,6.2c0,3.3-2.2,6.1-5.5,6.8c-0.6,0.1-1.2,0.1-1.8,0.1
		c-6.2,0-12.4,0-18.6,0c-2.4,0-4.4-0.8-6.1-2.5c-4.3-4.4-8.7-8.7-13-13c-1-1-1-2.5-0.1-3.5c1-1,2.5-1,3.5,0c1.9,1.9,3.7,3.7,5.6,5.6
		c0.7,0.7,1.7,0.7,2.2-0.1c0.2-0.3,0.3-0.7,0.3-1c0-2.4,0-4.8,0-7.3C28.7,72.1,28.7,68.8,28.7,65.4C28.7,65.4,28.7,65.4,28.7,65.4z"
		/>
</g>
</svg>
