<?xml version="1.0" encoding="utf-8"?>
<!-- Generator: Adobe Illustrator 22.1.0, SVG Export Plug-In . SVG Version: 6.00 Build 0)  -->
<svg version="1.1" id="Layer_1" xmlns="http://www.w3.org/2000/svg" xmlns:xlink="http://www.w3.org/1999/xlink" x="0px" y="0px"
	 viewBox="0 0 107 107" style="enable-background:new 0 0 107 107;" xml:space="preserve">
<style type="text/css">
	.st0{fill:#6CA68B;}
	.st1{fill:#CFEDE2;}
</style>
<g>
	<path class="st0" d="M24.6,24.5c0.6,0,1.3-0.3,1.9-0.9c0.5-0.5,1-0.9,1.4-1.4l0.4-0.4c6.3-6.3,15.5-10,25-10
		c5.4,0,10.7,1.2,15.3,3.4c0.6,0.3,1.2,0.6,1.7,0.9c0.7,0.4,1.5,0.8,2.3,1.1c0.3,0.1,0.6,0.2,0.9,0.2c0.6,0,1.1-0.2,1.5-0.6
		c0.4-0.4,0.6-0.9,0.6-1.4c0-0.9-0.4-1.6-2.6-2.8c-6.4-3.4-13-5.1-19.5-5.1c-5.2,0-10.3,1.1-15.6,3.1c-5.7,2.3-10.5,5.7-14.5,10.1
		c-0.6,0.7-1.5,2.1-0.2,3.3C23.7,24.3,24.2,24.5,24.6,24.5z"/>
	<path class="st0" d="M14,47.4c0.2,1,1.2,1.7,2.8,1.7c4.1-0.6,7.9-1.9,11.4-3.7c1.1-0.6,1.4-1.6,0.8-2.7c-0.3-0.6-0.8-1.2-1.7-1.2
		c-0.3,0-0.6,0.1-1,0.2c-3.3,1.5-6.7,2.6-10.6,3.4c-0.5,0.1-1.1,0.3-1.4,0.8C14,46.3,13.9,46.8,14,47.4C14,47.4,14,47.4,14,47.4z"/>
	<path class="st0" d="M19.3,36.8c0.3,0.5,0.8,1,1.6,1c0.3,0,0.6-0.1,0.9-0.2c3.1-1.1,5.8-2.7,7.9-4.7c0.6-0.5,0.7-1.2,0.8-1.6
		c0-0.5-0.2-0.9-0.4-1.2c-0.4-0.5-1-0.8-1.7-0.8c-0.5,0-1,0.1-1.4,0.4c-0.5,0.3-0.9,0.6-1.3,0.9c-1.7,1.1-3.5,2.3-5.5,3.2
		c-0.6,0.2-1,0.7-1.2,1.2c-0.2,0.5-0.2,1,0.1,1.5C19.3,36.6,19.3,36.7,19.3,36.8z"/>
	<path class="st0" d="M25.6,76.7c0.7-0.2,1.9-0.8,1.4-2.4c-0.3-1.1-1-1.7-2-1.7c-0.2,0-0.3,0-0.5,0c-1.7,0.3-3.4,0.6-5.3,1
		c-1.2,0.2-1.8,1-1.8,2.2c0,0,0,0,0,0.1c0,0.3,0.1,0.6,0.3,0.9c0.4,0.6,1.3,1.1,2.5,1.1c0.4-0.1,0.9-0.2,1.4-0.3
		C22.9,77.3,24.3,77.1,25.6,76.7z"/>
	<g>
		<g>
			<g>
				<path class="st1" d="M48.9,69.9c0.2-0.4,0.5-1.2-0.2-1.9c-0.3-0.2-0.5-0.3-0.9-0.3c-0.5,0-0.9,0.3-1.2,0.5
					c-0.1,0.1-0.2,0.1-0.2,0.2c-3.4,2.1-6.5,3.6-9.6,4.9c-0.6,0.2-1.2,0.4-1.7,0.4c-0.9,0-1.5-0.4-1.8-1.2c-0.2-0.5-0.3-1-0.1-1.5
					c0.3-0.6,0.9-1.2,1.8-1.6c6.6-2.8,12.6-6.5,18.1-11.2V58c0-4.4,3.2-7.9,7.4-8.5c0.8-2.6,0.2-5.3-1.8-7.2
					c-1.4-1.4-3.3-2.2-5.4-2.2c-2.1,0-4.1,0.9-5.5,2.4c-8.9,9.8-20.2,15.5-33.6,16.8c-0.6,0.1-1.2,0.1-1.9,0.1c-0.5,0-1,0-1.6,0
					c-0.9,0-1.5-0.4-1.8-0.9c0.7,2.1,2.4,5.2,4,8.1c0.1,0.1,0.2,0.3,0.2,0.4v-0.1c-0.1-1,0.1-2.1,2.5-2.3c8-0.8,15.8-3.3,23.1-7.5
					c0.4-0.3,0.9-0.4,1.3-0.4c0.7,0,1.3,0.4,1.7,1c0.6,1.1,0.2,2.3-1.1,3.1c-6.2,3.9-13.3,6.3-21.5,7.6c-0.8,0.1-1.5,0.2-2.1,0.3
					l-0.6,0.1h-0.1c-1.3,0-2.1-0.2-2.5-0.5c1.5,2.8,2.9,5.5,3.6,7.6v0.1c0-1.2,0.6-2,1.8-2.2c1.9-0.4,3.7-0.7,5.3-1
					c0.2,0,0.4,0,0.5,0c1,0,1.7,0.6,2,1.7c0.4,1.6-0.7,2.2-1.4,2.4c-1.4,0.4-2.8,0.7-4.1,0.9c-0.4,0-0.8,0.1-1.2,0.1
					c-1.1,0-2-0.4-2.5-1.1c1.2,3.7,2.2,6.5,2.6,7.6h0.1c-0.1-1.1,0.7-1.9,2-2.2c3.9-0.8,7.9-1.6,11.7-3.1c0.3-0.1,0.7-0.3,1-0.4
					c0.6-0.3,1.1-0.5,1.7-0.7c0.5-0.2,1-0.3,1.4-0.3c0.4,0,1.7,0,2,2.2c0.4,3,0.8,6.2,0.9,9.8c0.1,2.2,0.3,4.6,0.6,7.1
					c0.2,1.5-0.4,2.5-1.6,2.8l0,0c1.4-0.1,4.8-0.2,7.3-0.2c0.6,0,1,0,1.5,0c-0.5-0.3-1-0.7-1.2-1.4c-0.5-2-0.9-4-1.2-6
					c-0.2-1.5-0.3-3.1-0.4-4.5c0-0.6-0.1-1.1-0.1-1.7c0.2-6.2,1.1-11.2,2.6-15.8C48.8,70.1,48.8,70,48.9,69.9z M47.9,50.1
					c1.2-1.2,2.5-2.6,4.1-4.1c0.4-0.4,0.8-0.6,1.4-0.6c0.3,0,0.7,0.1,1.1,0.2c0.8,0.3,1.1,1,1.1,1.3c0,1.1-0.1,1.5-0.4,1.8
					c-1.6,1.9-3,3.3-4.4,4.4c-0.4,0.3-0.9,0.5-1.4,0.5c-0.6,0-1.2-0.3-1.5-0.7C46.9,51.9,47,51,47.9,50.1z"/>
				<path class="st1" d="M53.1,92.3V70.9c-2.8,7.9-3.3,16.3-1.5,24.7c0,0.2,0.1,0.4,0.1,0.6c0.1,0.3,0.1,0.6,0.2,0.8
					c0.2,1.2-0.4,2.2-1.5,2.6c0.1,0,0.1,0,0.2,0c0.4,0.1,1.5,0.1,4.9,0.1l0,0c0.6,0,1.2,0,1.8,0C54.8,98.1,53.1,95.5,53.1,92.3z"/>
				<path class="st1" d="M10.7,55.2c0.9-0.1,1.7-0.2,2.6-0.3c3.2-0.3,6.3-0.7,9.5-1.6c8.4-2.5,15.8-7,21.7-13.5
					c2.6-2.8,5.5-4.2,8.7-4.2c1.1,0,2.2,0.2,3.3,0.4c3.7,0.9,6.5,3.5,7.8,7c0.8,2,1,4.2,0.6,6.2h5.4c0.2-1.5,0.1-3-0.1-4.5l-0.1-0.7
					c-0.1-0.4-0.1-0.8-0.2-1.2c-0.1-1.3,0.4-2.1,1.7-2.4c0.2-0.1,0.4-0.1,0.6-0.1c0.8,0,1.4,0.5,1.8,1.4c0.5,1.2,0.6,2.5,0.6,3.6
					c0,0.6,0.1,1.1,0.2,1.7c0,0.7-0.1,1.5-0.1,2.1H80c0-0.2,0-0.4,0-0.5c0-0.3,0-0.6,0-0.9C80.6,37,73.4,26,63.1,22.3l-0.2,0.2
					c-0.5-0.2-0.9-0.3-1.2-0.6c-1.2-0.9-1.2-1.6-1-2.3c-2.3-0.5-4.6-0.8-6.8-0.9c0,0.4-0.2,0.8-0.6,1.3c-0.3,0.4-0.8,0.6-1.6,0.6
					c-5.2,0.5-9.9,2.3-14,5.1c-0.5,0.3-1,0.5-1.5,0.5c-0.7,0-1.3-0.3-1.6-0.9c-1.2,2.2-2.7,3.7-4.3,4.9c0.2,0.3,0.4,0.7,0.4,1.2
					c0,0.4-0.2,1.1-0.8,1.6c-2.3,2-4.9,3.6-7.9,4.7c-0.3,0.1-0.6,0.2-0.9,0.2c-0.8,0-1.3-0.5-1.6-1c-3.1,3.3-4.4,6.9-5,9
					c0.4-0.5,0.9-0.7,1.4-0.8c4-0.8,7.4-1.9,10.6-3.4c0.3-0.1,0.7-0.2,1-0.2c0.9,0,1.4,0.7,1.7,1.2c0.6,1.1,0.3,2.1-0.8,2.7
					c-3.5,1.8-7.3,3.1-11.4,3.7c-1.6,0-2.7-0.6-2.8-1.7l0,0v0.2l-0.1,0.1c-3.3,4.3-4.5,7-5,8.3C9.3,55.7,9.8,55.3,10.7,55.2z
					 M34.7,36.2c4.1-5.1,8.2-8,13-9.3c1.9-0.5,3.9-0.8,5.8-0.9c5.3,0.3,9.7,1.9,13.4,4.9c1.1,0.9,1.5,1.6,1.3,2.6S67.2,35,66.2,35
					c-0.5,0-1.1-0.2-1.6-0.6c-2.2-1.6-4.8-3.3-7.9-3.8c-1.2-0.2-2.4-0.3-3.5-0.3c-4.5,0-8.4,1.7-11.9,5c-0.5,0.5-1,1-1.5,1.5
					c-0.7,0.7-1.4,1.4-2.1,2.1c-0.5,0.4-0.9,0.6-1.4,0.6c-0.5,0-0.9-0.2-1.3-0.6C34.1,38,34,37.1,34.7,36.2z"/>
			</g>
		</g>
		<path class="st0" d="M60.5,49.4c0.4-0.1,0.8-0.1,1.3-0.1h3.2c0.4-2,0.2-4.2-0.6-6.2c-1.4-3.6-4.3-6.2-7.8-7
			c-1.1-0.3-2.3-0.4-3.3-0.4c-3.3,0-6.2,1.4-8.7,4.2c-6,6.4-13.2,11-21.7,13.5c-3.2,0.9-6.3,1.3-9.5,1.6c-0.9,0.1-1.7,0.2-2.6,0.3
			c-0.9,0.1-1.4,0.4-1.7,1c-0.1,0.4-0.2,0.6-0.2,0.8s0,0.2,0,0.2l0,0l0,0l0,0c0,0.4,0.1,0.7,0.3,1c0.3,0.6,0.9,0.9,1.8,0.9
			c0.5,0,1,0,1.6,0c0.7,0,1.3,0,1.9-0.1C27.7,57.8,39,52.1,48,42.3c1.4-1.6,3.4-2.4,5.5-2.4c2,0,3.9,0.8,5.4,2.2
			C60.7,44.3,61.3,47,60.5,49.4z"/>
		<path class="st0" d="M33.2,71c-0.2,0.5-0.2,1,0.1,1.5c0.4,0.8,0.9,1.2,1.8,1.2c0.5,0,1.1-0.1,1.7-0.4c3.1-1.2,6.2-2.8,9.6-4.9
			c0.1,0,0.2-0.1,0.2-0.2c0.3-0.2,0.7-0.5,1.2-0.5c0.3,0,0.6,0.1,0.9,0.3c0.7,0.6,0.3,1.5,0.2,1.9c0,0.1-0.1,0.2-0.1,0.3
			c-1.5,4.6-2.3,9.6-2.6,15.8c0,0.5,0.1,1.1,0.1,1.7c0.1,1.4,0.2,2.9,0.4,4.5c0.3,2,0.7,4.1,1.2,6c0.2,0.7,0.6,1.2,1.2,1.4
			c0.3,0.1,0.5,0.2,0.8,0.2c0.2,0,0.4,0,0.6-0.1h0.1c1.1-0.3,1.7-1.3,1.5-2.6c0-0.3-0.1-0.6-0.2-0.8c0-0.2-0.1-0.4-0.1-0.6
			c-1.9-8.4-1.4-16.8,1.4-24.7V58.2c-5.4,4.7-11.4,8.4-18.1,11.2C34.1,69.8,33.5,70.4,33.2,71z"/>
		<path class="st0" d="M79.9,48.8c0,0.2,0,0.4,0,0.5h1.7h2.8c0.8-12.2-6.2-24.3-17.2-29.7c-1.3-0.7-2.7-1.3-4.2-1.5
			c-0.1,0-0.3,0-0.4,0c-0.9,0-1.5,0.4-1.9,1.4c0,0.1,0,0.1-0.1,0.2c-0.2,0.6-0.2,1.4,1,2.3c0.3,0.2,0.8,0.4,1.2,0.6l0.1,0.1
			c10.2,3.8,17.5,14.8,16.9,25.5C79.9,48.2,79.9,48.5,79.9,48.8z"/>
		<path class="st0" d="M36.4,39.4c0.5,0,0.9-0.2,1.4-0.6c0.7-0.6,1.4-1.4,2.1-2.1c0.5-0.5,1-1,1.5-1.5c3.5-3.3,7.4-5,11.9-5
			c1.1,0,2.3,0.1,3.5,0.3c3.2,0.6,5.9,2.3,7.9,3.8c0.5,0.4,1.1,0.6,1.6,0.6c1,0,1.7-0.6,1.9-1.6c0.2-1-0.2-1.7-1.3-2.6
			c-3.7-3-8.1-4.7-13.4-4.9c-2,0.1-3.9,0.4-5.8,0.9c-4.8,1.3-8.9,4.3-13,9.3C34,37,34.1,37.9,35,38.7C35.5,39.2,35.9,39.4,36.4,39.4
			z"/>
		<path class="st0" d="M40.2,79.9c-0.3-2.2-1.6-2.2-2-2.2c-0.4,0-0.9,0.1-1.4,0.3c-0.6,0.2-1.2,0.5-1.7,0.7c-0.3,0.2-0.7,0.3-1,0.4
			c-3.8,1.6-7.8,2.4-11.7,3.1c-1.3,0.3-2,1.1-2,2.2v0.1c0.1,1.2,1,1.9,2.4,1.9c3.3-0.5,7-1.3,10.6-2.6c0.6-0.2,1-0.3,1.4-0.3
			c1.5,0,1.7,1.6,1.8,2.3c0.1,1.4,0.2,2.7,0.3,4.1c0.1,2.5,0.3,5.1,0.8,7.6c0.3,1.3,1.1,2.2,2.1,2.2c0.1,0,0.2,0,0.4,0h0.1
			c1.2-0.3,1.7-1.3,1.6-2.8c-0.3-2.6-0.5-4.9-0.6-7.1C40.9,86,40.6,82.9,40.2,79.9z"/>
		<path class="st0" d="M40.6,60.6c1.3-0.8,1.7-2,1.1-3.1c-0.4-0.7-1-1-1.7-1c-0.4,0-0.9,0.1-1.3,0.4c-7.2,4.2-15.1,6.7-23.1,7.5
			c-2.3,0.2-2.5,1.4-2.5,2.3v0.1c0,0.5,0.2,0.9,0.7,1.3c0.5,0.3,1.2,0.5,2.5,0.5h0.1l0.6-0.1c0.6-0.1,1.3-0.2,2.1-0.3
			C27.3,67,34.3,64.4,40.6,60.6z"/>
		<path class="st0" d="M74.7,47.3c-0.1-0.5-0.1-1.1-0.2-1.7c-0.1-1.1-0.1-2.4-0.6-3.6c-0.4-1-1-1.4-1.8-1.4c-0.2,0-0.4,0-0.6,0.1
			c-1.2,0.3-1.8,1.1-1.7,2.4c0,0.4,0.1,0.8,0.2,1.2l0.1,0.7c0.2,1.6,0.3,3.1,0.1,4.5h4.3C74.6,48.6,74.7,47.9,74.7,47.3z"/>
		<path class="st0" d="M36.1,26.3c0.5,0,1-0.2,1.5-0.5c4.2-2.9,8.8-4.6,14-5.1c0.8-0.1,1.3-0.3,1.6-0.6c0.4-0.4,0.6-0.9,0.6-1.3
			c0-0.3,0-0.6-0.2-0.9c-0.4-0.9-1.1-1.3-2.3-1.3c-0.2,0-0.3,0-0.5,0c-5.8,0.5-10.9,2.4-15.6,5.8c-1,0.7-1.4,2.1-0.8,3.1
			C34.8,25.9,35.4,26.3,36.1,26.3z"/>
		<path class="st0" d="M54.3,45.7c-0.4-0.2-0.8-0.2-1.1-0.2c-0.5,0-1,0.2-1.4,0.6c-1.6,1.6-2.9,2.9-4.1,4.1C46.9,51,46.9,52,47.6,53
			c0.4,0.5,0.9,0.7,1.5,0.7c0.5,0,1-0.2,1.4-0.5c1.4-1.1,2.9-2.5,4.4-4.4c0.3-0.3,0.4-0.7,0.4-1.8C55.4,46.7,55.1,46.1,54.3,45.7z"
			/>
		<g>
			<path class="st1" d="M92.5,65.1H61.8l-0.2,9.4c0,1,5.4,11.4,6.5,11.4h31.3c-5.2-8.7-6.4-15.5-6.4-16.6L92.5,65.1z"/>
			<path class="st1" d="M60.5,87.7c0-0.1,0.7-10.3,0.7-10.3h1.2l6.1,8.7h24.4v3.5c0,0.8-0.9,1.4-2,1.4h-28c-1.2,0-2-0.6-2-1.4v-1.9
				C60.6,87.8,60.5,87.7,60.5,87.7z"/>
			<path class="st0" d="M60.9,93.2c-0.9,0-1.7-0.8-1.7-1.9V57.1c0-1,0.8-1.9,1.7-1.9H69v-0.7c0-1,0.8-1.9,1.7-1.9s1.7,0.8,1.7,1.9
				v0.7h8.8v-0.7c0-1,0.8-1.9,1.7-1.9c0.9,0,1.7,0.8,1.7,1.9v0.7h8.2c0.9,0,1.7,0.8,1.7,1.9V65c0,9.2,3.5,16.6,6.7,19.6
				c0.6,0.5,0.8,1.4,0.5,2.1c-0.2,0.7-0.9,1.2-1.6,1.2h-5.6v3.4c0,1-0.8,1.9-1.7,1.9H60.9z M91,89.4v-1.5H68.2
				c-0.4,0-0.8-0.2-1.1-0.4c-1.3-1.2-3.1-3.5-4.5-6.5v8.5H91z M96.3,84.1c-3.1-4.6-4.9-10.7-5.2-17.2H62.6c0.3,7,2.6,13.4,6.2,17.2
				H96.3z M91,63.1V59h-6.4v0.7c0,1-0.8,1.9-1.7,1.9c-0.9,0-1.7-0.8-1.7-1.9V59h-8.8v0.7c0,1-0.8,1.9-1.7,1.9S69,60.8,69,59.8V59
				h-6.3v4.1H91z"/>
		</g>
	</g>
</g>
</svg>
