<?xml version="1.0" encoding="utf-8"?>
<!-- Generator: Adobe Illustrator 22.1.0, SVG Export Plug-In . SVG Version: 6.00 Build 0)  -->
<svg version="1.1" id="Layer_1" xmlns="http://www.w3.org/2000/svg" xmlns:xlink="http://www.w3.org/1999/xlink" x="0px" y="0px"
	 viewBox="0 0 107 107" style="enable-background:new 0 0 107 107;" xml:space="preserve">
<style type="text/css">
	.st0{fill:#FFFFFF;}
	.st1{fill:#F8DBC5;}
	.st2{fill:#DC8E6C;}
</style>
<g>
	<path class="st0" d="M96.8,60.4c0-1.5-1.2-2.5-2.7-2.5h-31c-1.6,0-2.7,1-2.7,2.5v6.3h36.4V60.4z"/>
	<g>
		<path class="st1" d="M61.4,91.3c0,1.3,1.1,2.2,2.6,2.2h29.1c1.5,0,2.6-0.9,2.6-2.2V69.9H61.4V91.3z"/>
		<g>
			<path class="st2" d="M93.5,54.9H63.6c-3.5,0-6.4,2.4-6.4,5.5v31.1c0,3.1,2.9,5.5,6.4,5.5h29.9c3.5,0,6.4-2.4,6.4-5.5V60.4
				C99.9,57.5,97,54.9,93.5,54.9z M61.4,60.8c0-1.3,1.1-2.2,2.6-2.2h29.1c1.5,0,2.6,0.9,2.6,2.2v5.5H61.4V60.8z M95.7,91.3
				c0,1.3-1.1,2.2-2.6,2.2H64c-1.5,0-2.6-0.9-2.6-2.2V69.9h34.3V91.3z"/>
			<g>
				<path class="st2" d="M86.2,63.1h-0.4c-1.1,0-2-0.9-2-2v-8.6c0-1.1,0.9-2,2-2h0.4c1.1,0,2,0.9,2,2v8.6
					C88.2,62.4,87.3,63.1,86.2,63.1z"/>
				<path class="st2" d="M71.8,63.1h-0.4c-1.1,0-2-0.9-2-2v-8.6c0-1.1,0.9-2,2-2h0.4c1.1,0,2,0.9,2,2v8.6
					C73.8,62.4,72.9,63.1,71.8,63.1z"/>
			</g>
		</g>
		<path class="st2" d="M77.3,88.4c-0.4-0.1-0.7-0.2-1.1-0.4c-1-0.5-1.6-1.4-2.4-2.1c-0.9-0.8-1.7-1.7-2.6-2.6c-1-1-1-1.8,0-2.7
			c0.6-0.6,1.8-0.6,2.7,0c1,1,1.8,1.8,2.7,2.7c0.6,0.6,0.6,0.6,1.6,0c2.5-2.5,5.3-5.3,7.6-7.6c1-1,2.5-1,3.1,0.4
			c0.4,0.6,0.4,1.6-0.4,2.5c-2.7,2.7-5.3,5.3-8,8c-0.5,0.5-1,1.1-1.6,1.5C78.5,88.4,77.9,88.5,77.3,88.4z"/>
	</g>
	<path class="st1" d="M47.5,70c0.2-0.4,0.5-1.2-0.2-1.9c-0.3-0.2-0.5-0.3-0.9-0.3c-0.5,0-0.9,0.3-1.2,0.5c-0.1,0.1-0.2,0.1-0.2,0.2
		c-3.4,2.1-6.6,3.6-9.7,4.9c-0.6,0.2-1.2,0.4-1.7,0.4c-0.9,0-1.5-0.4-1.8-1.2c-0.2-0.5-0.3-1-0.1-1.5c0.3-0.6,0.9-1.2,1.8-1.6
		c6.7-2.8,12.7-6.6,18.2-11.3V58c0-4.4,3.2-8,7.5-8.6c0.8-2.6,0.2-5.3-1.8-7.3c-1.4-1.4-3.3-2.2-5.4-2.2c-2.1,0-4.1,0.9-5.5,2.4
		c-9,9.9-20.4,15.6-33.9,16.9c-0.6,0.1-1.2,0.1-1.9,0.1c-0.5,0-1,0-1.6,0c-0.9,0-1.5-0.4-1.8-0.9c0.7,2.1,2.4,5.2,4,8.2
		c0.1,0.1,0.2,0.3,0.2,0.4c0,0,0-0.1,0-0.1c-0.1-1,0.1-2.1,2.5-2.3c8.1-0.8,15.9-3.3,23.3-7.6c0.4-0.3,0.9-0.4,1.3-0.4
		c0.7,0,1.3,0.4,1.7,1c0.6,1.1,0.2,2.3-1.1,3.1c-6.3,3.9-13.4,6.4-21.7,7.7c-0.8,0.1-1.5,0.2-2.1,0.3l-0.6,0.1l-0.1,0
		c-1.3,0-2.1-0.2-2.5-0.5c1.5,2.8,2.9,5.5,3.6,7.7c0,0,0,0.1,0,0.1c0-1.2,0.6-2,1.8-2.2c1.9-0.4,3.7-0.7,5.3-1c0.2,0,0.4,0,0.5,0
		c1,0,1.7,0.6,2,1.7c0.4,1.6-0.7,2.2-1.4,2.4c-1.4,0.4-2.8,0.7-4.1,0.9c-0.5,0.1-0.9,0.2-1.4,0.3c-1.1,0-2-0.4-2.5-1.1
		c1.2,3.7,2.2,6.6,2.6,7.7l0.1,0c-0.1-1.1,0.7-1.9,2-2.2c3.9-0.8,8-1.6,11.8-3.1c0.3-0.1,0.7-0.3,1-0.4c0.6-0.3,1.1-0.5,1.7-0.7
		c0.5-0.2,1-0.3,1.4-0.3c0.4,0,1.7,0,2,2.2c0.4,3,0.8,6.3,0.9,9.9c0.1,2.2,0.3,4.6,0.6,7.2c0.2,1.5-0.4,2.5-1.6,2.8l0,0
		c1.4-0.1,4.8-0.2,7.4-0.2c0.6,0,1,0,1.5,0c-0.5-0.3-1-0.7-1.2-1.4c-0.5-2-0.9-4-1.2-6c-0.2-1.5-0.3-3.1-0.4-4.5
		c0-0.6-0.1-1.1-0.1-1.7c0.2-6.2,1.1-11.3,2.6-15.9C47.4,70.2,47.5,70.1,47.5,70z M46.5,50c1.2-1.2,2.5-2.6,4.1-4.1
		c0.4-0.4,0.8-0.6,1.4-0.6c0.3,0,0.7,0.1,1.1,0.2c0.8,0.3,1.1,1,1.1,1.3c0,1.1-0.1,1.5-0.4,1.8c-1.6,1.9-3,3.3-4.4,4.4
		c-0.4,0.3-0.9,0.5-1.4,0.5c-0.6,0-1.2-0.3-1.5-0.7C45.6,51.9,45.6,50.9,46.5,50z"/>
	<path class="st1" d="M51.8,92.5V71c-2.8,8-3.3,16.4-1.5,24.9c0,0.2,0.1,0.4,0.1,0.6c0.1,0.3,0.1,0.6,0.2,0.8
		c0.2,1.2-0.4,2.2-1.5,2.6c0.1,0,0.1,0,0.2,0c0.4,0.1,1.5,0.1,4.9,0.1c0,0,0,0,0,0c0.6,0,1.2,0,1.8,0C53.5,98.5,51.8,95.7,51.8,92.5
		z"/>
	<path class="st1" d="M9,55.2c0.9-0.1,1.7-0.2,2.6-0.3c3.2-0.3,6.4-0.7,9.6-1.6c8.5-2.5,15.9-7.1,21.9-13.6c2.6-2.8,5.5-4.2,8.8-4.2
		c1.1,0,2.2,0.2,3.3,0.4c3.7,0.9,6.6,3.5,7.9,7.1c0.8,2,1,4.2,0.6,6.2h5.4c0.2-1.5,0.1-3-0.1-4.5L69,44.1c-0.1-0.4-0.1-0.8-0.2-1.2
		c-0.1-1.3,0.4-2.1,1.7-2.4c0.2-0.1,0.4-0.1,0.6-0.1c0.8,0,1.4,0.5,1.8,1.4c0.5,1.2,0.6,2.5,0.6,3.6c0,0.6,0.1,1.1,0.2,1.7
		c0,0.7-0.1,1.5-0.1,2.1h5.4c0-0.2,0-0.4,0-0.5c0-0.3,0-0.6,0-0.9c0.6-10.8-6.7-21.9-17-25.7l-0.1-0.1c-0.5-0.2-0.9-0.3-1.2-0.6
		c-1.2-0.9-1.2-1.6-1-2.3c-2.3-0.5-4.6-0.8-6.9-0.9c0,0.4-0.2,0.8-0.6,1.3c-0.3,0.4-0.8,0.6-1.6,0.6c-5.2,0.5-10,2.3-14.1,5.1
		c-0.5,0.3-1,0.5-1.5,0.5c-0.7,0-1.3-0.3-1.6-0.9c-1.2,2.2-2.7,3.7-4.3,4.9c0.2,0.3,0.4,0.7,0.4,1.2c0,0.4-0.2,1.1-0.8,1.6
		c-2.3,2-4.9,3.6-8,4.7c-0.3,0.1-0.6,0.2-0.9,0.2c-0.8,0-1.3-0.5-1.6-1c-3.1,3.3-4.4,7-5,9.1c0.4-0.5,0.9-0.7,1.4-0.8
		c4-0.8,7.5-1.9,10.7-3.4c0.3-0.1,0.7-0.2,1-0.2c0.9,0,1.4,0.7,1.7,1.2c0.6,1.1,0.3,2.1-0.8,2.7c-3.5,1.8-7.4,3.1-11.5,3.7
		c-1.6,0-2.7-0.6-2.8-1.7c0,0,0,0,0,0l0,0.2l-0.1,0.1c-3.3,4.3-4.5,7.1-5,8.4C7.6,55.6,8.2,55.3,9,55.2z M33.3,36
		c4.1-5.1,8.3-8.1,13.1-9.4c1.9-0.5,3.9-0.8,5.8-0.9c5.3,0.3,9.8,1.9,13.5,4.9c1.1,0.9,1.5,1.6,1.3,2.6c-0.2,1-0.9,1.6-1.9,1.6
		c-0.5,0-1.1-0.2-1.6-0.6c-2.2-1.6-4.8-3.3-8-3.8c-1.2-0.2-2.4-0.3-3.5-0.3c-4.5,0-8.5,1.7-12,5c-0.5,0.5-1,1-1.5,1.5
		c-0.7,0.7-1.4,1.4-2.1,2.1c-0.5,0.4-0.9,0.6-1.4,0.6c-0.5,0-0.9-0.2-1.3-0.6C32.7,37.8,32.6,36.9,33.3,36z"/>
	<g>
		<path class="st2" d="M59.3,49.4c0.4-0.1,0.8-0.1,1.3-0.1h3.3c0.4-2,0.2-4.2-0.6-6.2c-1.4-3.6-4.3-6.2-7.9-7.1
			c-1.1-0.3-2.3-0.4-3.3-0.4c-3.3,0-6.2,1.4-8.8,4.2c-6,6.5-13.3,11.1-21.9,13.6c-3.2,0.9-6.4,1.3-9.6,1.6C10.8,55,9.9,55.1,9,55.2
			c-0.9,0.1-1.4,0.4-1.7,1c-0.1,0.4-0.2,0.6-0.2,0.8c0,0.2,0,0.2,0,0.2c0,0,0,0,0,0c0,0,0,0,0,0c0,0,0,0,0,0c0,0.4,0.1,0.7,0.3,1
			c0.3,0.6,0.9,0.9,1.8,0.9c0.5,0,1,0,1.6,0c0.7,0,1.3,0,1.9-0.1c13.5-1.3,24.9-7,33.9-16.9c1.4-1.6,3.4-2.4,5.5-2.4
			c2,0,3.9,0.8,5.4,2.2C59.5,44.1,60.1,46.8,59.3,49.4z"/>
		<path class="st2" d="M31.8,71c-0.2,0.5-0.2,1,0.1,1.5c0.4,0.8,0.9,1.2,1.8,1.2c0.5,0,1.1-0.1,1.7-0.4c3.1-1.2,6.2-2.8,9.7-4.9
			c0.1,0,0.2-0.1,0.2-0.2c0.3-0.2,0.7-0.5,1.2-0.5c0.3,0,0.6,0.1,0.9,0.3c0.7,0.6,0.3,1.5,0.2,1.9c0,0.1-0.1,0.2-0.1,0.3
			c-1.5,4.6-2.3,9.7-2.6,15.9c0,0.5,0.1,1.1,0.1,1.7c0.1,1.4,0.2,2.9,0.4,4.5c0.3,2,0.7,4.1,1.2,6c0.2,0.7,0.6,1.2,1.2,1.4
			c0.3,0.1,0.5,0.2,0.8,0.2c0.2,0,0.4,0,0.6-0.1c0,0,0.1,0,0.1,0c1.1-0.3,1.7-1.3,1.5-2.6c0-0.3-0.1-0.6-0.2-0.8
			c0-0.2-0.1-0.4-0.1-0.6C48.6,87.3,49.1,79,51.8,71V58.2c-5.4,4.7-11.5,8.5-18.2,11.3C32.7,69.9,32.1,70.4,31.8,71z"/>
		<path class="st2" d="M23.1,24.3c0.6,0,1.3-0.3,1.9-0.9c0.5-0.5,1-0.9,1.4-1.4l0.4-0.4c6.4-6.4,15.6-10.1,25.2-10.1
			c5.4,0,10.8,1.2,15.4,3.4c0.6,0.3,1.2,0.6,1.7,0.9c0.7,0.4,1.5,0.8,2.3,1.1c0.3,0.1,0.6,0.2,0.9,0.2c0.6,0,1.1-0.2,1.5-0.6
			c0.4-0.4,0.6-0.9,0.6-1.4c0-0.9-0.4-1.6-2.6-2.8C65.5,8.7,58.8,7,52.2,7c-5.2,0-10.4,1.1-15.7,3.1C30.9,12.4,26,15.8,22,20.4
			c-0.6,0.7-1.5,2.1-0.2,3.3C22.2,24.1,22.6,24.3,23.1,24.3z"/>
		<path class="st2" d="M78.9,48.7c0,0.2,0,0.4,0,0.5h1.7h2.8C84.1,37,77.1,24.8,66,19.3c-1.3-0.7-2.7-1.3-4.2-1.5
			c-0.1,0-0.3,0-0.4,0c-0.9,0-1.5,0.4-1.9,1.4c0,0.1,0,0.1-0.1,0.2c-0.2,0.6-0.2,1.4,1,2.3c0.3,0.2,0.8,0.4,1.2,0.6l0.1,0.1
			c10.3,3.8,17.6,14.9,17,25.7C78.9,48.1,78.9,48.4,78.9,48.7z"/>
		<path class="st2" d="M35,39.3c0.5,0,0.9-0.2,1.4-0.6c0.7-0.6,1.4-1.4,2.1-2.1c0.5-0.5,1-1,1.5-1.5c3.5-3.3,7.5-5,12-5
			c1.1,0,2.3,0.1,3.5,0.3c3.2,0.6,5.9,2.3,8,3.8c0.5,0.4,1.1,0.6,1.6,0.6c1,0,1.7-0.6,1.9-1.6c0.2-1-0.2-1.7-1.3-2.6
			c-3.7-3-8.2-4.7-13.5-4.9c-2,0.1-3.9,0.4-5.8,0.9c-4.8,1.3-9,4.3-13.1,9.4c-0.7,0.9-0.6,1.8,0.3,2.6C34.1,39.1,34.5,39.3,35,39.3z
			"/>
		<path class="st2" d="M38.8,80c-0.3-2.2-1.6-2.2-2-2.2c-0.4,0-0.9,0.1-1.4,0.3c-0.6,0.2-1.2,0.5-1.7,0.7c-0.3,0.2-0.7,0.3-1,0.4
			c-3.8,1.6-7.9,2.4-11.8,3.1c-1.3,0.3-2,1.1-2,2.2c0,0,0,0.1,0,0.1c0.1,1.2,1,1.9,2.4,1.9c3.3-0.5,7.1-1.3,10.7-2.6
			c0.6-0.2,1-0.3,1.4-0.3c1.5,0,1.7,1.6,1.8,2.3c0.1,1.4,0.2,2.7,0.3,4.1c0.1,2.5,0.3,5.1,0.8,7.7c0.3,1.3,1.1,2.2,2.1,2.2
			c0.1,0,0.2,0,0.4,0c0,0,0.1,0,0.1,0c1.2-0.3,1.7-1.3,1.6-2.8c-0.3-2.6-0.5-4.9-0.6-7.2C39.6,86.3,39.3,83.1,38.8,80z"/>
		<path class="st2" d="M39.2,60.6c1.3-0.8,1.7-2,1.1-3.1c-0.4-0.7-1-1-1.7-1c-0.4,0-0.9,0.1-1.3,0.4c-7.3,4.2-15.2,6.8-23.3,7.6
			c-2.3,0.2-2.5,1.4-2.5,2.3c0,0,0,0.1,0,0.1c0,0.5,0.2,0.9,0.7,1.3c0.5,0.3,1.2,0.5,2.5,0.5l0.1,0l0.6-0.1c0.6-0.1,1.3-0.2,2.1-0.3
			C25.8,67,32.9,64.5,39.2,60.6z"/>
		<path class="st2" d="M73.7,47.1c-0.1-0.5-0.1-1.1-0.2-1.7c-0.1-1.1-0.1-2.4-0.6-3.6c-0.4-1-1-1.4-1.8-1.4c-0.2,0-0.4,0-0.6,0.1
			c-1.2,0.3-1.8,1.1-1.7,2.4c0,0.4,0.1,0.8,0.2,1.2l0.1,0.7c0.2,1.6,0.3,3.1,0.1,4.5h4.3C73.6,48.6,73.6,47.9,73.7,47.1z"/>
		<path class="st2" d="M34.7,26c0.5,0,1-0.2,1.5-0.5c4.2-2.9,8.9-4.6,14.1-5.1c0.8-0.1,1.3-0.3,1.6-0.6c0.4-0.4,0.6-0.9,0.6-1.3
			c0-0.3,0-0.6-0.2-0.9c-0.4-0.9-1.1-1.3-2.3-1.3c-0.2,0-0.3,0-0.5,0c-5.8,0.5-11,2.4-15.7,5.8c-1,0.7-1.4,2.1-0.8,3.1
			C33.4,25.7,34,26,34.7,26z"/>
		<path class="st2" d="M12.5,47.4c0.2,1,1.2,1.7,2.8,1.7c4.1-0.6,8-1.9,11.5-3.7c1.1-0.6,1.4-1.6,0.8-2.7c-0.3-0.6-0.8-1.2-1.7-1.2
			c-0.3,0-0.6,0.1-1,0.2c-3.3,1.5-6.8,2.6-10.7,3.4c-0.5,0.1-1.1,0.3-1.4,0.8c-0.3,0.3-0.4,0.8-0.4,1.5
			C12.4,47.3,12.5,47.3,12.5,47.4z"/>
		<path class="st2" d="M17.8,36.6c0.3,0.5,0.8,1,1.6,1c0.3,0,0.6-0.1,0.9-0.2c3.1-1.1,5.8-2.7,8-4.7c0.6-0.5,0.7-1.2,0.8-1.6
			c0-0.5-0.2-0.9-0.4-1.2c-0.4-0.5-1-0.8-1.7-0.8c-0.5,0-1,0.1-1.4,0.4c-0.5,0.3-0.9,0.6-1.3,0.9c-1.7,1.1-3.5,2.3-5.5,3.2
			c-0.6,0.2-1,0.7-1.2,1.2c-0.2,0.5-0.2,1,0.1,1.5C17.7,36.5,17.8,36.6,17.8,36.6z"/>
		<path class="st2" d="M53.1,45.6c-0.4-0.2-0.8-0.2-1.1-0.2c-0.5,0-1,0.2-1.4,0.6c-1.6,1.6-2.9,2.9-4.1,4.1
			c-0.9,0.9-0.9,1.9-0.2,2.9c0.4,0.5,0.9,0.7,1.5,0.7c0.5,0,1-0.2,1.4-0.5c1.4-1.1,2.9-2.5,4.4-4.4c0.3-0.3,0.4-0.7,0.4-1.8
			C54.1,46.6,53.9,45.9,53.1,45.6z"/>
		<path class="st2" d="M24.2,76.8c0.7-0.2,1.9-0.8,1.4-2.4c-0.3-1.1-1-1.7-2-1.7c-0.2,0-0.3,0-0.5,0c-1.7,0.3-3.4,0.6-5.3,1
			c-1.2,0.2-1.8,1-1.8,2.2c0,0,0,0,0,0.1c0,0.3,0.1,0.6,0.3,0.9c0.4,0.6,1.3,1.1,2.5,1.1c0.4-0.1,0.9-0.2,1.4-0.3
			C21.3,77.5,22.8,77.2,24.2,76.8z"/>
	</g>
</g>
</svg>
