<?xml version="1.0" encoding="utf-8"?>
<!-- Generator: Adobe Illustrator 22.1.0, SVG Export Plug-In . SVG Version: 6.00 Build 0)  -->
<svg version="1.1" id="Layer_1" xmlns="http://www.w3.org/2000/svg" xmlns:xlink="http://www.w3.org/1999/xlink" x="0px" y="0px"
	 viewBox="0 0 107 107" style="enable-background:new 0 0 107 107;" xml:space="preserve">
<style type="text/css">
	.st0{fill:#CFEDE2;}
	.st1{fill:#6CA68B;}
</style>
<g>
	<g>
		<path class="st0" d="M10.6,55.4c0.9-0.1,1.7-0.2,2.6-0.3c3.2-0.3,6.4-0.7,9.6-1.6c8.5-2.5,15.9-7.1,21.9-13.6
			c2.6-2.8,5.5-4.2,8.8-4.2c1.1,0,2.2,0.2,3.3,0.4c3.7,0.9,6.6,3.5,7.9,7.1c0.8,2,1,4.2,0.6,6.2h5.4c0.2-1.5,0.1-3-0.1-4.5l-0.1-0.7
			c-0.1-0.4-0.1-0.8-0.2-1.2c-0.1-1.3,0.4-2.1,1.7-2.4c0.2-0.1,0.4-0.1,0.6-0.1c0.8,0,1.4,0.5,1.8,1.4c0.5,1.2,0.6,2.5,0.6,3.6
			c0,0.6,0.1,1.1,0.2,1.7c0,0.7-0.1,1.5-0.1,2.1h5.4c0-0.2,0-0.4,0-0.5c0-0.3,0-0.6,0-0.9c0.6-10.8-6.7-21.9-17-25.7l-0.1-0.1
			c-0.5-0.2-0.9-0.3-1.2-0.6c-1.2-0.9-1.2-1.6-1-2.3c-2.3-0.5-4.6-0.8-6.9-0.9c0,0.4-0.2,0.8-0.6,1.3c-0.3,0.4-0.8,0.6-1.6,0.6
			c-5.2,0.5-10,2.3-14.1,5.1c-0.5,0.3-1,0.5-1.5,0.5c-0.7,0-1.3-0.3-1.6-0.9c-1.2,2.2-2.7,3.7-4.3,4.9c0.2,0.3,0.4,0.7,0.4,1.2
			c0,0.4-0.2,1.1-0.8,1.6c-2.3,2-5,3.6-8,4.7c-0.3,0.1-0.6,0.2-0.9,0.2c-0.8,0-1.3-0.5-1.6-1c-3.1,3.3-4.4,7-5,9.1
			c0.4-0.5,0.9-0.7,1.4-0.8c4-0.8,7.5-1.9,10.7-3.4c0.3-0.1,0.7-0.2,1-0.2c0.9,0,1.4,0.7,1.7,1.2c0.6,1.1,0.3,2.1-0.8,2.7
			c-3.5,1.8-7.4,3.1-11.5,3.7c-1.6,0-2.7-0.6-2.8-1.7c0,0,0,0,0,0l0,0.2l-0.1,0.1c-3.3,4.3-4.5,7.1-5,8.4
			C9.2,55.8,9.8,55.5,10.6,55.4z M34.9,36.2c4.1-5.1,8.3-8.1,13.1-9.4c1.9-0.5,3.9-0.8,5.8-0.9c5.3,0.3,9.8,1.9,13.5,4.9
			c1.1,0.9,1.5,1.6,1.3,2.6c-0.2,1-0.9,1.6-1.9,1.6c-0.5,0-1.1-0.2-1.6-0.6c-2.2-1.6-4.8-3.3-8-3.8c-1.2-0.2-2.4-0.3-3.5-0.3
			c-4.5,0-8.5,1.7-12,5c-0.5,0.5-1,1-1.5,1.5c-0.7,0.7-1.4,1.4-2.1,2.1c-0.5,0.4-0.9,0.6-1.4,0.6c-0.5,0-0.9-0.2-1.3-0.6
			C34.3,38,34.2,37.2,34.9,36.2z"/>
		<path class="st0" d="M48.1,68c-0.5,0-0.9,0.3-1.2,0.5c-0.1,0.1-0.2,0.1-0.2,0.2c-3.4,2.1-6.6,3.6-9.7,4.9
			c-0.6,0.2-1.2,0.4-1.7,0.4c-0.9,0-1.5-0.4-1.8-1.2c-0.2-0.5-0.3-1-0.1-1.5c0.3-0.6,0.9-1.2,1.8-1.6c6.7-2.8,12.7-6.6,18.2-11.3
			v-0.2c0-4.4,3.2-8,7.5-8.6c0.8-2.6,0.2-5.3-1.8-7.3c-1.4-1.4-3.3-2.2-5.4-2.2c-2.1,0-4.1,0.9-5.5,2.4c-9,9.9-20.4,15.6-33.9,16.9
			c-0.6,0.1-1.2,0.1-1.9,0.1c-0.5,0-1,0-1.6,0c-0.9,0-1.5-0.4-1.8-0.9c0.7,2.1,2.4,5.2,4,8.2c0.1,0.1,0.2,0.3,0.2,0.4
			c0,0,0-0.1,0-0.1c-0.1-1,0.1-2.1,2.5-2.3c8.1-0.8,15.9-3.3,23.3-7.6c0.4-0.3,0.9-0.4,1.3-0.4c0.7,0,1.3,0.4,1.7,1
			c0.6,1.1,0.2,2.3-1.1,3.1c-6.3,3.9-13.4,6.4-21.7,7.7c-0.8,0.1-1.5,0.2-2.1,0.3l-0.6,0.1l-0.1,0c-1.3,0-2.1-0.2-2.5-0.5
			c1.5,2.8,2.9,5.5,3.6,7.7c0,0,0,0.1,0,0.1c0-1.2,0.6-2,1.8-2.2c1.9-0.4,3.7-0.7,5.3-1c0.2,0,0.4,0,0.5,0c1,0,1.7,0.6,2,1.7
			c0.4,1.6-0.7,2.2-1.4,2.4c-1.4,0.4-2.8,0.7-4.1,0.9c-0.5,0.1-0.9,0.2-1.4,0.3c-1.1,0-2-0.4-2.5-1.1c1.2,3.7,2.2,6.6,2.6,7.7l0.1,0
			c-0.1-1.1,0.7-1.9,2-2.2c3.9-0.8,8-1.6,11.8-3.1c0.3-0.1,0.7-0.3,1-0.4c0.6-0.3,1.1-0.5,1.7-0.7c0.5-0.2,1-0.3,1.4-0.3
			c0.4,0,1.7,0,2,2.2c0.4,3,0.8,6.3,0.9,9.9c0.1,2.2,0.3,4.6,0.6,7.2c0.2,1.5-0.4,2.5-1.6,2.8l0,0c0.8,0,2.4-0.1,4-0.1
			c0-0.4,0-0.9,0.2-1.3l2.3-6.2c0,0,0,0,0,0c-0.2-1.5-0.3-3.1-0.4-4.5c0-0.6-0.1-1.1-0.1-1.7c0-0.4,0-0.8,0.1-1.1
			c-1.2-2.1-2.2-4.5-2.2-7.3c0-3.8,1.5-7.3,4-9.9C48.3,68.1,48.2,68,48.1,68z M48.1,50.2c1.2-1.2,2.5-2.6,4.1-4.1
			c0.4-0.4,0.8-0.6,1.4-0.6c0.3,0,0.7,0.1,1.1,0.2c0.8,0.3,1.1,1,1.1,1.3c0,1.1-0.1,1.5-0.4,1.8c-1.6,1.9-3,3.3-4.4,4.4
			c-0.4,0.3-0.9,0.5-1.4,0.5c-0.6,0-1.2-0.3-1.5-0.7C47.2,52.1,47.2,51.2,48.1,50.2z"/>
		<path class="st0" d="M81.9,91.3c0.1,0.1,0.3,0,0.4,0c3.6,0,7.3,0,10.9,0c0.6,0,1.2,0,1.8,0c0.5,0,0.9-0.3,1-0.8
			c0-0.2,0.1-0.4,0.1-0.7c0-2.6,0-5.2,0-7.8c0-0.1,0-0.2-0.1-0.3C91.7,85.5,86.9,88.6,81.9,91.3z"/>
		<path class="st0" d="M85.4,81c0.1-0.5,0.1-1,0.3-1.5c0.4-1.4,1.4-1.9,2.8-1.4c0.6,0.2,1.1,0.5,1.7,0.8c0.9,0.5,1.7,1.2,2.5,1.7
			c0.9,0.6,1.6,0.5,2.3-0.2c0.3-0.3,0.4-0.5,0.6-0.9c0.5-1,0.8-2,0.8-3.1c0-1.9,0-3.9,0-5.8c0-0.7-0.1-0.7-0.7-0.7
			c-5.6,0-11.3,0-16.9,0c-2.8,0-5.6,0-8.4,0c0.8,1.1,1.4,2.3,1.8,3.7c0.3,0,0.6,0,0.9,0c0.3,0,0.4,0.1,0.4,0.4c0,1.7,0,3.4,0,5.1
			c0,0.3-0.1,0.4-0.4,0.4c-0.1,0-0.2,0-0.3,0c-0.1,1-0.4,2-0.7,2.9c0.3,0,0.6,0,0.9,0c0.3,0,0.4,0.1,0.4,0.4c0,1.7,0,3.4,0,5.1
			c0,0.3-0.1,0.4-0.4,0.4c-0.9,0-1.7,0-2.6,0c-0.6,0-1.1,0-1.7,0c0,0.1-0.1,0.1-0.1,0.2l-0.7,1c0.8,0.3,1.5,1,1.8,1.8l0.2,0.5
			c1.9,0,3.8,0,5.7,0c0.2,0,0.4-0.1,0.5-0.2c1.5-1.1,2.9-2.2,4.2-3.4c1.4-1.2,2.7-2.6,3.7-4.1C84.7,83.1,85.3,82.2,85.4,81z
			 M85.8,73.5c0.9,0,1.7,0,2.6,0c0.9,0,1.7,0,2.6,0c0.3,0,0.4,0.1,0.4,0.4c0,1,0,1.9,0,2.9c0,0.4-0.1,0.4-0.4,0.2
			c-0.9-0.6-1.8-1.1-2.9-1.3c-0.8-0.1-1.6,0-2.3,0.5c-0.1,0.1-0.1,0.1-0.2,0.1c-0.1,0-0.1-0.2-0.1-0.3c0-0.7,0-1.4,0-2.1
			C85.4,73.6,85.5,73.5,85.8,73.5z M77.3,73.6c1.7,0,3.4,0,5.1,0c0.3,0,0.4,0.1,0.4,0.4c0,0.9,0,1.7,0,2.6c0,0.9,0,1.7,0,2.6
			c0,0.3-0.1,0.4-0.4,0.4c-1.7,0-3.4,0-5.1,0c-0.3,0-0.4-0.1-0.4-0.4c0-1.7,0-3.4,0-5.1C77,73.7,77.1,73.6,77.3,73.6z M82,84.8
			C81,85.9,80,87,78.9,88c-0.1,0.1-0.1,0.1-0.2,0.1c-0.5,0.1-1.1,0.1-1.6,0c-0.2,0-0.1-0.2-0.1-0.3c0-0.9,0-1.7,0-2.6
			c0-0.8,0-1.7,0-2.5c0-0.3,0.1-0.4,0.4-0.4c1.7,0,3.4,0,5.1,0c0.3,0,0.4,0.1,0.4,0.4C82.8,83.9,82.9,83.9,82,84.8z"/>
		<polygon class="st0" points="50.4,92.9 49,99.3 68.3,99.3 66.3,92.9 		"/>
		<path class="st0" d="M58.7,71.5c-3.8,0-6.9,3.1-6.9,6.9c0,3.8,3.1,6.9,6.9,6.9c3.8,0,6.9-3.1,6.9-6.9
			C65.6,74.6,62.5,71.5,58.7,71.5z"/>
	</g>
	<g>
		<path class="st1" d="M48.1,42.5c1.4-1.6,3.4-2.4,5.5-2.4c2,0,3.9,0.8,5.4,2.2c2,2,2.6,4.7,1.8,7.3c0.4-0.1,0.8-0.1,1.3-0.1h3.3
			c0.4-2,0.2-4.2-0.6-6.2c-1.4-3.6-4.3-6.2-7.9-7.1c-1.1-0.3-2.3-0.4-3.3-0.4c-3.3,0-6.2,1.4-8.8,4.2c-6,6.5-13.3,11.1-21.9,13.6
			c-3.2,0.9-6.5,1.3-9.6,1.6c-0.9,0.1-1.7,0.2-2.6,0.3c-0.9,0.1-1.4,0.4-1.7,1c-0.1,0.4-0.2,0.6-0.2,0.8c0,0.2,0,0.2,0,0.2
			c0,0,0,0,0,0c0,0,0,0,0,0c0,0,0,0,0,0c0,0.4,0.1,0.7,0.3,1c0.3,0.6,0.9,0.9,1.8,0.9c0.5,0,1,0,1.6,0c0.7,0,1.3,0,1.9-0.1
			C27.7,58.1,39.1,52.4,48.1,42.5z"/>
		<path class="st1" d="M24.7,24.5c0.6,0,1.3-0.3,1.9-0.9c0.5-0.5,1-0.9,1.4-1.4l0.4-0.4c6.4-6.4,15.6-10.1,25.2-10.1
			c5.4,0,10.8,1.2,15.4,3.4c0.6,0.3,1.2,0.6,1.7,0.9c0.7,0.4,1.5,0.8,2.3,1.1c0.3,0.1,0.6,0.2,0.9,0.2c0.6,0,1.1-0.2,1.5-0.6
			c0.4-0.4,0.6-0.9,0.6-1.4c0-0.9-0.4-1.6-2.6-2.8c-6.5-3.4-13.1-5.1-19.7-5.1c-5.2,0-10.4,1.1-15.7,3.1
			c-5.7,2.3-10.6,5.7-14.6,10.2c-0.6,0.7-1.5,2.1-0.2,3.3C23.8,24.3,24.2,24.5,24.7,24.5z"/>
		<path class="st1" d="M80.5,49c0,0.2,0,0.4,0,0.5h1.7h2.8c0.8-12.3-6.2-24.5-17.3-30c-1.3-0.7-2.7-1.3-4.2-1.5c-0.1,0-0.3,0-0.4,0
			c-0.9,0-1.5,0.4-1.9,1.4c0,0.1,0,0.1-0.1,0.2c-0.2,0.6-0.2,1.4,1,2.3c0.3,0.2,0.8,0.4,1.2,0.6l0.1,0.1c10.3,3.8,17.6,14.9,17,25.7
			C80.5,48.4,80.5,48.7,80.5,49z"/>
		<path class="st1" d="M36.6,39.5c0.5,0,0.9-0.2,1.4-0.6c0.7-0.6,1.4-1.4,2.1-2.1c0.5-0.5,1-1,1.5-1.5c3.5-3.3,7.5-5,12-5
			c1.1,0,2.3,0.1,3.5,0.3c3.2,0.6,5.9,2.3,8,3.8c0.5,0.4,1.1,0.6,1.6,0.6c1,0,1.7-0.6,1.9-1.6c0.2-1-0.2-1.7-1.3-2.6
			c-3.7-3-8.2-4.7-13.5-4.9c-2,0.1-3.9,0.4-5.8,0.9c-4.8,1.3-9,4.3-13.1,9.4c-0.7,0.9-0.6,1.8,0.3,2.6
			C35.7,39.3,36.1,39.5,36.6,39.5z"/>
		<path class="st1" d="M40.4,80.3c-0.3-2.2-1.6-2.2-2-2.2c-0.4,0-0.9,0.1-1.4,0.3c-0.6,0.2-1.2,0.5-1.7,0.7c-0.3,0.2-0.7,0.3-1,0.4
			c-3.8,1.6-7.9,2.4-11.8,3.1c-1.3,0.3-2,1.1-2,2.2c0,0,0,0.1,0,0.1c0.1,1.2,1,1.9,2.4,1.9c3.3-0.5,7.1-1.3,10.7-2.6
			c0.6-0.2,1-0.3,1.4-0.3c1.5,0,1.7,1.6,1.8,2.3c0.1,1.4,0.2,2.7,0.3,4.1c0.1,2.5,0.3,5.1,0.8,7.7c0.3,1.3,1.1,2.2,2.1,2.2
			c0.1,0,0.2,0,0.4,0c0,0,0.1,0,0.1,0c1.2-0.3,1.7-1.3,1.6-2.8c-0.3-2.6-0.5-4.9-0.6-7.2C41.2,86.5,40.9,83.3,40.4,80.3z"/>
		<path class="st1" d="M75.3,47.4c-0.1-0.5-0.1-1.1-0.2-1.7c-0.1-1.1-0.1-2.4-0.6-3.6c-0.4-1-1-1.4-1.8-1.4c-0.2,0-0.4,0-0.6,0.1
			c-1.2,0.3-1.8,1.1-1.7,2.4c0,0.4,0.1,0.8,0.2,1.2l0.1,0.7c0.2,1.6,0.3,3.1,0.1,4.5h4.3C75.2,48.8,75.3,48.1,75.3,47.4z"/>
		<path class="st1" d="M36.3,26.2c0.5,0,1-0.2,1.5-0.5c4.2-2.9,8.9-4.6,14.1-5.1c0.8-0.1,1.3-0.3,1.6-0.6c0.4-0.4,0.6-0.9,0.6-1.3
			c0-0.3,0-0.6-0.2-0.9c-0.4-0.9-1.1-1.3-2.3-1.3c-0.2,0-0.3,0-0.5,0c-5.8,0.5-11,2.4-15.7,5.8c-1,0.7-1.4,2.1-0.8,3.1
			C35,25.9,35.6,26.2,36.3,26.2z"/>
		<path class="st1" d="M14.1,47.6c0.2,1,1.2,1.7,2.8,1.7c4.1-0.6,8-1.9,11.5-3.7c1.1-0.6,1.4-1.6,0.8-2.7c-0.3-0.6-0.8-1.2-1.7-1.2
			c-0.3,0-0.6,0.1-1,0.2c-3.3,1.5-6.8,2.6-10.7,3.4c-0.5,0.1-1.1,0.3-1.4,0.8c-0.3,0.3-0.4,0.8-0.4,1.5C14,47.5,14.1,47.6,14.1,47.6
			z"/>
		<path class="st1" d="M19.4,36.9c0.3,0.5,0.8,1,1.6,1c0.3,0,0.6-0.1,0.9-0.2c3.1-1.1,5.8-2.7,8-4.7c0.6-0.5,0.7-1.2,0.8-1.6
			c0-0.5-0.2-0.9-0.4-1.2c-0.4-0.5-1-0.8-1.7-0.8c-0.5,0-1,0.1-1.4,0.4c-0.5,0.3-0.9,0.6-1.3,0.9c-1.7,1.1-3.5,2.3-5.5,3.2
			c-0.6,0.2-1,0.7-1.2,1.2c-0.2,0.5-0.2,1,0.1,1.5C19.3,36.7,19.4,36.8,19.4,36.9z"/>
		<path class="st1" d="M55.4,48.9c0.3-0.3,0.4-0.7,0.4-1.8c0-0.3-0.3-1-1.1-1.3c-0.2-0.1-0.4-0.1-0.6-0.2c-0.2,0-0.3-0.1-0.5-0.1
			c-0.4,0-0.7,0.1-1.1,0.4c-0.1,0.1-0.2,0.1-0.3,0.2c-0.2,0.2-0.4,0.4-0.6,0.6c-1.3,1.3-2.5,2.5-3.5,3.5c-0.9,0.9-0.9,1.8-0.2,2.8
			c0,0,0,0.1,0.1,0.1c0.4,0.5,0.9,0.7,1.5,0.7c0.4,0,0.8-0.1,1.1-0.3c0.1-0.1,0.2-0.1,0.3-0.2c0.9-0.7,1.8-1.5,2.7-2.5
			C54.2,50.3,54.8,49.6,55.4,48.9z"/>
		<path class="st1" d="M25.8,77.1c0.7-0.2,1.9-0.8,1.4-2.4c-0.3-1.1-1-1.7-2-1.7c-0.2,0-0.3,0-0.5,0c-1.7,0.3-3.4,0.6-5.3,1
			c-1.2,0.2-1.8,1-1.8,2.2c0,0,0,0,0,0.1c0,0.3,0.1,0.6,0.3,0.9c0.4,0.6,1.3,1.1,2.5,1.1c0.4-0.1,0.9-0.2,1.4-0.3
			C22.9,77.7,24.4,77.5,25.8,77.1z"/>
		<path class="st1" d="M33.4,71.3c-0.2,0.5-0.2,1,0.1,1.5c0.4,0.8,0.9,1.2,1.8,1.2c0.5,0,1.1-0.1,1.7-0.4c3.1-1.2,6.2-2.8,9.7-4.9
			c0.1,0,0.2-0.1,0.2-0.2c0.3-0.2,0.7-0.5,1.2-0.5c0.1,0,0.2,0,0.3,0.1c1.4-1.4,3.1-2.6,5-3.3v-6.4c-5.4,4.7-11.5,8.5-18.2,11.3
			C34.3,70.1,33.7,70.6,33.4,71.3z"/>
		<path class="st1" d="M49.3,89.4l-0.7-1c-0.7-1-1.4-2-2.1-3.1c0,0.4,0,0.7-0.1,1.1c0,0.5,0.1,1.1,0.1,1.7c0.1,1.4,0.2,2.9,0.4,4.5
			c0,0,0,0,0,0l0.5-1.4C47.8,90.3,48.5,89.7,49.3,89.4z"/>
		<path class="st1" d="M40.8,60.9c1.3-0.8,1.7-2,1.1-3.1c-0.4-0.7-1-1-1.7-1c-0.4,0-0.9,0.1-1.3,0.4c-7.3,4.2-15.2,6.8-23.3,7.6
			c-2.3,0.2-2.5,1.4-2.5,2.3c0,0,0,0.1,0,0.1c0,0.5,0.2,0.9,0.7,1.3c0.5,0.3,1.2,0.5,2.5,0.5l0.1,0l0.6-0.1c0.6-0.1,1.3-0.2,2.1-0.3
			C27.4,67.2,34.5,64.7,40.8,60.9z"/>
		<path class="st1" d="M86.2,61.4c0,0.7,0.5,1.1,1.2,1.2c0.7,0.1,1.4,0,2.2,0c0.7,0,1.1-0.5,1.1-1.1c0-2.6,0-5.1,0-7.7
			c0-0.4-0.2-0.7-0.5-0.9c-0.1-0.1-0.2-0.1-0.3-0.2c-0.9,0-1.8,0-2.7,0c-0.7,0.2-0.9,0.7-0.9,1.4c0,1.9,0,3.7,0,5.6
			C86.2,60.3,86.2,60.8,86.2,61.4z"/>
		<path class="st1" d="M68.1,62.6c0.6,0,1.3,0,1.9,0c0.8,0,1.3-0.5,1.3-1.3c0-2.4,0-4.8,0-7.3c0-0.7-0.2-1.1-0.9-1.4
			c-0.9,0-1.8,0-2.7,0c-0.7,0.3-0.9,0.8-0.9,1.5c0,2.4,0,4.7,0,7.1C66.8,62.1,67.3,62.6,68.1,62.6z"/>
		<path class="st1" d="M98.5,58.2c0-1.1-0.6-1.7-1.8-1.7c-1.4,0-2.9,0-4.3,0c-0.5,0-0.5,0-0.5,0.5c0,1.8,0,3.7,0,5.5
			c0,1.5-1.3,2.5-2.5,2.5c-0.7,0-1.4,0-2.1,0c-1.4,0-2.7-1-2.6-2.7c0-1.8,0-3.6,0-5.4c0-0.5,0-0.5-0.5-0.5c-3.7,0-7.5,0-11.2,0
			c-0.5,0-0.5,0-0.5,0.5c0,1.8,0,3.6,0,5.4c0,1.5-1,2.6-2.5,2.6c-0.7,0-1.4,0-2.1,0c-1.1,0-2.6-0.9-2.5-2.5c0.1-1.8,0-3.7,0-5.5
			c0-0.4,0-0.4-0.4-0.4c-1.4,0-2.9,0-4.3,0c-1.2,0-1.8,0.6-1.8,1.8c0,1.9,0,3.7,0,5.6c3.3,0.1,6.4,1.3,8.8,3.3
			c1,0.8,1.9,1.8,2.6,2.9c2.8,0,5.6,0,8.4,0c5.6,0,11.3,0,16.9,0c0.7,0,0.7,0.1,0.7,0.7c0,1.9,0,3.9,0,5.8c0,1.1-0.3,2.1-0.8,3.1
			c-0.2,0.3-0.4,0.6-0.6,0.9c-0.7,0.7-1.5,0.8-2.3,0.2c-0.8-0.6-1.6-1.2-2.5-1.7c-0.5-0.3-1.1-0.6-1.7-0.8c-1.4-0.5-2.4,0-2.8,1.4
			c-0.1,0.5-0.2,1-0.3,1.5c-0.1,1.1-0.7,2.1-1.3,3.1c-1.1,1.5-2.4,2.8-3.7,4.1c-1.3,1.2-2.8,2.3-4.2,3.4c-0.2,0.1-0.3,0.2-0.5,0.2
			c-1.9,0-3.8,0-5.7,0l0.3,0.7l0.4,1c2.6,0,5.2,0,7.9,0c5.9,0,11.8,0,17.7,0c0.2,0,0.5,0,0.7,0c1.1-0.1,1.7-0.7,1.7-1.7
			C98.5,80.5,98.5,69.3,98.5,58.2z M96.1,82c0,2.6,0,5.2,0,7.8c0,0.2,0,0.5-0.1,0.7c-0.1,0.4-0.5,0.8-1,0.8c-0.6,0-1.2,0-1.8,0
			c-3.6,0-7.3,0-10.9,0c-0.1,0-0.3,0-0.4,0c5-2.7,9.8-5.8,14.1-9.6C96.1,81.8,96.1,81.9,96.1,82z"/>
		<path class="st1" d="M85.8,76.1c0.7-0.5,1.4-0.6,2.3-0.5c1.1,0.2,2,0.7,2.9,1.3c0.3,0.2,0.4,0.2,0.4-0.2c0-1,0-1.9,0-2.9
			c0-0.3-0.1-0.4-0.4-0.4c-0.9,0-1.7,0-2.6,0c-0.9,0-1.7,0-2.6,0c-0.2,0-0.4,0.1-0.3,0.3c0,0.7,0,1.4,0,2.1c0,0.1,0,0.2,0.1,0.3
			C85.6,76.3,85.7,76.2,85.8,76.1z"/>
		<path class="st1" d="M73,79.5c0.3,0,0.4-0.1,0.4-0.4c0-1.7,0-3.4,0-5.1c0-0.3-0.1-0.4-0.4-0.4c-0.3,0-0.6,0-0.9,0
			c0.4,1.4,0.7,2.8,0.7,4.4c0,0.5,0,1-0.1,1.5C72.8,79.5,72.9,79.5,73,79.5z"/>
		<path class="st1" d="M68.7,88.2c0.6,0,1.1,0,1.7,0c0.9,0,1.7,0,2.6,0c0.3,0,0.4-0.1,0.4-0.4c0-1.7,0-3.4,0-5.1
			c0-0.3-0.1-0.4-0.4-0.4c-0.3,0-0.6,0-0.9,0C71.3,84.5,70,86.4,68.7,88.2z"/>
		<path class="st1" d="M82.5,73.6c-1.7,0-3.4,0-5.1,0c-0.3,0-0.4,0.1-0.4,0.4c0,1.7,0,3.4,0,5.1c0,0.3,0.1,0.4,0.4,0.4
			c1.7,0,3.4,0,5.1,0c0.3,0,0.4-0.1,0.4-0.4c0-0.9,0-1.7,0-2.6c0-0.9,0-1.7,0-2.6C82.8,73.7,82.7,73.6,82.5,73.6z"/>
		<path class="st1" d="M77,85.3c0,0.9,0,1.7,0,2.6c0,0.1,0,0.3,0.1,0.3c0.5,0,1.1,0.1,1.6,0c0.1,0,0.1-0.1,0.2-0.1
			c1.1-1,2.1-2.1,3.1-3.2c0.8-0.9,0.8-1,0.8-2.1c0-0.3-0.1-0.4-0.4-0.4c-1.7,0-3.4,0-5.1,0c-0.3,0-0.4,0.1-0.4,0.4
			C77,83.6,77,84.4,77,85.3z"/>
		<path class="st1" d="M62,92.3c2.2-2.9,4.5-6.1,5.7-7.7c0,0,0,0,0,0l0,0c1.3-1.9,2.1-4.1,2.1-6.4c0-1.5-0.3-3-0.9-4.4
			c-1.6-4-5.6-6.9-10.2-6.9h0c-5,0-9.2,3.3-10.6,7.8c-0.4,1.1-0.5,2.2-0.5,3.4c0,2.4,0.8,4.7,2.2,6.7l5.5,7.4h-4.8l-2.9,7.6h22
			l-2.9-7.6H62z M52.6,78.2c0-3.3,2.7-6,6-6s6,2.7,6,6s-2.7,6-6,6S52.6,81.5,52.6,78.2z M50.4,98l1.4-3.7h4.9l1.3,1.7
			c0,0,0.1,0,0.1,0.1c0.4,0.4,1,0.3,1.3-0.1c0.4-0.5,0.8-1.1,1.3-1.7h4.9l1.4,3.7H50.4z"/>
	</g>
</g>
</svg>
