<?xml version="1.0" encoding="utf-8"?>
<!-- Generator: Adobe Illustrator 22.1.0, SVG Export Plug-In . SVG Version: 6.00 Build 0)  -->
<svg version="1.1" id="Layer_1" xmlns="http://www.w3.org/2000/svg" xmlns:xlink="http://www.w3.org/1999/xlink" x="0px" y="0px"
	 viewBox="0 0 107 107" style="enable-background:new 0 0 107 107;" xml:space="preserve">
<style type="text/css">
	.st0{fill:#FF7550;}
	.st1{fill:#FFDED5;}
	.st2{fill:#FFFFFF;}
</style>
<path class="st0" d="M41.5,8.1c9.4,0,18.8,0,28.3,0c3.2,0,5.5,1.9,6,4.8c0.1,0.6,0.1,1.1,0.1,1.7c0,11.7,0,23.4,0,35.1
	c0,0.3,0,0.6,0,0.9c0,1.2,0.2,1.3,1.3,1.3c5.7,0,11.4,0,17.1,0c1.4,0,2.7,0.3,3.7,1.2c1.2,1.1,1.8,2.4,1.8,4.1c0,12.2,0,24.5,0,36.7
	c0,2.8-1.8,4.8-4.7,4.9c-4.6,0.1-0.8,0-5.3,0c-1.1,0-1.9-0.8-1.9-1.8c0-1,0.8-1.8,1.9-1.8c3.9,0-0.5,0,3.4,0c0.4,0,0.8,0,1.2,0
	c1.4,0,1.8-0.4,1.8-1.8c0-8.1,0-16.3,0-24.4c0-1.2-0.1-1.3-1.3-1.3c-14.5,0-29,0-43.5,0c-1.2,0-1.3,0.1-1.3,1.3c0,8.1,0,16.2,0,24.3
	c0,1.5,0.4,1.9,2,1.9c4.1,0,20.1,0,24.2,0c0.4,0,0.8,0,1.2,0.1c1,0.1,1.6,0.8,1.6,1.7c0,0.8-0.7,1.6-1.5,1.8c-0.3,0.1-0.7,0.1-1,0.1
	c-4.3,0-20.5,0-24.8,0c-1.2,0-2.4-0.3-3.4-1c-1.4-1-1.9-2.4-1.9-4.2c0-7.4,0-14.8,0-22.2c0-0.9,0-1.9,0-2.8c0-0.7-0.3-1-1-1
	c-0.3,0-0.7,0-1,0c-9.5,0-19.1,0-28.6,0c-1.2,0-2.4,0-3.6-0.1c-3-0.3-5.3-2.6-5.4-5.6c0-0.3,0-0.7,0-1c0-15.5,0.1-30.9,0-46.4
	c0-4,3.1-6.6,6.6-6.6C22.9,8.2,32.2,8.1,41.5,8.1z"/>
<path class="st0" d="M73.3,90.5c-2.6,0-5.2,0-7.7,0c-2.2,0-3.1-1-3.1-3.1c0-4,0-8,0-11.9c0-2.2,0.9-3.2,3.1-3.2c1.3,0,2.7,0,4,0
	c1.4,0,2.5,0.5,3.1,1.8c0.5,1,1.2,1.3,2.3,1.2c2.1-0.1,4.1,0,6.2,0c2.3,0,3.2,0.9,3.2,3.2c0,3,0,6,0,9.1c0,2.1-0.9,3-3,3
	C78.7,90.5,76,90.5,73.3,90.5z"/>
<path class="st0" d="M22.9,77c0-1.4,0-2.8,0-4.2c0-1.2,0.7-2,1.7-2c1,0,1.7,0.8,1.8,2c0.1,2.6-0.1,5.3,0.1,7.9c0.1,1.3,0.7,2,2.1,2
	c2,0,4,0,6,0c0.2,0,0.6,0.1,0.7-0.2c0.1-0.3-0.2-0.5-0.4-0.6c-0.6-0.5-1.1-1-1.6-1.5c-0.7-0.8-0.6-1.7,0.1-2.4
	c0.7-0.7,1.6-0.7,2.4-0.1c1.9,1.7,3.8,3.5,5.6,5.3c0.9,0.9,0.9,1.8,0,2.7c-1.7,1.7-3.6,3.3-5.4,4.8c-0.8,0.7-1.8,0.7-2.5,0.2
	c-0.8-0.6-0.9-1.6-0.3-2.4c0.4-0.5,0.9-0.9,1.3-1.3c0.2-0.2,0.6-0.3,0.5-0.6c-0.1-0.3-0.5-0.2-0.8-0.2c-1.3,0-2.7,0-4,0
	c-0.6,0-1.3,0-1.9,0c-3.1-0.2-5.3-2.5-5.3-5.6C22.9,79.5,22.9,78.3,22.9,77C22.9,77,22.9,77,22.9,77z"/>
<path class="st0" d="M83.8,98.7c-1,0-1.8-0.8-1.8-1.7c0-1,0.8-1.7,1.8-1.7c1,0,1.7,0.7,1.7,1.7C85.5,98,84.8,98.7,83.8,98.7z"/>
<path class="st1" d="M41.6,24.4c9.7,0,19.4,0,29.2,0c1.5,0,1.6,0.1,1.6,1.6c0,8.1,0,16.1,0,24.2c0,1.7,0,1.7-1.8,1.7c-6,0-12,0-18,0
	c-3.9,0-5.9,2-5.9,5.9c0,1.6,0,3.3,0,4.9c0,1-0.2,1.2-1.1,1.2c-10.8,0-21.6,0-32.4,0c-1.5,0-2.3-0.8-2.4-2.3c0-0.4,0-0.7,0-1.1
	c0-11.5,0-23,0-34.4c0-0.3,0-0.5,0-0.8c0-0.7,0.3-0.9,1-0.9c0.5,0,0.9,0,1.4,0C22.6,24.4,32.1,24.4,41.6,24.4z"/>
<path class="st2" d="M41.6,11.7c9.1,0,18.1,0,27.2,0c0.4,0,0.8,0,1.2,0c1.4,0.1,2.3,1,2.4,2.3c0,1.9,0,3.7,0,5.6
	c0,0.7-0.3,0.9-1,0.9c-5.5,0.2-11,0.2-16.5,0c-2.8-0.1-5.7,0.1-8.6,0.1c-3.1,0-6.2-0.2-9.3-0.1c-4.1,0.1-8.2,0.2-12.4,0.1
	c-4.2-0.1-8.4,0.2-12.6,0c-1.3,0-1.4-0.1-1.4-1.4c0-1.6,0-3.2,0-4.9c0-1.9,0.9-2.8,2.8-2.8C22.8,11.7,32.2,11.7,41.6,11.7z"/>
<path class="st2" d="M73.3,64c-7.2,0-14.3,0-21.5,0c-1.5,0-1.5-0.1-1.5-1.5c0-1.6,0-3.2,0-4.9c0-1.5,0.5-2,2.1-2c14,0,28,0,42,0
	c1.6,0,2.1,0.5,2.1,2.1c0,1.6,0,3.3,0,4.9c0,1.3-0.1,1.4-1.4,1.4C87.8,64,80.5,64,73.3,64z"/>
<path class="st1" d="M73.4,86.9c-2.1,0-4.1,0-6.2,0c-1,0-1.1-0.2-1.1-1.2c0-2.9,0-5.8,0-8.7c0-0.8,0.3-1.2,1.1-1.1
	c0.2,0,0.5,0,0.7,0c1.1-0.2,1.9,0.2,2.5,1.3c0.6,1.2,1.7,1.7,3.1,1.7c2-0.1,4,0,5.9,0c1.1,0,1.3,0.1,1.3,1.2c0,1.9,0,3.8,0,5.7
	c0,1-0.2,1.1-1.2,1.2C77.5,86.9,75.4,86.9,73.4,86.9z"/>
<path class="st0" d="M27.7,46.8c-2.7,0-5.3,0-8,0c-1.9,0-2.9-1-2.9-2.9c0-4.2,0-8.3,0-12.5c0-1.8,0.9-2.7,2.7-2.7c1.6,0,3.3,0,4.9,0
	c1.1,0,2,0.4,2.5,1.4c0.5,1.2,1.4,1.4,2.6,1.4c2.3,0,4.6-0.2,6.8,0.1c1.6,0.2,2.4,1,2.4,2.7c0,3.2,0,6.5,0,9.7c0,1.8-1,2.8-2.8,2.8
	C33.2,46.8,30.4,46.8,27.7,46.8z"/>
<path class="st0" d="M55.2,46.8c-2.6,0-5.3,0-7.9,0c-2.1,0-3-0.9-3-2.9c0-4.1,0-8.2,0-12.3c0-2.2,0.7-2.9,2.9-2.9c1.5,0,3,0,4.4,0
	c1.2,0,2.2,0.4,2.7,1.5c0.6,1.3,1.6,1.5,2.8,1.5c2.1,0,4.1,0,6.2,0c1.8,0,2.7,0.8,2.8,2.7c0.1,1.7,0,3.3,0,5c0,1.5,0,3,0,4.4
	c0,2-1,3-3,3C60.5,46.8,57.8,46.8,55.2,46.8z"/>
<path class="st0" d="M22.1,14.4c1,0,1.8,0.8,1.7,1.8c0,1-0.8,1.7-1.8,1.7c-1,0-1.8-0.8-1.8-1.9C20.3,15.1,21.1,14.4,22.1,14.4z"/>
<path class="st0" d="M15.6,14.4c1,0,1.8,0.8,1.8,1.8c0,1-0.7,1.7-1.8,1.7c-1,0-1.7-0.6-1.7-1.6C13.9,15.2,14.6,14.4,15.6,14.4z"/>
<path class="st0" d="M57.3,59.8c0,1-0.7,1.8-1.7,1.8c-1,0-1.8-0.8-1.8-1.7c0-1,0.7-1.8,1.7-1.8C56.5,58.1,57.3,58.8,57.3,59.8z"/>
<path class="st0" d="M63.9,59.9c0,1-0.8,1.8-1.8,1.8c-1,0-1.8-0.8-1.7-1.8c0-1,0.8-1.7,1.8-1.7C63.1,58.1,63.9,58.9,63.9,59.9z"/>
<path class="st2" d="M27.7,43.2c-2.1,0-4.1,0-6.2,0c-1,0-1.1-0.2-1.2-1.2c0-2.9,0-5.7,0-8.6c0-1,0.2-1.1,1.2-1.1c0.3,0,0.6,0,0.9,0
	c1.1-0.1,1.8,0.3,2.3,1.3c0.5,1.1,1.5,1.5,2.7,1.5c1.9,0,3.8,0,5.8,0c1.6,0,1.8,0.2,1.8,1.8c0,1.7,0,3.4,0,5.1c0,1-0.2,1.2-1.2,1.2
	C31.8,43.2,29.8,43.2,27.7,43.2z"/>
<path class="st2" d="M55.3,43.2c-2.1,0-4.1,0-6.2,0c-1,0-1.2-0.2-1.2-1.2c0-2.9,0-5.7,0-8.6c0-1,0.2-1.1,1.2-1.2c0.3,0,0.6,0,0.9,0
	c1-0.1,1.7,0.2,2.2,1.2c0.6,1.1,1.6,1.7,2.9,1.6c2.1,0,4.1,0,6.2,0c1.1,0,1.3,0.2,1.3,1.3c0,1.8,0,3.7,0,5.5c0,1.1-0.1,1.3-1.3,1.3
	C59.3,43.2,57.3,43.2,55.3,43.2z"/>
</svg>
