<?xml version="1.0" encoding="utf-8"?>
<!-- Generator: Adobe Illustrator 22.1.0, SVG Export Plug-In . SVG Version: 6.00 Build 0)  -->
<svg version="1.1" id="Layer_1" xmlns="http://www.w3.org/2000/svg" xmlns:xlink="http://www.w3.org/1999/xlink" x="0px" y="0px"
	 viewBox="0 0 107 107" style="enable-background:new 0 0 107 107;" xml:space="preserve">
<style type="text/css">
	.st0{fill:#E0CBFA;}
	.st1{fill:#845DB7;}
	.st2{fill:#FFFFFF;}
</style>
<g>
	<circle class="st0" cx="53.7" cy="40.6" r="34.7"/>
	<path class="st1" d="M43.4,53.8c0,0-9.6,2.6-10.2,4.6s-1.1,2.8-1.1,6.6c0,3.8,0,11,0,11h42.8V59.2c0,0-9.1-4.4-10.4-4.8
		C63,54,62.9,57,62.9,57s-4.9,8.5-5.8,9c-0.9,0.5-2.8,2.4-4.3,1.8C51.4,67.3,44.8,63.1,43.4,53.8z"/>
	<path class="st2" d="M63.7,25.6c-0.4-0.3-10.2-5-10.9-5.3c-0.7-0.3-4.3-1.1-6.4,1c-2,2-5.4,5.7-5.4,5.7l0.9,4.1l-0.1,1.7
		c0,0-1.1-0.1-1.1,0.6s-2.1,1.8,0,4.4c2.1,2.6,3.1,2.9,3.5,4.5c0.4,1.6,2,4,2.4,4.4c0.3,0.3,2.2,1.8,2.6,1.9
		c0.3,0.2,4.7,0.9,4.7,0.9l5-1.3c0,0,2.6-2.8,3-3.5c0.3-0.9,2.2-4.2,2.2-4.2l2-3l0.9-3.3l-2.1-1.5l0.4-2.2l-0.7-5.8L63.7,25.6z"/>
	<path class="st1" d="M41.7,40.2c1.1,2.3,2.3,4.5,4.1,6.5c2,2.2,4.5,3.6,7.7,3.7c3.1,0,5.5-1.4,7.7-3.6c1.8-1.9,3-4.1,4.1-6.5
		c0.2-0.3,0.4-0.6,0.6-0.9c1.3-1.4,1.8-3.1,1.8-4.9c-0.1-1.4-0.5-1.8-1.7-2c0-0.2,0.1-0.3,0.1-0.4c0.1-2,0.3-4,0.3-6
		c-0.2-3.6-1.8-6.4-4.9-8.1c-4.4-2.6-9-2.8-13.6-1.1c-4.4,1.6-7,4.8-7.2,9.6c-0.1,2,0.2,3.9,0.3,6c-1,0.2-1.4,0.5-1.5,1.6
		c-0.3,2,0.3,3.8,1.7,5.3C41.3,39.6,41.5,40,41.7,40.2z M41.1,34.4c0.1-0.4,0.4-0.9,0.9-1.1c0.4-0.2,0.8,0.3,1,0.7
		c0.2,0.3,0.4,0.9,0.6,1.2c-0.2-2-0.4-4.3-0.7-6.4c-0.1-0.3,0.1-0.7,0.3-1c0.9-1.6,2-3.1,3.8-3.7c0.7-0.2,1.2-0.2,1.8,0.3
		c2.7,2.7,6.1,4.1,9.9,4.7c1.8,0.3,3.6,0.4,5.5,0.6c-0.3,1.9-0.6,3.8-0.9,5.5c0.3-0.4,0.4-1,0.8-1.4c0.2-0.3,0.8-0.7,0.9-0.6
		c0.3,0.2,0.8,0.6,0.8,1c0.2,1.5-0.3,2.8-1.3,3.8c-0.3,0.3-0.6,0.7-0.9,1.2c-0.9,2-2,4-3.2,5.8c-3.2,4.5-10.7,4.5-14,0.1
		c-1.3-1.8-2.3-3.8-3.2-5.7c-0.3-0.5-0.6-1-0.9-1.4C41.5,37.1,40.9,35.8,41.1,34.4z"/>
	<g>
		<path class="st1" d="M76.4,61.2c0-0.1,0-0.1,0-0.2c-0.2-1.3-0.6-2.1-0.9-2.7c-0.2-0.4-0.4-0.9-0.7-1.3c-1.9-1.4-4.1-2.2-6.3-2.9
			c-2.2-0.7-4.4-1.4-6.7-2c0,0.7,0,1.3,0,2c0.1,1.4-0.3,2.7-0.9,4c-1.4,3.1-3.2,5.7-5.8,7.9c-0.9,0.8-2.3,0.8-3.2,0
			c-2.8-2.4-4.8-5.3-6.1-8.7c-0.6-1.5-0.6-3.2-0.4-4.8c0-0.2,0.1-0.3,0.1-0.6c-4.4,1.6-9.1,2.3-13.1,5c0,0,0,0,0-0.1
			c0,0,0,0.1-0.1,0.1c-0.3,0.3-1.5,1.7-1.5,4.1c0,2.8,0,15.8,0,15.8h45.7c0,0,0-12.4,0-15.2C76.4,61.6,76.4,61.5,76.4,61.2
			C76.3,61.2,76.4,61.2,76.4,61.2z M73.9,74.5H33.2V61.2c0-1.3,0.5-2,0.7-2.3c2.3-1.5,5-2.3,7.9-3.2c0.3-0.1,0.7-0.2,1-0.3
			c0.1,0.9,0.3,1.9,0.7,2.8l0,0c1.6,3.9,3.8,7.1,6.8,9.6c0.9,0.8,2,1.2,3.2,1.2c1.2,0,2.3-0.4,3.2-1.2c2.7-2.3,4.9-5.2,6.5-8.8l0,0
			c0.5-1.2,0.9-2.4,1-3.7c1.1,0.3,2.3,0.8,3.5,1.1c1.6,0.5,3.5,1.1,5.1,2.2c0.1,0.2,0.2,0.4,0.3,0.6c0.1,0.1,0.1,0.3,0.2,0.3
			c0.2,0.3,0.5,0.9,0.5,1.6c0,0,0,0,0,0.1v0.1c0,0.2,0,0.3,0,0.3L73.9,74.5L73.9,74.5z"/>
	</g>
	<path class="st1" d="M54.9,55.8c0.6-0.4,1-1,1.5-1.5c0.1-0.1,0.2-0.3,0.3-0.4c-0.1-0.1-0.1-0.2-0.2-0.3c-0.6-0.7-1.2-1.4-2.3-1.3
		c-0.4,0.1-0.9,0.1-1.4,0c-1.1-0.2-1.8,0.4-2.4,1.1c-0.3,0.3-0.3,0.5-0.1,0.8c0.5,0.5,1,1.1,1.5,1.5c0.3,0.3,0.3,0.4,0.2,0.8
		c-0.6,1.4-1.2,2.8-1.8,4.3c-0.2,0.4-0.2,0.8,0.2,1.1c0.9,0.9,1.7,1.6,2.6,2.4c0.1,0.1,0.4,0.1,0.6-0.1c0.9-0.8,1.7-1.5,2.6-2.4
		c0.3-0.3,0.3-0.6,0.2-1c-0.6-1.5-1.2-2.9-1.8-4.3C54.5,56.3,54.6,56.1,54.9,55.8z"/>
	<path class="st1" d="M41.7,76.5h-0.3c-0.6,0-1.1-0.5-1.1-1.1v-3.9c0-0.6,0.5-1.1,1.1-1.1h0.3c0.6,0,1.1,0.5,1.1,1.1v3.9
		C42.8,76,42.3,76.5,41.7,76.5z"/>
	<path class="st1" d="M66.6,76.5L66.6,76.5c-0.7,0-1.3-0.6-1.3-1.3v-3.6c0-0.7,0.6-1.3,1.3-1.3l0,0c0.7,0,1.3,0.6,1.3,1.3v3.6
		C67.9,76,67.3,76.5,66.6,76.5z"/>
	<g>
		<path class="st1" d="M53.5,0.5c-22.3,0-40.4,18.1-40.4,40.4c0,8.8,2.8,17.2,8.1,24.2L51,105.2c0.1,0.1,0.2,0.1,0.3,0.2
			c1.5,1.6,3.6,1.2,4.7-0.2c8.6-11.5,24.3-32.9,30.4-40.9c4.9-6.9,7.5-14.9,7.5-23.4C93.9,18.6,75.7,0.5,53.5,0.5z M53.7,75.4
			C34.5,75.4,19,59.8,19,40.6C19,21.4,34.5,5.9,53.7,5.9c19.2,0,34.7,15.6,34.7,34.7C88.4,59.8,72.9,75.4,53.7,75.4z"/>
	</g>
</g>
</svg>
