<?xml version="1.0" encoding="utf-8"?>
<!-- Generator: Adobe Illustrator 22.1.0, SVG Export Plug-In . SVG Version: 6.00 Build 0)  -->
<svg version="1.1" id="Layer_1" xmlns="http://www.w3.org/2000/svg" xmlns:xlink="http://www.w3.org/1999/xlink" x="0px" y="0px"
	 viewBox="0 0 107 107" style="enable-background:new 0 0 107 107;" xml:space="preserve">
<style type="text/css">
	.st0{fill:#E0CBFA;}
	.st1{fill:#FFFFFF;}
	.st2{fill:#845DB7;}
</style>
<g>
	<rect x="26.1" y="10.2" class="st0" width="65.2" height="86.3"/>
	<circle class="st1" cx="61.5" cy="43.6" r="7.2"/>
	<g>
		<path class="st2" d="M61.5,54.5c6.2,0,11.3-5.1,11.3-11.3c0-6.2-5.1-11.3-11.3-11.3c-6.2,0-11.3,5.1-11.3,11.3
			C50.2,49.5,55.2,54.5,61.5,54.5z M61.5,37.5c3.2,0,5.8,2.6,5.8,5.8c0,3.2-2.6,5.8-5.8,5.8c-3.2,0-5.8-2.6-5.8-5.8
			C55.7,40.1,58.3,37.5,61.5,37.5z M48.9,75c1.5,0,2.7-1.2,2.7-2.7v-4.7c0-3,2.5-5.5,5.5-5.5h8.7c3,0,5.5,2.5,5.5,5.5v4.7
			c0,1.5,1.2,2.7,2.7,2.7c1.5,0,2.7-1.2,2.7-2.7v-4.7c0-6.1-4.9-11-11-11h-8.7c-6.1,0-11,4.9-11,11v4.7C46.1,73.8,47.4,75,48.9,75z
			 M91.8,7H26.2c-1.5,0-2.7,1.2-2.7,2.7v13.8h-2.7c-4.5,0-8.2,3.7-8.2,8.2c0,4.5,3.7,8.2,8.2,8.2h2.7v5.4h-2.7
			c-4.5,0-8.2,3.7-8.2,8.2c0,4.5,3.7,8.2,8.2,8.2h2.7v5.4h-2.7c-4.5,0-8.2,3.7-8.2,8.2c0,4.5,3.7,8.2,8.2,8.2h2.7v13.8
			c0,1.5,1.2,2.7,2.7,2.7h65.6c1.5,0,2.7-1.2,2.7-2.7V9.7C94.5,8.2,93.3,7,91.8,7z M23.4,78h-2.7c-1.5,0-2.7-1.2-2.7-2.7
			c0-1.5,1.2-2.7,2.7-2.7h2.7V78z M23.4,56.2h-2.7c-1.5,0-2.7-1.2-2.7-2.7c0-1.5,1.2-2.7,2.7-2.7h2.7V56.2z M23.4,34.4h-2.7
			c-1.5,0-2.7-1.2-2.7-2.7c0-1.5,1.2-2.7,2.7-2.7h2.7V34.4z M89.1,94.6H28.9v-22h2.7c1.5,0,2.7-1.2,2.7-2.7c0-1.5-1.2-2.7-2.7-2.7
			h-2.7V50.8h2.7c1.5,0,2.7-1.2,2.7-2.7s-1.2-2.7-2.7-2.7h-2.7V29h2.7c1.5,0,2.7-1.2,2.7-2.7c0-1.5-1.2-2.7-2.7-2.7h-2.7V12.4h60.2
			V94.6z"/>
	</g>
</g>
</svg>
