<?xml version="1.0" encoding="utf-8"?>
<!-- Generator: Adobe Illustrator 22.1.0, SVG Export Plug-In . SVG Version: 6.00 Build 0)  -->
<svg version="1.1" id="Layer_1" xmlns="http://www.w3.org/2000/svg" xmlns:xlink="http://www.w3.org/1999/xlink" x="0px" y="0px"
	 viewBox="0 0 107 107" style="enable-background:new 0 0 107 107;" xml:space="preserve">
<style type="text/css">
	.st0{fill:#D9F1E8;}
	.st1{fill:#FFFFFF;}
	.st2{fill:#6CA68B;}
	.st3{fill:none;}
</style>
<g>
	<path class="st0" d="M60,33c2.6,0,4.7-2.1,4.7-4.7s-2.1-4.7-4.7-4.7c-2.6,0-4.7,2.1-4.7,4.7S57.4,33,60,33z"/>
	<g>
		<circle class="st1" cx="15" cy="55.6" r="2.3"/>
		<circle class="st1" cx="29.7" cy="40.4" r="2.4"/>
		<circle class="st1" cx="38.8" cy="49.7" r="2.1"/>
	</g>
	<path class="st2" d="M10.3,56.8c0.2,0.5,0.4,1,0.7,1.4l0,0c0.3,0.3,0.6,0.7,0.9,0.9l0,0c0.6,0.4,1.3,0.7,2.1,0.9v0
		c0.2,0,0.4,0,0.7,0c0.2,0,0.4,0,0.7,0v0c1.7-0.2,3.1-1.5,3.7-3.1c0,0,0,0,0,0c0-0.1,0-0.1,0.1-0.2c0,0,0,0,0,0c0-0.1,0-0.1,0-0.2
		c0,0,0,0,0-0.1c0,0,0-0.1,0-0.1c0,0,0-0.1,0-0.1c0,0,0-0.1,0-0.1c0,0,0-0.1,0-0.1c0,0,0-0.1,0-0.1c0,0,0-0.1,0-0.1c0,0,0-0.1,0-0.1
		c0-0.1,0-0.1,0-0.2c0-0.7-0.2-1.4-0.5-2l9-9c0.4,0.2,0.8,0.4,1.3,0.4v0c0.2,0,0.4,0,0.7,0c0.2,0,0.4,0,0.7,0v0
		c0.5-0.1,0.9-0.2,1.3-0.4l3,3c-0.3,0.6-0.4,1.2-0.4,1.9c0,0.5,0.1,0.9,0.2,1.3h0c0.2,0.5,0.4,1,0.7,1.4l0,0
		c0.3,0.3,0.6,0.7,0.9,0.9l0,0c0.6,0.4,1.3,0.7,2.1,0.9v0c0.2,0,0.4,0,0.7,0c0.2,0,0.4,0,0.7,0v0c1.7-0.2,3.1-1.5,3.7-3.1
		c0,0,0,0,0,0c0-0.1,0-0.1,0.1-0.2c0,0,0,0,0,0c0-0.1,0-0.1,0-0.2c0,0,0,0,0-0.1c0,0,0-0.1,0-0.1c0,0,0-0.1,0-0.1c0,0,0-0.1,0-0.1
		c0,0,0-0.1,0-0.1c0,0,0-0.1,0-0.1c0,0,0-0.1,0-0.1c0,0,0-0.1,0-0.1c0-0.1,0-0.1,0-0.2c0-0.8-0.2-1.5-0.6-2.2l13.8-13.8
		c0.7,0.5,1.6,0.8,2.5,0.9v0c0.3,0,0.6,0.1,0.9,0.1c0.3,0,0.6,0,0.9-0.1v0c2.5-0.4,4.5-2.1,5.2-4.4c0,0,0,0,0,0
		c0-0.1,0.1-0.2,0.1-0.3c0,0,0,0,0-0.1c0-0.1,0-0.1,0.1-0.2c0,0,0-0.1,0-0.1c0-0.1,0-0.1,0-0.2c0,0,0-0.1,0-0.1c0-0.1,0-0.1,0-0.2
		c0-0.1,0-0.1,0-0.2c0-0.1,0-0.1,0-0.2c0-0.1,0-0.1,0-0.2c0,0,0-0.1,0-0.1c0-0.1,0-0.2,0-0.3c0-3.6-2.9-6.5-6.5-6.5
		s-6.5,2.9-6.5,6.5c0,0.6,0.1,1.3,0.3,1.9h0c0.2,0.6,0.4,1.1,0.7,1.6L40.6,45.3c-0.6-0.3-1.2-0.4-1.8-0.4c-0.7,0-1.4,0.2-2.1,0.5
		l-2.9-2.9c0.1-0.2,0.2-0.4,0.3-0.6c0,0,0,0,0,0c0-0.1,0-0.1,0.1-0.2c0,0,0,0,0,0c0-0.1,0-0.1,0-0.2c0,0,0,0,0-0.1c0,0,0-0.1,0-0.1
		c0,0,0-0.1,0-0.1c0,0,0-0.1,0-0.1c0,0,0-0.1,0-0.1c0,0,0-0.1,0-0.1c0,0,0-0.1,0-0.1c0,0,0-0.1,0-0.1c0-0.1,0-0.1,0-0.2
		c0-2.5-2-4.6-4.6-4.6c-2.5,0-4.6,2-4.6,4.6c0,0.5,0.1,0.9,0.2,1.3h0c0.1,0.3,0.2,0.5,0.3,0.7l-8.9,8.9c-0.6-0.3-1.3-0.5-2-0.5
		c-2.5,0-4.6,2-4.6,4.6C10.1,55.9,10.2,56.4,10.3,56.8L10.3,56.8z M59.9,24.3c2.1,0,3.8,1.7,3.8,3.8s-1.7,3.8-3.8,3.8
		c-2.1,0-3.8-1.7-3.8-3.8S57.9,24.3,59.9,24.3z M38.8,48c0.8,0,1.5,0.7,1.5,1.5c0,0.8-0.7,1.5-1.5,1.5c-0.8,0-1.5-0.7-1.5-1.5
		C37.3,48.7,37.9,48,38.8,48z M29.7,39c0.8,0,1.5,0.7,1.5,1.5c0,0.8-0.7,1.5-1.5,1.5c-0.8,0-1.5-0.7-1.5-1.5
		C28.2,39.6,28.9,39,29.7,39z M14.7,54c0.8,0,1.5,0.7,1.5,1.5c0,0.8-0.7,1.5-1.5,1.5c-0.8,0-1.5-0.7-1.5-1.5
		C13.2,54.7,13.9,54,14.7,54z"/>
	<g>
		<path class="st3" d="M65.8,43.2l0.6-0.6c0,0,0,0,0,0c0,0,0,0,0,0l-0.6,0.3l-1.5-2.5c0,0,0,0.1-0.1,0.1L65.8,43.2z"/>
		<rect x="71.5" y="49.9" class="st3" width="2.5" height="0.2"/>
		<path class="st3" d="M67.2,42.2c0.3,0,0.5,0.5,0.5,1.4v0C67.7,42.7,67.6,42.2,67.2,42.2z"/>
		<path class="st3" d="M76.4,53.7c-0.2,0-0.8,0.4-1.9,1.2l-1.8-2.4l1.7,2.6c1.1-0.8,1.7-1.2,1.9-1.2c0.5,0.1,0.8,0.5,0.8,1.1
			c0,0.6-0.1,1-0.3,1.4c0.3-0.4,0.4-1,0.4-1.6C77.2,54.1,76.9,53.8,76.4,53.7z"/>
		<path class="st3" d="M79.9,51.9c-0.3-0.5-0.8-0.9-1.4-1.3c-0.2-0.1-0.4-0.2-0.5-0.3c0.2,0.1,0.3,0.2,0.5,0.3
			C79.1,51,79.5,51.4,79.9,51.9z"/>
		<path class="st3" d="M80.2,52.4c0.3,0.5,0.4,1.1,0.5,1.7C80.6,53.5,80.4,52.9,80.2,52.4z"/>
		<path class="st3" d="M95.2,68c0,0.1,0.1,0.2,0.1,0.3c0.8,2.1,0.3,4-1.2,5.5c-4.3,4.5-8.7,9-13.2,13.4c-2.7,2.7-6.2,4.3-9.8,5.3
			C63,94.8,55.2,94,47.8,90c-2-1.1-3.9-2.3-6-3.2C39,85.5,36,85,32.9,85.2c-0.1,0-0.2,0-0.3,0c0,0.1,0,0.1,0,0.2c0.2,0,0.3,0,0.4,0
			c3.1-0.2,6.1,0.3,8.9,1.6c2.1,0.9,4,2.1,6,3.2c7.4,4,15.2,4.8,23.3,2.5c3.6-1,7.1-2.6,9.8-5.3c4.5-4.4,8.8-8.9,13.2-13.4
			c1.5-1.5,2-3.4,1.3-5.3C95.4,68.5,95.3,68.3,95.2,68z"/>
		<path class="st3" d="M73.4,76.1c-0.7,1.9-2.4,3.2-4.5,3.1c-2-0.1-3.9-0.5-5.8-1c-2.1-0.6-4.3-1.5-6.4-2.2c-0.3-0.1-0.6-0.2-1-0.3
			c-0.5,1.3-1,2.5-1.5,3.9c0.1,0,0.1,0,0.2,0.1c0.5-1.3,1-2.5,1.4-3.8c0.4,0.1,0.7,0.2,1,0.3c2.1,0.8,4.2,1.6,6.4,2.2
			c1.9,0.5,3.9,0.9,5.8,1c2.1,0.1,3.8-1.2,4.5-3.1c0.7-1.8,0.4-3.5-0.8-4.8C73.7,72.9,74,74.5,73.4,76.1z"/>
		<path class="st2" d="M95.5,62.5c-1.6-0.9-3.3-1.4-5.2-1.3c0.1-0.4,0.2-0.8,0.4-1.1c1-3.1,1.3-6.2,0.4-9.4c-1.4-4.7-3.6-9-6.2-13.1
			c-1.6-2.5-3.5-4.7-5.2-7c-0.4-0.5-0.9-0.6-1.5-0.5c-3.1,0.6-6.1,0.8-9.2,0.7c0,0.1-0.1,0.2-0.1,0.2c-1.1,3.3-4,5.8-7.4,6.4
			c-0.1,0-0.2,0-0.3,0c-0.5,0.1-0.9,0.1-1.3,0.1s-0.9,0-1.3-0.1c-0.1,0-0.2,0-0.2,0c-0.4-0.1-0.8-0.2-1.2-0.3l-4.6,4.6
			c-1.4,2.4-2.6,5-3.6,7.6c-0.8,2-1.3,4-1.1,6.2c0,0.6,0.1,1.1,0.2,1.7c-2.8,0-5.4-0.1-8.1,0c-2.6,0.2-5.3,0.6-8,0.9
			c-0.1-0.6-0.2-1.3-0.2-1.9c-3.2,0-6.4,0-9.6,0c0,0,0,0,0,0c0,0,0,0.4,0,0.4c0,0,0,0.3-0.1,0.3c0,0.1,0,0.2-0.1,0.3
			c0,0.2-0.1,0.4-0.1,0.4c0,0.1-0.1,0.3-0.1,0.3c-0.9,2.6-3.2,4.6-5.9,5.1c-0.1,0-0.1,0-0.2,0C15.4,63,15.1,63,14.7,63
			c-0.4,0-0.7,0-1.1-0.1c-0.1,0-0.2,0-0.2,0c-1.1-0.2-2.1-0.6-3-1.2c-0.1,0-0.2-0.1-0.2-0.2c-0.6-0.4-1.1-0.9-1.5-1.5
			c-0.1-0.1-0.1-0.1-0.1-0.2c-0.2-0.4-0.5-0.7-0.6-1.1c-0.3,4-0.5,7.8-0.8,11.7c0,0.4-0.1,0.7-0.1,1.1c0,2.8,0,5.6,0,8.4
			c0,0.3,0.1,0.6,0.1,0.9c0.1,3,0.3,6,0.4,9C7.6,91.5,7.8,93.3,8,95c8,0,15.9,0,23.8,0c0.2-1.8,0.3-3.6,0.5-5.5c1.1,0,2.2-0.1,3.3,0
			c3,0.3,5.7,1.6,8.2,3.1c6.3,3.9,13.2,5.7,20.6,5.3c5.5-0.3,10.6-1.8,15.2-4.8c2.2-1.5,4.4-3.2,6.3-5C90,84,94.2,79.8,98,75.5
			C101.5,71.7,100.1,65.1,95.5,62.5z M64.2,40.3c1.2-1.4,2.2-2.1,3.2-2.1c1.1,0,2,0.4,2.8,1.1s1.2,1.6,1.2,2.7v0.2v4.5H74v0.2v3v0.2
			h-2.5v9.2c2.2-0.7,3.9-1.6,5-2.6c0.1-0.1,0.2-0.2,0.3-0.3c0.2-0.4,0.3-0.8,0.3-1.4c0-0.6-0.3-1-0.8-1.1c-0.2,0-0.8,0.4-1.9,1.2
			l-1.7-2.6c0.6-1.7,1.8-2.5,3.8-2.5c0.5,0,1,0.1,1.5,0.3c0.2,0.1,0.3,0.2,0.5,0.3c0.6,0.4,1,0.8,1.4,1.3c0.1,0.2,0.2,0.3,0.3,0.5
			c0.3,0.5,0.4,1.1,0.5,1.7c0,0.2,0,0.4,0,0.6c0,3.6-2.7,6.4-8,8.3c-0.3,0.1-1,0.3-2,0.6l-3-2.1V50.2H65v-3.3h2.7v-3.3
			c0-0.9-0.2-1.4-0.5-1.4c-0.2,0-0.5,0.2-0.8,0.4c0,0,0,0,0,0l-0.6,0.6l-1.6-2.7c0,0,0-0.1,0.1-0.1L64.2,40.3z M94.2,74
			c-4.4,4.5-8.7,9-13.2,13.4c-2.7,2.7-6.2,4.3-9.8,5.3c-8.1,2.3-15.9,1.5-23.3-2.5c-2-1.1-3.9-2.3-6-3.2c-2.8-1.3-5.8-1.8-8.9-1.6
			c-0.1,0-0.2,0-0.4,0c0-0.1,0-0.1,0-0.2c0,0-0.1,0-0.1,0c0-7.7,0-15.3,0-23.1c1.6-0.2,3.5-0.6,5.3-0.8c5.9-0.7,11.8-0.3,17.6,1.1
			c6.2,1.5,11.9,4.1,16.7,8.4c0.2,0.2,0.4,0.5,0.6,0.7c1.2,1.3,1.5,3,0.8,4.8c-0.7,1.9-2.4,3.2-4.5,3.1c-1.9-0.1-3.9-0.5-5.8-1
			c-2.2-0.6-4.3-1.4-6.4-2.2c-0.3-0.1-0.6-0.2-1-0.3c-0.5,1.3-1,2.4-1.4,3.8c1.5,0.6,3.1,1.2,4.6,1.6c3.1,0.9,6.1,1.9,9.4,2.1
			c4,0.2,7.4-2.1,8.9-5.7c0.4-1,1.1-1.9,1.9-2.7c3-3,6.1-5.9,9.2-8.8c2-1.7,5.7-0.6,6.8,1.8c0.1,0.2,0.2,0.4,0.3,0.7
			C96.2,70.6,95.7,72.5,94.2,74z"/>
		<path class="st2" d="M69.4,28c0.2,0,0.4,0.1,0.6,0.1c2.2-0.1,3.7-0.3,5.1-0.3c1.6-0.1,2.8-0.7,3.6-2.2c1.6-2.8,2.8-5.7,3.3-8.8
			c0.3-1.4,0.3-3,0.2-4.4C81.9,9,79.5,8,76.9,9.8c-0.1,0.1-0.2,0.2-0.4,0.3c-1.1,0.9-2.3,1.9-3.4,2.8c-0.6,0.5-1.1,0.9-1.7,1.3
			c-0.7,0.4-1.3,0.5-2,0c-1-0.7-2-1.3-3.1-1.9c-1.6-0.9-3.2-1.8-4.9-2.4c-2.6-0.9-4.4,0.4-4.2,3.2c0.1,1.6,0.5,3.2,0.9,4.8
			c0.1,0.3,0.2,0.6,0.2,0.8c0.5-0.1,1.1-0.1,1.6-0.1C65.2,18.6,69.4,22.8,69.4,28z"/>
		<path class="st0" d="M41.8,86.8c2.1,0.9,4,2.1,6,3.2c7.4,4,15.2,4.8,23.3,2.5c3.6-1,7.1-2.6,9.8-5.3c4.5-4.4,8.9-8.9,13.2-13.4
			c1.5-1.5,2-3.4,1.2-5.5c0-0.1-0.1-0.2-0.1-0.3c-1.3-2.3-4.8-3.4-6.7-1.6c-3.2,2.9-6.2,5.8-9.2,8.8c-0.8,0.7-1.5,1.7-1.9,2.7
			c-1.6,3.6-5,5.9-8.9,5.7c-3.2-0.1-6.3-1.1-9.4-2.1c-1.6-0.5-3.2-1.1-4.8-1.7c0,0,0-0.1,0.1-0.1c-0.1,0-0.1,0-0.2-0.1
			c0.5-1.4,1-2.6,1.5-3.9c0.4,0.1,0.7,0.2,1,0.3c2.1,0.7,4.3,1.6,6.4,2.2c1.9,0.5,3.8,0.9,5.8,1c2.1,0.1,3.8-1.2,4.5-3.1
			c0.6-1.6,0.3-3.2-0.7-4.6c-0.2-0.2-0.3-0.3-0.5-0.5c-4.8-4.4-10.5-6.9-16.7-8.4c-5.8-1.4-11.7-1.8-17.6-1.1
			c-1.9,0.2-3.7,0.5-5.3,0.8c0,7.8,0,15.4,0,22.9c0.1,0,0.2,0,0.3,0C36,85,39,85.5,41.8,86.8z"/>
		<path class="st0" d="M37.9,61.5c5.9-0.7,11.8-0.3,17.6,1.1c6.2,1.5,11.9,4,16.7,8.4c0.2,0.2,0.3,0.3,0.5,0.5
			c-0.2-0.2-0.4-0.5-0.6-0.7c-4.8-4.3-10.5-6.9-16.7-8.4c-5.8-1.4-11.7-1.8-17.6-1.1c-1.8,0.2-3.7,0.6-5.3,0.8c0,7.8,0,15.4,0,23.1
			c0,0,0.1,0,0.1,0c0-7.5,0-15.1,0-22.9C34.2,62,36,61.7,37.9,61.5z"/>
		<path class="st0" d="M59.1,81.5c3.1,1,6.2,2,9.4,2.1c3.9,0.2,7.3-2.1,8.9-5.7c0.4-1,1.1-2,1.9-2.7c3-3,6-5.9,9.2-8.8
			c1.9-1.7,5.4-0.7,6.7,1.6c-1.1-2.4-4.8-3.6-6.8-1.8c-3.1,2.9-6.2,5.8-9.2,8.8c-0.8,0.8-1.5,1.7-1.9,2.7c-1.5,3.6-4.9,5.9-8.9,5.7
			c-3.3-0.2-6.3-1.2-9.4-2.1c-1.5-0.5-3.1-1.1-4.6-1.6c0,0,0,0.1-0.1,0.1C55.9,80.4,57.5,81,59.1,81.5z"/>
		<path class="st1" d="M66.4,42.6C66.4,42.6,66.4,42.6,66.4,42.6c0.3-0.3,0.6-0.4,0.8-0.4c0.4,0,0.5,0.5,0.5,1.4v0v3.3H65v3.3h2.7
			v11.3l3,2.1c1-0.3,1.7-0.5,2-0.6c5.3-1.9,8-4.7,8-8.3c0-0.2,0-0.4,0-0.6c-0.1-0.6-0.2-1.2-0.5-1.7c-0.1-0.2-0.2-0.3-0.3-0.5
			c-0.3-0.5-0.8-0.9-1.4-1.3c-0.2-0.1-0.4-0.2-0.5-0.3c-0.5-0.2-1-0.3-1.5-0.3c-2,0-3.2,0.8-3.8,2.5l1.8,2.4
			c1.1-0.8,1.7-1.2,1.9-1.2c0.5,0.1,0.8,0.4,0.8,1.1c0,0.6-0.1,1.2-0.4,1.6c-0.1,0.2-0.2,0.3-0.4,0.5c-1,1-2.7,1.9-5,2.6v-9.4h0.1
			v-0.2H74v-3h-2.6v-0.2v-4.5c0-1.1-0.4-2-1.2-2.7c-0.8-0.7-1.7-1.1-2.8-1.1c-1,0-2.1,0.7-3.1,2l1.5,2.5L66.4,42.6z"/>
		<path class="st1" d="M67.4,38.4c1.1,0,2,0.4,2.8,1.1c0.8,0.7,1.2,1.6,1.2,2.7V42c0-1.1-0.4-2-1.2-2.7s-1.7-1.1-2.8-1.1
			c-1,0-2,0.7-3.2,2.1l0.1,0.1C65.4,39.1,66.4,38.4,67.4,38.4z"/>
		<path class="st1" d="M71.4,59.5c2.3-0.7,4-1.6,5-2.6c0.2-0.2,0.3-0.3,0.4-0.5c-0.1,0.1-0.2,0.2-0.3,0.3c-1.1,1-2.8,1.9-5,2.6v-9.2
			h-0.1V59.5z"/>
		<path class="st1" d="M67.2,42.2c-0.2,0-0.5,0.1-0.8,0.4C66.7,42.4,67,42.2,67.2,42.2z"/>
		<rect x="71.4" y="46.7" class="st1" width="2.6" height="0.2"/>
	</g>
</g>
</svg>
