<?xml version="1.0" encoding="utf-8"?>
<!-- Generator: Adobe Illustrator 22.1.0, SVG Export Plug-In . SVG Version: 6.00 Build 0)  -->
<svg version="1.1" id="Layer_1" xmlns="http://www.w3.org/2000/svg" xmlns:xlink="http://www.w3.org/1999/xlink" x="0px" y="0px"
	 viewBox="0 0 107 107" style="enable-background:new 0 0 107 107;" xml:space="preserve">
<style type="text/css">
	.st0{fill:#CDB4DB;}
	.st1{fill:#EBE1F1;}
	.st2{fill:#FFFFFF;}
</style>
<g>
	<g>
		<path class="st0" d="M95.5,62.5c-1.6-0.9-3.3-1.4-5.2-1.3c0.1-0.4,0.2-0.8,0.4-1.1c1-3.1,1.3-6.2,0.4-9.4c-1.4-4.7-3.6-9-6.2-13.1
			c-1.6-2.5-3.5-4.7-5.2-7c-0.4-0.5-0.9-0.6-1.5-0.5c-5.1,1-10.2,1-15.2,0.1c-1.3-0.2-2,0.1-2.8,0.9c-4.9,5.4-8.5,11.5-11.2,18.2
			c-0.8,2-1.3,4-1.1,6.2c0,0.6,0.1,1.1,0.2,1.7c-2.8,0-5.4-0.1-8.1,0c-2.6,0.2-5.3,0.6-8,0.9c-0.1-0.6-0.2-1.3-0.2-1.9
			c-7.9,0-15.8,0-23.7,0C8,56.5,8,56.8,8,57.1C7.6,61.6,7.4,66,7.1,70.4c0,0.4-0.1,0.7-0.1,1.1c0,2.8,0,5.6,0,8.4
			c0,0.3,0.1,0.6,0.1,0.9c0.1,3,0.3,6,0.4,9C7.6,91.5,7.8,93.3,8,95c8,0,15.9,0,23.8,0c0.2-1.8,0.3-3.6,0.5-5.5c1.1,0,2.2-0.1,3.3,0
			c3,0.3,5.7,1.6,8.2,3.1c6.3,3.9,13.2,5.7,20.6,5.3c5.5-0.3,10.6-1.8,15.2-4.8c2.2-1.5,4.4-3.2,6.3-5C90,84,94.2,79.8,98,75.5
			C101.5,71.7,100.1,65.1,95.5,62.5z M67.4,36.9c1.1,0,2,0.4,2.8,1.1c0.8,0.7,1.2,1.6,1.2,2.7v4.7H74v3.2h-2.6V58
			c2.3-0.7,4-1.6,5-2.6c0.5-0.5,0.7-1.1,0.7-1.9c0-0.6-0.3-1-0.8-1.1c-0.2,0-0.8,0.4-1.9,1.2L72.7,51c0.6-1.7,1.8-2.5,3.8-2.5
			c0.6,0,1.3,0.2,2,0.6c1.5,1,2.2,2.4,2.2,4.1c0,3.6-2.7,6.4-8,8.3c-0.3,0.1-1,0.3-2,0.6l-3-2.1V48.7H65v-3.3h2.7v-3.3
			c0-0.9-0.2-1.4-0.5-1.4c-0.2,0-0.5,0.1-0.8,0.4l-0.6,0.6L64.2,39C65.3,37.6,66.4,36.9,67.4,36.9z M94.2,74
			c-4.4,4.5-8.7,9-13.2,13.4c-2.7,2.7-6.2,4.3-9.8,5.3c-8.1,2.3-15.9,1.5-23.3-2.5c-2-1.1-3.9-2.3-6-3.2c-2.8-1.3-5.8-1.8-8.9-1.6
			c-0.1,0-0.2,0-0.4,0c0-7.6,0-15.2,0-23.1c1.6-0.3,3.4-0.6,5.3-0.8c5.9-0.7,11.8-0.3,17.6,1.1c6.2,1.5,11.9,4,16.7,8.4
			c1.6,1.4,2.1,3.3,1.3,5.3c-0.7,1.9-2.4,3.2-4.5,3.1c-1.9-0.1-3.9-0.5-5.8-1c-2.2-0.6-4.3-1.4-6.4-2.2c-0.3-0.1-0.6-0.2-1-0.3
			c-0.5,1.3-1,2.5-1.5,3.9c1.6,0.6,3.2,1.2,4.8,1.7c3.1,1,6.2,2,9.4,2.1c3.9,0.2,7.3-2.1,8.9-5.7c0.4-1,1.1-2,1.9-2.7
			c3-3,6-5.9,9.2-8.8c2.1-1.9,6-0.5,7,2.3C96.2,70.6,95.7,72.5,94.2,74z"/>
		<path class="st0" d="M61.5,25.7c0.4,0.6,1,1.2,1.7,1.4c2.5,0.5,5,0.7,6.8,1c2.2-0.1,3.7-0.3,5.1-0.3c1.6-0.1,2.8-0.7,3.6-2.2
			c1.6-2.8,2.8-5.7,3.3-8.8c0.3-1.4,0.3-3,0.2-4.4C81.9,9,79.5,8,76.9,9.8c-0.1,0.1-0.2,0.2-0.4,0.3c-1.1,0.9-2.3,1.9-3.4,2.8
			c-0.6,0.5-1.1,0.9-1.7,1.3c-0.7,0.4-1.3,0.5-2,0c-1-0.7-2-1.3-3.1-1.9c-1.6-0.9-3.2-1.8-4.9-2.4c-2.6-0.9-4.4,0.4-4.2,3.2
			c0.1,1.6,0.5,3.2,0.9,4.8C58.7,20.7,59.9,23.3,61.5,25.7z"/>
	</g>
	<g>
		<g>
			<path class="st1" d="M88.4,66.2c-3.1,2.9-6.2,5.8-9.2,8.8c-0.8,0.8-1.5,1.7-1.9,2.7c-1.5,3.6-4.9,5.9-8.9,5.7
				c-3.3-0.2-6.3-1.2-9.4-2.1c-1.6-0.5-3.2-1.1-4.8-1.7c0.5-1.4,1-2.6,1.5-3.9c0.4,0.1,0.7,0.2,1,0.3c2.1,0.7,4.3,1.6,6.4,2.2
				c1.9,0.5,3.8,0.9,5.8,1c2.1,0.1,3.8-1.2,4.5-3.1s0.2-3.8-1.3-5.3c-4.8-4.3-10.5-6.9-16.7-8.4c-5.8-1.4-11.7-1.8-17.6-1.1
				c-1.8,0.2-3.7,0.6-5.3,0.8c0,7.8,0,15.4,0,23.1c0.2,0,0.3,0,0.4,0c3.1-0.2,6.1,0.3,8.9,1.6c2.1,0.9,4,2.1,6,3.2
				c7.4,4,15.2,4.8,23.3,2.5c3.6-1,7.1-2.6,9.8-5.3c4.5-4.4,8.9-8.9,13.2-13.4c1.5-1.5,2-3.4,1.2-5.5C94.4,65.7,90.5,64.4,88.4,66.2
				z"/>
			<path class="st2" d="M66.4,41.1c0.3-0.2,0.6-0.4,0.8-0.4c0.4,0,0.5,0.5,0.5,1.4v3.3H65v3.3h2.7V60l3,2.1c1-0.3,1.7-0.5,2-0.6
				c5.3-1.9,8-4.7,8-8.3c0-1.7-0.7-3.1-2.2-4.1c-0.7-0.4-1.4-0.6-2-0.6c-2,0-3.2,0.8-3.8,2.5l1.8,2.4c1.1-0.8,1.7-1.2,1.9-1.2
				c0.5,0.1,0.8,0.4,0.8,1.1c0,0.8-0.2,1.5-0.7,1.9c-1.1,1-2.8,1.9-5,2.6v-9.4H74v-3.2h-2.6v-4.7c0-1.1-0.4-2-1.2-2.7
				c-0.8-0.7-1.7-1.1-2.8-1.1c-1,0-2,0.7-3.2,2.1l1.6,2.6L66.4,41.1z"/>
		</g>
	</g>
</g>
</svg>
