<?xml version="1.0" encoding="utf-8"?>
<!-- Generator: Adobe Illustrator 22.1.0, SVG Export Plug-In . SVG Version: 6.00 Build 0)  -->
<svg version="1.1" id="Layer_1" xmlns="http://www.w3.org/2000/svg" xmlns:xlink="http://www.w3.org/1999/xlink" x="0px" y="0px"
	 viewBox="0 0 107 107" style="enable-background:new 0 0 107 107;" xml:space="preserve">
<style type="text/css">
	.st0{fill:#F8DBC5;}
	.st1{fill:#FFFFFF;}
	.st2{fill:#DC8E6C;}
</style>
<g>
	<g>
		<path class="st0" d="M59.5,59.1c-0.2-0.7-0.4-1.4-0.3-2c0.1-0.6,0.4-1.2,0.8-1.8l11.3-20.1c1-1.8,2.1-4,1.3-6
			c-0.8-2.5-3.7-3.5-5.3-4c-2.8-1-6.1-2.1-9.4-2.1c-0.2,0-0.3,0-0.5,0c-3,0.1-6,1.1-9.6,3.1c-6,3.4-11.1,8.2-16.1,12.8
			c-1.8,1.6-2.3,3.2-1.7,4.5c0.4,1,1.5,1.6,2.7,1.6c0.3,0,0.6,0,0.9-0.1c1.2-0.3,2.2-1.2,3-1.9l6.6-5.8c0.8-0.7,1.5-1.3,2.3-2l1.1-1
			c0.2-0.1,0.4-0.2,0.7-0.4c0.9-0.4,1.9-0.8,2.9-1.1l1.1-0.4l4.3-1.6c0.3-0.1,0.7-0.2,1-0.2c0.1,0,0.2,0,0.3,0.1s0.2,0.2,0.2,0.3
			c0.1,0.5-0.1,1.3-0.5,2.1l-6.1,10.8c-1.5,2.7-3.5,6-3.4,9.7c0,2.3,0.8,4.5,1.6,6.5L61.3,94c0.3,0.8,0.7,1.9,1.5,2.6
			c0.6,0.6,1.5,1,2.5,1l0,0c1.6,0,3-0.9,3.6-2.2c0.6-1.4,0.3-2.9-0.2-4.5L59.5,59.1z"/>
		<path class="st1" d="M88.5,56.8c-0.1-0.8-0.5-1.5-1.2-2l-0.9-0.7c-3.4-2.6-6.9-5.3-10.3-7.9c-0.6-0.4-0.9-0.9-1-1.5
			c-0.4-1.5-0.8-3.1-1.3-4.7l-1.1-3.9c0,0-2.5,4.4-2.9,5.2c-0.1,0.3-0.3,0.5-0.5,0.8c-0.5,0.7-1,1.5-1.1,2.3
			c-0.1,0.9,0.2,1.7,0.6,2.5c0.1,0.3,0.2,0.6,0.3,0.9c0,0.1,0.1,0.3,0.2,0.5c0.1,0.1,0.2,0.3,0.3,0.4c0.3,0.4,0.5,0.9,1,1.2
			c3.3,2.5,6.7,5.1,10.1,7.6l2.9,2.2c0.6,0.4,1.2,0.6,1.9,0.6c0.9,0,1.8-0.4,2.4-1.2C88.3,58.4,88.6,57.6,88.5,56.8z"/>
		<path class="st1" d="M46.7,59.6L45,54.9l-1.3,2.2l-4.1,7.1c-0.3,0.5-0.6,1.1-0.9,1.6c-0.3,0.5-0.6,0.9-1.3,1.2l-0.2,0.1
			c-0.6,0.3-1.2,0.5-1.8,0.7l-8.9,2.8c-0.6,0.2-1.4,0.4-2.3,0.7c-2.4,0.7-5.2,1.6-6,1.9c-1.2,0.5-2,1.5-2.3,2.8
			c-0.3,1.2,0,2.4,0.8,3.4c0.8,0.9,1.8,1.4,3,1.4c0.5,0,1-0.1,1.6-0.3L38,75.2c1.2-0.4,2.4-0.7,3.6-1.3c0.7-0.4,1.4-0.8,1.9-1.3
			c0.3-0.2,0.5-0.5,0.7-0.7c0.3-0.3,0.5-0.6,0.7-1l0.7-0.9c0.9-1.2,1.7-2.4,2.6-3.6c0.4-0.6,0.5-1.1,0.2-1.8
			C47.8,62.8,47.3,61.2,46.7,59.6z"/>
		<path class="st0" d="M73.8,20.2c0.8,0.2,1.7,0.4,2.5,0.4l0,0c3.8,0,7.2-2.5,8.3-6.1c1.4-4.8-1.1-9.6-5.8-11
			c-0.8-0.3-1.7-0.4-2.6-0.4c-3.9,0-7.2,2.6-8.4,6.4C66.5,14,69.2,18.9,73.8,20.2z"/>
		<polygon class="st0" points="36,52.2 20.5,40.1 13,49.8 28.7,62.2 		"/>
	</g>
	<g>
		<g>
			<path class="st2" d="M92.7,95.5l-0.7-10l-1.8-25.4c1.3-2.4,0.8-5.4-1.4-7c-3.6-2.8-7.3-5.6-10.9-8.4c-0.3-0.3-0.6-0.7-0.8-1.1
				c-0.8-3-1.6-5.9-2.4-8.9c-0.1-0.3-0.1-0.7,0-1c1.4-4.4-1-9-5.4-10.4c-2.5-0.8-4.9-1.5-7.4-2.2c-3.6-1.1-7.1-0.8-10.5,0.7
				c-1.4,0.7-2.9,1.3-4.3,2c-1.8,0.8-3.4,1.6-5,2.8c-1.6,1.2-3,2.5-4.4,3.8c-2.4,2.3-5.1,4.4-7.6,6.6c-0.9,0.8-1.8,1.6-2.4,2.6
				c-0.2,0.4-0.4,0.8-0.5,1.2c-0.8-0.1-1.5,0-1.9,0.4c-0.1,0.1-0.1,0.2-0.1,0.3L22,38.8c-1.2-0.9-2.8-0.7-3.8,0.4l-7,8.7
				c-0.9,1.2-0.7,2.8,0.4,3.8l14.7,11.8c1.2,0.9,2.8,0.7,3.8-0.4l7-8.7c0.9-1.2,0.7-2.8-0.4-3.8l-1.4-1.1c0.2-0.6,0-1.5-0.4-2.4
				c0.5-0.2,1-0.5,1.5-0.9c1.6-1.4,3.2-2.8,4.9-4.2c1.1-1,2.2-1.9,3.3-2.9c0.6-0.5,1.1-1,1.7-1.4c0.5-0.4,0.9-0.9,1.5-1.2
				c0.1,0,0.1-0.1,0.2-0.1c0.1,0,0.2-0.1,0.3-0.1c0.7-0.3,1.4-0.5,2.1-0.7c0.7-0.2,1.4-0.4,2.1-0.7c-0.2,0.4-0.3,0.6-0.4,0.8
				c-0.8,1.5-1.7,3-2.5,4.6c-1.7,3.3-3.5,6.6-5.2,10c-2.5,5-5.4,9.7-8.1,14.5c-0.3,0.3-0.8,0.5-1.2,0.6c-4.2,1.3-8.3,2.6-12.5,4
				c-2.1,0.7-4.3,1.1-6.3,2.3c-2.2,1.3-3.6,3.6-3.2,6.2c0.7,4.3,4.2,6.5,8.6,5.2c4.3-1.2,8.6-2.6,12.8-4c2.6-0.8,5.5-1.5,8-2.8
				c1.4-0.8,2.7-1.7,3.6-3.1c0.9-1.2,1.8-2.5,2.8-4c0.2,0.4,0.3,0.7,0.4,1c3.1,8.3,6.1,16.7,9.2,25c0.4,1.1,1.1,2.2,1.8,3.2
				c0.1,0.1,0.2,0.3,0.4,0.4H47.6c-0.8-2.2-2.9-3.6-5.3-3.6c-3.1,0-5.7,2.5-5.7,5.7s2.5,5.7,5.7,5.7c2.4,0,4.5-1.5,5.3-3.8h28.9
				l0.4-0.4l11.3-12.7l0.4,5.9c-2.2,0.8-3.7,2.9-3.7,5.3c0,3.1,2.5,5.7,5.7,5.7c3.1,0,5.7-2.5,5.7-5.7
				C96.4,98.4,94.9,96.3,92.7,95.5z M74.1,44.9c0.2,0.8,0.6,1.4,1.3,1.9c3.8,2.9,7.5,5.8,11.3,8.6c1.1,0.8,1.2,2.2,0.4,3.3
				c-0.8,1-2.2,1.2-3.2,0.4c-4.3-3.3-8.7-6.5-13-9.8c-0.5-0.4-0.7-1-1.1-1.4c-0.1-0.1-0.1-0.3-0.1-0.4c-0.3-1-1-2.1-0.9-3.1
				s0.9-1.9,1.5-2.8c0.6-1.1,1.3-2.3,2-3.6C72.9,40.5,73.5,42.7,74.1,44.9z M32.9,54.3L29,59.1c-0.7,0.8-1.9,0.9-2.7,0.3l-10.7-8.6
				c-0.8-0.7-0.9-1.9-0.3-2.7l3.9-4.8c0.7-0.8,1.9-0.9,2.7-0.3l10.7,8.6C33.5,52.3,33.6,53.5,32.9,54.3z M47.3,66
				c-1.1,1.5-2.1,3-3.2,4.5c-0.3,0.4-0.5,0.8-0.8,1.1c-0.2,0.2-0.4,0.5-0.6,0.7c-0.5,0.5-1.2,0.9-1.8,1.2c-1.4,0.7-2.8,1.1-4.3,1.5
				c-1.6,0.5-3.1,1-4.7,1.5c-3.7,1.2-7.5,2.4-11.2,3.5c-1.5,0.5-2.8,0.3-3.8-0.9c-1.4-1.6-0.8-4.1,1.2-5c1-0.5,6.1-1.9,8.2-2.6
				c1.9-0.6,3.7-1.2,5.6-1.8c0.9-0.3,1.9-0.6,2.8-0.9c0.8-0.3,1.7-0.5,2.5-0.9c0.1,0,0.1-0.1,0.2-0.1c0.7-0.4,1.2-0.8,1.6-1.5
				c0.5-0.9,1-1.7,1.5-2.5c1-1.7,1.9-3.4,2.9-5.1c0.2-0.4,0.4-0.7,0.6-1.1c0.1-0.2,0.3-0.5,0.5-0.8c0.3,0.8,0.5,1.4,0.8,2.1
				c0.7,2,1.5,4,2.2,6C47.6,65.3,47.6,65.6,47.3,66z M67.9,95.4c-0.8,1.8-3.5,2.4-4.9,1c-0.7-0.6-1-1.5-1.3-2.4
				C57.4,82.7,53.2,71.3,49,59.9c-0.7-2-1.5-4.1-1.5-6.2c0-3.3,1.7-6.4,3.3-9.3c2.1-3.6,4.1-7.2,6.2-10.9c0.6-1.1,1.1-2.9,0-3.5
				c-0.6-0.3-1.3-0.1-1.9,0.1c-0.1,0-0.1,0.1-0.2,0.1c-1.4,0.5-2.8,1-4.2,1.5c-1.3,0.5-2.7,0.9-4,1.5c-0.3,0.1-0.6,0.3-0.9,0.5
				c-1.1,1-2.3,1.9-3.4,2.9c-2.2,1.9-4.4,3.9-6.6,5.8c-0.8,0.7-1.6,1.4-2.7,1.7c-1,0.3-2.3-0.1-2.7-1.1c-0.6-1.3,0.5-2.7,1.6-3.6
				c5-4.7,10-9.4,16-12.8c2.9-1.6,6-2.9,9.3-3.1c3.3-0.1,6.5,1,9.7,2.1c2,0.7,4.2,1.6,4.8,3.6c0.6,1.8-0.3,3.8-1.3,5.5
				c-3.8,6.7-7.6,13.5-11.4,20.2c-0.4,0.7-0.8,1.4-0.9,2.1c-0.1,0.8,0.1,1.6,0.3,2.4c3,10.7,6.1,21.3,9.1,32
				C68,92.7,68.4,94.2,67.9,95.4z M74.9,98.7h-5.4c1.6-1.6,2.3-4.1,1.6-6.7c-0.6-2-1.1-4-1.7-6.1c-2.6-9.3-5.3-18.6-7.9-27.9
				c-0.1-0.4,0-0.9,0.2-1.3c0.6-1.3,1.4-2.5,2-3.7c0.9-1.6,1.8-3.1,2.7-4.8c0.1,0.2,0.2,0.3,0.2,0.4c0.4,1.5,1.3,2.5,2.5,3.4
				c3.8,2.8,7.6,5.7,11.4,8.5c0.8,0.6,1.5,1.2,2.4,1.7c1.1,0.5,2.3,0.6,3.4,0.4l1.5,21.5L74.9,98.7z"/>
			<path class="st2" d="M72.9,22.5c5.9,1.8,12.3-1.7,14-7.5c1.8-6-1.6-12.3-7.6-14.1c-5.9-1.8-12.2,1.7-14,7.7
				C63.5,14.4,67,20.8,72.9,22.5z M68.4,9.6c1.3-4.4,5.7-6.8,10-5.5s6.7,5.7,5.4,10.1c-1.2,4.2-5.7,6.5-10,5.3
				C69.6,18.2,67.1,13.7,68.4,9.6z"/>
		</g>
		<polygon class="st2" points="67.2,24.3 67,27 58.5,43.6 58.3,47.5 61.1,44.9 69.5,28.3 71.8,27.4 		"/>
	</g>
</g>
</svg>
