<?xml version="1.0" encoding="utf-8"?>
<!-- Generator: Adobe Illustrator 22.1.0, SVG Export Plug-In . SVG Version: 6.00 Build 0)  -->
<svg version="1.1" id="Layer_1" xmlns="http://www.w3.org/2000/svg" xmlns:xlink="http://www.w3.org/1999/xlink" x="0px" y="0px"
	 viewBox="0 0 107 107" style="enable-background:new 0 0 107 107;" xml:space="preserve">
<style type="text/css">
	.st0{fill:#F3DCDD;}
	.st1{fill:#FFFFFF;}
	.st2{fill:#D36B92;}
	.st3{fill:none;}
</style>
<g>
	<path class="st0" d="M60.4,59.5c-1.1-1.1-1.3-1.8-1.2-2.4c0.1-0.6,0.4-1.2,0.8-1.8l11.3-20.1c1-1.8,2.1-4,1.3-6
		c-0.8-2.5-3.7-3.5-5.3-4c-2.8-1-6.1-2.1-9.4-2.1c-0.2,0-0.3,0-0.5,0c-3,0.1-6,1.1-9.6,3.1c-6,3.4-11.1,8.2-16.1,12.8
		c-1.8,1.6-2.3,3.2-1.7,4.5c0.4,1,1.5,1.6,2.7,1.6c0.3,0,0.6,0,0.9-0.1c1.2-0.3,2.2-1.2,3-1.9l6.6-5.8c0.8-0.7,1.5-1.3,2.3-2l1.1-1
		c0.2-0.1,0.4-0.2,0.7-0.4c0.9-0.4,1.9-0.8,2.9-1.1l1.1-0.4l4.3-1.6c0.3-0.1,0.7-0.2,1-0.2c0.1,0,0.2,0,0.3,0.1s0.2,0.2,0.2,0.3
		c0.1,0.5-0.1,1.3-0.5,2.1l-6.1,10.8c-1.5,2.7-3.5,6-3.4,9.7c0,2.3,0.8,4.5,0.2,6.9l12.6,33.9c1.7,0.4,2.1,1.5,2.9,2.2
		c0.6,0.6,1.5,1,2.5,1l0,0c1.6,0,3-0.9,3.6-2.2c0.6-1.4,0.3-2.9,0.7-4.1L60.4,59.5z"/>
	<path class="st1" d="M88.5,56.8c-0.1-0.8-0.5-1.5-1.2-2l-0.9-0.7c-3.4-2.6-6.9-5.3-10.3-7.9c-0.6-0.4-0.9-0.9-1-1.5
		c-0.4-1.5-0.8-3.1-1.3-4.7l-1.1-3.9c0,0-2.5,4.4-2.9,5.2c-0.1,0.3-0.3,0.5-0.5,0.8c-0.5,0.7-1,1.5-1.1,2.3
		c-0.1,0.9,0.2,1.7,0.6,2.5c0.1,0.3,0.2,0.6,0.3,0.9c0,0.1,0.1,0.3,0.2,0.5c0.1,0.1,0.2,0.3,0.3,0.4c0.3,0.4,0.5,0.9,1,1.2
		c3.3,2.5,6.7,5.1,10.1,7.6l2.9,2.2c0.6,0.4,1.2,0.6,1.9,0.6c0.9,0,1.8-0.4,2.4-1.2C88.3,58.4,88.6,57.6,88.5,56.8z"/>
	<path class="st1" d="M46.7,59.6L45,54.9l-1.3,2.2l-4.1,7.1c-0.3,0.5-0.6,1.1-0.9,1.6c-0.3,0.5-0.6,0.9-1.3,1.2l-0.2,0.1
		c-0.6,0.3-1.2,0.5-1.8,0.7l-8.9,2.8c-0.6,0.2-1.4,0.4-2.3,0.7c-2.4,0.7-5.2,1.6-6,1.9c-1.2,0.5-2,1.5-2.3,2.8
		c-0.3,1.2,0,2.4,0.8,3.4c0.8,0.9,1.8,1.4,3,1.4c0.5,0,1-0.1,1.6-0.3L38,75.2c1.2-0.4,2.4-0.7,3.6-1.3c0.7-0.4,1.4-0.8,1.9-1.3
		c0.3-0.2,0.5-0.5,0.7-0.7c0.3-0.3,0.5-0.6,0.7-1l0.7-0.9c0.9-1.2,1.7-2.4,2.6-3.6c0.4-0.6,0.5-1.1,0.2-1.8
		C47.8,62.8,47.3,61.2,46.7,59.6z"/>
	<path class="st0" d="M73.8,20.2c0.8,0.2,1.7,0.4,2.5,0.4l0,0c3.8,0,7.2-2.5,8.3-6.1c1.4-4.8-1.1-9.6-5.8-11
		c-0.8-0.3-1.7-0.4-2.6-0.4c-3.9,0-7.2,2.6-8.4,6.4C66.5,14,69.2,18.9,73.8,20.2z"/>
	<polygon class="st0" points="36,52.2 20.5,40.1 13,49.8 28.7,62.2 	"/>
</g>
<path class="st2" d="M72.9,22.5c5.9,1.8,12.3-1.7,14-7.5c1.8-6-1.6-12.3-7.6-14.1c-5.9-1.8-12.2,1.7-14,7.7
	C63.5,14.4,67,20.8,72.9,22.5z M68.4,9.6c1.3-4.4,5.7-6.8,10-5.5s6.7,5.7,5.4,10.1c-1.2,4.2-5.7,6.5-10,5.3
	C69.6,18.2,67.1,13.7,68.4,9.6z"/>
<polygon class="st2" points="67.2,24.3 67,27 58.5,43.6 58.3,47.5 61.1,44.9 69.5,28.3 71.8,27.4 "/>
<g>
	<path class="st0" d="M69.3,77.9c2.6,0,4.7-2.1,4.7-4.7s-2.1-4.7-4.7-4.7c-2.6,0-4.7,2.1-4.7,4.7S66.7,77.9,69.3,77.9z"/>
	<path class="st2" d="M19.6,101.6c0.2,0.5,0.4,1,0.7,1.4l0,0c0.3,0.3,0.6,0.7,0.9,0.9l0,0c0.6,0.4,1.3,0.7,2.1,0.9v0
		c0.2,0,0.4,0,0.7,0s0.4,0,0.7,0v0c1.7-0.2,3.1-1.5,3.7-3.1c0,0,0,0,0,0c0-0.1,0-0.1,0.1-0.2c0,0,0,0,0,0c0-0.1,0-0.1,0-0.2
		c0,0,0,0,0-0.1c0,0,0-0.1,0-0.1c0,0,0-0.1,0-0.1c0,0,0-0.1,0-0.1c0,0,0-0.1,0-0.1c0,0,0-0.1,0-0.1c0,0,0-0.1,0-0.1c0,0,0-0.1,0-0.1
		c0-0.1,0-0.1,0-0.2c0-0.7-0.2-1.4-0.5-2l9-9c0.4,0.2,0.8,0.4,1.3,0.4v0c0.2,0,0.4,0,0.7,0c0.2,0,0.4,0,0.7,0v0
		c0.5-0.1,0.9-0.2,1.3-0.4l3,3c-0.3,0.6-0.4,1.2-0.4,1.9c0,0.5,0.1,0.9,0.2,1.3h0c0.2,0.5,0.4,1,0.7,1.4l0,0
		c0.3,0.3,0.6,0.7,0.9,0.9l0,0c0.6,0.4,1.3,0.7,2.1,0.9v0c0.2,0,0.4,0,0.7,0c0.2,0,0.4,0,0.7,0v0c1.7-0.2,3.1-1.5,3.7-3.1
		c0,0,0,0,0,0c0-0.1,0-0.1,0.1-0.2c0,0,0,0,0,0c0-0.1,0-0.1,0-0.2c0,0,0,0,0-0.1c0,0,0-0.1,0-0.1c0,0,0-0.1,0-0.1c0,0,0-0.1,0-0.1
		c0,0,0-0.1,0-0.1c0,0,0-0.1,0-0.1c0,0,0-0.1,0-0.1c0,0,0-0.1,0-0.1c0-0.1,0-0.1,0-0.2c0-0.8-0.2-1.5-0.6-2.2l13.8-13.8
		c0.7,0.5,1.6,0.8,2.5,0.9v0c0.3,0,0.6,0.1,0.9,0.1c0.3,0,0.6,0,0.9-0.1v0c2.5-0.4,4.5-2.1,5.2-4.4c0,0,0,0,0,0
		c0-0.1,0.1-0.2,0.1-0.3c0,0,0,0,0-0.1c0-0.1,0-0.1,0.1-0.2c0,0,0-0.1,0-0.1c0-0.1,0-0.1,0-0.2c0,0,0-0.1,0-0.1c0-0.1,0-0.1,0-0.2
		c0-0.1,0-0.1,0-0.2c0-0.1,0-0.1,0-0.2c0-0.1,0-0.1,0-0.2c0,0,0-0.1,0-0.1c0-0.1,0-0.2,0-0.3c0-3.6-2.9-6.5-6.5-6.5
		s-6.5,2.9-6.5,6.5c0,0.6,0.1,1.3,0.3,1.9h0c0.2,0.6,0.4,1.1,0.7,1.6L49.9,90.1c-0.6-0.3-1.2-0.4-1.8-0.4c-0.7,0-1.4,0.2-2.1,0.5
		l-2.9-2.9c0.1-0.2,0.2-0.4,0.3-0.6c0,0,0,0,0,0c0-0.1,0-0.1,0.1-0.2c0,0,0,0,0,0c0-0.1,0-0.1,0-0.2c0,0,0,0,0-0.1c0,0,0-0.1,0-0.1
		c0,0,0-0.1,0-0.1c0,0,0-0.1,0-0.1c0,0,0-0.1,0-0.1c0,0,0-0.1,0-0.1c0,0,0-0.1,0-0.1c0,0,0-0.1,0-0.1c0-0.1,0-0.1,0-0.2
		c0-2.5-2-4.6-4.6-4.6c-2.5,0-4.6,2-4.6,4.6c0,0.5,0.1,0.9,0.2,1.3h0c0.1,0.3,0.2,0.5,0.3,0.7L26,96.2c-0.6-0.3-1.3-0.5-2-0.5
		c-2.5,0-4.6,2-4.6,4.6C19.4,100.8,19.5,101.2,19.6,101.6L19.6,101.6z M69.2,69.1c2.1,0,3.8,1.7,3.8,3.8c0,2.1-1.7,3.8-3.8,3.8
		c-2.1,0-3.8-1.7-3.8-3.8C65.4,70.8,67.1,69.1,69.2,69.1z M48,92.8c0.8,0,1.5,0.7,1.5,1.5c0,0.8-0.7,1.5-1.5,1.5
		c-0.8,0-1.5-0.7-1.5-1.5C46.5,93.5,47.2,92.8,48,92.8z M39,83.8c0.8,0,1.5,0.7,1.5,1.5c0,0.8-0.7,1.5-1.5,1.5
		c-0.8,0-1.5-0.7-1.5-1.5C37.5,84.5,38.2,83.8,39,83.8z M24,98.8c0.8,0,1.5,0.7,1.5,1.5c0,0.8-0.7,1.5-1.5,1.5
		c-0.8,0-1.5-0.7-1.5-1.5C22.5,99.5,23.2,98.8,24,98.8z"/>
	<g>
		<circle class="st1" cx="24.2" cy="100.4" r="2.3"/>
		<circle class="st1" cx="39" cy="85.3" r="2.4"/>
		<circle class="st1" cx="48.1" cy="94.5" r="2.1"/>
	</g>
</g>
<g>
	<path class="st3" d="M54.8,94.3c0,0.1,0,0.2,0,0.3c0,0,0,0.3,0,0.3l0,0.3c0,0,0,0.3-0.1,0.3c0,0-0.1,0.3-0.1,0.3l-0.1,0.2
		c0,0.1-0.1,0.3-0.1,0.3c-0.3,0.9-0.8,1.7-1.4,2.4h7.6c-0.2-0.1-0.3-0.3-0.4-0.4c-0.7-1-1.4-2.1-1.8-3.2c-0.6-1.6-1.2-3.1-1.7-4.7
		l-2.2,2.2C54.7,93.2,54.8,93.8,54.8,94.3z"/>
	<path class="st3" d="M77.9,72.9c0,0.1,0,0.3,0,0.4c0,0,0,0.4,0,0.4s0,0.4-0.1,0.4l-0.1,0.4c0,0-0.1,0.4-0.1,0.4
		c0,0-0.1,0.3-0.1,0.3c0,0.1-0.1,0.3-0.1,0.3c-1,3-3.7,5.3-6.8,5.8c-0.1,0-0.1,0-0.2,0c-0.4,0.1-0.8,0.1-1.2,0.1
		c-0.3,0-0.7,0-1.1-0.1c0.4,1.5,0.8,2.9,1.2,4.4C70,88,70.5,90,71.1,92c0.7,2.6,0,5.1-1.6,6.7h5.4l12.9-14.6l-1.5-21.5
		c-1.1,0.2-2.3,0.1-3.4-0.4c-0.9-0.5-1.6-1.1-2.4-1.7c-3.8-2.8-7.6-5.7-11.4-8.5c-1.2-0.9-2.1-1.9-2.5-3.4c0-0.1-0.1-0.2-0.2-0.4
		c-0.9,1.7-1.8,3.2-2.7,4.8c-0.6,1.2-1.4,2.4-2,3.7c-0.2,0.4-0.3,0.9-0.2,1.3c0.8,2.7,1.5,5.4,2.3,8.1c1.5-1.2,3.4-1.9,5.4-1.9
		C74,64.2,77.9,68.1,77.9,72.9z"/>
	<path class="st3" d="M61.7,94c0.3,0.9,0.6,1.8,1.3,2.4c1.4,1.4,4.1,0.8,4.9-1c0.5-1.2,0.1-2.7-0.3-4c-0.9-3.1-1.7-6.1-2.6-9.1
		l-5.6,5.6C60.2,89.9,60.9,92,61.7,94z"/>
	<path class="st3" d="M60.9,75.5c0,0,0-0.1,0-0.1c-0.2-0.8-0.4-1.6-0.4-2.5c0-1.3,0.3-2.5,0.8-3.6c-0.9-3.3-1.9-6.6-2.8-9.9
		c-0.2-0.8-0.4-1.6-0.3-2.4c0.1-0.7,0.5-1.4,0.9-2.1c3.8-6.7,7.6-13.5,11.4-20.2c1-1.7,1.9-3.7,1.3-5.5c-0.6-2-2.8-2.9-4.8-3.6
		c-3.2-1.1-6.4-2.2-9.7-2.1C54,23.7,50.9,25,48,26.6c-6,3.4-11,8.1-16,12.8c-1.1,0.9-2.2,2.3-1.6,3.6c0.4,1,1.7,1.4,2.7,1.1
		c1.1-0.3,1.9-1,2.7-1.7c2.2-1.9,4.4-3.9,6.6-5.8c1.1-1,2.3-1.9,3.4-2.9c0.3-0.2,0.6-0.4,0.9-0.5c1.3-0.6,2.7-1,4-1.5
		c1.4-0.5,2.8-1,4.2-1.5c0.1,0,0.1-0.1,0.2-0.1c0.6-0.2,1.3-0.4,1.9-0.1c1.1,0.6,0.6,2.4,0,3.5c-2.1,3.7-4.1,7.3-6.2,10.9
		c-1.6,2.9-3.3,6-3.3,9.3c0,2.1,0.8,4.2,1.5,6.2c2.5,6.8,5,13.6,7.6,20.4l4.5-4.5C61,75.7,61,75.6,60.9,75.5z"/>
	<path class="st3" d="M45.3,58.9c-0.3-0.7-0.5-1.3-0.8-2.1c-0.2,0.3-0.4,0.6-0.5,0.8c-0.2,0.4-0.4,0.7-0.6,1.1
		c-1,1.7-1.9,3.4-2.9,5.1c-0.5,0.8-1,1.6-1.5,2.5c-0.4,0.7-0.9,1.1-1.6,1.5c-0.1,0-0.1,0.1-0.2,0.1c-0.8,0.4-1.7,0.6-2.5,0.9
		c-0.9,0.3-1.9,0.6-2.8,0.9c-1.9,0.6-3.7,1.2-5.6,1.8c-2.1,0.7-7.2,2.1-8.2,2.6c-2,0.9-2.6,3.4-1.2,5c1,1.2,2.3,1.4,3.8,0.9
		c3.7-1.1,7.5-2.3,11.2-3.5c1.6-0.5,3.1-1,4.7-1.5c1.5-0.4,2.9-0.8,4.3-1.5c0.6-0.3,1.3-0.7,1.8-1.2c0.2-0.2,0.4-0.5,0.6-0.7
		c0.3-0.3,0.5-0.7,0.8-1.1c1.1-1.5,2.1-3,3.2-4.5c0.3-0.4,0.3-0.7,0.2-1.1C46.8,62.9,46,60.9,45.3,58.9z"/>
	<path class="st3" d="M19.2,43.3l-3.9,4.8c-0.6,0.8-0.5,2,0.3,2.7l10.7,8.6c0.8,0.6,2,0.5,2.7-0.3l3.9-4.8c0.7-0.8,0.6-2-0.3-2.7
		L21.9,43C21.1,42.4,19.9,42.5,19.2,43.3z"/>
	<path class="st3" d="M86.7,55.4c-3.8-2.8-7.5-5.7-11.3-8.6c-0.7-0.5-1.1-1.1-1.3-1.9c-0.6-2.2-1.2-4.4-1.8-6.9
		c-0.7,1.3-1.4,2.5-2,3.6c-0.6,0.9-1.4,1.8-1.5,2.8c-0.1,1,0.6,2.1,0.9,3.1c0,0.1,0,0.3,0.1,0.4c0.4,0.4,0.6,1,1.1,1.4
		c4.3,3.3,8.7,6.5,13,9.8c1,0.8,2.4,0.6,3.2-0.4C87.9,57.6,87.8,56.2,86.7,55.4z"/>
	<path class="st2" d="M92.7,95.5l-0.7-10l-1.8-25.4c1.3-2.4,0.8-5.4-1.4-7c-3.6-2.8-7.3-5.6-10.9-8.4c-0.3-0.3-0.6-0.7-0.8-1.1
		c-0.8-3-1.6-5.9-2.4-8.9c-0.1-0.3-0.1-0.7,0-1c1.4-4.4-1-9-5.4-10.4c-2.5-0.8-4.9-1.5-7.4-2.2c-3.6-1.1-7.1-0.8-10.5,0.7
		c-1.4,0.7-2.9,1.3-4.3,2c-1.8,0.8-3.4,1.6-5,2.8c-1.6,1.2-3,2.5-4.4,3.8c-2.4,2.3-5.1,4.4-7.6,6.6c-0.9,0.8-1.8,1.6-2.4,2.6
		c-0.2,0.4-0.4,0.8-0.5,1.2c-0.8-0.1-1.5,0-1.9,0.4c-0.1,0.1-0.1,0.2-0.1,0.3L22,38.8c-1.2-0.9-2.8-0.7-3.8,0.4l-7,8.7
		c-0.9,1.2-0.7,2.8,0.4,3.8l14.7,11.8c1.2,0.9,2.8,0.7,3.8-0.4l7-8.7c0.9-1.2,0.7-2.8-0.4-3.8l-1.4-1.1c0.2-0.6,0-1.5-0.4-2.4
		c0.5-0.2,1-0.5,1.5-0.9c1.6-1.4,3.2-2.8,4.9-4.2c1.1-1,2.2-1.9,3.3-2.9c0.6-0.5,1.1-1,1.7-1.4c0.5-0.4,0.9-0.9,1.5-1.2
		c0.1,0,0.1-0.1,0.2-0.1s0.2-0.1,0.3-0.1c0.7-0.3,1.4-0.5,2.1-0.7c0.7-0.2,1.4-0.4,2.1-0.7c-0.2,0.4-0.3,0.6-0.4,0.8
		c-0.8,1.5-1.7,3-2.5,4.6c-1.7,3.3-3.5,6.6-5.2,10c-2.5,5-5.4,9.7-8.1,14.5c-0.3,0.3-0.8,0.5-1.2,0.6c-4.2,1.3-8.3,2.6-12.5,4
		c-2.1,0.7-4.3,1.1-6.3,2.3c-2.2,1.3-3.6,3.6-3.2,6.2c0.7,4.3,4.2,6.5,8.6,5.2c4.3-1.2,8.6-2.6,12.8-4c2.6-0.8,5.5-1.5,8-2.8
		c1.4-0.8,2.7-1.7,3.6-3.1c0.9-1.2,1.8-2.5,2.8-4c0.2,0.4,0.3,0.7,0.4,1c1.6,4.2,3.1,8.5,4.7,12.7l2.6-2.6
		C54,73.5,51.5,66.7,49,59.9c-0.7-2-1.5-4.1-1.5-6.2c0-3.3,1.7-6.4,3.3-9.3c2.1-3.6,4.1-7.2,6.2-10.9c0.6-1.1,1.1-2.9,0-3.5
		c-0.6-0.3-1.3-0.1-1.9,0.1c-0.1,0-0.1,0.1-0.2,0.1c-1.4,0.5-2.8,1-4.2,1.5c-1.3,0.5-2.7,0.9-4,1.5c-0.3,0.1-0.6,0.3-0.9,0.5
		c-1.1,1-2.3,1.9-3.4,2.9c-2.2,1.9-4.4,3.9-6.6,5.8c-0.8,0.7-1.6,1.4-2.7,1.7c-1,0.3-2.3-0.1-2.7-1.1c-0.6-1.3,0.5-2.7,1.6-3.6
		c5-4.7,10-9.4,16-12.8c2.9-1.6,6-2.9,9.3-3.1c3.3-0.1,6.5,1,9.7,2.1c2,0.7,4.2,1.6,4.8,3.6c0.6,1.8-0.3,3.8-1.3,5.5
		c-3.8,6.7-7.6,13.5-11.4,20.2c-0.4,0.7-0.8,1.4-0.9,2.1c-0.1,0.8,0.1,1.6,0.3,2.4c0.9,3.3,1.9,6.6,2.8,9.9c0.6-1.2,1.4-2.3,2.5-3.2
		c-0.8-2.7-1.5-5.4-2.3-8.1c-0.1-0.4,0-0.9,0.2-1.3c0.6-1.3,1.4-2.5,2-3.7c0.9-1.6,1.8-3.1,2.7-4.8c0.1,0.2,0.2,0.3,0.2,0.4
		c0.4,1.5,1.3,2.5,2.5,3.4c3.8,2.8,7.6,5.7,11.4,8.5c0.8,0.6,1.5,1.2,2.4,1.7c1.1,0.5,2.3,0.6,3.4,0.4l1.5,21.5L74.9,98.7h-5.4
		c1.6-1.6,2.3-4.1,1.6-6.7c-0.6-2-1.1-4-1.7-6.1c-0.4-1.5-0.8-2.9-1.2-4.4c-0.1,0-0.1,0-0.2,0c-0.1,0-0.1,0-0.2,0
		c-0.5-0.1-1-0.2-1.5-0.4L65,82.3c0.9,3,1.7,6.1,2.6,9.1c0.4,1.3,0.8,2.8,0.3,4c-0.8,1.8-3.5,2.4-4.9,1c-0.7-0.6-1-1.5-1.3-2.4
		c-0.8-2-1.5-4.1-2.3-6.1l-2.6,2.6c0.6,1.6,1.1,3.1,1.7,4.7c0.4,1.1,1.1,2.2,1.8,3.2c0.1,0.1,0.2,0.3,0.4,0.4h-7.6
		c-1,1.1-2.4,1.9-3.9,2.1c-0.1,0-0.1,0-0.2,0c-0.3,0-0.6,0.1-1,0.1c-0.3,0-0.6,0-1-0.1c-0.1,0-0.1,0-0.2,0c-1-0.2-1.9-0.6-2.7-1.1
		c-0.1,0-0.1-0.1-0.2-0.1c-0.5-0.4-1-0.8-1.4-1.4c0-0.1-0.1-0.1-0.1-0.2c-0.4-0.6-0.7-1.2-0.9-1.8c0,0,0-0.1,0-0.1
		c-0.1-0.3-0.2-0.6-0.2-0.9c-2.7,0.4-4.8,2.7-4.8,5.6c0,3.2,2.5,5.7,5.7,5.7c2.4,0,4.5-1.5,5.3-3.8h28.9l0.4-0.4l11.3-12.7l0.4,5.9
		c-2.2,0.8-3.7,2.9-3.7,5.3c0,3.1,2.5,5.7,5.7,5.7c3.1,0,5.7-2.5,5.7-5.7C96.4,98.4,94.9,96.3,92.7,95.5z M47.3,66
		c-1.1,1.5-2.1,3-3.2,4.5c-0.3,0.4-0.5,0.8-0.8,1.1c-0.2,0.2-0.4,0.5-0.6,0.7c-0.5,0.5-1.2,0.9-1.8,1.2c-1.4,0.7-2.8,1.1-4.3,1.5
		c-1.6,0.5-3.1,1-4.7,1.5c-3.7,1.2-7.5,2.4-11.2,3.5c-1.5,0.5-2.8,0.3-3.8-0.9c-1.4-1.6-0.8-4.1,1.2-5c1-0.5,6.1-1.9,8.2-2.6
		c1.9-0.6,3.7-1.2,5.6-1.8c0.9-0.3,1.9-0.6,2.8-0.9c0.8-0.3,1.7-0.5,2.5-0.9c0.1,0,0.1-0.1,0.2-0.1c0.7-0.4,1.2-0.8,1.6-1.5
		c0.5-0.9,1-1.7,1.5-2.5c1-1.7,1.9-3.4,2.9-5.1c0.2-0.4,0.4-0.7,0.6-1.1c0.1-0.2,0.3-0.5,0.5-0.8c0.3,0.8,0.5,1.4,0.8,2.1
		c0.7,2,1.5,4,2.2,6C47.6,65.3,47.6,65.6,47.3,66z M32.6,51.6c0.9,0.7,1,1.9,0.3,2.7L29,59.1c-0.7,0.8-1.9,0.9-2.7,0.3l-10.7-8.6
		c-0.8-0.7-0.9-1.9-0.3-2.7l3.9-4.8c0.7-0.8,1.9-0.9,2.7-0.3L32.6,51.6z M87.1,58.7c-0.8,1-2.2,1.2-3.2,0.4c-4.3-3.3-8.7-6.5-13-9.8
		c-0.5-0.4-0.7-1-1.1-1.4c-0.1-0.1-0.1-0.3-0.1-0.4c-0.3-1-1-2.1-0.9-3.1c0.1-1,0.9-1.9,1.5-2.8c0.6-1.1,1.3-2.3,2-3.6
		c0.6,2.5,1.2,4.7,1.8,6.9c0.2,0.8,0.6,1.4,1.3,1.9c3.8,2.9,7.5,5.8,11.3,8.6C87.8,56.2,87.9,57.6,87.1,58.7z"/>
</g>
</svg>
