<?xml version="1.0" encoding="utf-8"?>
<!-- Generator: Adobe Illustrator 22.1.0, SVG Export Plug-In . SVG Version: 6.00 Build 0)  -->
<svg version="1.1" id="Layer_1" xmlns="http://www.w3.org/2000/svg" xmlns:xlink="http://www.w3.org/1999/xlink" x="0px" y="0px"
	 viewBox="0 0 107 107" style="enable-background:new 0 0 107 107;" xml:space="preserve">
<style type="text/css">
	.st0{fill:#FEEED5;}
	.st1{fill:#A17E55;}
</style>
<g>
	<g>
		<g>
			<rect x="3.6" y="19.8" class="st0" width="99.5" height="68.3"/>
		</g>
		<g>
			<path class="st1" d="M100.3,15.2c-15.6,0-31.2,0-46.7,0c-15.6,0-31.2,0-46.7,0c-1.4,0-2.8,0.2-4,1.1c-1.7,1.3-2.3,3-2.3,5.1
				c0,20.6,0,41.2,0,61.8c0,1,0,1.9,0,2.9c0.1,2.3,1.1,4.1,3.2,5c1,0.4,2.1,0.6,3.2,0.6c31.1,0,62.1,0,93.2,0c0.3,0,0.6,0,0.9,0
				c3.2-0.2,5.5-2.6,5.5-5.8c0-1.2,0-2.4,0-3.5c0-20.3,0-40.7,0-61c0-1.6-0.4-3.1-1.5-4.3C103.8,15.7,102.2,15.2,100.3,15.2z
				 M100.8,85.9c-31.5,0-62.9,0-94.4,0c0-21.6,0-43.2,0-64.8c31.5,0,62.9,0,94.4,0C100.8,42.7,100.8,64.3,100.8,85.9z"/>
			<path class="st1" d="M100.2,15.2c-15.6,0-31.2,0-46.7,0c-15.6,0-31.2,0-46.7,0c15.6,0,31.2,0,46.7,0
				C69,15.3,84.6,15.3,100.2,15.2z"/>
			<g>
				<path class="st1" d="M26.6,77.2c0.7,0,1.1,0.2,1.5,0.7c1.9,2.3,5.3,2.3,7.1,0.1c0.5-0.6,1-0.8,1.7-0.8c17,0,33.9,0,50.9,0
					c0.4,0,0.9,0,1.3,0c0-1.6,0-3,0-4.5c-0.5,0-0.9,0-1.3,0c-17,0-34,0-51,0c-0.6,0-1,0-1.5-0.6c-1.9-2.5-5.4-2.5-7.4,0
					c-0.4,0.5-0.7,0.6-1.3,0.6c-2.5,0-5.1,0-7.6,0c-0.3,0-0.7,0-1,0c0,1.6,0,3,0,4.5c0.4,0,0.8,0,1.1,0
					C21.6,77.2,24.1,77.2,26.6,77.2z M30.9,72.7c0.7,0.8,1.5,1.6,2.3,2.4c-0.6,0.6-1.4,1.4-2.3,2.3C30.9,75.8,30.9,74.2,30.9,72.7z"
					/>
				<path class="st1" d="M31.4,74c0,0.7,0,1.4,0,2.1c0.4-0.4,0.8-0.7,1.2-1C32.2,74.7,31.8,74.4,31.4,74z"/>
			</g>
			<g>
				<path class="st1" d="M63.1,51.3c-0.1,0.1-0.1,0.3-0.1,0.5c0.5,7.1-5.6,12.8-12.7,11.6c-5.8-1-9.9-6.8-8.7-12.6
					c1.2-6,7-9.9,12.9-8.6c1.3,0.3,2.5,0.9,3.8,1.4c0.7-0.8,1.5-1.7,2.2-2.6c-4.5-3.5-12.6-4.1-18.3,1.3c-5.6,5.3-6.1,14.1-1.1,20
					c5,5.9,13.8,6.8,19.9,2.1c3-2.3,4.9-5.4,5.5-9.2c0.4-2.4,0.2-4.7-0.6-7.1C64.9,49.2,64,50.2,63.1,51.3z"/>
				<path class="st1" d="M66.7,37.9c-0.4,0.1-0.8,0.4-1.1,0.8c-3,3.6-6,7.2-9.1,10.7c-1.2,1.4-2.4,2.9-3.7,4.4
					c-0.2-0.2-0.3-0.3-0.5-0.4c-1.4-1.2-2.8-2.4-4.3-3.5c-1.1-0.9-2.7-0.4-3,0.9c-0.2,0.8,0.1,1.5,0.7,2c1.9,1.6,3.8,3.2,5.8,4.8
					c1.2,1,2.2,0.9,3.2-0.3c4.4-5.2,8.8-10.4,13.1-15.6c0.3-0.3,0.5-0.6,0.8-0.9c0.5-0.7,0.5-1.5,0-2.1C68.2,38,67.4,37.7,66.7,37.9
					z"/>
			</g>
		</g>
	</g>
</g>
</svg>
