<?xml version="1.0" encoding="utf-8"?>
<!-- Generator: Adobe Illustrator 22.1.0, SVG Export Plug-In . SVG Version: 6.00 Build 0)  -->
<svg version="1.1" id="Layer_1" xmlns="http://www.w3.org/2000/svg" xmlns:xlink="http://www.w3.org/1999/xlink" x="0px" y="0px"
	 viewBox="0 0 107 107" style="enable-background:new 0 0 107 107;" xml:space="preserve">
<style type="text/css">
	.st0{fill:#FFC8B9;}
	.st1{fill:#FF7550;}
	.st2{fill:#FFFFFF;}
</style>
<g>
	<g>
		<rect x="3.4" y="22.1" class="st0" width="97.2" height="66.7"/>
		<g>
			<path class="st1" d="M97.9,17.6c-15.2,0-30.4,0-45.7,0c-15.2,0-30.4,0-45.7,0c-1.4,0-2.7,0.2-3.9,1.1c-1.6,1.3-2.3,2.9-2.3,5
				c0,20.1,0,40.3,0,60.4c0,0.9,0,1.9,0,2.8c0.1,2.2,1.1,4,3.1,4.9c1,0.4,2.1,0.6,3.2,0.6c30.3,0,60.7,0,91,0c0.3,0,0.6,0,0.8,0
				c3.1-0.2,5.3-2.5,5.4-5.7c0-1.1,0-2.3,0-3.4c0-19.9,0-39.8,0-59.6c0-1.6-0.4-3-1.5-4.2C101.3,18,99.7,17.6,97.9,17.6z M98.4,86.6
				c-30.7,0-61.4,0-92.2,0c0-21.2,0-42.2,0-63.4c30.8,0,61.5,0,92.2,0C98.4,44.4,98.4,65.5,98.4,86.6z"/>
			<path class="st1" d="M97.8,17.6c-15.2,0-30.4,0-45.7,0c-15.2,0-30.4,0-45.7,0c15.2,0,30.4,0,45.7,0
				C67.3,17.6,82.6,17.6,97.8,17.6z"/>
			<g>
				<path class="st1" d="M25.9,78.1c0.6,0,1.1,0.2,1.5,0.7c1.8,2.2,5.2,2.3,7,0.1c0.5-0.6,0.9-0.7,1.6-0.7c16.6,0,33.2,0,49.7,0
					c0.4,0,0.8,0,1.3,0c0-1.5,0-2.9,0-4.4c-0.5,0-0.9,0-1.3,0c-16.6,0-33.2,0-49.8,0c-0.6,0-1,0-1.4-0.6c-1.9-2.4-5.3-2.4-7.2,0
					c-0.4,0.5-0.7,0.6-1.3,0.6c-2.5,0-5,0-7.5,0c-0.3,0-0.7,0-1,0c0,1.5,0,2.9,0,4.4c0.4,0,0.7,0,1.1,0C21,78.1,23.5,78.2,25.9,78.1
					z M30.1,73.8c0.7,0.7,1.5,1.5,2.3,2.3c-0.6,0.6-1.4,1.4-2.3,2.3C30.1,76.7,30.1,75.2,30.1,73.8z"/>
				<path class="st1" d="M30.6,75c0,0.7,0,1.4,0,2.1c0.4-0.3,0.8-0.7,1.2-1C31.3,75.7,31,75.4,30.6,75z"/>
			</g>
			<g>
				<path class="st1" d="M61.5,52.8c-0.1,0.1-0.1,0.3-0.1,0.5c0.5,7-5.5,12.5-12.4,11.3c-5.7-1-9.6-6.7-8.5-12.4
					c1.2-5.9,6.9-9.7,12.6-8.4c1.3,0.3,2.5,0.9,3.8,1.4c0.7-0.8,1.4-1.7,2.2-2.6c-4.4-3.4-12.3-4-17.9,1.2c-5.5,5.2-6,13.7-1.1,19.5
					c4.9,5.8,13.4,6.7,19.4,2.1c3-2.3,4.8-5.3,5.4-9c0.4-2.3,0.2-4.6-0.6-7C63.3,50.7,62.4,51.8,61.5,52.8z"/>
				<path class="st1" d="M65.1,39.7c-0.4,0.1-0.8,0.4-1.1,0.8c-3,3.5-5.9,7-8.9,10.5c-1.2,1.4-2.4,2.8-3.6,4.3
					c-0.2-0.2-0.3-0.3-0.5-0.4c-1.4-1.2-2.8-2.3-4.2-3.5c-1.1-0.9-2.6-0.4-2.9,0.9c-0.2,0.8,0.1,1.4,0.7,2c1.9,1.5,3.8,3.1,5.6,4.7
					c1.2,1,2.1,0.9,3.1-0.3c4.3-5.1,8.6-10.2,12.8-15.2c0.3-0.3,0.5-0.6,0.7-0.9c0.5-0.6,0.5-1.5,0-2.1
					C66.6,39.8,65.8,39.5,65.1,39.7z"/>
			</g>
		</g>
	</g>
	<g>
		<path class="st2" d="M80.3,42.3c0,0.8,0.7,1.5,1.5,1.5h20.7c0.8,0,1.5-0.7,1.5-1.5V27.8H80.3V42.3z"/>
		<path class="st0" d="M104,21.5c0-0.8-0.7-1.5-1.5-1.5H81.8c-0.8,0-1.5,0.7-1.5,1.5v3.8H104V21.5z"/>
		<g>
			<path class="st1" d="M102.8,17.6H81.6c-2.1,0-3.7,1.7-3.7,3.7v21.1c0,2.1,1.7,3.7,3.7,3.7h21.1c2.1,0,3.7-1.7,3.7-3.7V21.3
				C106.5,19.3,104.8,17.6,102.8,17.6z M80.3,21.5c0-0.8,0.7-1.5,1.5-1.5h20.7c0.8,0,1.5,0.7,1.5,1.5v3.8H80.3V21.5z M104,42.3
				c0,0.8-0.7,1.5-1.5,1.5H81.8c-0.8,0-1.5-0.7-1.5-1.5V27.8H104V42.3z"/>
			<g>
				<path class="st1" d="M97.2,23.2L97.2,23.2c-0.7,0-1.2-0.5-1.2-1.2v-6.1c0-0.7,0.5-1.2,1.2-1.2l0,0c0.7,0,1.2,0.5,1.2,1.2V22
					C98.4,22.7,97.8,23.2,97.2,23.2z"/>
				<path class="st1" d="M87.2,23.2L87.2,23.2c-0.7,0-1.2-0.5-1.2-1.2v-6.1c0-0.7,0.5-1.2,1.2-1.2h0c0.7,0,1.2,0.5,1.2,1.2V22
					C88.5,22.7,87.9,23.2,87.2,23.2z"/>
			</g>
		</g>
		<path class="st1" d="M90.3,40.5c-0.4,0-0.8-0.2-1-0.5c-1.2-1.2-2.4-2.3-3.5-3.5c-0.6-0.6-0.6-1.4-0.1-2c0.5-0.5,1.3-0.5,2,0
			c0.7,0.7,1.4,1.4,2.1,2.1c0.5,0.5,0.5,0.5,1.1,0c1.9-1.9,3.8-3.8,5.7-5.7c0.8-0.8,1.8-0.7,2.3,0.1c0.3,0.6,0.2,1.2-0.3,1.8
			c-2,2-4,4-6,6c-0.4,0.4-0.8,0.8-1.2,1.2C91.1,40.4,90.7,40.6,90.3,40.5z"/>
	</g>
</g>
</svg>
