<?xml version="1.0" encoding="utf-8"?>
<!-- Generator: Adobe Illustrator 22.1.0, SVG Export Plug-In . SVG Version: 6.00 Build 0)  -->
<svg version="1.1" id="Layer_1" xmlns="http://www.w3.org/2000/svg" xmlns:xlink="http://www.w3.org/1999/xlink" x="0px" y="0px"
	 viewBox="0 0 107 107" style="enable-background:new 0 0 107 107;" xml:space="preserve">
<style type="text/css">
	.st0{fill:#E4B8DB;}
	.st1{fill:#BC4DA5;}
	.st2{fill:#FFFFFF;}
</style>
<g>
	<g>
		<rect x="3.7" y="21.7" class="st0" width="97" height="66.6"/>
		<g>
			<path class="st1" d="M97.8,17.7c-15.2,0-30.4,0-45.6,0c-15.2,0-30.4,0-45.6,0c-1.4,0-2.7,0.2-3.9,1.1c-1.6,1.2-2.3,2.9-2.3,5
				c0,20.1,0,40.2,0,60.3c0,0.9,0,1.9,0,2.8c0.1,2.2,1.1,4,3.1,4.9c1,0.4,2.1,0.6,3.2,0.6c30.3,0,60.6,0,90.9,0c0.3,0,0.6,0,0.8,0
				c3.1-0.2,5.3-2.5,5.4-5.7c0-1.1,0-2.3,0-3.4c0-19.8,0-39.7,0-59.5c0-1.6-0.4-3-1.5-4.2C101.1,18.2,99.5,17.7,97.8,17.7z
				 M98.2,86.6c-30.7,0-61.3,0-92,0c0-21.1,0-42.1,0-63.2c30.7,0,61.3,0,92,0C98.2,44.5,98.2,65.5,98.2,86.6z"/>
			<path class="st1" d="M97.5,17.7c-15.2,0-30.4,0-45.6,0c-15.2,0-30.4,0-45.6,0c15.2,0,30.4,0,45.6,0
				C67.1,17.7,82.3,17.7,97.5,17.7z"/>
			<path class="st1" d="M52.2,69.6c8,0,14.5-6.5,14.5-14.6c0-8-6.5-14.5-14.6-14.5c-8,0-14.5,6.5-14.5,14.6
				C37.7,63.1,44.2,69.6,52.2,69.6z M49.4,48.6c0-0.4,0.2-0.7,0.4-1.1c0.3,0.1,0.8,0.2,1,0.5c2.1,2.1,4.2,4.2,6.3,6.2
				c0.6,0.6,0.6,1,0,1.6c-2.1,2-4.1,4.1-6.2,6.2c-0.3,0.2-0.7,0.3-1,0.5c-0.1-0.4-0.4-0.7-0.4-1.1c0-2.1,0-4.3,0-6.4
				C49.3,52.9,49.3,50.8,49.4,48.6z"/>
			<path class="st1" d="M25.8,78.1c0.6,0,1.1,0.2,1.5,0.7c1.8,2.2,5.2,2.3,7,0.1c0.5-0.6,0.9-0.7,1.6-0.7c16.5,0,33.1,0,49.6,0
				c0.4,0,0.8,0,1.3,0c0-1.5,0-2.9,0-4.4c-0.5,0-0.9,0-1.3,0c-16.6,0-33.2,0-49.7,0c-0.6,0-1,0-1.4-0.6c-1.9-2.4-5.3-2.4-7.2,0
				c-0.4,0.5-0.7,0.6-1.2,0.6c-2.5,0-5,0-7.4,0c-0.3,0-0.7,0-1,0c0,1.5,0,2.9,0,4.4c0.4,0,0.7,0,1.1,0C21,78.2,23.4,78.2,25.8,78.1z
				 M30,73.8c0.7,0.7,1.5,1.5,2.3,2.3c-0.6,0.6-1.4,1.4-2.3,2.3C30,76.7,30,75.2,30,73.8z"/>
			<path class="st1" d="M50.6,50c0,3.3,0,6.7,0,10c1.7-1.7,3.4-3.4,5-5C54,53.4,52.3,51.7,50.6,50z"/>
			<path class="st1" d="M30.5,75c0,0.7,0,1.4,0,2.1c0.4-0.3,0.8-0.7,1.2-1C31.3,75.7,30.9,75.4,30.5,75z"/>
		</g>
	</g>
	<g>
		<path class="st2" d="M80.3,42.3c0,0.8,0.7,1.5,1.5,1.5h20.7c0.8,0,1.5-0.7,1.5-1.5V27.8H80.3V42.3z"/>
		<path class="st0" d="M104,21.5c0-0.8-0.7-1.5-1.5-1.5H81.8c-0.8,0-1.5,0.7-1.5,1.5v3.8H104V21.5z"/>
		<g>
			<g>
				<path class="st1" d="M102.8,17.6H81.6c-2.1,0-3.7,1.7-3.7,3.7v21.1c0,2.1,1.7,3.7,3.7,3.7h21.1c2.1,0,3.7-1.7,3.7-3.7V21.3
					C106.5,19.3,104.8,17.6,102.8,17.6z M80.3,21.5c0-0.8,0.7-1.5,1.5-1.5h20.7c0.8,0,1.5,0.7,1.5,1.5v3.8H80.3V21.5z M104,42.3
					c0,0.8-0.7,1.5-1.5,1.5H81.8c-0.8,0-1.5-0.7-1.5-1.5V27.8H104V42.3z"/>
				<g>
					<path class="st1" d="M97.2,23.2L97.2,23.2c-0.7,0-1.2-0.5-1.2-1.2v-6.1c0-0.7,0.5-1.2,1.2-1.2l0,0c0.7,0,1.2,0.5,1.2,1.2V22
						C98.4,22.7,97.8,23.2,97.2,23.2z"/>
					<path class="st1" d="M87.2,23.2L87.2,23.2c-0.7,0-1.2-0.5-1.2-1.2v-6.1c0-0.7,0.5-1.2,1.2-1.2h0c0.7,0,1.2,0.5,1.2,1.2V22
						C88.5,22.7,87.9,23.2,87.2,23.2z"/>
				</g>
			</g>
			<path class="st1" d="M90.3,40.5c-0.4,0-0.8-0.2-1-0.5c-1.2-1.2-2.4-2.3-3.5-3.5c-0.6-0.6-0.6-1.4-0.1-2c0.5-0.5,1.3-0.5,2,0
				c0.7,0.7,1.4,1.4,2.1,2.1c0.5,0.5,0.5,0.5,1.1,0c1.9-1.9,3.8-3.8,5.7-5.7c0.8-0.8,1.8-0.7,2.3,0.1c0.3,0.6,0.2,1.2-0.3,1.8
				c-2,2-4,4-6,6c-0.4,0.4-0.8,0.8-1.2,1.2C91.1,40.4,90.7,40.6,90.3,40.5z"/>
		</g>
	</g>
</g>
</svg>
