<?xml version="1.0" encoding="utf-8"?>
<!-- Generator: Adobe Illustrator 22.1.0, SVG Export Plug-In . SVG Version: 6.00 Build 0)  -->
<svg version="1.1" id="Layer_1" xmlns="http://www.w3.org/2000/svg" xmlns:xlink="http://www.w3.org/1999/xlink" x="0px" y="0px"
	 viewBox="0 0 107 107" style="enable-background:new 0 0 107 107;" xml:space="preserve">
<style type="text/css">
	.st0{fill:#E0CBFA;}
	.st1{fill:#845DB7;}
</style>
<g>
	<rect x="3.6" y="19.1" class="st0" width="99.5" height="68.3"/>
	<g>
		<path class="st1" d="M100.2,15.2c-15.6,0-31.2,0-46.7,0c-15.6,0-31.2,0-46.7,0c-1.4,0-2.8,0.2-4,1.1c-1.7,1.3-2.3,3-2.3,5.1
			c0,20.6,0,41.2,0,61.8c0,1,0,1.9,0,2.9c0.1,2.3,1.1,4.1,3.2,5c1,0.4,2.1,0.6,3.2,0.6c31.1,0,62.1,0,93.2,0c0.3,0,0.6,0,0.9,0
			c3.2-0.2,5.5-2.6,5.5-5.8c0-1.2,0-2.4,0-3.5c0-20.3,0-40.7,0-61c0-1.6-0.4-3.1-1.5-4.3C103.7,15.7,102.1,15.2,100.2,15.2z
			 M100.7,85.9c-31.5,0-62.9,0-94.4,0c0-21.6,0-43.2,0-64.8c31.5,0,62.9,0,94.4,0C100.7,42.7,100.7,64.3,100.7,85.9z"/>
		<path class="st1" d="M100.1,15.2c-15.6,0-31.2,0-46.7,0c-15.6,0-31.2,0-46.7,0c15.6,0,31.2,0,46.7,0
			C68.9,15.3,84.5,15.3,100.1,15.2z"/>
		<g>
			<path class="st1" d="M26.5,77.2c0.7,0,1.1,0.2,1.5,0.7c1.9,2.3,5.3,2.3,7.1,0.1c0.5-0.6,1-0.8,1.7-0.8c17,0,33.9,0,50.9,0
				c0.4,0,0.9,0,1.3,0c0-1.6,0-3,0-4.5c-0.5,0-0.9,0-1.3,0c-17,0-34,0-51,0c-0.6,0-1,0-1.5-0.6c-1.9-2.5-5.4-2.5-7.4,0
				c-0.4,0.5-0.7,0.6-1.3,0.6c-2.5,0-5.1,0-7.6,0c-0.3,0-0.7,0-1,0c0,1.6,0,3,0,4.5c0.4,0,0.8,0,1.1,0C21.5,77.2,24,77.2,26.5,77.2z
				 M30.8,72.7c0.7,0.8,1.5,1.6,2.3,2.4c-0.6,0.6-1.4,1.4-2.3,2.3C30.8,75.8,30.8,74.2,30.8,72.7z"/>
			<path class="st1" d="M31.3,74c0,0.7,0,1.4,0,2.1c0.4-0.4,0.8-0.7,1.2-1C32.1,74.7,31.7,74.4,31.3,74z"/>
		</g>
		<g>
			<path class="st1" d="M51.4,65c-0.4-0.2-0.7-0.6-0.8-1c-0.1-0.4-0.1-0.9,0.2-1.3l3.5-5.8l3,1.7l-1.7,2.8c4.1-1.3,7.1-4.8,7.4-9
				c0.4-4.7-2.5-9.1-7.2-10.7l-0.7-0.2l1.2-3.2l0.7,0.2c5.7,1.9,9.5,7.2,9.5,13c0,5.8-3.8,10.9-9.3,12.9l2,1.1l-1.7,2.9L51.4,65z"/>
			<path class="st1" d="M47.5,64.4c-5.9-2-9.8-7.6-9.5-13.7c0.3-5.5,4-10.3,9.3-12.2l-2-1.1l1.7-2.9l6,3.4c0.4,0.2,0.7,0.6,0.8,1
				c0.1,0.4,0.1,0.9-0.2,1.3L50.3,46l-3-1.7l1.7-2.8c-4.1,1.3-7.1,4.8-7.4,9c-0.4,4.7,2.5,9.1,7.2,10.7l0.7,0.2l-1.2,3.2L47.5,64.4z
				"/>
		</g>
	</g>
</g>
</svg>
