<?xml version="1.0" encoding="utf-8"?>
<!-- Generator: Adobe Illustrator 22.1.0, SVG Export Plug-In . SVG Version: 6.00 Build 0)  -->
<svg version="1.1" id="Layer_1" xmlns="http://www.w3.org/2000/svg" xmlns:xlink="http://www.w3.org/1999/xlink" x="0px" y="0px"
	 viewBox="0 0 107 107" style="enable-background:new 0 0 107 107;" xml:space="preserve">
<style type="text/css">
	.st0{fill:#FFD4DA;}
	.st1{fill:#FE4A65;}
	.st2{fill:#FFFFFF;}
	.st3{fill:#FFB7C1;}
</style>
<g>
	<path class="st0" d="M91.4,89.9h-80c-5,0-9-4-9-9V28.8c0-5,4-9,9-9h80c5,0,9,4,9,9v52.1C100.4,85.9,96.4,89.9,91.4,89.9z"/>
	<path class="st1" d="M97.8,17.6c-15.2,0-30.4,0-45.6,0s-30.4,0-45.6,0c-1.4,0-2.7,0.2-3.9,1.1c-1.6,1.2-2.3,2.9-2.3,5
		c0,20.1,0,40.2,0,60.3c0,0.9,0,1.9,0,2.8c0.1,2.2,1.1,4,3.1,4.9c1,0.4,2.1,0.6,3.2,0.6c30.3,0,60.6,0,90.9,0c0.3,0,0.6,0,0.8,0
		c3.1-0.2,5.3-2.5,5.4-5.7c0-1.1,0-2.3,0-3.4c0-19.8,0-39.7,0-59.5c0-1.6-0.4-3-1.5-4.2C101.2,18,99.6,17.6,97.8,17.6z M98.2,86.5
		c-30.7,0-61.3,0-92.1,0c0-21.1,0-42.2,0-63.3c30.7,0,61.4,0,92.1,0C98.2,44.4,98.2,65.4,98.2,86.5z"/>
	<g>
		<path class="st1" d="M25,78c0.6,0,1.1,0.2,1.5,0.7c1.8,2.2,5.2,2.3,7,0.1c0.5-0.6,0.9-0.7,1.6-0.7c16.6,0,33.1,0,49.7,0
			c0.4,0,0.8,0,1.3,0c0-1.5,0-2.9,0-4.4c-0.5,0-0.9,0-1.3,0c-16.6,0-33.2,0-49.8,0c-0.6,0-1,0-1.4-0.6c-1.9-2.4-5.3-2.4-7.2,0
			c-0.4,0.5-0.7,0.6-1.2,0.6c-2.5,0-5,0-7.4,0c-0.3,0-0.7,0-1,0c0,1.5,0,2.9,0,4.4c0.4,0,0.7,0,1.1,0C20.2,78.1,22.6,78.1,25,78z
			 M29.2,73.7c0.7,0.7,1.5,1.5,2.3,2.3c-0.6,0.6-1.4,1.4-2.3,2.3C29.2,76.6,29.2,75.1,29.2,73.7z"/>
		<path class="st1" d="M29.7,74.9c0,0.7,0,1.4,0,2.1c0.4-0.3,0.8-0.7,1.2-1C30.4,75.6,30.1,75.3,29.7,74.9z"/>
	</g>
	<g>
		<circle class="st2" cx="40.2" cy="61.7" r="4.4"/>
		<circle class="st2" cx="62.5" cy="61.7" r="4.4"/>
		<rect x="57.9" y="34.8" class="st2" width="9.2" height="9.2"/>
		<g>
			<g id="Layer_1_1_">
				<path class="st1" d="M68.9,44.2v-9.6c0-0.9-0.7-1.6-1.6-1.6h-9.6c-0.9,0-1.6,0.7-1.6,1.6v4c-7.8,0-14.3,5.4-16.2,12.6l-1.7-0.3
					c-0.3-0.1-0.6,0.1-0.8,0.3s-0.2,0.6-0.1,0.8l1.7,3.4c-3,0.5-5.4,3.1-5.4,6.3c0,3.5,2.9,6.4,6.4,6.4c3.2,0,5.9-2.4,6.3-5.6h5.6
					v1.6c0,0.3,0.2,0.6,0.4,0.7c0.3,0.1,0.6,0.1,0.8-0.1l2.8-2.1c0.5,3.1,3.1,5.4,6.3,5.4c3.5,0,6.4-2.9,6.4-6.4
					c0-3.2-2.4-5.9-5.6-6.3v-5.6h1.6c0.3,0,0.6-0.2,0.7-0.4c0.1-0.3,0.1-0.6-0.1-0.8l-2-2.7H67C68.2,45.8,68.9,45,68.9,44.2z
					 M40.2,64.9c-1.8,0-3.2-1.4-3.2-3.2s1.4-3.2,3.2-3.2s3.2,1.4,3.2,3.2S42,64.9,40.2,64.9z M65.7,61.7c0,1.8-1.4,3.2-3.2,3.2
					s-3.2-1.4-3.2-3.2s1.4-3.2,3.2-3.2C64.3,58.5,65.7,60,65.7,61.7z M59.4,49.3c0.1,0.3,0.4,0.4,0.7,0.4h1.6v5.6
					c-2.8,0.4-5.1,2.6-5.5,5.4l-2.8-2.1c-0.2-0.2-0.6-0.2-0.8-0.1c-0.3,0.1-0.4,0.4-0.4,0.7v1.6h-5.6c-0.4-2.9-2.7-5.2-5.5-5.5
					c0,0,0,0,0-0.1l0,0l2.4-2.3c0.2-0.2,0.3-0.5,0.2-0.8s-0.3-0.5-0.6-0.6l-1.5-0.3c1.7-6.5,7.6-11.3,14.6-11.3v4
					c0,0.9,0.7,1.6,1.6,1.6h3.8l-2,2.7C59.3,48.7,59.3,49,59.4,49.3z M65.7,42.6h-6.4v-6.4h6.4V42.6z"/>
			</g>
		</g>
	</g>
	<g>
		<path class="st2" d="M80.5,42.3c0,0.8,0.7,1.5,1.5,1.5h20.6c0.8,0,1.5-0.7,1.5-1.5V27.8H80.5V42.3z"/>
		<path class="st3" d="M104.1,21.5c0-0.8-0.7-1.5-1.5-1.5H82c-0.8,0-1.5,0.7-1.5,1.5v3.8h23.6V21.5z"/>
		<g>
			<g>
				<path class="st1" d="M102.9,17.6H81.8c-2.1,0-3.7,1.7-3.7,3.7v21c0,2.1,1.7,3.7,3.7,3.7h21c2.1,0,3.7-1.7,3.7-3.7v-21
					C106.6,19.3,104.9,17.6,102.9,17.6z M80.5,21.5c0-0.8,0.7-1.5,1.5-1.5h20.6c0.8,0,1.5,0.7,1.5,1.5v3.8H80.5V21.5z M104.1,42.3
					c0,0.8-0.7,1.5-1.5,1.5H82c-0.8,0-1.5-0.7-1.5-1.5V27.8h23.6V42.3z"/>
				<g>
					<path class="st1" d="M97.3,23.2L97.3,23.2c-0.7,0-1.2-0.5-1.2-1.2v-6c0-0.7,0.5-1.2,1.2-1.2l0,0c0.7,0,1.2,0.5,1.2,1.2v6
						C98.5,22.7,97.9,23.2,97.3,23.2z"/>
					<path class="st1" d="M87.3,23.2L87.3,23.2c-0.7,0-1.2-0.5-1.2-1.2v-6c0-0.7,0.5-1.2,1.2-1.2l0,0c0.7,0,1.2,0.5,1.2,1.2v6
						C88.6,22.7,88,23.2,87.3,23.2z"/>
				</g>
			</g>
			<path class="st1" d="M90.4,40.5c-0.4,0-0.8-0.2-1-0.5c-1.2-1.2-2.4-2.3-3.5-3.5c-0.6-0.6-0.6-1.4-0.1-2c0.5-0.5,1.3-0.5,2,0
				c0.7,0.7,1.4,1.4,2.1,2.1c0.5,0.5,0.5,0.5,1.1,0c1.9-1.9,3.8-3.8,5.7-5.7c0.8-0.8,1.8-0.7,2.3,0.1c0.3,0.6,0.2,1.2-0.3,1.8
				c-2,2-4,4-6,6c-0.4,0.4-0.8,0.8-1.2,1.2C91.2,40.4,90.8,40.6,90.4,40.5z"/>
		</g>
	</g>
</g>
</svg>
