<?xml version="1.0" encoding="utf-8"?>
<!-- Generator: Adobe Illustrator 22.1.0, SVG Export Plug-In . SVG Version: 6.00 Build 0)  -->
<svg version="1.1" id="Layer_1" xmlns="http://www.w3.org/2000/svg" xmlns:xlink="http://www.w3.org/1999/xlink" x="0px" y="0px"
	 viewBox="0 0 107 107" style="enable-background:new 0 0 107 107;" xml:space="preserve">
<style type="text/css">
	.st0{fill:#ABC0D9;}
	.st1{fill:#5881B2;}
</style>
<g>
	<polygon class="st0" points="80.7,37.5 58.7,37.5 47.6,36.8 48.5,69.3 48.5,97.5 93.8,97.5 93.8,53.9 	"/>
	<g>
		<path class="st1" d="M95.4,49.5c-4.4-4.4-8.9-8.8-13.3-13.3c-0.8-0.8-1.8-1.2-2.9-1.2c-9.5,0-19,0-28.5,0c-0.5,0-1.1,0-1.6,0.1
			c-2.3,0.5-3.5,2.2-3.5,4.9c0,9.1,0,18.2,0,27.4c0,9.1,0,18.2,0,27.4c0,3.4,1.6,5.2,4.8,5.2c13.7,0,27.5,0,41.2,0
			c3.2,0,4.9-1.7,4.9-4.9c0-14.3,0-28.5,0-42.8C96.6,51.2,96.2,50.3,95.4,49.5z M90,94.7c-12.6,0-25.2,0-37.8,0
			c-1,0-1.3-0.2-1.3-1.3c0-8.7,0-17.3,0-26c0-8.6,0-17.2,0-25.9c0-0.9,0.2-1.3,1.2-1.3c8.5,0.1,17.1,0,25.6,0c0.7,0,1.2,0.2,1.7,0.7
			c3.7,3.7,7.4,7.4,11.1,11.1c0.5,0.5,0.7,1.1,0.7,1.8c0,13.2,0,26.3,0,39.5C91.3,94.5,91,94.7,90,94.7z"/>
		<path class="st1" d="M54.3,22.9c1.2,1.2,2.2,2.4,1.9,4.2c0,0.2,0,0.5,0.1,0.7c0.3,1.2,1.3,2.1,2.5,2.1c1.3,0,2.3-0.9,2.6-2.2
			c0.2-1,0-2.1,0.1-3.1c0.1-1.4-0.4-2.4-1.4-3.4c-4.3-4.3-8.6-8.6-12.9-12.9C46.4,7.4,45.4,7,44.1,7c-9.4,0-18.8,0.1-28.2,0
			c-3.8-0.1-5.5,2.1-5.5,5.4c0.1,9,0,18.1,0,27.1c0,4.8,0,9.5,0,14.3c0,4.4,0,8.9,0,13.3c0,2.9,1.7,4.8,4.4,4.8c7.6,0,15.1,0,22.7,0
			c0.7,0,1.3-0.2,1.8-0.6c0.9-0.8,1.2-1.7,0.8-2.9c-0.3-1.1-1.4-1.8-2.7-1.8c-6.9,0-13.7,0-20.6,0c-1,0-1.2-0.3-1.2-1.2
			c0-17.3,0-34.6,0-52c0-0.9,0.2-1.2,1.2-1.2c8.6,0,17.2,0,25.8,0c0.7,0,1.2,0.2,1.7,0.7C47.7,16.3,51,19.6,54.3,22.9z"/>
		<path class="st1" d="M77,28.5c0.7,0.7,1.6,0.6,2.3-0.1c0.7-0.7,0.8-1.5,0.2-2.3c-0.2-0.3-0.5-0.6-0.8-0.9c-1-1-2.1-2-3.1-3
			c0.1-0.1,0.1-0.2,0.2-0.3c4.3,0,8.6,0,12.9,0c2.3,0,3.5,1.4,3.5,3.7c0,1.6,0,3.2,0,4.8c0,1.3,0.8,2.1,1.9,2c1-0.1,1.6-0.8,1.7-2.1
			c0-1.4,0-2.9,0-4.3c0-4.8-2.9-7.6-7.7-7.6c-3.8,0-7.6,0-11.4,0c-0.3,0-0.7,0.2-1-0.3c1.2-1.2,2.5-2.4,3.7-3.6
			c0.8-0.9,0.8-1.8,0.2-2.5c-0.7-0.7-1.7-0.8-2.6,0c-2.3,2.3-4.6,4.6-6.9,6.9c-0.7,0.7-0.9,1.7-0.1,2.5C72.2,23.7,74.6,26.1,77,28.5
			z"/>
		<path class="st1" d="M30.6,78.9c-0.3-0.3-0.7-0.6-1.1-0.7c-0.8-0.2-1.4,0.1-1.9,0.8c-0.5,0.8-0.3,1.6,0.3,2.2
			c1.2,1.2,2.5,2.4,3.8,3.6c-0.1,0.1-0.1,0.2-0.2,0.3c-4.6,0-9.1,0.1-13.7,0c-1.5,0-2.6-1.4-2.7-3c-0.1-0.8,0-1.5-0.1-2.3
			c-0.1-1-0.7-1.6-1.7-1.6c-1,0-1.6,0.6-1.7,1.6c-0.6,5.5,2.7,8.9,7.5,8.9c3.9,0,7.7,0,11.6,0c0.3,0,0.7-0.1,1.1,0.2
			c-1.3,1.2-2.5,2.4-3.7,3.6c-0.8,0.9-0.9,1.8-0.2,2.5c0.7,0.8,1.8,0.8,2.8-0.2c2.2-2.1,4.3-4.3,6.5-6.5c1.1-1.1,1-2-0.1-3.1
			C34.8,83.1,32.7,81,30.6,78.9z"/>
	</g>
</g>
</svg>
