<?xml version="1.0" encoding="utf-8"?>
<!-- Generator: Adobe Illustrator 22.1.0, SVG Export Plug-In . SVG Version: 6.00 Build 0)  -->
<svg version="1.1" id="Layer_1" xmlns="http://www.w3.org/2000/svg" xmlns:xlink="http://www.w3.org/1999/xlink" x="0px" y="0px"
	 viewBox="0 0 107 107" style="enable-background:new 0 0 107 107;" xml:space="preserve">
<style type="text/css">
	.st0{fill:#FFFFFF;}
	.st1{fill:#F8DBC5;}
	.st2{fill:#DC8E6C;}
</style>
<g>
	<polygon class="st0" points="26.1,38.2 76.7,38.2 62.8,15.3 	"/>
	<path class="st0" d="M97.4,53.8H75.8c0,0-9.1,3.3-9.1,12.5s10.7,10.4,10.7,10.4h20.3L97.4,53.8z"/>
	<g>
		<g>
			<path class="st1" d="M66.7,65c0-6.4,5.2-11.5,11.5-11.5H91v-9.2c0-3.9-3.1-7-7-7h-5.8c0.3-5.2,0.4-12.4,0.4-12.4
				s-4.2-2.3-5.5-2.3s-5.1,0-5.1,0l7.1,14.7H27.3l0.6-1.3l19.7-12.6H12.4l-4.2,7l0.2,6.9H8.2v48.1c0,3.9,3.1,7,7,7h68.9
				c3.9,0,7-3.1,7-7v-8.8H78.3C71.9,76.6,66.7,71.4,66.7,65z"/>
		</g>
		<circle class="st1" cx="78.7" cy="65.3" r="2.3"/>
		<g>
			<path class="st2" d="M86.4,94.4H16.7C11.3,94.4,7,90,7,84.7V30.4c0-1.1,0.9-1.9,1.9-1.9s1.9,0.9,1.9,1.9v54.3
				c0,3.2,2.6,5.8,5.8,5.8h69.8c1.1,0,1.9-0.9,1.9-1.9V76.9c0-1.1,0.9-1.9,1.9-1.9s1.9,0.9,1.9,1.9v11.6
				C92.3,91.8,89.6,94.4,86.4,94.4z"/>
			<path class="st2" d="M90.3,55.6c-1.1,0-1.9-0.9-1.9-1.9V42.1c0-1.1-0.9-1.9-1.9-1.9H16.7c-2.6,0-5-1-6.9-2.9C8,35.5,7,33,7,30.4
				c0-5.3,4.3-9.7,9.7-9.7h33.1c1.1,0,1.9,0.9,1.9,1.9s-0.9,1.9-1.9,1.9H16.7c-3.2,0-5.8,2.6-5.8,5.8c0,1.6,0.6,3,1.7,4.1
				c1.1,1.1,2.6,1.7,4.1,1.7h69.8c3.2,0,5.8,2.6,5.8,5.8v11.6C92.3,54.8,91.4,55.6,90.3,55.6z"/>
			<path class="st2" d="M78.7,40.1c-1.1,0-1.9-0.9-1.9-1.9V26.6c0-1.1-0.9-1.9-1.9-1.9h-7.1c-1.1,0-1.9-0.9-1.9-1.9s0.9-1.9,1.9-1.9
				h7.1c3.2,0,5.8,2.6,5.8,5.8v11.6C80.6,39.3,79.8,40.1,78.7,40.1z"/>
			<path class="st2" d="M76.8,40.1c-0.7,0-1.3-0.3-1.7-1L62.5,17.6L25.4,39.8c-0.9,0.6-2.1,0.3-2.7-0.7c-0.6-0.9-0.3-2.1,0.7-2.7
				l38.8-23.3c0.4-0.3,1-0.3,1.5-0.2c0.5,0.1,0.9,0.5,1.2,0.9l13.6,23.3c0.5,0.9,0.2,2.1-0.7,2.7C77.4,40,77.1,40.1,76.8,40.1
				L76.8,40.1z"/>
			<path class="st2" d="M98.1,78.9H78.7c-7.5,0-13.6-6.1-13.6-13.6s6.1-13.6,13.6-13.6h19.4c1.1,0,1.9,0.9,1.9,1.9v23.3
				C100,78,99.1,78.9,98.1,78.9z M78.7,55.6c-5.3,0-9.7,4.3-9.7,9.7s4.3,9.7,9.7,9.7h17.4V55.6H78.7z"/>
			<path class="st2" d="M78.7,71.1c-3.2,0-5.8-2.6-5.8-5.8c0-3.2,2.6-5.8,5.8-5.8s5.8,2.6,5.8,5.8C84.5,68.5,81.9,71.1,78.7,71.1z
				 M78.7,63.4c-1.1,0-1.9,0.9-1.9,1.9c0,1.1,0.9,1.9,1.9,1.9s1.9-0.9,1.9-1.9C80.6,64.2,79.8,63.4,78.7,63.4z"/>
		</g>
	</g>
</g>
</svg>
