<?xml version="1.0" encoding="utf-8"?>
<!-- Generator: Adobe Illustrator 22.1.0, SVG Export Plug-In . SVG Version: 6.00 Build 0)  -->
<svg version="1.1" id="Layer_1" xmlns="http://www.w3.org/2000/svg" xmlns:xlink="http://www.w3.org/1999/xlink" x="0px" y="0px"
	 viewBox="0 0 107 107" style="enable-background:new 0 0 107 107;" xml:space="preserve">
<style type="text/css">
	.st0{fill:#EFD4E9;}
	.st1{fill:#FFFFFF;}
	.st2{fill:#BC4DA5;}
</style>
<g>
	<g>
		<path class="st0" d="M103.2,57.8l-18,13l-18-12.1l-1.7,2.4l1,20.6l1.4,1.8h13.3L80,88.1L59.6,91l-4.9,3.5l-7.5-1.6l-5.7-1.2
			l-29.9,0.2l-6.9-2.6L2.8,80l6.8-14.3L29,53.5l5.9-2.5l-7.8-6.1l-4.5-12.8l3.8-12l7.7-4.8c0,0,7.2-2.1,8.3-1.9s9.1,1.9,9.1,1.9
			l8.4,9.9l0.7,7.1l0.2,6.8l-5.1,5l-3,5.3l-2.3,3.1l2.8,2.1h5.3l4.3,4l1.9,1.1l2.1-3.9l21-1l13.8,0.2
			C101.9,55,106.9,56.6,103.2,57.8z"/>
	</g>
	<path class="st1" d="M30.5,62.2c-0.2,0-0.4,0.1-0.5,0.2l-1.1,1.1l-0.2,0.3c-0.4,0.5-0.7,1.1-0.9,1.7c-0.2,0.6-0.4,1.2-0.4,1.7
		c-0.6,5.2,1.9,10.1,8.7,17c8.1,8.1,14.7,8.8,16.6,8.8c0.2,0,0.4,0,0.4,0c0.6-0.1,1.1-0.2,1.7-0.4c0.6-0.2,1.2-0.6,1.7-0.9l0.2-0.2
		l1.2-1.2c0.3-0.3,0.3-0.7,0.1-0.9L52.6,84c-0.1-0.1-0.2-0.2-0.4-0.2s-0.4,0.1-0.5,0.2l-2.9,2.9c-0.4,0.4-0.9,0.6-1.4,0.6
		c-0.3,0-0.7-0.1-0.9-0.2l-0.7-0.4c-1.8-1-4.4-2.4-7.1-5.1c-2.7-2.7-4.1-5.2-5.1-7.1L33.2,74c-0.4-0.8-0.3-1.7,0.3-2.4l2.9-2.9
		c0.1-0.1,0.2-0.3,0.2-0.5s0-0.3-0.2-0.4L31,62.4C30.8,62.3,30.6,62.2,30.5,62.2z"/>
	<path class="st1" d="M65.5,81.7c0,0,7.5,1.9,8,2c0.4,0.1,16.9-0.3,17.7,0c0.9,0.3,12.9-1,12.9-1l0.4-12.8l-0.4-12l-19,12.8L66.6,58
		l-1,4.6L65.5,81.7L65.5,81.7z"/>
	<path class="st2" d="M103.4,54.1c-0.6-0.3-1.3-0.4-2-0.4l0,0H68.7l0,0c-0.7,0-1.4,0.1-2,0.4c-0.9,0.4-1.7,1.1-2.3,1.9
		c-2.4-1.5-4.9-2.7-7.6-3.7L53,50.8l3.1-2.8c0.6-0.6,1.2-1.2,1.8-1.8c0.2-0.2,0.3-0.4,0.5-0.6c0.4-0.5,0.8-1.1,1.2-1.6
		c0.1-0.2,0.3-0.4,0.4-0.6c0.4-0.7,0.8-1.3,1.1-2c0.1-0.1,0.1-0.3,0.2-0.4c0.3-0.7,0.6-1.4,0.8-2.1c0.1-0.2,0.2-0.5,0.3-0.7
		c0.5-1.9,0.8-3.8,0.8-5.7c0-0.7-0.1-1.3-0.2-2c0-0.1,0-0.2,0-0.3c-0.1-0.7-0.2-1.3-0.3-2c0-0.1,0-0.1-0.1-0.2
		c-0.2-0.7-0.3-1.5-0.5-2.2l-0.5-1.3c0-0.1-0.1-0.1-0.1-0.2c-0.3-0.8-0.7-1.6-1.2-2.4c-0.1-0.3-0.3-0.5-0.5-0.8
		c-0.3-0.6-0.7-1.1-1.1-1.6c-0.3-0.3-0.5-0.7-0.8-1c-0.4-0.5-0.8-0.9-1.3-1.4c-0.3-0.3-0.6-0.6-1-0.9c-0.4-0.3-0.8-0.6-1.2-0.9
		c-0.5-0.4-1-0.7-1.5-1s-1-0.6-1.5-0.8c-0.3-0.2-0.7-0.3-1-0.5c-0.7-0.3-1.3-0.6-2-0.8c-0.2-0.1-0.5-0.1-0.7-0.2
		c-0.8-0.2-1.6-0.4-2.4-0.5c-0.3,0-0.5-0.1-0.8-0.1c-0.9-0.1-1.9-0.2-2.8-0.2l0,0l0,0l0,0l0,0c-1,0-1.9,0.1-2.8,0.2
		c-0.3,0-0.5,0.1-0.8,0.1c-0.8,0.1-1.6,0.3-2.4,0.5c-0.2,0.1-0.5,0.1-0.7,0.2c-0.7,0.2-1.4,0.5-2,0.8c-0.3,0.2-0.7,0.3-1,0.5
		c-0.5,0.3-1,0.5-1.5,0.8s-1,0.6-1.5,1c-0.4,0.3-0.8,0.6-1.2,0.9c-0.3,0.3-0.7,0.6-1,0.9c-0.4,0.4-0.9,0.9-1.3,1.4
		c-0.3,0.3-0.6,0.7-0.8,1c-0.4,0.5-0.8,1.1-1.1,1.6c-0.2,0.3-0.3,0.5-0.5,0.8c-0.4,0.8-0.8,1.6-1.2,2.4c0,0.1-0.1,0.1-0.1,0.2
		l-0.5,1.3c-0.2,0.7-0.4,1.4-0.5,2.2c0,0.1,0,0.2-0.1,0.2c-0.1,0.7-0.2,1.3-0.3,2c0,0.1,0,0.2,0,0.3c-0.1,0.7-0.2,1.3-0.2,2
		c0,1.9,0.3,3.8,0.8,5.7c0.1,0.2,0.2,0.5,0.3,0.7c0.2,0.7,0.5,1.4,0.8,2.1c0.1,0.1,0.1,0.3,0.2,0.4c0.3,0.7,0.7,1.4,1.1,2
		c0.1,0.2,0.3,0.4,0.4,0.6c0.4,0.6,0.8,1.1,1.2,1.6c0.2,0.2,0.3,0.4,0.5,0.6c0.6,0.6,1.1,1.3,1.8,1.8l3.1,2.8l-3.9,1.5
		C14.4,56.9,4.9,66.7,1.1,78.6C0,82.1,0.6,85.8,2.7,88.8c2.2,3,5.5,4.7,9.2,4.7H31h12.8c4.3,2.1,7.5,2.3,8.7,2.3c0.4,0,0.7,0,0.7,0
		c0.8-0.1,1.6-0.3,2.4-0.6c0.9-0.3,1.7-0.8,2.4-1.4l0.3-0.3h13.1c3.7,0,7.1-1.7,9.2-4.7c0.8-1.1,1.4-2.4,1.8-3.7H84h17.5
		c2.8,0,5-2.2,5-5v-3.3v-18C106.5,56.7,105.2,54.9,103.4,54.1z M101.2,57.1L85.1,69L69,57.1H101.2z M24.7,32.4c0-9.4,7.6-17,17-17
		s17,7.6,17,17s-7.6,17-17,17C32.4,49.4,24.7,41.8,24.7,32.4z M42.3,89.3c-1.9-1.2-4.1-2.9-6.3-5.2c-6.8-6.8-9.4-11.8-8.7-17
		c0.1-0.6,0.2-1.1,0.4-1.7c0.2-0.6,0.6-1.2,0.9-1.7l0.2-0.3l1.1-1.1c0.1-0.1,0.3-0.2,0.5-0.2s0.3,0.1,0.4,0.1l5.4,5.4
		c0.1,0.1,0.2,0.3,0.2,0.4c0,0.2-0.1,0.4-0.2,0.5l-2.9,2.9C32.7,72,32.5,73,33,73.8l0.4,0.7c1,1.8,2.4,4.4,5.1,7.1
		c2.7,2.7,5.2,4.1,7.1,5.1l0.7,0.4c0.3,0.2,0.6,0.2,0.9,0.2c0.5,0,1-0.2,1.4-0.6l2.9-2.9c0.1-0.1,0.3-0.2,0.5-0.2s0.3,0.1,0.4,0.2
		l5.4,5.4l0,0c0.2,0.2,0.2,0.6-0.1,0.9l-1.2,1.2l-0.2,0.2c-0.5,0.4-1.1,0.7-1.7,0.9c-0.6,0.2-1.1,0.4-1.7,0.4c0,0-0.2,0-0.4,0
		C51.3,92.9,47.4,92.6,42.3,89.3z M77.5,86.4c-1.4,1.9-3.5,3-5.9,3H60.8c-0.1-0.7-0.4-1.5-1-2L54.4,82c-0.6-0.6-1.5-1-2.4-1
		c-1,0-1.9,0.4-2.6,1.1L47,84.5h-0.1c-1.7-0.9-4-2.2-6.4-4.6s-3.7-4.7-4.7-6.5l0,0l2.4-2.4c1.4-1.4,1.4-3.6,0.1-5l-5.4-5.4
		c-0.6-0.6-1.5-1-2.4-1c-1,0-1.9,0.4-2.6,1.1l-1.5,1.5L26,62.7l0.1,0.1c-0.4,0.6-0.7,1.2-1,1.9c-0.3,0.8-0.5,1.6-0.6,2.4
		c-0.7,6.2,2,11.8,9.6,19.3c1.2,1.2,2.3,2.2,3.5,3.1h-6.4H11.9c-2.4,0-4.5-1.1-5.9-3S4.2,82.2,5,80c2.5-7.8,7.6-14.4,14.2-19
		c0.4,0,0.8-0.1,1.1-0.4c6.3-4.4,13.7-6.7,21.4-6.8c7.7,0,15.1,2.4,21.4,6.8c0.2,0.1,0.3,0.2,0.5,0.2v16v3.3c0,2.8,2.2,5,5,5h9.5
		C78,85.5,77.8,86,77.5,86.4z M103.2,80.1c0,0.9-0.7,1.7-1.7,1.7H84h-1h-3.4h-0.7H68.7c-0.9,0-1.7-0.7-1.7-1.7V63v-3.2l9.1,6.7
		l9,6.7l18-13.4L103.2,80.1L103.2,80.1z"/>
	<g>
		<path class="st0" d="M75,35.6c0,0.6-0.9,4.7-4.5,9.9h21.9c0.8,0,4.5-6.2,4.5-6.8l-0.1-5.6H75.2L75,35.6z"/>
		<path class="st0" d="M97.7,46.5c0-0.1-0.5-6.2-0.5-6.2h-0.9L92,45.6H75v2.1c0,0.5,0.6,0.9,1.4,0.9H96c0.8,0,1.4-0.3,1.4-0.9v-1.1
			C97.6,46.5,97.7,46.5,97.7,46.5z"/>
		<rect x="75" y="28.3" class="st1" width="21.9" height="4.8"/>
		<path class="st2" d="M75,49.8c-0.7,0-1.2-0.5-1.2-1.1v-2H70c-0.5,0-0.9-0.3-1.1-0.8c-0.2-0.4,0-0.9,0.3-1.3
			c2.2-1.8,4.7-6.2,4.7-11.7v-4.7c0-0.6,0.5-1.1,1.2-1.1h5.7v-0.4c0-0.6,0.5-1.1,1.2-1.1s1.2,0.5,1.2,1.1v0.4h6.2v-0.4
			c0-0.6,0.5-1.1,1.2-1.1s1.2,0.5,1.2,1.1v0.4h5.7c0.7,0,1.2,0.5,1.2,1.1v20.4c0,0.6-0.5,1.1-1.2,1.1H75z M96.2,47.6v-5.1
			c-1,1.8-2.2,3.3-3.2,3.9c-0.2,0.2-0.5,0.3-0.8,0.3h-16v0.9H96.2z M91.8,44.4c2.5-2.3,4.1-6.2,4.4-10.3H76.2
			c-0.2,3.9-1.5,7.6-3.6,10.3H91.8z M96.2,31.9v-2.5h-4.5v0.4c0,0.6-0.5,1.1-1.2,1.1c-0.7,0-1.2-0.5-1.2-1.1v-0.4h-6.2v0.4
			c0,0.6-0.5,1.1-1.2,1.1c-0.7,0-1.2-0.5-1.2-1.1v-0.4h-4.5v2.5H96.2z"/>
	</g>
</g>
</svg>
