<?xml version="1.0" encoding="utf-8"?>
<!-- Generator: Adobe Illustrator 22.1.0, SVG Export Plug-In . SVG Version: 6.00 Build 0)  -->
<svg version="1.1" id="Layer_1" xmlns="http://www.w3.org/2000/svg" xmlns:xlink="http://www.w3.org/1999/xlink" x="0px" y="0px"
	 viewBox="0 0 107 107" style="enable-background:new 0 0 107 107;" xml:space="preserve">
<style type="text/css">
	.st0{fill:#FFC8B9;}
	.st1{fill:#FFFFFF;}
	.st2{fill:#FF7550;}
</style>
<g>
	<g>
		<g>
			<g>
				<g>
					<path class="st0" d="M97,46.6C97.2,30.9,86.6,17,71.5,13.1c-14.9-3.8-30.6,2.9-38.2,16.4L97,46.6z"/>
					<path class="st1" d="M76.3,48l-0.5-7.1L97,46.6l-4,5.9c-0.4,0.6-1.2,0.9-2,0.7l-13.5-3.6C76.9,49.5,76.3,48.8,76.3,48L76.3,48z
						"/>
					<path class="st1" d="M55.1,42.3l-0.5-7.1l21.2,5.7l-4,5.9c-0.4,0.6-1.2,0.9-2,0.7L56.4,44C55.6,43.8,55.1,43.1,55.1,42.3
						L55.1,42.3z"/>
					<path class="st1" d="M33.8,36.7l-0.5-7.1l21.2,5.7l-4,5.9c-0.4,0.6-1.2,0.9-2,0.7l-13.5-3.6C34.4,38.1,33.9,37.4,33.8,36.7
						L33.8,36.7z"/>
					<path class="st0" d="M76.9,25.3c-0.1-4-0.6-7.7-1.2-10.8c-1.4-0.5-2.8-1-4.2-1.4c-0.9-0.2-1.8-0.4-2.7-0.6
						c-2.3,2.3-5,5.4-7.5,9.1c-3.3,5-5.4,9.8-6.7,13.5l8.5,2.3l12.7,3.4C76.5,36.6,77.1,31.4,76.9,25.3L76.9,25.3z"/>
					<path class="st0" d="M68.8,12.6c-0.3,0.3-0.7,0.7-1,1.1c3,1,5.9,2.3,8.4,4c-0.2-1.1-0.3-2.1-0.5-3.1c-1.1-0.4-2.1-0.8-3.2-1.1
						C71.3,13.1,70,12.8,68.8,12.6L68.8,12.6z"/>
				</g>
			</g>
			<g>
				<g>
					<path class="st0" d="M21.1,98.6c-0.4,0-0.8-0.1-1.1-0.2c-1.4-0.6-2-2.2-1.4-3.6l5.4-12c0.6-1.4,2.2-2,3.6-1.4
						c1.4,0.6,2,2.2,1.4,3.6l-5.4,12C23.1,98,22.1,98.6,21.1,98.6z"/>
				</g>
				<g>
					<path class="st0" d="M77.2,98.6c0.4,0,0.8-0.1,1.1-0.2c1.4-0.6,2-2.2,1.4-3.6l-5.4-12c-0.6-1.4-2.2-2-3.6-1.4
						c-1.4,0.6-2,2.2-1.4,3.6l5.4,12C75.1,98,76.1,98.6,77.2,98.6z"/>
				</g>
				<path class="st0" d="M16.9,86.7h53.6c1.5,0,2.8-0.6,3.9-1.6l19.1-19.3c0.3-0.3,0.2-0.8-0.2-0.9l-4.2-1.4
					c-3.2-1.1-6.7-0.2-9.1,2.2l-9.6,9.8c-0.7,0.7-1.6,1.1-2.6,1.1l-43.5-0.1c-4.4,0-7.9,3.5-7.9,7.9v1.8
					C16.3,86.4,16.6,86.7,16.9,86.7L16.9,86.7z"/>
			</g>
		</g>
	</g>
	<path class="st2" d="M90.9,24.4c-0.5-0.6-1.3-0.7-1.9-0.2c-0.6,0.5-0.7,1.3-0.2,1.9c4.2,5.4,6.6,12,6.9,18.8l-18.3-4.9
		c0.8-4.8,1.1-9.8,0.9-14.7c-0.1-2.8-0.4-5.7-0.8-8.5c2.6,1.3,5,2.9,7.1,4.8c0.6,0.5,1.4,0.4,1.9-0.1c0.5-0.6,0.4-1.4-0.1-1.9
		c-3.6-3.2-7.7-5.5-12.2-7l1.3-3.7c0.3-0.7-0.1-1.5-0.8-1.7c-0.7-0.3-1.5,0.1-1.7,0.8l-1.4,3.8C56.1,7.9,40,14.9,32.2,28.9
		c-0.1,0.2-0.2,0.4-0.2,0.8l0.5,7.1c0.1,1.4,1,2.5,2.3,2.9l13.5,3.6c1.3,0.3,2.7-0.2,3.5-1.3l1.7-2.6l0.2,3.1c0.1,1.4,1,2.5,2.3,2.9
		l5.4,1.4l-7.6,28.4l-12.7,0h0c-0.8,0-1.4,0.6-1.4,1.4c0,0.8,0.6,1.4,1.4,1.4l26.7,0.1h0c1.3,0,2.6-0.5,3.6-1.5l9.6-9.8
		c2-2,5-2.8,7.7-1.9l2.9,1L73.3,84.1c-0.8,0.8-1.8,1.2-2.9,1.2H17.7c-0.1-2.1,0.4-4.1,1.9-5.6c1.2-1.2,2.9-1.9,4.6-1.9h0l10.4,0h0
		c0.7,0,1.4-0.6,1.4-1.4c0-0.8-0.6-1.4-1.4-1.4l-10.5,0c-2.5,0-4.8,1-6.6,2.7C15.5,80,15,83,15,86.1c0,1.1,0.9,1.9,1.9,1.9h3.3
		l-2.8,6.2c-0.5,1-0.5,2.1-0.1,3.1H10c-0.8,0-1.4,0.6-1.4,1.4c0,0.8,0.6,1.4,1.4,1.4h83.8c0.8,0,1.4-0.6,1.4-1.4
		c0-0.8-0.6-1.4-1.4-1.4H81c0.3-1,0.3-2.1-0.1-3.1l-4.3-9.5l17.8-18c1-1,0.6-2.7-0.8-3.2l-4.2-1.4C85.8,61,81.7,62,79,64.7l-9.6,9.8
		c-0.4,0.4-1,0.7-1.6,0.7h0l-11.1,0l7.4-27.7l5.4,1.4c1.3,0.3,2.7-0.2,3.5-1.3l1.7-2.6l0.2,3.1c0.1,1.4,1,2.5,2.3,2.9l13.5,3.6
		c1.3,0.3,2.7-0.2,3.5-1.3l4-5.9c0.1-0.2,0.2-0.4,0.2-0.8C98.5,38.6,95.8,30.7,90.9,24.4L90.9,24.4z M21.1,97.3
		c-0.2,0-0.4,0-0.6-0.1c-0.7-0.3-1-1.1-0.7-1.8l3.3-7.3h3l-3.8,8.5C22.1,97,21.6,97.3,21.1,97.3L21.1,97.3z M47.9,97.3h-23l4.2-9.2
		h21.2L47.9,97.3z M50.7,97.3l2.5-9.2h15.9l4.2,9.2H50.7z M78.4,95.3c0.3,0.7,0,1.5-0.7,1.8c-0.2,0.1-0.4,0.1-0.6,0.1
		c-0.5,0-1-0.3-1.2-0.8L72,87.8c0.9-0.2,1.7-0.6,2.5-1.1L78.4,95.3z M49.5,40.4c-0.1,0.2-0.3,0.2-0.5,0.2L35.5,37
		c-0.2-0.1-0.3-0.2-0.3-0.4l-0.4-5.2l17.5,4.7L49.5,40.4z M53.7,33.6l-18.3-4.9C42,18.3,53.9,12.5,66,13.6c-2.1,2.3-4.1,4.8-5.8,7.4
		C57.5,24.9,55.4,29.1,53.7,33.6L53.7,33.6z M70.7,46.1c-0.1,0.2-0.3,0.2-0.5,0.2l-13.5-3.6c-0.2-0.1-0.3-0.2-0.3-0.4l-0.4-5.2
		l17.5,4.7L70.7,46.1z M74.7,39.2l-18.3-4.9c1.6-4.2,3.6-8.2,6.1-11.9c2-3,4.3-5.8,6.8-8.4c1.8,0.3,3.5,0.8,5.2,1.5
		c0.6,3.3,0.9,6.6,1,9.9C75.7,30,75.4,34.6,74.7,39.2L74.7,39.2z M91.9,51.8c-0.1,0.2-0.3,0.2-0.5,0.2L78,48.3
		c-0.2-0.1-0.3-0.2-0.3-0.4l-0.4-5.2l17.5,4.7L91.9,51.8z"/>
</g>
</svg>
