<?xml version="1.0" encoding="utf-8"?>
<!-- Generator: Adobe Illustrator 22.1.0, SVG Export Plug-In . SVG Version: 6.00 Build 0)  -->
<svg version="1.1" id="Layer_1" xmlns="http://www.w3.org/2000/svg" xmlns:xlink="http://www.w3.org/1999/xlink" x="0px" y="0px"
	 viewBox="0 0 60 60" style="enable-background:new 0 0 60 60;" xml:space="preserve">
<style type="text/css">
	.st0{fill:#FF0000;}
</style>
<g>
	<path class="st0" d="M13.1,30.1c3.1,0,6.2,0,9.3,0c0.1,0.1,0.2,0.3,0.3,0.4c-3.4,4-6.7,8-10.3,11.9c-4-4.1-7.9-8.1-11.9-12.2
		c2.7,0,5.1,0,7.7,0C8.5,21.5,12,14.6,18.8,9.5c4.7-3.5,10-5.1,15.8-5c11.4,0.3,21.5,8.3,24.2,19.6c2.6,11-2.3,21.8-10.4,26.9
		c-0.7-1.3-1.5-2.5-2.3-3.9c5.3-4.2,8.4-9.5,8.6-16.3c0.2-4.7-1.1-9-3.8-12.8c-5.8-8.1-16.4-11.1-25.4-7.1
		C18,14.2,11.8,23.6,13.1,30.1z"/>
	<path class="st0" d="M23,53.1c0.7-1.2,1.2-2.3,1.9-3.3c0.2-0.3,0.8-0.4,1.1-0.3c1.7,0.4,3.3,0.8,5,1.3c0.3,0.1,0.8,0.3,0.8,0.5
		c0.1,1.3,0.1,2.6,0,3.9c0,0.1-0.4,0.4-0.7,0.4C28.3,55.2,25.6,54.6,23,53.1z"/>
	<path class="st0" d="M36,53.1c0-2.1,0-2.1,2-2.5c1.2-0.3,2.4-0.6,3.5-1.1c0.9-0.4,1.3-0.2,1.7,0.6c0.1,0.2,0.2,0.3,0.3,0.5
		c1.6,2.7,1.6,2.7-1.5,3.7c-1.4,0.4-2.9,0.7-4.3,1C36,55.7,36,55.6,36,54C36,53.7,36,53.4,36,53.1z"/>
	<path class="st0" d="M19.4,51.1c-0.7-0.6-1.5-0.9-1.7-1.4c-0.4-0.7-0.7-1.7-0.5-2.4c0.2-0.6,1.2-1.4,1.8-1.4c0.8-0.1,1.6,0.6,2.4,1
		c0.1,0.1,0.2,0.6,0.1,0.7C20.8,48.7,20.1,49.8,19.4,51.1z"/>
	<path class="st0" d="M47.9,34.3l-11.7-3.8c-0.6-0.2-1.1-0.5-1.5-0.9l-7.5-7.5c-0.8-0.8-2.2-0.8-3,0c-0.8,0.8-0.8,2.2,0,3
		c0.6,0.6,1.2,1.2,1.8,1.8c1.2,1.2,2.5,2.5,3.7,3.7c0.7,0.7,1.4,1.4,2.1,2.1c0.6,0.6,1.3,1.2,2.2,1.5c2.6,0.8,5.3,1.7,7.9,2.5
		c0.6,0.2,1.1,0.4,1.7,0.5c1,0.3,2,0.7,3.1,1c0,0,0.1,0,0.1,0c1.2,0.4,2.6-0.4,2.8-1.7C49.6,35.6,48.9,34.6,47.9,34.3z"/>
</g>
</svg>
