<?xml version="1.0" encoding="utf-8"?>
<!-- Generator: Adobe Illustrator 22.1.0, SVG Export Plug-In . SVG Version: 6.00 Build 0)  -->
<svg version="1.1" id="Layer_1" xmlns="http://www.w3.org/2000/svg" xmlns:xlink="http://www.w3.org/1999/xlink" x="0px" y="0px"
	 viewBox="0 0 107 107" style="enable-background:new 0 0 107 107;" xml:space="preserve">
<style type="text/css">
	.st0{fill:#FFD4DA;}
	.st1{fill:#FFFFFF;}
	.st2{fill:#FE4A65;}
</style>
<g>
	<path class="st0" d="M18.5,88.3c0,2.4,2,4.4,4.4,4.4H84c2.4,0,4.4-2,4.4-4.4V45.6H18.5V88.3z"/>
	<path class="st1" d="M88.5,27.3c0-2.4-2-4.4-4.4-4.4H23c-2.4,0-4.4,2-4.4,4.4v11.1h69.9V27.3z"/>
	<g>
		<path class="st2" d="M84.7,15.6H22.3c-6.1,0-11,4.9-11,11V89c0,6.1,4.9,11,11,11h62.3c6.1,0,11-4.9,11-11V26.7
			C95.7,20.6,90.7,15.6,84.7,15.6z M18.5,27.3c0-2.4,2-4.4,4.4-4.4H84c2.4,0,4.4,2,4.4,4.4v11.1H18.5V27.3z M88.5,88.3
			c0,2.4-2,4.4-4.4,4.4H23c-2.4,0-4.4-2-4.4-4.4V45.6h69.9V88.3z"/>
		<g>
			<path class="st2" d="M68.1,32.2L68.1,32.2c-2,0-3.6-1.6-3.6-3.6V10.6c0-2,1.6-3.6,3.6-3.6h0c2,0,3.6,1.6,3.6,3.6v17.9
				C71.7,30.5,70.1,32.2,68.1,32.2z"/>
			<path class="st2" d="M38.9,32.2L38.9,32.2c-2,0-3.6-1.6-3.6-3.6V10.6c0-2,1.6-3.6,3.6-3.6h0c2,0,3.6,1.6,3.6,3.6v17.9
				C42.5,30.5,40.9,32.2,38.9,32.2z"/>
		</g>
	</g>
	<g>
		<path class="st2" d="M37.8,59.1h-7.2c-1.3,0-2.3-1-2.3-2.3v-0.6c0-1.3,1-2.3,2.3-2.3h7.2c1.3,0,2.3,1,2.3,2.3v0.6
			C40.1,58,39,59.1,37.8,59.1z"/>
		<path class="st2" d="M57.1,59.1h-7.2c-1.3,0-2.3-1-2.3-2.3v-0.6c0-1.3,1-2.3,2.3-2.3h7.2c1.3,0,2.3,1,2.3,2.3v0.6
			C59.4,58,58.4,59.1,57.1,59.1z"/>
		<path class="st2" d="M76.4,59.1h-7.2c-1.3,0-2.3-1-2.3-2.3v-0.6c0-1.3,1-2.3,2.3-2.3h7.2c1.3,0,2.3,1,2.3,2.3v0.6
			C78.7,58,77.7,59.1,76.4,59.1z"/>
	</g>
	<path class="st2" d="M37.8,71.1h-7.2c-1.3,0-2.3-1-2.3-2.3v-0.6c0-1.3,1-2.3,2.3-2.3h7.2c1.3,0,2.3,1,2.3,2.3v0.6
		C40.1,70.1,39,71.1,37.8,71.1z"/>
	<path class="st2" d="M57.1,71.1h-7.2c-1.3,0-2.3-1-2.3-2.3v-0.6c0-1.3,1-2.3,2.3-2.3h7.2c1.3,0,2.3,1,2.3,2.3v0.6
		C59.4,70.1,58.4,71.1,57.1,71.1z"/>
	<path class="st2" d="M72.8,71.1L72.8,71.1c-1.4,0-2.6-1.2-2.6-2.6v0c0-1.4,1.2-2.6,2.6-2.6h0c1.4,0,2.6,1.2,2.6,2.6v0
		C75.4,70,74.2,71.1,72.8,71.1z"/>
	<path class="st2" d="M34.2,83.2L34.2,83.2c-1.4,0-2.6-1.2-2.6-2.6v0c0-1.4,1.2-2.6,2.6-2.6h0c1.4,0,2.6,1.2,2.6,2.6v0
		C36.8,82,35.6,83.2,34.2,83.2z"/>
	<g>
		<path class="st2" d="M57.1,83.2h-7.2c-1.3,0-2.3-1-2.3-2.3v-0.6c0-1.3,1-2.3,2.3-2.3h7.2c1.3,0,2.3,1,2.3,2.3v0.6
			C59.4,82.1,58.4,83.2,57.1,83.2z"/>
		<path class="st2" d="M76.4,83.2h-7.2c-1.3,0-2.3-1-2.3-2.3v-0.6c0-1.3,1-2.3,2.3-2.3h7.2c1.3,0,2.3,1,2.3,2.3v0.6
			C78.7,82.1,77.7,83.2,76.4,83.2z"/>
	</g>
</g>
</svg>
