<?xml version="1.0" encoding="utf-8"?>
<!-- Generator: Adobe Illustrator 22.1.0, SVG Export Plug-In . SVG Version: 6.00 Build 0)  -->
<svg version="1.1" id="Layer_1" xmlns="http://www.w3.org/2000/svg" xmlns:xlink="http://www.w3.org/1999/xlink" x="0px" y="0px"
	 viewBox="0 0 107 107" style="enable-background:new 0 0 107 107;" xml:space="preserve">
<style type="text/css">
	.st0{fill:#E2F4EE;}
	.st1{fill:#6CA68B;}
</style>
<g>
	<path class="st0" d="M85,39.5H56.8c-1.5-13.9-13-24.7-27-24.7c-15,0-27.2,12.5-27.2,27.9s12.2,27.9,27.2,27.9
		c3.7,0,7.3-0.8,10.5-2.2v13.9c0,5.5,4.5,10,10,10H85c5.5,0,10-4.5,9.7-10V49.5C95,44,90.5,39.5,85,39.5z"/>
	<path class="st1" d="M55.4,46.5c-0.7,0-1.3-0.3-1.8-0.7c-1-1-1.1-2.6-0.2-3.6c0.3-0.3,0.4-0.6,0.4-1c0-1.7,0-6.6,0-6.6
		c0-1.3,0.2-1.7,1.4-2.1h0.6c0.1,0,0.2,0.1,0.2,0.1c0.2,0.1,0.4,0.2,0.6,0.3c0.4,0.3,0.6,0.7,0.6,1.4c0,2.3,0,4.7,0,7
		c0,0.3,0.1,0.6,0.3,0.9c0.9,1.1,0.9,2.7-0.2,3.7C56.7,46.3,56.1,46.5,55.4,46.5L55.4,46.5z"/>
	<path class="st1" d="M66.8,46.5c-0.7,0-1.4-0.3-1.9-0.7c-1-1-1.1-2.6-0.2-3.7c0.2-0.2,0.3-0.6,0.3-0.9c0-1.7,0-3.4,0-5.2l0-1.5
		c0-1.3,0.2-1.7,1.4-2.2h0.7c0.7,0.2,1.1,0.7,1.3,1.4c0,0.2,0,0.3,0,0.5c0,2.3,0,4.6,0,6.9c0,0.4,0.1,0.7,0.4,1
		c0.9,1.1,0.8,2.7-0.2,3.6C68.1,46.3,67.5,46.5,66.8,46.5L66.8,46.5z"/>
	<path class="st1" d="M78.2,46.5c-0.7,0-1.3-0.3-1.8-0.7c-1-1-1.1-2.6-0.2-3.7c0.2-0.2,0.3-0.6,0.3-0.9l0-1.2c0-1.8,0-3.6,0-5.4
		c0-1.2,0.4-1.9,1.4-2.2l0.6,0l0.1,0c0.1,0,0.2,0.1,0.3,0.1c0.6,0.3,0.9,0.8,0.9,1.5c0,2.4,0,4.7,0,7.1c0,0.3,0.1,0.7,0.3,0.9
		c0.9,1.1,0.9,2.7-0.2,3.7C79.5,46.3,78.9,46.5,78.2,46.5C78.2,46.5,78.2,46.5,78.2,46.5z"/>
	<path class="st1" d="M99.7,51.1l0.3-0.3c0.4-0.4,0.8-0.9,1.2-1.3c0.2-0.2,0.4-0.3,0.7-0.3c0.2,0,0.3,0,0.6,0.1
		c0.9,0.2,1.7,0.8,2.7,1.7c0.8,0.8,1.2,1.5,1.4,2.4l0,0.4l-0.2,0.3c-0.2,0.3-0.4,0.5-0.6,0.8c-0.2,0.3-0.5,0.6-0.8,0.8l-0.1,0.1
		L99.7,51.1z"/>
	<path class="st1" d="M50.4,93.7c-0.8,0-1.6,0-2.4-0.1c-4.5-0.2-7.8-2.3-9.7-6.2c-0.6-1.2-0.9-2.7-0.9-4.4l0-12.2
		c0-7.1,0-14.3,0-21.4v-0.3c0-1,0-2.1,0.2-3c0.7-3.6,2.9-6.2,6.6-7.8c1-0.4,2.1-0.7,3.5-0.8l0.2,0v3.5c-1.2,0.2-2.3,0.6-3.2,1.1
		c-2.6,1.6-3.9,4-3.9,6.9v22.7l0,3.1c0,2.3,0,4.7,0,7c-0.1,4.3,3.3,7.9,7.8,8.2c0.4,0,0.8,0,1.2,0l34.3,0c2.4,0,4.3-0.7,5.9-2
		c1.9-1.6,2.8-3.6,2.8-6c0-1,0-2,0-3c0-1,0-3.3,0-4.2c0-0.1,0-0.2,0.1-0.3c0.9-1,1.8-2,2.7-3l0.6-0.7c0,0.9,0,3.1,0,4
		c0,2.7,0,5.5,0,8.3c-0.1,4.2-2.2,7.3-6.2,9.3c-1.4,0.7-2.9,1-4.6,1l-31.3,0c-0.6,0-1.2,0-1.9,0C51.6,93.7,51,93.7,50.4,93.7z"/>
	<polygon class="st1" points="86.8,65.2 98.2,52.8 103.4,57.4 92,69.9 	"/>
	<path class="st1" d="M92.8,52.9c0-1,0-2.7,0-3.7c0.1-3.9-2.8-7.3-6.8-8l-0.3,0v-3.5c0.9,0,1.7,0.1,2.5,0.4c4.2,1.3,6.8,3.9,7.8,8
		c0.1,0.6,0.2,1.3,0.2,2c0,0.3,0,1.4,0,1.7c-1.1,1.2-2.3,2.5-3.4,3.7l0,0L92.8,52.9z"/>
	<polygon class="st1" points="85.5,67 90.3,71.4 83.3,74.2 	"/>
	<path class="st1" d="M30.3,72.1c-16.4,0-29.8-13.2-29.8-29.4s13.4-29.4,29.8-29.4c11.2,0,21.3,6,26.4,15.8h-5
		C47,21.9,39,17.6,30.3,17.6c-14,0-25.4,11.3-25.4,25.1s11.4,25.1,25.4,25.1c1.3,0,2.7-0.1,4-0.3v4.3C32.9,72,31.6,72.1,30.3,72.1z"
		/>
	<path class="st1" d="M47.2,60.1c-0.4,0-0.7-0.3-0.7-0.7v-4.5c0-0.4,0.3-0.7,0.7-0.7h4.6c0.4,0,0.7,0.3,0.7,0.7v4.5
		c0,0.4-0.3,0.7-0.7,0.7H47.2z"/>
	<path class="st1" d="M58.6,58.9c-0.2,0-0.3-0.1-0.3-0.3v-3.3c0-0.2,0.1-0.3,0.3-0.3h26.8c0.2,0,0.3,0.1,0.3,0.3v3.3
		c0,0.2-0.1,0.3-0.3,0.3H58.6z"/>
	<path class="st1" d="M47.2,71.8c-0.4,0-0.7-0.3-0.7-0.7v-4.5c0-0.4,0.3-0.7,0.7-0.7h4.6c0.4,0,0.7,0.3,0.7,0.7v4.5
		c0,0.4-0.3,0.7-0.7,0.7H47.2z"/>
	<path class="st1" d="M58.6,70.7c-0.2,0-0.3-0.1-0.3-0.3v-3.3c0-0.2,0.1-0.3,0.3-0.3h23.1l-1.2,3.9H58.6z"/>
	<path class="st1" d="M47.2,83.4c-0.4,0-0.7-0.3-0.7-0.7v-4.5c0-0.4,0.3-0.7,0.7-0.7h4.6c0.4,0,0.7,0.3,0.7,0.7v4.5
		c0,0.4-0.3,0.7-0.7,0.7H47.2z"/>
	<path class="st1" d="M58.6,82.3c-0.2,0-0.3-0.1-0.3-0.3v-3.3c0-0.2,0.1-0.3,0.3-0.3h26.8c0.2,0,0.3,0.1,0.3,0.3V82
		c0,0.2-0.1,0.3-0.3,0.3H58.6z"/>
	<path class="st1" d="M21.2,62.2c-0.3,0-0.6-0.1-0.9-0.3c-0.8-0.4-1.2-0.9-1.4-1.5c-0.2-0.7,0.1-1.6,0.8-2.5c1.3-1.7,2.6-3.3,3.9-5
		l0.1-0.2c2-2.5,4-5,5.9-7.6c0.8-1.1,1.3-2.8,1.2-4.3c-0.3-4.3-0.7-9-1.4-14.6c-0.2-1.6,0.3-2.4,1.6-2.8c0.2-0.1,0.5-0.1,0.7-0.1
		c0.9,0,1.6,0.6,2.1,1.7c0.2,0.4,0.3,0.9,0.4,1.3c0.5,4.3,0.9,8.7,1.4,13.2c-1.2,1.5-2,3.2-2.4,5.2C33,46.1,33,47.2,33,48.3v1.3
		c-2.2,2.5-4.4,5.1-6.6,7.6l-3.3,3.8C22.4,61.8,21.8,62.2,21.2,62.2z"/>
</g>
</svg>
