<?xml version="1.0" encoding="utf-8"?>
<!-- Generator: Adobe Illustrator 22.1.0, SVG Export Plug-In . SVG Version: 6.00 Build 0)  -->
<svg version="1.1" id="Layer_1" xmlns="http://www.w3.org/2000/svg" xmlns:xlink="http://www.w3.org/1999/xlink" x="0px" y="0px"
	 viewBox="0 0 107 107" style="enable-background:new 0 0 107 107;" xml:space="preserve">
<style type="text/css">
	.st0{fill:#E0CBFA;}
	.st1{fill:#845DB7;}
	.st2{fill:#FFFFFF;}
</style>
<g>
	<path class="st0" d="M84.9,39.5H56.8c-1.5-13.9-13-24.7-27-24.7c-15,0-27.2,12.5-27.2,27.9s12.2,27.9,27.2,27.9
		c3.7,0,8,4.5,9.7,5.2l-0.2,6.4c0.9,5.7,5.4,10.2,10.9,10.2h34.7c5.5,0,10-4.5,9.7-10V49.5C94.9,44,90.4,39.5,84.9,39.5z"/>
	<path class="st1" d="M55.4,46.5c-0.7,0-1.3-0.3-1.8-0.7c-1-1-1.1-2.6-0.2-3.6c0.3-0.3,0.4-0.6,0.4-1c0-1.7,0-6.6,0-6.6
		c0-1.3,0.2-1.7,1.4-2.1h0.6c0.1,0,0.2,0.1,0.2,0.1c0.2,0.1,0.4,0.2,0.6,0.3c0.4,0.3,0.6,0.7,0.6,1.4c0,2.3,0,4.7,0,7
		c0,0.3,0.1,0.6,0.3,0.9c0.9,1.1,0.9,2.7-0.2,3.7C56.7,46.3,56,46.5,55.4,46.5L55.4,46.5z"/>
	<path class="st1" d="M66.8,46.5c-0.7,0-1.4-0.3-1.9-0.7c-1-1-1.1-2.6-0.2-3.7c0.2-0.2,0.3-0.6,0.3-0.9c0-1.7,0-3.4,0-5.2v-1.5
		c0-1.3,0.2-1.7,1.4-2.2h0.7c0.7,0.2,1.1,0.7,1.3,1.4c0,0.2,0,0.3,0,0.5c0,2.3,0,4.6,0,6.9c0,0.4,0.1,0.7,0.4,1
		c0.9,1.1,0.8,2.7-0.2,3.6C68.1,46.3,67.4,46.5,66.8,46.5L66.8,46.5z"/>
	<path class="st1" d="M78.1,46.5c-0.7,0-1.3-0.3-1.8-0.7c-1-1-1.1-2.6-0.2-3.7c0.2-0.2,0.3-0.6,0.3-0.9V40c0-1.8,0-3.6,0-5.4
		c0-1.2,0.4-1.9,1.4-2.2h0.6h0.1c0.1,0,0.2,0.1,0.3,0.1c0.6,0.3,0.9,0.8,0.9,1.5c0,2.4,0,4.7,0,7.1c0,0.3,0.1,0.7,0.3,0.9
		c0.9,1.1,0.9,2.7-0.2,3.7C79.4,46.3,78.9,46.5,78.1,46.5L78.1,46.5z"/>
	<path class="st1" d="M99.6,51.1l0.3-0.3c0.4-0.4,0.8-0.9,1.2-1.3c0.2-0.2,0.4-0.3,0.7-0.3c0.2,0,0.3,0,0.6,0.1
		c0.9,0.2,1.7,0.8,2.7,1.7c0.8,0.8,1.2,1.5,1.4,2.4v0.4l-0.2,0.3c-0.2,0.3-0.4,0.5-0.6,0.8s-0.5,0.6-0.8,0.8l-0.1,0.1L99.6,51.1z"/>
	<polygon class="st1" points="86.8,65.2 98.1,52.8 103.4,57.4 91.9,69.9 	"/>
	<path class="st1" d="M92.8,52.9c0-1,0-2.7,0-3.7c0.1-3.9-2.8-7.3-6.8-8h-0.3v-3.5c0.9,0,1.7,0.1,2.5,0.4c4.2,1.3,6.8,3.9,7.8,8
		c0.1,0.6,0.2,1.3,0.2,2c0,0.3,0,1.4,0,1.7c-1.1,1.2-2.3,2.5-3.4,3.7l0,0V52.9z"/>
	<polygon class="st1" points="85.4,67 90.3,71.4 83.3,74.2 	"/>
	<path class="st1" d="M21.2,62.2c-0.3,0-0.6-0.1-0.9-0.3c-0.8-0.4-1.2-0.9-1.4-1.5c-0.2-0.7,0.1-1.6,0.8-2.5c1.3-1.7,2.6-3.3,3.9-5
		l0.1-0.2c2-2.5,4-5,5.9-7.6c0.8-1.1,1.3-2.8,1.2-4.3c-0.3-4.3-0.7-9-1.4-14.6c-0.2-1.6,0.3-2.4,1.6-2.8c0.2-0.1,0.5-0.1,0.7-0.1
		c0.9,0,1.6,0.6,2.1,1.7c0.2,0.4,0.3,0.9,0.4,1.3c0.5,4.3,0.9,8.7,1.4,13.2c-1.2,1.5-2,3.2-2.4,5.2C33,46.1,33,47.2,33,48.3v1.3
		c-2.2,2.5-4.4,5.1-6.6,7.6L23.1,61C22.4,61.8,21.8,62.2,21.2,62.2z"/>
	<path class="st2" d="M63.6,62.1c2.6,0,4.7-2.1,4.7-4.7c0-2.6-2.1-4.7-4.7-4.7c-2.6,0-4.7,2.1-4.7,4.7C58.8,59.9,61,62.1,63.6,62.1z
		"/>
	<path class="st1" d="M13.9,85.8c0.2,0.5,0.4,1,0.7,1.4l0,0c0.3,0.3,0.6,0.7,0.9,0.9l0,0c0.6,0.4,1.3,0.7,2.1,0.9v0
		c0.2,0,0.4,0,0.7,0s0.4,0,0.7,0v0c1.7-0.2,3.1-1.5,3.7-3.1c0,0,0,0,0,0c0-0.1,0-0.1,0.1-0.2c0,0,0,0,0,0c0-0.1,0-0.1,0-0.2
		c0,0,0,0,0-0.1c0,0,0-0.1,0-0.1c0,0,0-0.1,0-0.1c0,0,0-0.1,0-0.1c0,0,0-0.1,0-0.1c0,0,0-0.1,0-0.1c0,0,0-0.1,0-0.1c0,0,0-0.1,0-0.1
		c0-0.1,0-0.1,0-0.2c0-0.7-0.2-1.4-0.5-2l9-9c0.4,0.2,0.8,0.4,1.3,0.4v0c0.2,0,0.4,0,0.7,0c0.2,0,0.4,0,0.7,0v0
		c0.5-0.1,0.9-0.2,1.3-0.4l3,3c-0.3,0.6-0.4,1.2-0.4,1.9c0,0.5,0.1,0.9,0.2,1.3h0c0.2,0.5,0.4,1,0.7,1.4l0,0
		c0.3,0.3,0.6,0.7,0.9,0.9l0,0c0.6,0.4,1.3,0.7,2.1,0.9v0c0.2,0,0.4,0,0.7,0c0.2,0,0.4,0,0.7,0v0c1.7-0.2,3.1-1.5,3.7-3.1
		c0,0,0,0,0,0c0-0.1,0-0.1,0.1-0.2c0,0,0,0,0,0c0-0.1,0-0.1,0-0.2c0,0,0,0,0-0.1c0,0,0-0.1,0-0.1c0,0,0-0.1,0-0.1c0,0,0-0.1,0-0.1
		c0,0,0-0.1,0-0.1c0,0,0-0.1,0-0.1c0,0,0-0.1,0-0.1c0,0,0-0.1,0-0.1c0-0.1,0-0.1,0-0.2c0-0.8-0.2-1.5-0.6-2.2l13.8-13.8
		c0.7,0.5,1.6,0.8,2.5,0.9v0c0.3,0,0.6,0.1,0.9,0.1c0.3,0,0.6,0,0.9-0.1v0c2.5-0.4,4.5-2.1,5.2-4.4c0,0,0,0,0,0
		c0-0.1,0.1-0.2,0.1-0.3c0,0,0,0,0-0.1c0-0.1,0-0.1,0.1-0.2c0,0,0-0.1,0-0.1c0-0.1,0-0.1,0-0.2c0,0,0-0.1,0-0.1c0-0.1,0-0.1,0-0.2
		c0-0.1,0-0.1,0-0.2c0-0.1,0-0.1,0-0.2c0-0.1,0-0.1,0-0.2c0,0,0-0.1,0-0.1c0-0.1,0-0.2,0-0.3c0-3.6-2.9-6.5-6.5-6.5
		c-3.6,0-6.5,2.9-6.5,6.5c0,0.6,0.1,1.3,0.3,1.9h0c0.2,0.6,0.4,1.1,0.7,1.6L44.2,74.3C43.6,74.1,43,74,42.3,74
		c-0.7,0-1.4,0.2-2.1,0.5l-2.9-2.9c0.1-0.2,0.2-0.4,0.3-0.6c0,0,0,0,0,0c0-0.1,0-0.1,0.1-0.2c0,0,0,0,0,0c0-0.1,0-0.1,0-0.2
		c0,0,0,0,0-0.1c0,0,0-0.1,0-0.1c0,0,0-0.1,0-0.1c0,0,0-0.1,0-0.1c0,0,0-0.1,0-0.1c0,0,0-0.1,0-0.1c0,0,0-0.1,0-0.1c0,0,0-0.1,0-0.1
		c0-0.1,0-0.1,0-0.2c0-2.5-2-4.6-4.6-4.6c-2.5,0-4.6,2-4.6,4.6c0,0.5,0.1,0.9,0.2,1.3h0c0.1,0.3,0.2,0.5,0.3,0.7l-8.9,8.9
		c-0.6-0.3-1.3-0.5-2-0.5c-2.5,0-4.6,2-4.6,4.6C13.7,85,13.8,85.4,13.9,85.8L13.9,85.8z M63.5,53.3c2.1,0,3.8,1.7,3.8,3.8
		s-1.7,3.8-3.8,3.8c-2.1,0-3.8-1.7-3.8-3.8S61.4,53.3,63.5,53.3z M42.3,77c0.8,0,1.5,0.7,1.5,1.5S43.2,80,42.3,80
		c-0.8,0-1.5-0.7-1.5-1.5S41.5,77,42.3,77z M33.3,68c0.8,0,1.5,0.7,1.5,1.5c0,0.8-0.7,1.5-1.5,1.5c-0.8,0-1.5-0.7-1.5-1.5
		C31.8,68.7,32.5,68,33.3,68z M18.3,83c0.8,0,1.5,0.7,1.5,1.5c0,0.8-0.7,1.5-1.5,1.5c-0.8,0-1.5-0.7-1.5-1.5
		C16.8,83.7,17.5,83,18.3,83z"/>
	<g>
		<circle class="st2" cx="18.5" cy="84.6" r="2.3"/>
		<circle class="st2" cx="33.3" cy="69.5" r="2.4"/>
		<circle class="st2" cx="42.4" cy="78.7" r="2.1"/>
	</g>
	<g>
		<path class="st1" d="M40,69.5c0,0.1,0,0.2,0,0.3c0,0,0,0.4,0,0.4c0,0,0,0.3,0,0.4c0,0-0.1,0.4-0.1,0.4l0.9,0.9v-0.1V49
			c0-2.9,1.3-5.3,3.9-6.9c0.9-0.5,2-0.9,3.2-1.1v-3.5h-0.2c-1.4,0.1-2.5,0.4-3.5,0.8c-3.7,1.6-5.9,4.2-6.6,7.8c-0.2,0.9-0.2,2-0.2,3
			v0.3c0,4.9,0,9.8,0,14.7C39,65.4,40,67.3,40,69.5z"/>
		<path class="st1" d="M95.5,71.5c-0.9,1-1.8,2-2.7,3c-0.1,0.1-0.1,0.2-0.1,0.3c0,0.9,0,3.2,0,4.2s0,2,0,3c0,2.4-0.9,4.4-2.8,6
			c-1.6,1.3-3.5,2-5.9,2H49.7c-0.4,0-0.8,0-1.2,0c-3.2-0.2-5.9-2.1-7.1-4.8c0,0-0.1,0-0.1,0c-0.1,0-0.1,0-0.2,0
			c-1-0.2-1.9-0.6-2.7-1.1c-0.1,0-0.1-0.1-0.2-0.1c-0.3-0.3-0.6-0.6-0.9-0.9c0,1.7,0.3,3.2,0.9,4.3c1.9,3.9,5.2,6,9.7,6.2
			c0.8,0.1,1.6,0.1,2.4,0.1c0.6,0,1.2,0,1.8-0.3c0.7,0,1.3,0,1.9,0h31.3c1.7,0,3.2-0.3,4.6-1c4-2,6.1-5.1,6.2-9.3c0-2.8,0-5.6,0-8.3
			c0-0.9,0-3.1,0-4L95.5,71.5z"/>
		<path class="st1" d="M26.5,69.5c0-0.7,0.1-1.3,0.3-1.9c-12.4-1.7-22-12.2-22-24.9c0-13.8,11.4-25.1,25.4-25.1
			c8.7,0,16.7,4.3,21.4,11.5h5c-5.1-9.8-15.2-15.8-26.4-15.8c-16.4,0-29.8,13.2-29.8,29.4c0,14.7,11.1,27,25.4,29.1l0.8-0.8
			C26.6,70.5,26.5,70,26.5,69.5z"/>
		<path class="st1" d="M47.2,54.2c-0.4,0-0.7,0.3-0.7,0.7v4.5c0,0.4,0.3,0.7,0.7,0.7h4.6c0.4,0,0.7-0.3,0.7-0.7v-4.5
			c0-0.4-0.3-0.7-0.7-0.7H47.2z"/>
		<path class="st1" d="M72.2,57.5l0,0.4c0,0,0,0.4,0,0.4L72,58.7c0,0,0,0.1,0,0.2h13.4c0.2,0,0.3-0.1,0.3-0.3v-3.3
			c0-0.2-0.1-0.3-0.3-0.3H71.9c0.2,0.7,0.3,1.4,0.3,2.1C72.2,57.2,72.2,57.4,72.2,57.5z"/>
		<path class="st1" d="M47.2,65.9c-0.4,0-0.7,0.3-0.7,0.7V69l3.1-3.1H47.2z"/>
		<path class="st1" d="M58.2,70.4c0,0.2,0.1,0.3,0.3,0.3h21.9l1.2-3.9H59l-0.7,0.7V70.4z"/>
		<path class="st1" d="M49.1,78.8c0,0,0,0.4,0,0.4c0,0,0,0.3,0,0.3c0,0-0.1,0.4-0.1,0.4l-0.1,0.3c0,0.1-0.1,0.3-0.1,0.3
			c-0.4,1.1-1,2-1.8,2.7c0.1,0,0.1,0,0.2,0h4.6c0.4,0,0.7-0.3,0.7-0.7v-4.5c0-0.4-0.3-0.7-0.7-0.7H49c0.1,0.3,0.1,0.7,0.1,1
			C49.1,78.6,49.1,78.7,49.1,78.8z"/>
		<path class="st1" d="M85.3,78.4H58.5c-0.2,0-0.3,0.1-0.3,0.3V82c0,0.2,0.1,0.3,0.3,0.3h26.8c0.2,0,0.3-0.1,0.3-0.3v-3.3
			C85.7,78.5,85.5,78.4,85.3,78.4z"/>
	</g>
</g>
</svg>
