<?xml version="1.0" encoding="utf-8"?>
<!-- Generator: Adobe Illustrator 22.1.0, SVG Export Plug-In . SVG Version: 6.00 Build 0)  -->
<svg version="1.1" id="Layer_1" xmlns="http://www.w3.org/2000/svg" xmlns:xlink="http://www.w3.org/1999/xlink" x="0px" y="0px"
	 viewBox="0 0 60 60" style="enable-background:new 0 0 60 60;" xml:space="preserve">
<style type="text/css">
	.st0{fill:#159DA9;}
</style>
<path class="st0" d="M22.1,24.9c0-2.9,0-5.8,0-8.7c0-0.4-0.2-0.7-0.6-0.8c-0.5,0-0.7,0.3-0.7,0.7c0,0.2,0,0.4,0,0.6
	c0,5.7,0,11.3,0,17c0,0.8-0.6,1.2-1.2,0.9c-0.4-0.1-0.5-0.5-0.5-0.8c0-0.3,0-0.6,0-1c0-5.5,0-10.9,0-16.4c0-0.1,0-0.3,0-0.4
	c0-0.3-0.2-0.5-0.5-0.6c-0.3-0.1-0.6,0.1-0.7,0.3c-0.2,0.2-0.1,0.5-0.1,0.8c0,5.7,0,11.4,0,17.1c0,0.8-0.3,1-1,1
	c-0.6,0-0.8-0.3-0.8-0.9c0-2.3,0.1-4.6,0.2-6.9c0,0,0-0.1,0-0.1c0-3.4,0.2-6.9,0.2-10.3c0-0.7-0.2-1-0.6-1c-0.5,0-0.7,0.3-0.8,0.9
	c-0.2,1.5-0.4,3.1-0.6,4.6c-0.2,1.2-0.3,2.5-0.4,3.7c-0.1,1.4-0.3,2.8-0.4,4.3c-0.1,1.6-0.2,3.3-0.3,4.9c0,0.9,0.1,1.9,0.1,2.8
	c0,1.1,0.7,1.7,1.5,2.3c0.9,0.7,1.8,1.3,2.8,2c0.5,0.4,0.8,0.8,0.8,1.4c-0.1,3-0.1,6-0.2,8.9c0,1-0.1,1.9-0.1,2.9
	c0,0.5-0.1,0.5-0.5,0.3c-2.1-1.1-4.1-2.4-5.9-4c-2.2-1.9-4-4.2-5.4-6.6c-1.7-2.9-2.8-5.9-3.3-9.2c-0.3-1.6-0.4-3.1-0.4-4.7
	c0.1-6.2,1.9-11.8,5.7-16.7c2.1-2.7,4.5-4.9,7.4-6.7c3.2-2,6.6-3.2,10.3-3.7C31.6,2,37,2.8,42,5.3c3.5,1.7,6.6,4.1,9.1,7.2
	c2.8,3.4,4.8,7.3,5.7,11.7c0.5,2.1,0.7,4.3,0.6,6.5c-0.1,4-1,7.9-2.8,11.5c-1.4,2.9-3.3,5.5-5.6,7.7c-1.9,1.8-4,3.3-6.3,4.6
	c-0.5,0.2-0.5,0.2-0.6-0.3c0-1.9,0-3.9-0.1-5.8c-0.1-1.8,0-3.6-0.1-5.5c0-0.5,0-1.1,0.1-1.6c0.2-0.9,0.8-1.4,1.5-1.8
	c1.2-0.9,2.5-1.7,3.6-2.8c1.9-1.9,2.7-4.2,2.7-6.8c0-2.6-0.6-5.1-1.5-7.5c-0.6-1.7-1.3-3.2-2.5-4.6c-2.9-3.5-8.2-3.4-11,0.1
	c-1.7,2.1-2.5,4.6-3.2,7.1c-0.6,2-0.8,4-0.6,6.1c0.2,2,1,3.8,2.4,5.3c1.1,1.2,2.4,2.1,3.7,3c0.8,0.5,1.5,1.1,1.7,2.1
	c0,0.2,0.1,0.4,0,0.6c-0.1,2.9-0.1,5.7-0.2,8.6c-0.1,1.7,0,3.5-0.1,5.2c0,0.4-0.2,0.6-0.6,0.7c-2,0.5-4,0.9-6,1.1
	c-3.2,0.2-6.4-0.1-9.5-0.9c-0.5-0.1-0.7-0.4-0.7-0.9c0-3.6-0.2-7.1-0.2-10.7c0-0.9-0.1-1.7-0.1-2.6c0-0.4,0.2-0.7,0.5-1
	c1.1-0.8,2.1-1.6,3.2-2.4c1-0.7,1.4-1.6,1.4-2.8c0-1.7,0-3.4-0.1-5.1c-0.2-2-0.3-4.1-0.6-6.1c-0.2-1.9-0.4-3.8-0.7-5.8
	c-0.1-1-0.3-2-0.4-3c-0.1-0.4-0.3-0.6-0.7-0.6c-0.4,0-0.6,0.3-0.7,0.6c-0.1,0.3,0,0.6,0,0.9c0.2,1.6,0,3.1,0.1,4.7
	c0.1,2.4,0.1,4.9,0.3,7.3c0.1,1.6,0,3.2,0.1,4.7c0,0.7-0.3,1-0.9,1c-0.6,0-1-0.3-1-1C22.1,30.7,22.1,27.8,22.1,24.9
	C22.1,24.9,22.1,24.9,22.1,24.9z"/>
</svg>
