<?xml version="1.0" encoding="utf-8"?>
<!-- Generator: Adobe Illustrator 22.1.0, SVG Export Plug-In . SVG Version: 6.00 Build 0)  -->
<svg version="1.1" id="Layer_1" xmlns="http://www.w3.org/2000/svg" xmlns:xlink="http://www.w3.org/1999/xlink" x="0px" y="0px"
	 viewBox="0 0 107 107" style="enable-background:new 0 0 107 107;" xml:space="preserve">
<style type="text/css">
	.st0{fill:#FFFFFF;}
	.st1{fill:#E0CBFA;}
	.st2{fill:#845DB7;}
</style>
<g>
	<path class="st0" d="M38,12.7c0,0-6.5,5.8-6.2,7.6c0.3,1.8-2.4,5.6,0,11.5s6.6,8.7,7.7,8.7s0,25,0,25l14-0.5l0.8-23.4
		c0,0,6.6-6.5,7.3-8.7c0.7-2.2,1.6-10,1.2-11.6c-0.3-1.6-1.5-3.2-2.8-6.5c-1.3-3.3-4.4-3.6-4.4-3.6v7.7v4.9l-1.4,3.4l-6.3,4.3
		l-2.1,0.3L39,26.3L38.9,13L38,12.7z"/>
	<g>
		<polygon class="st1" points="53.7,26 53.7,20.3 40.6,20.3 40.6,26 47.2,29.9 		"/>
		<g>
			<g>
				<path class="st1" d="M91,18.1H61.9c0.9,2.2,1.4,4.6,1.4,7.1c0,6.9-3.7,12.8-9,15.6V65H41.3V41.4c-5.9-2.6-10.1-8.8-10.1-16.2
					c0-2.5,0.5-5,1.4-7.1H16c-3.8,0-6.8,3.1-6.8,6.8v35.7c0,3.8,3.1,6.8,6.8,6.8h47.7l4.2,3.5c3.4,2.8,6.3,2.6,10.1,0.5l4-1.5
					c1.4-0.8,2-0.9,2.5-2.5l1.6-3.3c3.8,0,11.6-0.5,11.2-1.2l0.4-38.1C97.8,21.1,94.7,18.1,91,18.1z"/>
			</g>
		</g>
		<g>
			<path class="st2" d="M92.8,16.8H63c-1.4-2.6-3.5-4.9-6-6.6c-0.4-0.2-0.8-0.4-1.2-0.4c-0.4,0-0.7,0.1-1,0.3
				c-0.7,0.4-1.1,1.1-1.1,1.9v4.7H40.6V12c0-0.8-0.4-1.5-1.1-1.9c-0.3-0.2-0.7-0.3-1-0.3c-0.4,0-0.8,0.1-1.2,0.4
				c-2.5,1.7-4.6,3.9-6,6.6H14.2c-4,0-7.2,3.2-7.2,7.2v5c0,1,0.8,1.7,1.7,1.7s1.7-0.8,1.7-1.7v-5c0-2,1.6-3.7,3.7-3.7h15.7
				c-0.5,1.6-0.7,3.3-0.7,5c0,4.7,1.8,9.1,5.1,12.5c1.3,1.3,2.8,2.5,4.4,3.3v21.9H10.5V35.3c0-1-0.8-1.8-1.7-1.8S7,34.3,7,35.3V71
				c0,4,3.2,7.2,7.2,7.2h4H43V85h-9.9c-2.8,0-5,2.2-5,5v2.2c0,2.8,2.2,5,5,5h40.6c2.8,0,5-2.2,5-5V90c0-2.8-2.2-5-5-5H64v-6.8h13.3
				h6.3H88h4.8c4,0,7.2-3.2,7.2-7.2V23.9C100,20,96.8,16.8,92.8,16.8z M40.6,20.3h13.1V26l-6.5,3.9L40.6,26V20.3z M52.2,62.9H42.1
				V42.5c1.4,0.4,2.9,0.7,4.4,0.7c0.2,0,0.5,0,0.7,0c1.7,0,3.4-0.2,5.1-0.7V62.9z M53.2,38.5c-1.9,0.9-3.9,1.3-6,1.3
				c-0.2,0-0.4,0-0.6,0c-7.7-0.3-13.9-6.8-13.9-14.5c0-4,1.6-7.8,4.5-10.5v11.4c0,1.1,0.6,2.2,1.6,2.8l6.8,4.1
				c0.5,0.3,1.1,0.5,1.7,0.5s1.2-0.2,1.7-0.5l6.8-4.1c1-0.6,1.6-1.6,1.6-2.8V14.8c2.9,2.7,4.5,6.5,4.5,10.5c0,4-1.6,7.7-4.4,10.5
				c-1.2,1.1-2.5,2-3.9,2.7C53.3,38.4,53.2,38.4,53.2,38.5z M96.5,62.9H85.4c-1.2,3.7-4.6,6.6-10.2,8.6c-0.3,0.1-1,0.4-2.5,0.8
				c-0.2,0.1-0.5,0.1-0.7,0.1c-0.5,0-1.1-0.2-1.5-0.5l-3.3-2.4c-0.7-0.5-1.1-1.3-1.1-2.2v-4.5H55.7V41.1c1.4-0.8,2.7-1.7,3.9-2.9
				c3.6-3.4,5.5-8,5.5-13c0-1.7-0.2-3.4-0.7-5h28.4c2,0,3.7,1.6,3.7,3.7V62.9z"/>
		</g>
		<path class="st2" d="M67.2,46.2c0.3-0.3,0.6-0.4,0.9-0.4c0.4,0,0.6,0.5,0.6,1.5V51h-3v3.7h3v12.6l3.3,2.4c1.1-0.3,1.8-0.5,2.2-0.7
			c6-2.1,9-5.2,9-9.3c0-1.9-0.8-3.5-2.5-4.6c-0.8-0.4-1.6-0.6-2.3-0.6c-2.2,0-3.6,0.9-4.3,2.8l2,2.7c1.2-0.9,1.9-1.4,2.1-1.4
			c0.6,0.1,0.9,0.5,0.9,1.2c0,0.9-0.3,1.7-0.8,2.2c-1.2,1.2-3.1,2.1-5.6,3V54.6h2.9V51h-2.9v-5.3c0-1.2-0.4-2.2-1.3-3
			c-0.9-0.8-1.9-1.2-3.2-1.2c-1.1,0-2.3,0.8-3.5,2.3l1.8,3L67.2,46.2z"/>
	</g>
</g>
</svg>
