<?xml version="1.0" encoding="utf-8"?>
<!-- Generator: Adobe Illustrator 22.1.0, SVG Export Plug-In . SVG Version: 6.00 Build 0)  -->
<svg version="1.1" id="Layer_1" xmlns="http://www.w3.org/2000/svg" xmlns:xlink="http://www.w3.org/1999/xlink" x="0px" y="0px"
	 viewBox="0 0 107 107" style="enable-background:new 0 0 107 107;" xml:space="preserve">
<style type="text/css">
	.st0{fill:#CDD9E8;}
	.st1{fill:#5881B2;}
	.st2{fill:#FFFFFF;}
	.st3{fill:#EBE5F4;}
	.st4{fill:#6CA68B;}
</style>
<g>
	<path class="st0" d="M2.2,80.4V32.2c0-3.8,3.1-6.8,6.8-6.8h70.5c3.8,0,6.8,3.1,6.8,6.8v48.2c0,3.8-3.1,6.8-6.8,6.8H9.1
		C5.3,87.3,2.2,84.2,2.2,80.4z"/>
	<g>
		<path class="st1" d="M86.4,59.9c-0.4,0-0.9,0.2-1.2,0.5c-0.3,0.3-0.5,0.8-0.5,1.2s0.2,0.9,0.5,1.2c0.3,0.3,0.8,0.5,1.2,0.5
			c0.4,0,0.9-0.2,1.2-0.5c0.3-0.3,0.5-0.8,0.5-1.2s-0.2-0.9-0.5-1.2C87.3,60.1,86.8,59.9,86.4,59.9z"/>
		<path class="st1" d="M86.4,66.9c-0.9,0-1.7,0.8-1.7,1.7v11.8c0,2.8-2.3,5.1-5.1,5.1H9.1c-2.7,0-4.9-2.1-5.1-4.8V65.8v-4.3
			c1.6-1.5,3.5-3,5.2-4.5c2.3-2,4.5-3.9,6.1-5.3c0.3-0.2,0.6-0.5,1-0.5c0.4,0,0.8,0.3,1.1,0.6c1.4,1.5,2.9,3,4.4,4.5s3,3.1,4.5,4.6
			c0.3,0.3,0.6,0.5,0.8,0.5c0.3,0,0.5-0.1,0.9-0.5l1.9-1.7c6.6-6.1,14-13,20.2-18.8c0.5-0.5,0.9-0.9,1.2-1.1l0.2-0.2l2.7,2.9
			l3.9-11.3l-11.9,3.2l2.7,2.9L48.7,37c-4.6,4.2-9.9,9.2-15,14l-5.6,5.3c-0.4,0.3-0.7,0.5-1,0.5c-0.4,0-0.7-0.3-1-0.6
			c-2.4-2.5-4.8-5-7.2-7.4l-0.1-0.2c-1.1-1.2-1.8-1.8-2.3-1.8c-0.5,0-1.1,0.6-2.3,1.6c-1.6,1.4-3.8,3.3-6.1,5.3L4,57.3v-4.4v-3.5
			c0.7,0.6,1.5,1,2.4,1.4c1.1-1,2.2-2,3.3-2.8H9.5c-3.1,0-5.6-2.5-5.6-5.6V32.2c0-2.8,2.3-5.1,5.1-5.1h50.1l4.2-1.1L63,27h16.5
			c2.8,0,5.1,2.3,5.1,5.1v10.3c0,3.1-2.5,5.6-5.6,5.6H51.6v-1.2c0-1-0.7-1.9-1.6-2.1c-1.2,1.1-2.4,2.2-3.6,3.3h1.8v6.2
			c0,2-1.6,3.6-3.6,3.6H44c-2,0-3.6-1.6-3.6-3.6v-0.7c-1,1-2.1,1.9-3.1,2.9c0.9,2.8,3.6,4.9,6.7,4.9h0.5c3.9,0,7-3.1,7-7v-2.8H79
			c2.1,0,4.1-0.7,5.6-2v5.4c0,0.9,0.8,1.7,1.7,1.7c0.9,0,1.7-0.8,1.7-1.7V32.2c0-4.7-3.8-8.6-8.6-8.6H63.8v-6.5c0-4.9-4-8.9-8.9-8.9
			H33.7c-4.9,0-8.9,4-8.9,8.9v6.5H9.1c-4.7,0-8.6,3.8-8.6,8.6V56v12.9v11.5c0,4.7,3.8,8.6,8.6,8.6h70.5c4.7,0,8.6-3.8,8.6-8.6V68.6
			C88.1,67.7,87.3,66.9,86.4,66.9z M53.6,23.6H35.1v-5.1h18.5V23.6z M28.2,17.1c0-3,2.5-5.5,5.5-5.5H55c3,0,5.5,2.5,5.5,5.5v6.5H57
			v-6.8c0-0.9-0.8-1.7-1.7-1.7h-22c-0.9,0-1.7,0.8-1.7,1.7v6.8h-3.4C28.2,23.6,28.2,17.1,28.2,17.1z"/>
	</g>
	<polygon class="st2" points="35,23.6 53.6,23.6 53.6,18.5 35,18.5 	"/>
	<path class="st2" d="M40.5,54.3c0,2,1.6,3.6,3.6,3.6h0.5c2,0,3.6-1.6,3.6-3.6v-6.2h-1.8c-1.9,1.8-3.9,3.7-5.9,5.5
		C40.5,53.6,40.5,54.3,40.5,54.3z"/>
	<path class="st0" d="M31.6,16.8c0-0.9,0.8-1.7,1.7-1.7h21.9c0.9,0,1.7,0.8,1.7,1.7v6.8h3.4v-6.5c0-3-2.5-5.5-5.5-5.5H33.7
		c-3,0-5.5,2.5-5.5,5.5v6.5h3.4V16.8z"/>
	<path class="st3" d="M58.8,85.1c-2.2,1.2-4.9,0.5-6.2-1.7l-5.1-8.8C47.1,73.9,47,73,47,72.1c-0.1,0.9,0.1,1.8,0.6,2.6l5.1,8.8
		C53.9,85.6,56.7,86.4,58.8,85.1c0.3-0.2,0.7-0.4,1.1-0.6l0,0L58.8,85.1z"/>
	<path class="st3" d="M66.1,81c1.2-0.7,2.2-1.3,2.8-1.6l0,0L66.1,81L66.1,81z"/>
	<path class="st4" d="M95.2,53.1c1.4,2.5,0.6,5.7-1.9,7.1l-5.2-9C90.5,49.8,93.7,50.6,95.2,53.1z"/>
	<path class="st0" d="M66.7,96.2c0.6,1.1,2,1.4,3.1,0.8l2.2-1.3c1.1-0.6,1.4-2,0.8-3.1C66.1,81,66.1,81,66.1,81
		c-2,1.2-4.5,2.6-6.1,3.5L66.7,96.2z"/>
	<path class="st2" d="M59.3,62.8l9.6,16.6l0,0c8.4-4.3,17.4-6.5,26.1-6.8c2.4-0.2,3.8-2.8,2.6-4.9l-4.3-7.5c2.5-1.4,3.3-4.6,1.9-7.1
		s-4.6-3.3-7.1-1.9l-4.3-7.5c-1.2-2.1-4.2-2.1-5.5-0.1C73.4,51.3,67,57.9,59.3,62.8"/>
	<path class="st1" d="M68.6,98.8c-1.3,0-2.5-0.7-3.2-1.8l-6-10.5c-0.9,0.5-1.8,0.7-2.8,0.7c-2.1,0-4.1-1.1-5.2-3l-5.1-8.8
		c-0.8-1.4-1-3-0.6-4.5s1.4-2.8,2.8-3.6l6.1-3.5c0.2-0.1,0.5-0.2,0.7-0.2c0.5,0,1,0.3,1.2,0.7c0.2,0.3,0.2,0.7,0.1,1.1
		c-0.1,0.4-0.3,0.7-0.7,0.9L50,69.8c-1.5,0.8-2,2.7-1.1,4.2l5.1,8.8c0.5,0.9,1.6,1.5,2.7,1.5c0.5,0,1.1-0.1,1.5-0.4l1.2-0.7
		c8.8-5.1,8.8-5.1,8.8-5.1c8.4-4.3,17.3-6.6,26.7-7c0.6,0,1.2-0.4,1.5-0.9s0.3-1.2,0-1.7L82.5,44.4c-0.3-0.6-0.9-0.9-1.5-0.9
		s-1.2,0.3-1.5,0.8c-4.7,7.5-10.9,13.9-18.3,18.9L67,73.3c0.2,0.3,0.2,0.7,0.1,1.1s-0.3,0.7-0.7,0.9c-0.2,0.1-0.5,0.2-0.7,0.2
		c-0.5,0-1-0.3-1.2-0.7l-0.2-0.3c-4.2-7.2-6.3-10.9-6.3-11c-0.4-0.7-0.1-1.5,0.5-1.9C66,56.7,72.3,50.4,77,42.8
		c0.9-1.3,2.3-2.2,3.9-2.2c1.7,0,3.2,0.9,4,2.3l3.7,6.4c0.6-0.2,1.3-0.3,2-0.3c0.6,0,1.2,0.1,1.7,0.2c2.4,0.7,4.2,2.5,4.8,5
		c0.5,2.3-0.3,4.7-2,6.3l3.7,6.4c0.8,1.4,0.8,3.1,0,4.5s-2.2,2.3-3.9,2.4c-8.9,0.3-17.5,2.6-25.5,6.7L61.9,85l6,10.5
		c0.1,0.3,0.4,0.4,0.7,0.4c0.1,0,0.3,0,0.4-0.1l2.2-1.3c0.2-0.1,0.3-0.3,0.4-0.5s0-0.4-0.1-0.6l-4.4-7.7c-0.4-0.7-0.2-1.6,0.5-2
		c0.2-0.1,0.5-0.2,0.7-0.2c0.5,0,1,0.3,1.2,0.7L74,92c1,1.8,0.4,4-1.3,5l-2.2,1.3C69.9,98.6,69.3,98.8,68.6,98.8z M93.6,58
		c0.9-1.2,1.1-2.9,0.3-4.2c-0.7-1.2-1.9-1.9-3.3-1.9c-0.2,0-0.3,0-0.5,0L93.6,58z M105,61c-0.2,0-0.2,0-1.4-0.3
		c-0.3-0.1-0.8-0.2-1.3-0.4c-0.4-0.1-0.7-0.3-0.9-0.7c-0.2-0.3-0.2-0.7-0.1-1.1c0.2-0.6,0.7-1.1,1.4-1.1c0.1,0,0.2,0,0.4,0l2.4,0.6
		c0.8,0.2,1.2,1,1,1.8C106.3,60.6,105.7,61,105,61L105,61z M101,51.2c-0.5,0-1-0.3-1.2-0.7c-0.2-0.3-0.2-0.7-0.1-1.1
		c0.1-0.4,0.3-0.7,0.7-0.9L103,47c0.2-0.1,0.5-0.2,0.7-0.2c0.5,0,1,0.3,1.2,0.7c0.2,0.3,0.2,0.7,0.1,1.1s-0.3,0.7-0.7,0.9l-2.6,1.5
		C101.5,51.1,101.2,51.2,101,51.2z M93.9,45.1c-0.1,0-0.2,0-0.4,0c-0.8-0.2-1.2-1-1-1.8l0.6-2.4c0.2-0.6,0.7-1.1,1.4-1.1
		c0.1,0,0.2,0,0.4,0c0.4,0.1,0.7,0.3,0.9,0.7c0.2,0.3,0.2,0.7,0.1,1.1L95.3,44C95.1,44.7,94.6,45.1,93.9,45.1z"/>
	<path class="st0" d="M13.6,93.6c0,0.7,0.6,1.2,1.4,1.2h19.5c0.8,0,1.4-0.5,1.4-1.2V81.9H13.6V93.6z"/>
	<path class="st2" d="M35.9,76.9c0-0.7-0.6-1.2-1.4-1.2H15c-0.8,0-1.4,0.5-1.4,1.2v3h22.3V76.9z"/>
	<g>
		<g>
			<path class="st1" d="M34.7,73.7H14.8c-1.9,0-3.5,1.3-3.5,3v17c0,1.7,1.6,3,3.5,3h19.9c1.9,0,3.5-1.3,3.5-3v-17
				C38.2,75.1,36.6,73.7,34.7,73.7z M13.6,76.9c0-0.7,0.6-1.2,1.4-1.2h19.5c0.8,0,1.4,0.5,1.4,1.2v3H13.6V76.9z M35.9,93.6
				c0,0.7-0.6,1.2-1.4,1.2H15c-0.8,0-1.4-0.5-1.4-1.2V81.9h22.3V93.6z"/>
			<g>
				<path class="st1" d="M29.5,78.2h-0.2c-0.6,0-1.1-0.5-1.1-1.1v-4.7c0-0.6,0.5-1.1,1.1-1.1h0.2c0.6,0,1.1,0.5,1.1,1.1v4.7
					C30.6,77.8,30.1,78.2,29.5,78.2z"/>
				<path class="st1" d="M20.2,78.2H20c-0.6,0-1.1-0.5-1.1-1.1v-4.7c0-0.6,0.5-1.1,1.1-1.1h0.2c0.6,0,1.1,0.5,1.1,1.1v4.7
					C21.3,77.8,20.8,78.2,20.2,78.2z"/>
			</g>
		</g>
		<g>
			<path class="st1" d="M30.8,92.4c-0.2,0-0.3-0.1-0.5-0.2c-0.5-0.5-1-1-1.5-1.5c-0.3-0.3-0.3-0.6,0-0.9c0.2-0.2,0.6-0.2,0.9,0
				c0.3,0.3,0.6,0.6,0.9,0.9c0.2,0.2,0.2,0.2,0.5,0c0.8-0.8,1.7-1.7,2.5-2.5c0.3-0.3,0.8-0.3,1,0.1c0.1,0.2,0.1,0.5-0.1,0.8
				c-0.9,0.9-1.7,1.7-2.6,2.6c-0.2,0.2-0.4,0.4-0.5,0.5C31.1,92.4,30.9,92.4,30.8,92.4z"/>
			<path class="st1" d="M18.9,86.9H17c-0.7,0-1.2-0.5-1.2-1.2l0,0c0-0.7,0.5-1.2,1.2-1.2h1.9c0.7,0,1.2,0.5,1.2,1.2l0,0
				C20.1,86.4,19.6,86.9,18.9,86.9z"/>
			<path class="st1" d="M25.7,86.9h-1.9c-0.7,0-1.2-0.5-1.2-1.2l0,0c0-0.7,0.5-1.2,1.2-1.2h1.9c0.7,0,1.2,0.5,1.2,1.2l0,0
				C26.9,86.4,26.4,86.9,25.7,86.9z"/>
			<path class="st1" d="M32.5,86.9h-1.9c-0.7,0-1.2-0.5-1.2-1.2l0,0c0-0.7,0.5-1.2,1.2-1.2h1.9c0.7,0,1.2,0.5,1.2,1.2l0,0
				C33.7,86.4,33.2,86.9,32.5,86.9z"/>
			<path class="st1" d="M18.9,92.1H17c-0.7,0-1.2-0.5-1.2-1.2l0,0c0-0.7,0.5-1.2,1.2-1.2h1.9c0.7,0,1.2,0.5,1.2,1.2l0,0
				C20.1,91.5,19.6,92.1,18.9,92.1z"/>
			<path class="st1" d="M25.7,92.1h-1.9c-0.7,0-1.2-0.5-1.2-1.2l0,0c0-0.7,0.5-1.2,1.2-1.2h1.9c0.7,0,1.2,0.5,1.2,1.2l0,0
				C26.9,91.5,26.4,92.1,25.7,92.1z"/>
		</g>
	</g>
</g>
</svg>
