<?xml version="1.0" encoding="utf-8"?>
<!-- Generator: Adobe Illustrator 22.1.0, SVG Export Plug-In . SVG Version: 6.00 Build 0)  -->
<svg version="1.1" id="Layer_1" xmlns="http://www.w3.org/2000/svg" xmlns:xlink="http://www.w3.org/1999/xlink" x="0px" y="0px"
	 viewBox="0 0 107 107" style="enable-background:new 0 0 107 107;" xml:space="preserve">
<style type="text/css">
	.st0{fill:#F5D5CC;}
	.st1{fill:#E07A5F;}
	.st2{fill:#EBE5F4;}
	.st3{fill:#FFFFFF;}
</style>
<g>
	<g>
		<g>
			<path class="st0" d="M2.2,80.4V32.2c0-3.8,3.1-6.8,6.8-6.8h70.5c3.8,0,6.8,3.1,6.8,6.8v48.2c0,3.8-3.1,6.8-6.8,6.8H9.1
				C5.3,87.3,2.2,84.2,2.2,80.4z"/>
			<path class="st0" d="M31.6,16.8c0-0.9,0.8-1.7,1.7-1.7h21.9c0.9,0,1.7,0.8,1.7,1.7v6.8h3.4v-6.5c0-3-2.5-5.5-5.5-5.5H33.7
				c-3,0-5.5,2.5-5.5,5.5v6.5h3.4V16.8z"/>
		</g>
		<path class="st0" d="M95.2,53.1c1.4,2.5,0.6,5.7-1.9,7.1l-5.2-9C90.5,49.8,93.7,50.6,95.2,53.1z"/>
	</g>
	<g>
		<path class="st1" d="M28.5,51.5c1-1,2.1-2,3.2-3c0.2-0.2,0.3-0.3,0.5-0.5h-9.2c1.1,1.1,2.2,2.3,3.4,3.4H28.5z"/>
		<path class="st1" d="M86.4,59.9c-0.4,0-0.9,0.2-1.2,0.5c-0.3,0.3-0.5,0.8-0.5,1.2c0,0.4,0.2,0.9,0.5,1.2c0.3,0.3,0.8,0.5,1.2,0.5
			c0.4,0,0.9-0.2,1.2-0.5c0.3-0.3,0.5-0.8,0.5-1.2c0-0.4-0.2-0.9-0.5-1.2C87.3,60.1,86.8,59.9,86.4,59.9z"/>
		<path class="st1" d="M86.4,66.9c-0.9,0-1.7,0.8-1.7,1.7v11.8c0,2.8-2.3,5.1-5.1,5.1H9.1c-2.7,0-4.9-2.1-5.1-4.8l0-14.9l0-12.9
			l0-3.5c0.7,0.6,1.5,1,2.4,1.4c1.1-1,2.2-2,3.3-2.8H9.5c-3.1,0-5.6-2.5-5.6-5.6V32.2c0-2.8,2.3-5.1,5.1-5.1h50.1l4.2-1.1L63,27
			h16.5c2.8,0,5.1,2.3,5.1,5.1v10.3c0,3.1-2.5,5.6-5.6,5.6H51.6v-1.2c0-1-0.7-1.9-1.6-2.1c-1.2,1.1-2.4,2.2-3.6,3.3h1.8v6.2
			c0,2-1.6,3.6-3.6,3.6H44c-2,0-3.6-1.6-3.6-3.6v-0.7c-1,1-2.1,1.9-3.1,2.9c0.9,2.8,3.6,4.9,6.7,4.9h0.5c3.9,0,7-3.1,7-7v-2.8h27.5
			c2.1,0,4.1-0.7,5.6-2v5.4c0,0.9,0.8,1.7,1.7,1.7s1.7-0.8,1.7-1.7V32.2c0-4.7-3.8-8.6-8.6-8.6H63.8v-6.5c0-4.9-4-8.9-8.9-8.9H33.7
			c-4.9,0-8.9,4-8.9,8.9v6.5H9.1c-4.7,0-8.6,3.8-8.6,8.6V56v12.9v11.5c0,4.7,3.8,8.6,8.6,8.6h70.5c4.7,0,8.6-3.8,8.6-8.6V68.6
			C88.1,67.7,87.3,66.9,86.4,66.9z M53.6,23.6c0,0-18.5,0-18.5,0v-5.1h18.5V23.6z M28.2,17.1c0-3,2.5-5.5,5.5-5.5h21.3
			c3,0,5.5,2.5,5.5,5.5v6.5H57v-6.8c0-0.9-0.8-1.7-1.7-1.7H33.3c-0.9,0-1.7,0.8-1.7,1.7v6.8h-3.4V17.1z"/>
	</g>
	<path class="st2" d="M58.8,85.1c-2.2,1.2-4.9,0.5-6.2-1.7l-5.1-8.8C47.1,73.9,47,73,47,72.1c-0.1,0.9,0.1,1.8,0.6,2.6l5.1,8.8
		C53.9,85.6,56.7,86.4,58.8,85.1c0.3-0.2,0.7-0.4,1.1-0.6l0,0L58.8,85.1z"/>
	<path class="st2" d="M66.1,81c1.2-0.7,2.2-1.3,2.8-1.6l0,0L66.1,81C66.1,81,66.1,81,66.1,81z"/>
	<path class="st0" d="M66.7,96.2c0.6,1.1,2,1.4,3.1,0.8l2.2-1.3c1.1-0.6,1.4-2,0.8-3.1C66.1,81,66.1,81,66.1,81
		c-2,1.2-4.5,2.6-6.1,3.5L66.7,96.2z"/>
	<g>
		<polygon class="st3" points="35,23.6 53.6,23.6 53.6,18.5 35,18.5 		"/>
		<path class="st3" d="M40.5,54.3c0,2,1.6,3.6,3.6,3.6h0.5c2,0,3.6-1.6,3.6-3.6v-6.2h-1.8c-1.9,1.8-3.9,3.7-5.9,5.5V54.3z"/>
		<path class="st3" d="M59.3,62.8l9.6,16.6h0c8.4-4.3,17.4-6.5,26.1-6.8c2.4-0.1,3.8-2.7,2.6-4.8L83.7,43.7
			c-1.2-2.1-4.2-2.1-5.5-0.1C73.4,51.3,66.9,57.8,59.3,62.8"/>
	</g>
	<g>
		<path class="st1" d="M68.6,98.8c-1.3,0-2.5-0.7-3.2-1.8l-6-10.5c-0.9,0.5-1.8,0.7-2.8,0.7c-2.1,0-4.1-1.1-5.2-3l-5.1-8.8
			c-0.8-1.4-1-3-0.6-4.5c0.4-1.5,1.4-2.8,2.8-3.6l6.1-3.5c0.2-0.1,0.5-0.2,0.7-0.2c0.5,0,1,0.3,1.2,0.7c0.2,0.3,0.2,0.7,0.1,1.1
			c-0.1,0.4-0.3,0.7-0.7,0.9L50,69.8c-1.5,0.8-2,2.7-1.1,4.2l5.1,8.8c0.5,0.9,1.6,1.5,2.7,1.5c0.5,0,1.1-0.1,1.5-0.4l1.2-0.7
			c8.8-5.1,8.8-5.1,8.8-5.1c8.4-4.3,17.3-6.6,26.7-7c0.6,0,1.2-0.4,1.5-0.9c0.3-0.5,0.3-1.2,0-1.7L82.5,44.4
			c-0.3-0.6-0.9-0.9-1.5-0.9c-0.6,0-1.2,0.3-1.5,0.8c-4.7,7.5-10.9,13.9-18.3,18.9L67,73.3c0.2,0.3,0.2,0.7,0.1,1.1
			c-0.1,0.4-0.3,0.7-0.7,0.9c-0.2,0.1-0.5,0.2-0.7,0.2c-0.5,0-1-0.3-1.2-0.7l-0.2-0.3c-4.2-7.2-6.3-10.9-6.3-11
			c-0.4-0.7-0.1-1.5,0.5-1.9C66,56.7,72.3,50.4,77,42.8c0.9-1.3,2.3-2.2,3.9-2.2c1.7,0,3.2,0.9,4,2.3l3.7,6.4c0.6-0.2,1.3-0.3,2-0.3
			c0.6,0,1.2,0.1,1.7,0.2c2.4,0.7,4.2,2.5,4.8,5c0.5,2.3-0.3,4.7-2,6.3l3.7,6.4c0.8,1.4,0.8,3.1,0,4.5c-0.8,1.4-2.2,2.3-3.9,2.4
			c-8.9,0.3-17.5,2.6-25.5,6.7L61.9,85l6,10.5c0.1,0.3,0.4,0.4,0.7,0.4c0.1,0,0.3,0,0.4-0.1l2.2-1.3c0.2-0.1,0.3-0.3,0.4-0.5
			s0-0.4-0.1-0.6l-4.4-7.7c-0.4-0.7-0.2-1.6,0.5-2c0.2-0.1,0.5-0.2,0.7-0.2c0.5,0,1,0.3,1.2,0.7L74,92c1,1.8,0.4,4-1.3,5l-2.2,1.3
			C69.9,98.6,69.3,98.8,68.6,98.8z M93.6,58c0.9-1.2,1.1-2.9,0.3-4.2c-0.7-1.2-1.9-1.9-3.3-1.9c-0.2,0-0.3,0-0.5,0L93.6,58z M105,61
			c-0.2,0-0.2,0-1.4-0.3c-0.3-0.1-0.8-0.2-1.3-0.4c-0.4-0.1-0.7-0.3-0.9-0.7c-0.2-0.3-0.2-0.7-0.1-1.1c0.2-0.6,0.7-1.1,1.4-1.1
			c0.1,0,0.2,0,0.4,0l2.4,0.6c0.8,0.2,1.2,1,1,1.8C106.3,60.6,105.7,61,105,61L105,61z M101,51.2c-0.5,0-1-0.3-1.2-0.7
			c-0.2-0.3-0.2-0.7-0.1-1.1c0.1-0.4,0.3-0.7,0.7-0.9l2.6-1.5c0.2-0.1,0.5-0.2,0.7-0.2c0.5,0,1,0.3,1.2,0.7c0.2,0.3,0.2,0.7,0.1,1.1
			c-0.1,0.4-0.3,0.7-0.7,0.9l-2.6,1.5C101.5,51.1,101.2,51.2,101,51.2z M93.9,45.1c-0.1,0-0.2,0-0.4,0c-0.8-0.2-1.2-1-1-1.8l0.6-2.4
			c0.2-0.6,0.7-1.1,1.4-1.1c0.1,0,0.2,0,0.4,0c0.4,0.1,0.7,0.3,0.9,0.7c0.2,0.3,0.2,0.7,0.1,1.1l-0.6,2.4
			C95.1,44.7,94.6,45.1,93.9,45.1z"/>
		<path class="st1" d="M3.5,57.7l4.6-4c2.3-2,4.5-3.9,6.1-5.3c1.2-1,1.8-1.6,2.3-1.6c0.5,0,1.2,0.6,2.3,1.8l0.1,0.2
			c2.4,2.4,4.8,4.9,7.2,7.4c0.3,0.3,0.6,0.6,1,0.6c0.3,0,0.6-0.2,1-0.5l5.6-5.3c5.1-4.8,10.4-9.8,15-14l0.2-0.2l-2.7-2.9l11.9-3.2
			L54.2,42l-2.7-2.9l-0.2,0.2c-0.3,0.2-0.7,0.6-1.2,1.1c-6.2,5.8-13.6,12.7-20.2,18.8L28,60.9c-0.4,0.4-0.6,0.5-0.9,0.5
			c-0.2,0-0.5-0.2-0.8-0.5c-1.5-1.5-3-3.1-4.5-4.6c-1.5-1.5-3-3-4.4-4.5c-0.3-0.3-0.7-0.6-1.1-0.6c-0.4,0-0.7,0.3-1,0.5
			c-1.6,1.4-3.8,3.3-6.1,5.3c-1.9,1.7-4,3.4-5.7,5V57.7z"/>
	</g>
	<g>
		<circle class="st3" cx="24.2" cy="84.4" r="11.7"/>
		<g>
			<path class="st1" d="M16.9,73.6c0.4,0,0.9,0,1.2,0.2c0.4,0.3,0.5,0.7,0.6,1l0.7,6.4l-3.3,0.5l-0.3-3.1c-2.4,3.3-2.6,7.8-0.5,11.2
				c2.5,3.9,7.2,5.4,11.6,4l0.6-0.2l1,3.1l-0.6,0.2c-5.4,1.8-11.4,0.2-14.9-4.3s-3.5-10.5-0.4-15.2l-2.1,0.3l-0.4-3.2L16.9,73.6z"/>
			<path class="st1" d="M20.3,71.7c5.6-1.9,11.9,0.1,15.2,4.8c3,4.3,2.9,10.2,0.1,14.8l2.1-0.3l0.4,3.2l-6.5,1c-0.4,0-0.9,0-1.2-0.2
				c-0.4-0.3-0.5-0.7-0.6-1L29,87.5l3.3-0.5l0.3,3.1c2.4-3.3,2.6-7.8,0.5-11.2c-2.5-3.9-7.2-5.4-11.6-4l-0.6,0.2l-1-3.1L20.3,71.7z"
				/>
		</g>
	</g>
</g>
</svg>
