<?xml version="1.0" encoding="utf-8"?>
<!-- Generator: Adobe Illustrator 22.1.0, SVG Export Plug-In . SVG Version: 6.00 Build 0)  -->
<svg version="1.1" id="Layer_1" xmlns="http://www.w3.org/2000/svg" xmlns:xlink="http://www.w3.org/1999/xlink" x="0px" y="0px"
	 viewBox="0 0 107 107" style="enable-background:new 0 0 107 107;" xml:space="preserve">
<style type="text/css">
	.st0{fill:#FFD6CA;}
	.st1{fill:#FFFFFF;}
	.st2{fill:#FF5224;}
</style>
<g>
	<path class="st0" d="M30.6,13.4c0,0-10.5-1.6-9.1,8.6c0.3,2.1-6.3-0.3,4.8,14.1c0.1,0.1,0.2,0.2,0.3,0.4c0.6,2.4-2,3.5-2,3.5
		l-3.7,6.8l8.4,8.5v6.2l1.8,34.2l62.7,0.5V38.6L71.2,13.4H30.6z"/>
	<circle class="st1" cx="48.3" cy="83.8" r="5.8"/>
	<circle class="st1" cx="76.3" cy="83.8" r="5.8"/>
	<rect x="66" y="47.2" class="st1" width="16.3" height="12.1"/>
	<path class="st2" d="M63.1,52.3c-0.1,0-0.3,0.1-0.4,0.1c-3,0.9-5.6,2.8-7.8,5c-1.1,1.1-2.2,2.3-3,3.7c-0.4,0.6-0.7,1.2-1.1,1.9
		c-1.1,2-1.9,3.9-2.4,6.1c-0.1,0.3-0.2,0.4-0.5,0.4c-0.8,0-1.6-0.6-2.3-0.3c-0.5,0.2-0.7,0.8-0.7,1.3c0,0.5,0.3,1,0.5,1.5
		c0.5,1,1,2.1,1.5,3.1c0.4,0.9-1.2,1-1.7,1.2c-1,0.4-1.8,1-2.5,1.8c-1,1.1-1.6,2.6-1.9,4c-0.4,2.1,0.1,4.3,1.3,6.1
		c1.6,2.4,4.6,3.7,7.5,3.3c2.8-0.4,5.4-2.5,6.3-5.2c0.2-0.5,0.2-1.3,0.7-1.5c0.5-0.2,1.7,0,2.3,0c0.2,0,0.5,0,0.7,0
		c0.7,0,1.5,0,2.2,0c0.4-0.1,0.5,0,0.4,0.4c0,0.7,0,1.5,0,2.2c0.1,0.2,0.2,0.4,0.3,0.6c0.8,0.6,1.4,0.1,2-0.3c1.2-1,2.5-2,3.8-3
		c0.1-0.1,0.2-0.2,0.3-0.2c0.3,0.6,0.3,1.3,0.5,1.9c0.3,0.7,0.6,1.3,1,1.8c0.9,1.2,2,2.1,3.3,2.6c2.6,1.1,5.7,0.7,7.9-1.1
		c2.2-1.7,3.4-4.7,3-7.4c-0.4-3.2-3.1-6.1-6.3-6.7c-0.1,0-0.3-0.1-0.4-0.1c-0.2-0.2-0.1-0.7-0.1-0.9c0-0.7,0-1.5,0-2.2
		c0-1.4,0-2.8,0-4.3c0-0.1,0-0.3,0.1-0.4c0.1-0.1,0.2-0.1,0.3-0.1c0.6-0.1,1.2,0.1,1.7,0s1.2-0.3,1.4-0.9c0.1-0.6-0.2-1.1-0.6-1.6
		c-0.5-0.7-1.1-1.4-1.6-2.1c-0.5-0.7-1.4-1.4-1.7-2.2c1.5-0.2,3.2,0,4.8,0c0.7,0,1.4,0,1.9-0.5c0.5-0.5,0.5-1.3,0.5-2
		c0-3.6,0-7.2,0-10.9c0-0.9-0.1-2-0.9-2.4c-0.3-0.2-0.7-0.2-1.1-0.2c-3.1,0-6.2,0-9.3,0c-1.6,0-3.1,0-4.7,0c-1.2,0-2.7-0.3-3.8,0.4
		c-1.4,0.9-0.8,3.5-0.7,4.9c0,0.6,0.1,1.3-0.5,1.7C63.4,52.2,63.2,52.3,63.1,52.3z M49.1,88.1c-0.5,0.1-1,0.1-1.5,0
		c-2.1-0.4-3.8-2.5-3.7-4.6c0.1-2.5,2.7-4.6,5.2-4.2c1.2,0.2,1.9,0.9,2.6,1.6c0.4,0.4,0.6,0.8,0.7,1.3c0.2,0.3,0.3,0.7,0.2,1.1
		C52.8,85.6,51.2,87.7,49.1,88.1z M77.3,79.3C77.3,79.3,77.3,79.3,77.3,79.3c2.2,0.1,3.6,2.3,3.7,4.2c0,0.4,0.1,0.8-0.1,1.2
		c-0.5,2.9-4,4.3-6.5,2.9c-3.4-2-2.6-7.7,1.4-8.2C76.3,79.2,76.8,79.2,77.3,79.3z M68.4,48.7c0.7,0,1.4,0.1,1.7,0.1
		c1.2,0,2.3,0,3.5,0c2.3,0,4.6,0,6.9,0c0.1,0,0.2,0,0.3,0.1c0.1,0.1,0.1,0.2,0.1,0.3c0,2.7,0,5.4,0,8c0,0.1,0,0.3-0.1,0.3
		c-0.1,0-0.2,0-0.2,0c-4.3,0-8.6,0-12.8,0c-0.1,0-0.2,0-0.2-0.1c-0.1-0.1-0.1-0.2-0.1-0.3c0-2.6,0-5.2,0-7.9c0-0.2,0-0.4,0.1-0.5
		C67.6,48.7,68,48.7,68.4,48.7z M63.8,57.1c0,0.5,0,1,0,1.5c0,0.9,0.2,1.9,1,2.3c0.4,0.2,0.9,0.2,1.4,0.2c1.6,0,3.2,0,4.8,0
		c1.5,0,3.3-0.3,4.7,0c-0.3,0.7-1,1.4-1.5,2c-0.6,0.7-1.1,1.4-1.7,2.1c-0.2,0.3-0.5,0.6-0.6,1c-0.1,0.4-0.1,0.8,0.1,1.1
		c0.3,0.5,1,0.5,1.6,0.5c0.4,0,0.8,0,1.2,0c0.9,0,0.6,1.8,0.5,2.4c0,1.6,0,3.2-0.1,4.8c0,0.2,0,0.4-0.1,0.6
		c-0.2,0.5-1.6,0.7-2.1,0.9c-0.8,0.4-1.5,0.9-2.1,1.5c-1.2,1.1-2,2.6-2.3,4.2c-0.3,1.5-1.7-0.4-2.2-0.8c-0.6-0.5-1.3-1-1.9-1.5
		c-0.6-0.5-1.4-0.9-2-0.6c-0.4,0.3-0.6,0.8-0.6,1.3s0.1,1,0,1.5c0,0.1-0.1,0.3-0.2,0.4c-0.2,0.1-0.4,0.1-0.6,0.1c-1.4,0-2.7,0-4.1,0
		c-0.3,0-0.6,0-0.8-0.1c-0.4-0.2-0.5-0.7-0.6-1.1c-0.4-1.4-1.2-2.6-2.2-3.6c-0.5-0.5-1.1-0.9-1.8-1.3c-0.6-0.3-1.4-0.4-2-0.8
		c0-0.1,0.1-0.1,0.2-0.2c0.5-0.4,1-0.8,1.5-1.2c0.5-0.4,1-0.9,1.5-1.3c0.6-0.4,0.9-0.9,0.8-1.7c-0.1-0.2-0.3-0.4-0.5-0.6
		c-0.3-0.1-0.5-0.2-0.8-0.3c-0.5,0-1-0.2-1.5-0.3c-0.7,0-0.7-0.4-0.5-0.9c0,0,0,0,0,0c0.2-1,0.5-2,0.9-2.9c0.2-0.6,0.4-1.1,0.7-1.6
		c0.7-1.1,1.2-2.2,1.9-3.2c0.7-1.1,1.6-2,2.5-2.9c1.2-1.2,2.7-2.1,4.2-2.9c0.7-0.4,1.6-0.8,2.4-1c0.7-0.2,0.7,0,0.7,0.7
		C63.9,56,63.9,56.6,63.8,57.1z"/>
	<path class="st2" d="M34.8,42c0.1-0.1,0.2-0.3,0.2-0.4c-0.1-0.1-0.1-0.2-0.1-0.2c-0.6-0.6-1.1-1.3-2.1-1.1c-0.4,0.1-0.8,0.1-1.2,0
		c-1-0.2-1.6,0.4-2.2,1c-0.2,0.2-0.3,0.5,0,0.7c0.5,0.5,0.9,1,1.4,1.4c0.3,0.2,0.3,0.4,0.2,0.7c-0.6,1.3-1.1,2.6-1.6,3.9
		c-0.2,0.4-0.2,0.7,0.1,1c0.8,0.7,1.6,1.5,2.4,2.2c0.1,0.1,0.4,0.1,0.5,0c0.8-0.7,1.5-1.4,2.3-2.1c0.3-0.3,0.3-0.6,0.1-0.9
		c-0.6-1.3-1.1-2.6-1.6-3.9c-0.1-0.3-0.1-0.5,0.2-0.7C33.9,42.9,34.4,42.4,34.8,42z"/>
	<path class="st2" d="M30.6,56.8c1.1,0,2.2,0,3.2,0c0.9-0.1,1.7-0.2,2.6-0.3c6.6-1,12.1-3.8,16.4-8.2c-0.2-1.4-0.7-2.6-1.4-3.9
		c-1.7-1.3-3.7-2-5.7-2.6c-2-0.6-4-1.2-6-1.9c0,0.6,0,1.2,0,1.8c0,1.3-0.2,2.5-0.8,3.7c-1.3,2.8-3,5.2-5.3,7.2
		c-0.8,0.7-2.1,0.7-2.9,0c-2.5-2.2-4.3-4.9-5.6-7.9c-0.6-1.4-0.6-2.9-0.4-4.4c0-0.1,0-0.3,0.1-0.5c-4,1.5-8.3,2.1-11.9,4.6
		c0,0,0,0,0,0c-0.7,1.2-1.2,2.5-1.4,3.9c3.9,3.9,8.9,6.7,14.8,7.9c1.3,0.3,2.5,0.3,3.8,0.5C30.2,56.7,30.4,56.8,30.6,56.8z"/>
	<path class="st2" d="M29.3,100c0-0.4,0-0.8,0-1.2V61.4c0,0,0.7,0.2,0.7,0.2h4l0.4,0l0,3.3c0,8.9,0,18.2,0,27.3
		c0,0.7,0.1,1.6,0.6,2.2c0.6,0.6,1.4,0.7,2.2,0.7c8.5,0,17,0,25.5,0c8.3,0,16.5,0,24.8,0c0,0,0,0,0,0c0.8,0,1.7-0.1,2.3-0.7
		c0.6-0.6,0.7-1.5,0.7-2.2c-0.1-14.7-0.1-30.3,0-48.8c0-0.8-0.1-1.5-0.6-2.1c-0.6-0.6-1.4-0.6-2-0.6c-2.4,0-4.7,0-7.1,0l-4.7,0
		c-2.3,0-4.5,0-6.8,0c0,0,0,0,0,0c-0.6,0-0.7,0-0.8-0.1c0,0-0.1-0.2,0-0.7c0.1-3.1,0-6.3,0-9.4c0-3,0-6.1,0-9.1
		c0-0.7-0.1-1.6-0.6-2.2c-0.6-0.6-1.4-0.7-2.1-0.7c-1.5,0-9.3,0-17.2,0c0-0.7,0.1-1.5,0-2.3c0-0.9-0.2-1.9-0.4-2.8h23.1l5,5.2
		c6.1,6.4,12.2,12.7,18.3,19.1c0.7,0.7,1,1.4,1,2.4c0,16.5,0,33,0,49.5l0,10.5H29.3z M71.8,27.2c0,2.7,0,5.3,0,7.9
		c0,0.7,0.2,1.2,0.5,1.5c0.5,0.5,1.3,0.5,1.6,0.5c0,0,0,0,0,0c1.7,0,3.3,0,4.9,0l8.1,0L71.8,21.4L71.8,27.2z"/>
	<path class="st1" d="M42.5,19.1v3.2l1.3,0.9v3.8l-2.5,3.7c0,0-2.3,5.4-4.8,5.7c-2.4,0.3-3.1,1.6-5.1,1.3c-2-0.3-6-1.8-6.5-3.2
		c-0.5-1.4-2.4-6-2.9-6.4c-0.5-0.4-1.3-1-1.6-1.8s0.4-3.2,0.4-3.2s0.9-0.7,0.8-1.1c0-0.4,0.4-5.1,0.4-5.4c0-0.3,2.4-2.7,2.8-2.8
		s12.8,1.6,13.4,2c0.6,0.3,3.8,2.7,3.9,2.7C42.2,18.5,42.5,19.1,42.5,19.1z"/>
	<path class="st2" d="M21.4,29.2c1,2.1,2.1,4.1,3.7,5.9c1.9,2,4.1,3.3,7,3.3c2.8,0,5.1-1.2,7-3.2c1.6-1.7,2.7-3.8,3.8-5.9
		c0.1-0.3,0.4-0.6,0.6-0.8c1.1-1.3,1.7-2.8,1.6-4.4c-0.1-1.2-0.5-1.6-1.6-1.9c0-0.1,0-0.3,0-0.4c0.1-1.8,0.3-3.6,0.3-5.4
		c-0.1-3.2-1.6-5.7-4.4-7.3C35.5,6.7,31.3,6.4,27,8c-4,1.5-6.4,4.3-6.5,8.8c0,1.8,0.1,3.6,0.2,5.4c-0.9,0.2-1.2,0.5-1.4,1.5
		c-0.3,1.8,0.3,3.4,1.5,4.8C21.1,28.6,21.3,28.9,21.4,29.2z M20.9,23.9c0-0.4,0.4-0.8,0.7-1c0.4-0.2,0.7,0.3,0.9,0.6
		c0.2,0.3,0.4,0.8,0.5,1.1c-0.2-1.9-0.4-3.9-0.6-5.8c0-0.3,0.1-0.6,0.2-0.9c0.8-1.5,1.9-2.8,3.5-3.3c0.6-0.2,1.1-0.2,1.6,0.3
		c2.5,2.5,5.6,3.8,9,4.3c1.6,0.2,3.3,0.4,5.1,0.6c-0.3,1.7-0.5,3.4-0.8,5c0.2-0.4,0.4-0.9,0.7-1.3c0.2-0.3,0.7-0.6,0.9-0.5
		c0.3,0.2,0.7,0.6,0.7,0.9c0.2,1.3-0.3,2.5-1.2,3.5c-0.3,0.3-0.6,0.7-0.8,1.1c-0.9,1.8-1.8,3.6-3,5.3c-2.9,4.1-9.7,4.1-12.7,0
		c-1.2-1.6-2.1-3.4-2.9-5.2c-0.2-0.5-0.5-0.9-0.9-1.3C21.2,26.3,20.8,25.2,20.9,23.9z"/>
</g>
</svg>
