<?xml version="1.0" encoding="utf-8"?>
<!-- Generator: Adobe Illustrator 22.1.0, SVG Export Plug-In . SVG Version: 6.00 Build 0)  -->
<svg version="1.1" id="Layer_1" xmlns="http://www.w3.org/2000/svg" xmlns:xlink="http://www.w3.org/1999/xlink" x="0px" y="0px"
	 viewBox="0 0 107 107" style="enable-background:new 0 0 107 107;" xml:space="preserve">
<style type="text/css">
	.st0{fill:#CDD9E8;}
	.st1{fill:#FFFFFF;}
	.st2{fill:#5881B2;}
</style>
<g>
	<g>
		<path class="st0" d="M38.7,46.2L28.9,43c0,0,4.9-9.3,5.6-10.8c0.7-1.4,7.2-15.4,6.7-17.1c-0.5-1.6-4-7.2-4-8.9c0-1.6-8.4-4-8.4-4
			l-10.1,2l-6.8,5.9l-1.2,8.6l6.6,16.8c0,0,9,7.2,4.1,7.7s-8.3,4.9-8.3,4.9s-0.8,2.3,0,4.7c0.8,2.3,6.9,2.3,12.7,3.4
			c5.8,1.1,12.7-3.9,12.7-3.9v-6.1C38.5,46.2,38.7,46.2,38.7,46.2z M25.6,22.7c-3,0-5.4-2.4-5.4-5.4s2.4-5.4,5.4-5.4
			s5.4,2.4,5.4,5.4C31.1,20.2,28.6,22.7,25.6,22.7z"/>
		<path class="st0" d="M83.2,57c-7.2,0-13,2.6-13,5.8s5.8,5.8,13,5.8s13-2.6,13-5.8C96.1,59.6,90.3,57,83.2,57z"/>
		<path class="st0" d="M49.1,91.3c-7.2,0-13,2.6-13,5.8c0,3.2,5.8,5.8,13,5.8s13-2.6,13-5.8S56.3,91.3,49.1,91.3z"/>
	</g>
	<ellipse class="st1" cx="26.4" cy="50.7" rx="12.6" ry="5.2"/>
	<g>
		<path class="st2" d="M34.5,17c0-4.7-3.8-8.5-8.5-8.5s-8.5,3.8-8.5,8.5s3.8,8.5,8.5,8.5S34.5,21.7,34.5,17z M21.7,17
			c0-2.4,2-4.4,4.4-4.4s4.4,2,4.4,4.4s-2,4.4-4.4,4.4C23.6,21.4,21.7,19.5,21.7,17z"/>
		<path class="st2" d="M83.2,54.4c-5.3,0-9.9,1.3-12.6,3.4l-7.4-1.7c-1.1-0.2-2.2,0.5-2.5,1.6c-0.2,1.1,0.5,2.2,1.6,2.5l5.7,1.3
			c-0.1,0.4-0.2,0.8-0.2,1.3c0,2.8,2.3,5.2,6,6.7l-3.3,3.4c-0.8,0.8-0.8,2.1,0,2.9c0.4,0.4,0.9,0.6,1.4,0.6s1.1-0.2,1.5-0.6l4.9-5
			c1.5,0.3,3.1,0.4,4.9,0.4c8.8,0,15.4-3.6,15.4-8.4S92,54.4,83.2,54.4z M83.2,67c-6.8,0-11.3-2.5-11.3-4.2c0-0.4,0.2-0.7,0.6-1.1
			c0.1-0.1,0.1-0.1,0.2-0.2c1.5-1.4,5.4-2.9,10.5-2.9c6.8,0,11.3,2.5,11.3,4.2C94.4,64.5,90,67,83.2,67z"/>
		<path class="st2" d="M58.6,91.1l3.3-3.4c0.8-0.8,0.8-2.1,0-2.9s-2.1-0.8-2.9,0l-4.9,5c-1.5-0.3-3.1-0.4-4.9-0.4
			c-8.8,0-15.4,3.6-15.4,8.4s6.6,8.4,15.4,8.4s15.4-3.6,15.4-8.4C64.6,95,62.3,92.6,58.6,91.1z M49.1,102.1
			c-6.8,0-11.3-2.5-11.3-4.2s4.5-4.2,11.3-4.2s11.3,2.5,11.3,4.2S55.9,102.1,49.1,102.1z"/>
		<path class="st2" d="M46.1,56.7c0.2,0,0.3,0.1,0.5,0.1c0.9,0,1.8-0.7,2-1.6c0.2-1.1-0.5-2.2-1.6-2.5l-5.7-1.3
			c0.1-0.4,0.2-0.8,0.2-1.3c0-3.9-4.3-6.5-9.3-7.7l9.2-18.5v-0.1c0.9-2.1,1.4-4.4,1.4-6.8c0-9.3-7.6-16.8-16.8-16.8
			C16.8,0.2,9.2,7.8,9.2,17c0,2.4,0.5,4.6,1.4,6.8v0.1l9.2,18.5c-5,1.2-9.3,3.8-9.3,7.7c0,4.8,6.6,8.4,15.4,8.4
			c5.3,0,9.9-1.3,12.6-3.4L46.1,56.7z M13.3,17C13.3,10,19,4.3,26,4.3S38.7,10,38.7,17c0,1.8-0.4,3.5-1,5.1L26,45.5L14.4,22.1
			C13.7,20.5,13.3,18.8,13.3,17z M14.8,50.1c0-1.1,2.7-3,7-3.8l2.4,4.8c0.4,0.7,1.1,1.1,1.9,1.1s1.5-0.4,1.9-1.1l2.4-4.8
			c4.4,0.8,7,2.7,7,3.9c0,0.4-0.2,0.7-0.6,1.1c-0.1,0.1-0.1,0.1-0.2,0.2c-1.5,1.4-5.4,2.9-10.5,2.9C19.3,54.3,14.8,51.8,14.8,50.1z"
			/>
		<path class="st2" d="M66.2,78.3c-1.1,0-2.1,0.9-2.1,2.1c0,1.1,0.9,2.1,2.1,2.1s2.1-0.9,2.1-2.1C68.2,79.2,67.3,78.3,66.2,78.3z"/>
		<path class="st2" d="M54.6,58.5c1.1,0,2.1-0.9,2.1-2.1s-0.9-2.1-2.1-2.1s-2.1,0.9-2.1,2.1S53.5,58.5,54.6,58.5z"/>
	</g>
</g>
<g>
	<path class="st1" d="M91.3,42H68.1c-1.9,0-3.5-1.5-3.5-3.5V26.8c0-1.9,1.5-3.5,3.5-3.5h23.3c1.9,0,3.5,1.5,3.5,3.5v11.7
		C94.7,40.4,93.2,42,91.3,42z"/>
	<path class="st1" d="M64,41c0,1.1,0.9,2,2,2h27.3c1.1,0,2-0.9,2-2V21.8H64V41z"/>
	<path class="st0" d="M95.4,13.7c0-1.1-0.9-2-2-2H66c-1.1,0-2,0.9-2,2v5h31.3V13.7z"/>
	<g>
		<path class="st2" d="M93.6,8.5h-28c-2.7,0-5,2.2-5,5v28c0,2.7,2.2,5,5,5h28c2.7,0,5-2.2,5-5V13.3C98.6,10.6,96.3,8.5,93.6,8.5z
			 M64,13.7c0-1.1,0.9-2,2-2h27.3c1.1,0,2,0.9,2,2v5H64V13.7z M95.4,41c0,1.1-0.9,2-2,2H66c-1.1,0-2-0.9-2-2V21.8h31.3V41z"/>
		<g>
			<path class="st2" d="M86.2,15.9L86.2,15.9c-0.9,0-1.6-0.7-1.6-1.6V6.2c0-0.9,0.7-1.6,1.6-1.6l0,0c0.9,0,1.6,0.7,1.6,1.6v8.1
				C87.8,15.1,87,15.9,86.2,15.9z"/>
			<path class="st2" d="M73,15.9L73,15.9c-0.9,0-1.6-0.7-1.6-1.6V6.2c0-0.9,0.7-1.6,1.6-1.6l0,0c0.9,0,1.6,0.7,1.6,1.6v8.1
				C74.8,15.1,74,15.9,73,15.9z"/>
		</g>
	</g>
	<path class="st2" d="M77.2,38.8c-0.5,0-0.9-0.3-1.3-0.7c-1.5-1.6-3.1-3.1-4.7-4.7c-0.8-0.8-0.8-1.7-0.1-2.6c0.7-0.7,1.7-0.7,2.6,0
		c0.9,0.9,1.9,1.9,2.8,2.8c0.7,0.7,0.7,0.7,1.5,0c2.6-2.6,5.1-5.1,7.5-7.5c1.1-1.1,2.3-0.9,3,0.1c0.4,0.8,0.3,1.6-0.4,2.3
		c-2.7,2.7-5.2,5.2-7.9,7.9c-0.5,0.5-1.1,1.1-1.6,1.6C78.2,38.6,77.7,38.8,77.2,38.8z"/>
</g>
</svg>
