<?xml version="1.0" encoding="utf-8"?>
<!-- Generator: Adobe Illustrator 22.1.0, SVG Export Plug-In . SVG Version: 6.00 Build 0)  -->
<svg version="1.1" id="Layer_1" xmlns="http://www.w3.org/2000/svg" xmlns:xlink="http://www.w3.org/1999/xlink" x="0px" y="0px"
	 viewBox="0 0 107 107" style="enable-background:new 0 0 107 107;" xml:space="preserve">
<style type="text/css">
	.st0{fill:#D2DCD5;}
	.st1{fill:#FFFFFF;}
	.st2{fill:#5F7268;}
</style>
<g>
	<g>
		<path class="st0" d="M11.3,59.9c0,0,22.1-8.2,29.8,2s-4.5,31.9-4.5,31.9s-12.9,5.7-18,1.6c-5.1-4.2-8.8-4.1-9-9.3
			C9.5,80.8,11.3,59.9,11.3,59.9z"/>
		<path class="st0" d="M69.2,41.9c0,0.6,27.9-0.9,27.9-0.9S89.6,25.9,88,25.3c-1.6-0.6,5.8-6,3.9-8.6C90.1,14,86.4,9,83.6,9.5
			c-2.8,0.6-7.8,0.7-7.6,4.7s0.7,7.8,2.2,9.2C79.5,24.8,69.2,33.6,69.2,41.9z"/>
	</g>
	<path class="st1" d="M37.5,72.5h-6.8c-2.2,0-4-1.8-4-4v-6.8c0-2.2,1.8-4,4-4h6.8c2.2,0,4,1.8,4,4v6.8
		C41.6,70.7,39.8,72.5,37.5,72.5z"/>
	<path class="st1" d="M86.6,25.4h-6.8c-2.2,0-4-1.8-4-4v-6.8c0-2.2,1.8-4,4-4h6.8c2.2,0,4,1.8,4,4v6.8
		C90.6,23.6,88.8,25.4,86.6,25.4z"/>
	<g>
		<path class="st2" d="M100,39.8c0-6.2-3.4-11.6-8.5-14.4c1.9-2,3-4.6,3-7.5c0-6-4.9-10.9-10.9-10.9c-6,0-10.9,4.9-10.9,10.9
			c0,2.9,1.1,5.6,3,7.5c-5.1,2.8-8.5,8.2-8.5,14.4v5.5h13.7v30.1c0,6-4.9,10.9-10.9,10.9S59,81.4,59,75.4V33c0-9.8-8-17.8-17.8-17.8
			s-17.8,8-17.8,17.8v20.5H19c-6.6,0-12,5.4-12,12v15.3C7,91.4,15.6,100,26.1,100s19.1-8.6,19.1-19.1V65.5c0-6.6-5.4-12-12-12h-4.4
			V33c0-6.8,5.5-12.3,12.3-12.3S53.5,26.2,53.5,33v42.4c0,9,7.4,16.4,16.4,16.4s16.4-7.4,16.4-16.4V45.3H100V39.8z M19,59h4.4v10.9
			H12.5v-4.4C12.5,61.9,15.4,59,19,59z M26.1,94.5c-7.5,0-13.7-6.1-13.7-13.7v-5.5h27.4v5.5C39.8,88.4,33.7,94.5,26.1,94.5z
			 M33.3,59c3.6,0,6.6,2.9,6.6,6.6v4.4H28.9V59H33.3z M78.1,17.9c0-3,2.5-5.5,5.5-5.5s5.5,2.5,5.5,5.5s-2.5,5.5-5.5,5.5
			S78.1,21,78.1,17.9z M72.6,39.8c0-6,4.9-10.9,10.9-10.9c6,0,10.9,4.9,10.9,10.9H72.6z"/>
	</g>
</g>
</svg>
