<?xml version="1.0" encoding="utf-8"?>
<!-- Generator: Adobe Illustrator 22.1.0, SVG Export Plug-In . SVG Version: 6.00 Build 0)  -->
<svg version="1.1" id="Layer_1" xmlns="http://www.w3.org/2000/svg" xmlns:xlink="http://www.w3.org/1999/xlink" x="0px" y="0px"
	 viewBox="0 0 107 107" style="enable-background:new 0 0 107 107;" xml:space="preserve">
<style type="text/css">
	.st0{fill:#F3DCDD;}
	.st1{fill:#D36B92;}
</style>
<g>
	<g>
		<g>
			<path class="st0" d="M37.1,98.1h-18c-5,0-9-4-9-9V71c0-5,4-9,9-9h18c5,0,9,4,9,9v18C46.1,94.1,42.1,98.1,37.1,98.1z"/>
			<path class="st0" d="M66.9,62h22.3c3.6,0,6.6,2.9,6.6,6.6v22.3c0,3.6-2.9,6.6-6.6,6.6H66.9c-3.6,0-6.6-2.9-6.6-6.6V68.6
				C60.4,65,63.3,62,66.9,62z"/>
			<path class="st0" d="M38.3,47H17.6c-3.8,0-6.9-3.1-6.9-6.9V19.4c0-3.8,3.1-6.9,6.9-6.9h20.7c3.8,0,6.9,3.1,6.9,6.9v20.8
				C45.2,43.9,42.1,47,38.3,47z"/>
			<path class="st0" d="M96,29.6c0,10.1-8.6,18.3-18.8,17.9c-9.2-0.4-16.8-8.1-17.1-17.3C59.8,20,68,11.6,78.1,11.6
				C88,11.7,96,19.8,96,29.6z"/>
		</g>
	</g>
	<g>
		<path class="st1" d="M50.7,68.8v19.6c0,6.6-5.4,12-12,12H19.1c-6.6,0-12-5.4-12-12V68.8c0-6.6,5.4-12,12-12h19.6
			C45.3,56.9,50.7,62.2,50.7,68.8z M38.7,94.6c3.4,0,6.2-2.8,6.2-6.2V68.8c0-3.4-2.8-6.2-6.2-6.2H19.1c-3.4,0-6.2,2.8-6.2,6.2v19.6
			c0,3.4,2.8,6.2,6.2,6.2H38.7z"/>
		<path class="st1" d="M100.1,68.8v19.6c0,6.6-5.4,12-12,12H68.5c-6.6,0-12-5.4-12-12V68.8c0-6.6,5.4-12,12-12h19.6
			C94.7,56.9,100.1,62.2,100.1,68.8z M88.1,94.6c3.4,0,6.2-2.8,6.2-6.2V68.8c0-3.4-2.8-6.2-6.2-6.2H68.5c-3.4,0-6.2,2.8-6.2,6.2
			v19.6c0,3.4,2.8,6.2,6.2,6.2H88.1z"/>
		<path class="st1" d="M100.1,29.3c0,12-9.8,21.8-21.8,21.8s-21.8-9.8-21.8-21.8S66.3,7.5,78.3,7.5S100.1,17.2,100.1,29.3z
			 M94.3,29.3c0-8.8-7.2-16-16-16s-16,7.2-16,16s7.2,16,16,16S94.3,38.1,94.3,29.3z"/>
		<path class="st1" d="M50.7,19.4v19.6c0,6.6-5.4,12-12,12H19.1c-6.6,0-12-5.4-12-12V19.4c0-6.6,5.4-12,12-12h19.6
			C45.3,7.5,50.7,12.8,50.7,19.4z M38.7,45.2c3.4,0,6.2-2.8,6.2-6.2V19.4c0-3.4-2.8-6.2-6.2-6.2H19.1c-3.4,0-6.2,2.8-6.2,6.2v19.6
			c0,3.4,2.8,6.2,6.2,6.2H38.7z"/>
	</g>
</g>
</svg>
