<?xml version="1.0" encoding="utf-8"?>
<!-- Generator: Adobe Illustrator 22.1.0, SVG Export Plug-In . SVG Version: 6.00 Build 0)  -->
<svg version="1.1" id="Layer_1" xmlns="http://www.w3.org/2000/svg" xmlns:xlink="http://www.w3.org/1999/xlink" x="0px" y="0px"
	 viewBox="0 0 107 107" style="enable-background:new 0 0 107 107;" xml:space="preserve">
<style type="text/css">
	.st0{fill:#EBE3DF;}
	.st1{fill:#FFFFFF;}
	.st2{fill:#AD8A7C;}
</style>
<g>
	<path class="st0" d="M88.8,4.6l-0.1,28.2v66.3c0,2.2-1.6,4-3.6,4H20.8c-2,0-3.6-1.8-3.6-4V28.5l19.9-24L88.8,4.6z"/>
	<path class="st1" d="M73,33.8H55.7c-1.4,0-2.6-1.1-2.6-2.6v-8.7c0-1.4,1.1-2.6,2.6-2.6H73c1.4,0,2.6,1.1,2.6,2.6v8.7
		C75.5,32.6,74.4,33.8,73,33.8z"/>
	<g>
		<path class="st2" d="M92.4,53.5c0,14.7,0,29.3,0,44c0,2.9-0.9,5.4-3.2,7.2c-1.4,1.1-2.9,1.6-4.6,1.8c-0.3,0-0.7,0-1,0
			c-20.1,0-40.2,0-60.2,0c-4.5,0-7.9-2.8-8.6-7c-0.1-0.6-0.1-1.3-0.1-1.9c0-22.9,0-45.8,0-68.7c0-0.9,0.2-1.5,0.8-2.2
			c6.5-8.3,13-16.6,19.5-25c0.7-0.9,1.4-1.2,2.5-1.2c15.5,0,31.1,0,46.6,0c4,0,7.3,2.5,8.2,6.2c0.2,1,0.3,1.9,0.3,2.9
			C92.4,24.3,92.4,38.9,92.4,53.5z M87.3,53.6c0-14.7,0-29.5,0-44.2c0-2.6-1.2-3.9-3.9-3.9c-13.9,0-27.9,0-41.8,0
			c-1,0-1.3,0.3-1.3,1.3c0,5.6,0,11.1,0,16.7c0,0.6,0,1.2-0.1,1.8c-0.6,2.7-3,4.6-6,4.6c-4.3,0-8.6,0-12.9,0c-1.6,0-1.6,0-1.6,1.6
			c0,21.9,0,43.9,0,65.8c0,0.4,0,0.8,0,1.3c0.1,1.3,1,2.4,2.3,2.8c0.6,0.1,1.2,0.2,1.9,0.2c19.7,0,39.4,0,59.1,0
			c2.7,0,4.2-1.2,4.2-4.2C87.2,82.7,87.3,68.1,87.3,53.6z"/>
		<path class="st2" d="M50.6,33.7c-0.3,1.1-0.5,1.9-0.8,2.6c-0.4,1.2-1.1,1.3-2,0.5c-0.1-0.1-0.2-0.1-0.2-0.2
			c-1.4-1.4-1.4-1.4-2.4,0.3c-3.2,5.7-4.8,11.8-5.5,18.2c-0.3,3-0.5,5.9-0.6,8.9c0,0.9,0.3,1.1,1.1,1.2c2.9,0,3.2,0.5,1.7,3
			c-0.8,1.4-1.6,2.9-2.5,4.3c-0.3,0.5-0.4,0.8,0.4,1c5.2,1.4,8,4.8,8.7,10.1c0.1,0.7,0.5,0.4,0.8,0.3c1.4-0.8,2.8-1.6,4.2-2.4
			c1.6-0.9,2.2-0.6,2.2,1.3c0,1.6,0,1.6,1.5,1.2c5.3-1.3,9.4-4.2,11.6-9.4c0.4-0.8,0.9-1.4,1.9-1.4c0.7,0,1.2,0.5,1.5,1.1
			s0.1,1.2-0.2,1.7c-2,4.5-5.2,7.8-9.8,9.8c-1.8,0.8-3.7,1.4-5.7,1.7c-0.8,0.1-1.1,0.5-1,1.3c0.1,0.6,0,1.2,0,1.8
			c-0.1,1.1-0.7,1.5-1.7,1c-1.7-0.9-3.4-1.9-5-2.9c-0.8-0.5-1.1-0.5-1.5,0.4c-2,4.2-5.4,6.6-10,6.7C31,96,26.5,91.3,25.8,86
			c-0.8-6,3.1-11.3,9-12.6c0.8-0.2,0.8-0.4,0.5-1c-1-1.6-2-3.3-2.9-5c-0.8-1.5-0.5-2.1,1.2-2.1c2.1,0,1.9,0.3,1.9-2
			c0.1-8,1.1-15.8,4.1-23.3c0.9-2.2,2-4.4,3.4-6.4c0.5-0.7,0.6-1.2-0.2-1.8c-0.2-0.2-0.5-0.4-0.7-0.7c-1.2-1.2-0.9-2,0.7-2.4
			c2-0.5,3.9-1.1,5.9-1.5c0.9-0.2,1.4-0.7,1.3-1.7c-0.1-1,0-2.1,0-3.1c0.1-3.2,2.3-5.4,5.5-5.4c5.8,0,11.5,0,17.3,0
			c3.3,0,5.4,2.2,5.5,5.5c0,2.8,0,5.5,0,8.3c0,3.6-2,5.7-5.6,5.8c-1.4,0.1-1.4,0.1-0.7,1.3c0.8,1.5,1.7,3,2.6,4.5
			c0.7,1.3,0.3,2-1.2,2c-2,0.1-2,0.1-2,2.1c0,2.5,0,5,0,7.6c0,0.5,0,1-0.2,1.4c-0.3,0.8-0.9,1.2-1.7,1.1c-0.8,0-1.4-0.5-1.6-1.3
			c-0.1-0.5-0.1-1-0.1-1.5c0-2.8,0-5.5,0-8.3c0-0.9-0.3-1.2-1.2-1.2c-2.7,0-3-0.5-1.6-2.8c0.7-1.3,1.5-2.5,2.2-3.8
			c0.7-1.2,0.7-1.2-0.7-1.2c-3.1,0-6.3,0-9.4,0C54.4,36.8,52.1,36.4,50.6,33.7z M64.3,33.1c2.8,0,5.7,0,8.5,0c1.4,0,2-0.5,2-2
			c0-2.8,0-5.6,0-8.4c0-1.4-0.7-2.1-2.1-2.1c-5.7,0-11.4,0-17.1,0c-1.4,0-1.9,0.6-1.9,2.1c0,2.8,0,5.6,0,8.4c0,1.6,0.4,2,2,2
			C58.6,33.1,61.5,33.1,64.3,33.1z M37.2,92.3c4.3,0,7.9-3.5,7.8-7.8c-0.1-4.3-3.5-7.7-7.8-7.8c-4.1-0.1-7.8,3.5-7.8,7.8
			C29.4,88.8,32.9,92.3,37.2,92.3z"/>
		<path class="st2" d="M80.2,72.9c0,1.3-1.3,2.2-2.5,1.6c-0.4-0.2-0.7-0.5-1.1-0.9c-2.1-2.1-4.2-4.2-6.3-6.3c-0.6-0.6-1-0.7-1.6,0
			c-2.1,2.1-4.2,4.2-6.3,6.3c-0.3,0.3-0.7,0.7-1.1,0.9c-0.8,0.4-1.5,0.1-2-0.4c-0.5-0.6-0.6-1.3-0.2-1.9c0.2-0.4,0.6-0.8,0.9-1.1
			c2-2,4-4.1,6.1-6.1c0.7-0.7,0.8-1.1,0-1.8c-2-2-4-4-6-6c-0.2-0.2-0.4-0.4-0.6-0.6c-0.8-0.9-0.9-2-0.1-2.7c0.7-0.7,1.8-0.7,2.6,0.2
			c0.7,0.7,1.4,1.4,2.2,2.1c1.5,1.5,3,3,4.5,4.5c0.6,0.7,1,0.7,1.7,0c2.1-2.1,4.2-4.2,6.3-6.3c0.3-0.3,0.5-0.6,0.9-0.8
			c0.8-0.5,1.6-0.4,2.2,0.3c0.6,0.6,0.7,1.4,0.2,2.1c-0.2,0.4-0.6,0.7-0.9,1c-2.1,2.1-4.1,4.2-6.2,6.2c-0.6,0.6-0.6,1,0,1.5
			c2.2,2.1,4.4,4.3,6.5,6.5C79.8,71.7,80.3,72.2,80.2,72.9z"/>
	</g>
	<path class="st1" d="M36.1,8.4v14.1c0,1.2-1,2.2-2.2,2.2H23.3L36.1,8.4z"/>
	<circle class="st1" cx="37.2" cy="84.5" r="8.6"/>
</g>
</svg>
