<?xml version="1.0" encoding="utf-8"?>
<!-- Generator: Adobe Illustrator 22.1.0, SVG Export Plug-In . SVG Version: 6.00 Build 0)  -->
<svg version="1.1" id="Layer_1" xmlns="http://www.w3.org/2000/svg" xmlns:xlink="http://www.w3.org/1999/xlink" x="0px" y="0px"
	 viewBox="0 0 107 107" style="enable-background:new 0 0 107 107;" xml:space="preserve">
<style type="text/css">
	.st0{fill:#D9C4DA;}
	.st1{fill:#600A64;}
	.st2{fill:#FFFFFF;}
</style>
<g>
	<path class="st0" d="M71.6,90V13.1c0,0-0.9-2.6-4.8-4.4s-54.9,0-54.9,0L41.7,29L43,68.4l-4,8.4l-1.1,7.8l11.3-0.9L71.6,90z"/>
	<path id="Shape_15_" class="st1" d="M16.6,25.6c0.9,0,1.6-0.7,1.6-1.6v-3c0-0.9-0.7-1.6-1.6-1.6S15,20.1,15,21v3.1
		C15,24.9,15.7,25.6,16.6,25.6z"/>
	<path id="Shape_16_" class="st1" d="M15,59.7c0,0.9,0.7,1.6,1.6,1.6c0.9,0,1.6-0.7,1.6-1.6V31.8c0-0.9-0.7-1.6-1.6-1.6
		S15,30.9,15,31.8V59.7z"/>
	<g>
		<path class="st1" d="M39.8,83v-5.3c0-0.3,0.1-0.6,0.2-0.8l3.7-5.9c0.5-0.7,0.7-1.6,0.7-2.5V31.1c0-2.2-1.2-4.3-3.2-5.4L15.9,10.1
			h50.3c1.7,0,3.1,1.4,3.1,3.1v14h3.1v-14c0-3.4-2.8-6.2-6.2-6.2H10.4C9.5,7,8.8,7.7,8.8,8.6v63.6c0,0.9,0.7,1.6,1.6,1.6
			s1.6-0.7,1.6-1.6V11.3l27.8,17.1c1,0.5,1.6,1.6,1.6,2.7v37.4c0,0.3-0.1,0.6-0.2,0.8l-3.7,5.9c-0.5,0.7-0.7,1.6-0.7,2.5v17.7
			c0,0.5-0.3,1-0.7,1.3s-1,0.3-1.4,0.1L11.1,83.2c-0.5-0.3-1.1-0.3-1.6-0.1c-0.5,0.3-0.8,0.8-0.8,1.4s0.3,1.1,0.9,1.4l23.5,13.7
			c1.4,0.7,3.2,0.6,4.5-0.2c1.4-0.8,2.2-2.3,2.2-4v-9.3h5.4V83H39.8z"/>
	</g>
	<path class="st2" d="M83.5,37.5c-0.5-0.4-11.9-5.9-12.8-6.2c-0.8-0.3-5-1.3-7.5,1.2c-2.4,2.4-6.3,6.7-6.3,6.7L58,44l-0.1,2
		c0,0-1.3-0.1-1.3,0.7s-2.5,2.1,0,5.2c2.5,3,3.6,3.4,4.1,5.3c0.5,1.9,2.4,4.7,2.8,5.1c0.4,0.4,2.6,2.1,3,2.2c0.4,0.2,5.5,1,5.5,1
		l5.9-1.5c0,0,3-3.3,3.5-4.1c0.4-1,2.6-4.9,2.6-4.9l2.4-3.5l1-3.9l-2.5-1.8l0.5-2.6l-0.8-6.8L83.5,37.5z"/>
	<path class="st1" d="M57.7,54.6c1.3,2.7,2.7,5.3,4.8,7.6c2.4,2.6,5.3,4.2,9,4.3c3.6,0,6.5-1.6,9-4.2c2.1-2.2,3.5-4.8,4.8-7.6
		c0.2-0.4,0.5-0.7,0.7-1.1c1.5-1.6,2.1-3.6,2.1-5.7c-0.1-1.6-0.6-2.1-2-2.4c0-0.2,0.1-0.3,0.1-0.5c0.1-2.3,0.4-4.7,0.3-7
		c-0.2-4.2-2.1-7.5-5.7-9.5c-5.1-3-10.5-3.3-15.9-1.3c-5.2,1.9-8.2,5.6-8.4,11.3c-0.1,2.3,0.2,4.6,0.3,7c-1.2,0.2-1.6,0.6-1.8,1.9
		c-0.4,2.4,0.4,4.4,2,6.2C57.2,53.9,57.5,54.3,57.7,54.6z M57,47.8c0.1-0.5,0.5-1.1,1-1.3s0.9,0.3,1.2,0.8c0.2,0.4,0.5,1,0.7,1.4
		c-0.2-2.4-0.5-5-0.8-7.5c-0.1-0.4,0.1-0.8,0.3-1.2c1-1.9,2.4-3.6,4.5-4.3c0.8-0.2,1.4-0.2,2.1,0.4c3.2,3.2,7.2,4.8,11.6,5.5
		c2.1,0.3,4.2,0.5,6.5,0.7c-0.4,2.2-0.7,4.4-1,6.5c0.3-0.5,0.5-1.2,0.9-1.6c0.2-0.4,0.9-0.8,1.1-0.7c0.4,0.2,0.9,0.7,0.9,1.2
		c0.2,1.7-0.3,3.3-1.5,4.5c-0.4,0.4-0.7,0.8-1,1.4c-1.1,2.4-2.3,4.7-3.8,6.8c-3.8,5.3-12.5,5.3-16.4,0.1c-1.5-2.1-2.7-4.4-3.8-6.7
		c-0.3-0.6-0.7-1.2-1.1-1.6C57.4,50.9,56.8,49.4,57,47.8z"/>
	<path class="st1" d="M73.2,72.9c0.7-0.5,1.2-1.2,1.8-1.8c0.1-0.1,0.2-0.3,0.3-0.5c-0.1-0.1-0.1-0.2-0.2-0.3
		c-0.7-0.8-1.4-1.6-2.7-1.5c-0.5,0.1-1,0.1-1.6,0c-1.3-0.2-2.1,0.5-2.8,1.3c-0.3,0.3-0.4,0.6-0.1,0.9c0.6,0.6,1.2,1.3,1.8,1.8
		c0.4,0.3,0.4,0.5,0.2,0.9c-0.7,1.6-1.4,3.3-2.1,5c-0.2,0.5-0.2,0.9,0.2,1.3c1,1,2,1.9,3.1,2.8c0.1,0.1,0.5,0.1,0.7-0.1
		c1-0.9,2-1.8,3-2.8c0.4-0.4,0.4-0.7,0.2-1.2c-0.7-1.7-1.4-3.4-2.1-5C72.7,73.4,72.8,73.2,73.2,72.9z"/>
	<path class="st0" d="M59.7,70.5c0,0-11.2,3.1-12,5.4s-1.3,3.3-1.3,7.7c0,4.4,0,12.9,0,12.9h50.1V76.8c0,0-10.7-5.1-12.2-5.6
		c-1.6-0.5-1.8,3.1-1.8,3.1s-5.7,10-6.8,10.6c-1.1,0.6-3.3,2.8-5,2.1C69,86.3,61.3,81.4,59.7,70.5z"/>
	<g>
		<path class="st1" d="M98.3,79.2c0-0.1,0-0.1,0-0.2c-0.2-1.5-0.7-2.5-1.1-3.2c-0.2-0.5-0.5-1-0.8-1.5c-2.2-1.6-4.8-2.6-7.4-3.4
			s-5.2-1.6-7.8-2.4c0,0.8,0,1.5,0,2.3c0.1,1.6-0.3,3.2-1,4.7c-1.6,3.6-3.8,6.7-6.8,9.3c-1,0.9-2.7,0.9-3.7,0
			c-3.3-2.8-5.6-6.2-7.2-10.2c-0.7-1.8-0.7-3.7-0.5-5.6c0-0.2,0.1-0.4,0.1-0.7c-5.2,1.9-10.7,2.7-15.3,5.9c0,0,0,0,0-0.1
			c0,0,0,0.1-0.1,0.1c-0.3,0.3-1.7,2-1.7,4.8c0,3.3,0,18.5,0,18.5h53.5c0,0,0-14.5,0-17.8C98.3,79.7,98.3,79.5,98.3,79.2
			C98.2,79.2,98.3,79.2,98.3,79.2z M95.4,94.8H47.7V79.2c0-1.5,0.6-2.4,0.8-2.7c2.7-1.8,5.9-2.7,9.2-3.7c0.4-0.1,0.8-0.2,1.2-0.4
			c0.1,1.1,0.3,2.2,0.8,3.3l0,0c1.9,4.6,4.5,8.3,8,11.3c1,0.9,2.4,1.4,3.7,1.4c1.4,0,2.7-0.5,3.8-1.4c3.2-2.7,5.7-6.1,7.6-10.3l0,0
			c0.6-1.4,1-2.8,1.2-4.3c1.3,0.4,2.7,0.9,4.1,1.3c1.9,0.6,4.1,1.3,6,2.6c0.1,0.2,0.2,0.5,0.4,0.7c0.1,0.1,0.1,0.3,0.2,0.4
			c0.2,0.4,0.6,1,0.6,1.9c0,0,0,0,0,0.1v0.1c0,0.2,0,0.3,0,0.4v14.9H95.4z"/>
	</g>
	<path class="st1" d="M57.7,97.1h-0.4c-0.7,0-1.3-0.6-1.3-1.3v-4.6c0-0.7,0.6-1.3,1.3-1.3h0.4c0.7,0,1.3,0.6,1.3,1.3v4.6
		C59,96.5,58.4,97.1,57.7,97.1z"/>
	<path class="st1" d="M86.9,97.1L86.9,97.1c-0.8,0-1.5-0.7-1.5-1.5v-4.2c0-0.8,0.7-1.5,1.5-1.5l0,0c0.8,0,1.5,0.7,1.5,1.5v4.2
		C88.4,96.5,87.7,97.1,86.9,97.1z"/>
</g>
</svg>
