<?xml version="1.0" encoding="utf-8"?>
<!-- Generator: Adobe Illustrator 22.1.0, SVG Export Plug-In . SVG Version: 6.00 Build 0)  -->
<svg version="1.1" id="Layer_1" xmlns="http://www.w3.org/2000/svg" xmlns:xlink="http://www.w3.org/1999/xlink" x="0px" y="0px"
	 viewBox="0 0 107 107" style="enable-background:new 0 0 107 107;" xml:space="preserve">
<style type="text/css">
	.st0{fill:#F3CABF;}
	.st1{fill:#FFFFFF;}
	.st2{fill:#E07A5F;}
</style>
<g>
	<circle class="st0" cx="69.3" cy="37.3" r="29"/>
	<ellipse class="st1" cx="68.7" cy="32.8" rx="9.9" ry="10.4"/>
	<path class="st0" d="M12,85.6c0.2-0.7,22.5-21.5,22.5-21.5v3.8L12,91.1V85.6z"/>
	<g>
		<g>
			<path class="st2" d="M87.4,50.3c-0.4-2.8-2.7-5.1-5.5-5.3c-1.5-0.1-3.1-0.2-4.6-0.4c-0.5,0-1-0.1-1.5-0.1c0,0.2,0,0.3,0,0.4
				c-0.1,2.9-0.3,5.7-0.8,8.6c-0.3,1.9-0.8,3.7-1.6,5.4c-0.5,1-1.1,1.9-2,2.5c-0.2,0.1-0.4,0.2-0.6,0.4c0-3.4,0-6.8,0-10.1
				c1.1-0.3,1.4-1,1.3-1.8c0-0.4,0-0.7,0-1.1c0-0.9-0.6-1.6-1.6-1.6c-1.1,0-2.2,0-3.2,0c-0.9,0-1.5,0.6-1.6,1.5c0,0.5,0,1,0,1.5
				c0,0.7,0.4,1.2,1.1,1.4C67,51.7,67,51.8,67,52c0,3.2,0,6.4,0,9.5c0,0.1,0,0.2,0,0.3c-0.6-0.3-1-0.7-1.4-1.1
				c-1-1.2-1.6-2.6-2.1-4.1c-0.9-3-1.2-6.1-1.4-9.2c-0.1-0.9-0.1-1.9-0.1-2.8c-0.3,0-0.5,0-0.8,0c-1.6,0.1-3.2,0.3-4.8,0.3
				c-3.4,0.1-6.1,2.8-6.1,6.2c0,2.7,0,5.3,0,8c0,0.5,0.1,0.9,0.5,1.3c0.3,0.3,0.6,0.6,0.9,0.8c1.1,0.7,2.3,1.1,3.5,1.5
				c3.2,0.9,6.4,1.2,9.7,1.4c0.8,0,1.6,0.1,2.3,0.1c1.3,0,2.6,0,3.9,0c0.8,0,1.5-0.1,2.3-0.1c3.3-0.2,6.7-0.5,9.9-1.5
				c0.9-0.3,1.7-0.6,2.5-1c0.8-0.4,1.5-1,1.8-2c0-3,0-6,0-8.9C87.4,50.5,87.4,50.4,87.4,50.3z"/>
			<path class="st2" d="M57.8,33.4c0.7,4.6,3.3,8,7.3,10.4c2.4,1.4,4.8,1.4,7.3,0.1c1.6-0.9,3-2,4.2-3.3c2.3-2.7,3.5-5.7,3.6-9.6
				c0-0.5-0.1-1.2-0.2-2c-0.4-2.9-1.5-5.4-3.4-7.6c-1.9-2.1-4.2-3.4-7.1-3.6c-2.9-0.2-5.4,0.8-7.4,2.8
				C58.4,24.1,57.1,28.5,57.8,33.4z M64,26c0.2,0.2,0.4,0.3,0.5,0.5c0.8,1.1,1.9,1.8,3.2,2.3c2.2,0.9,4.5,1.3,6.8,1.6
				c1,0.1,2,0.2,3.1,0.3c0.1,1.1,0,2.2-0.3,3.3c-1,3.3-2.9,5.9-5.9,7.6c-0.6,0.3-1.2,0.5-1.8,0.7c-1.1,0.3-2.2-0.1-3.2-0.6
				c-3.3-1.7-6.6-6.1-6.2-11.1c0-0.6,0.2-1.3,0.3-1.9c0-0.2,0.1-0.4,0.2-0.5c0.5-0.7,0.9-1.3,1.4-2C62.6,25.3,63.2,25.3,64,26z"/>
		</g>
		<g>
			<path class="st2" d="M99,31.3c-1.2-6.4-4.3-11.8-9-16.1c-4.8-4.4-10.9-7.3-17.4-8C67.2,6.6,62,7.4,56.9,9.6
				c-4.5,2-8.4,5.1-11.4,9c-5.3,6.8-7.3,14.6-6.1,23.3c0.7,4.9,2.6,9.4,5.6,13.4c0.1,0.2,0.1,0.4,0,0.5c-2.3,2.3-4.6,4.6-6.9,6.9
				c-0.2,0.2-0.3,0.2-0.5,0c-0.7-0.7-1.3-1.3-2-2c-0.2-0.2-0.3-0.2-0.5,0c-9,9-18.1,18.1-27.1,27.1c-0.7,0.7-0.7,1.9,0,2.6
				c3.2,3.2,6.3,6.3,9.5,9.5c0.2,0.2,0.3,0.2,0.5,0c9.4-9.4,18.8-18.8,28.2-28.2c0.2-0.2,0.2-0.3,0-0.5c-0.7-0.6-1.3-1.3-2-2
				c-0.2-0.2-0.2-0.3,0-0.6c2.3-2.3,4.6-4.5,6.8-6.8c0.1-0.1,0.4-0.2,0.6,0c5.4,3.9,11.4,5.8,17.1,5.9c4.2,0,6.8-0.4,9.8-1.3
				c5.7-1.8,10.8-5.1,14.5-9.7C98.7,49.1,100.8,40.7,99,31.3z M33.9,67.5L14.6,86.8c-0.3,0.3-0.7,0.3-1,0c-0.3-0.3-0.3-0.7,0-1
				L33,66.5c0.3-0.3,0.7-0.3,1,0C34.2,66.8,34.2,67.2,33.9,67.5z M69.3,60.6C56.4,60.6,46,50.2,46,37.3C46,24.5,56.4,14,69.3,14
				s23.3,10.4,23.3,23.3C92.6,50.2,82.2,60.6,69.3,60.6z"/>
		</g>
	</g>
</g>
</svg>
