<?xml version="1.0" encoding="utf-8"?>
<!-- Generator: Adobe Illustrator 22.1.0, SVG Export Plug-In . SVG Version: 6.00 Build 0)  -->
<svg version="1.1" id="Layer_1" xmlns="http://www.w3.org/2000/svg" xmlns:xlink="http://www.w3.org/1999/xlink" x="0px" y="0px"
	 viewBox="0 0 107 107" style="enable-background:new 0 0 107 107;" xml:space="preserve">
<style type="text/css">
	.st0{fill:#F1E6DC;}
	.st1{fill:#DDAF86;}
</style>
<g>
	<g>
		<path class="st0" d="M93.5,18.2H32.8c-6.1,0-11.1,5-11.1,11.1V33l8.1-0.6l10.6,6.3l4.2,6l-0.6,19l-4.6,4.4L33.1,77
			c0,0-1.8,1.2-5.4,1.7c1.5,0.8,3.3,1.3,5.1,1.3h60.7c6.1,0,11.1-5,11.1-11.1V29.3C104.6,23.1,99.7,18.2,93.5,18.2z"/>
	</g>
	<g>
		<g>
			<g>
				<path class="st1" d="M106.4,35.9c-0.1-0.8-0.6-1.5-1.1-2c-3.1-3.1-6.2-6.2-9.3-9.2c-0.2-0.2-0.3-0.2-0.4,0c-2.5,2.5-5,5-7.5,7.4
					c-0.3,0.3-0.6,0.4-1,0.4c-3.9,0-7.8,0-11.7,0c-1.1,0-1.9,0.4-2.7,1.1c-1.3,1.3-2.5,2.6-3.9,3.7c-0.9,0.7-1.1,1.8-0.9,2.9
					c0.2,1.3,1,2.1,2.2,2.5c1.2,0.4,2.3,0.1,3.3-0.7c1-0.9,2-1.8,2.9-2.7c0.2-0.2,0.4-0.3,0.7-0.3c2,0,4.1,0,6.1,0
					c0.3,0,0.5,0.1,0.7,0.3c3.6,3.4,7.1,7,10.7,10.5c0.2,0.2,0.3,0.2,0.4,0c3.5-3.5,7-7,10.5-10.5c0.5-0.5,0.9-1.1,1.1-1.9
					c0-0.1,0-0.2,0.1-0.2C106.5,36.8,106.5,36.4,106.4,35.9C106.4,36,106.4,36,106.4,35.9z"/>
				<path class="st1" d="M94,71.2c0.2,0,0.4,0,0.6,0c0,0,0,0,0-0.1C94.4,71.1,94.2,71.1,94,71.2C94,71.2,94,71.2,94,71.2z"/>
				<path class="st1" d="M53.1,16.1c2.2,2.2,4.5,4.4,6.7,6.6c1.4,1.4,1.8,3.2,1.1,5.1c-1.2,3.5-5.7,4.5-8.3,1.9
					c-2.4-2.3-4.8-4.7-7.1-7.1c-0.1-0.1-0.1-0.2-0.2-0.2c0,0,0,0.1-0.1,0.1c-1.8,4.4-1.5,8.7,1,12.7c3.1,5,8.9,7.3,14.7,6.1
					c0.2-0.1,0.4,0,0.5,0.2c1.4,1.4,2.8,2.8,4.1,4.1c0.1,0.1,0.2,0.2,0.4,0c0.5-0.5,0.9-1,1.6-1.4c-0.1-0.1-0.2-0.1-0.2-0.2
					c-2.8-2.2-2.9-6.5-0.2-8.8c0.8-0.7,1.6-1.4,2.3-2.2c0.6-0.6,1.2-1.2,1.8-1.8c0.1-0.1,0.1-0.2,0.1-0.2c0.4-1.5,0.5-3.1,0.3-4.7
					c-0.5-4-2.4-7.2-5.6-9.6c-3.1-2.2-6.5-3-10.3-2.5c-1.1,0.2-2.2,0.5-3.2,0.9c-0.2,0.1-0.2,0.1-0.1,0.3
					C52.8,15.7,52.9,15.9,53.1,16.1z"/>
				<path class="st1" d="M85.7,65c-0.2,0.2-0.2,0.3,0,0.5c1.1,1.1,2.3,2.2,3.4,3.4c1.4,1.4,3,2.1,5,2.3c0.2-0.1,0.4-0.1,0.6,0
					c0.9,0,1.7-0.2,2.5-0.6c4.7-2,5.9-8,2.2-11.7c-5.8-5.8-11.6-11.5-17.4-17.3c-0.1-0.1-0.2-0.2-0.4-0.2c-1.3,0-2.6,0-3.9,0
					c-0.2,0-0.3,0.1-0.4,0.2c-0.5,0.5-1,1-1.6,1.5c-0.6,0.5-1.1,1.1-1.8,1.4c-0.1,0.1-0.1,0.1,0,0.2c0.4,0.4,0.8,0.8,1.1,1.3
					c0.1,0.1,0.2,0.2,0.3,0.2c0.4-0.1,0.8,0,1.1,0c2.3,0.2,4.4,2.2,4.6,4.5c0,0.2,0.1,0.3,0.3,0.4c2.1,0.9,3.4,2.7,3.3,5
					c0,0.2,0.1,0.3,0.2,0.4c2.7,1.8,3.3,5.4,1.2,7.9C86,64.7,85.8,64.9,85.7,65z"/>
				<path class="st1" d="M94,71.1c0.2,0,0.4,0,0.6,0C94.4,71,94.2,71,94,71.1z"/>
				<path class="st1" d="M71.9,46.4c-1.1-0.7-2.4-0.5-3.3,0.3c-1.1,1.1-2.2,2.2-3.3,3.3c-1,1-1.1,2.5-0.3,3.5
					c0.8,1.1,2.2,1.4,3.4,0.8c0.3-0.1,0.5-0.3,0.9-0.4c-0.2,0.4-0.4,0.7-0.5,1c-0.7,1.7,0.5,3.5,2.3,3.7c0.7,0.1,1.3-0.1,1.8-0.4
					c0.1-0.1,0.3-0.2,0.5-0.1c-0.1,0.2-0.2,0.5-0.3,0.7c-0.5,1.1-0.4,2.3,0.5,3.1c0.8,0.8,2,1.1,3.1,0.6c0.3-0.1,0.6-0.3,0.9-0.4
					c-0.2,0.3-0.3,0.6-0.4,0.9c-0.3,0.6-0.3,1.3-0.1,2c0.6,1.9,3.2,2.6,4.7,0.9c1-1.1,2-2.2,2.8-3.4c1.3-1.6,0.2-4-1.9-4.2
					c-0.5-0.1-0.9,0-1.4,0.1c0.2-0.3,0.4-0.5,0.6-0.8c0.6-0.9,0.7-2.1,0.1-3c-0.6-0.9-1.7-1.4-2.8-1.2c-0.5,0.1-0.9,0.3-1.5,0.5
					c0.2-0.3,0.4-0.6,0.6-0.9c0.3-0.5,0.5-1.1,0.4-1.7c-0.1-1.1-0.7-1.9-1.8-2.3c-1.1-0.4-2.1-0.2-2.9,0.6c-0.3,0.3-0.6,0.6-1,1
					c-0.1,0.1-0.1,0.2-0.3,0.1c0.1-0.4,0.2-0.7,0.4-1.1C73.4,48.3,73,47.1,71.9,46.4z"/>
				<path class="st1" d="M98.7,49l0.1,5.6c0.1,0.1,0.2,0.2,0.3,0.2c0-2.1,0-4.2,0-6.3L98.7,49z"/>
				<path class="st1" d="M84.3,66.9h-1.7c-0.4,0.4-0.9,0.7-1.3,1c1.3,0,2.6,0,3.9,0L84.3,66.9z"/>
				<path class="st1" d="M99.1,54.8c5.4,4.5,6.9,12,1.4,17c-5.6,5.2-11.8-0.3-11.8-0.3l-3.4-3.6c-1.3,0-2.6,0-3.9,0
					c-2.5,1.6-4.2,0.9-5.2,0c-4.3,0-8.6,0-12.9,0c-3.6,0-19.6,0-23.2,0c0.7,3.9-5,9.5-13.3,12c0,0-0.9,0.4-2.2,1.8
					c4,0,25.5,0,29.5,0c1.1,0,1.2,0.1,1,1.3c-0.3,1.5-1.1,2.8-2.3,3.7c-1.3,1-2.8,1.5-4.4,1.7c-0.6,0.1-1.2,0.3-1.4,1
					c-0.5,1.8-0.4,3.4,2.1,3.4c9.5-0.1,19.1,0,28.6,0c0.3,0,0.6,0,0.9,0c0.8-0.1,1.3-0.5,1.4-1.4c0.3-2-0.2-2.7-2.1-3.1
					c-0.9-0.2-1.7-0.4-2.5-0.8c-1.9-0.9-3.2-2.4-3.7-4.4c-0.3-1.3-0.2-1.4,1.1-1.4c8.5,0,17,0,25.6,0c3.8,0,6.6-2.7,6.6-6.4
					c0-10.8,0-21.5,0-32.3l-5.5,5.5C99.1,50.6,99.1,52.7,99.1,54.8z M63.1,77.9c-1.7,0-3.1-1.5-3-3.2c0.1-1.6,1.5-3,3.1-3
					c1.7,0,3.1,1.5,3,3.1C66.2,76.6,64.8,77.9,63.1,77.9z"/>
				<path class="st1" d="M27.2,32c0-1.2,0-5.2,0-6.4c0-1.6,0.3-1.9,1.9-1.9c4.6,0,9.3,0,13.9,0c0.7-2.5,1.9-4.7,1.9-4.7l4,4.7
					c2.9,0,5.7,0,8.6,0L52,18.2c-7.9,0-15.8,0-23.6,0c-4,0-6.7,2.7-6.7,6.6c0,1.4,0,5.6,0,7C23.3,31.6,25.2,31.7,27.2,32z"/>
				<path class="st1" d="M92.3,23.7l2.9-3l9.5,8.5c0-1.6,0-3.1,0-4.7c0-2.9-1.8-5.3-4.5-6.1c-0.8-0.2-1.7-0.3-2.6-0.3
					c-8.9,0-17.8,0-26.8,0c1.6,1.8,2.4,4,2.7,5.5C79.8,23.7,86,23.7,92.3,23.7z"/>
			</g>
			<path class="st1" d="M46.3,53.5c0-7.1-1.6-13.4-5.4-17.3c-3.8-3.8-9.1-5.7-16-5.7c-6.9,0-12.2,1.9-16,5.7
				c-3.8,3.8-6.1,10.1-6.1,17.3c-1.3,0.8-2.2,2.3-2.2,4v5c0,2.5,1.9,4.6,4.3,4.6h3.1c3.1,9.1,10.9,14.6,16.7,14.6
				c5.8,0,13.6-5.5,16.7-14.6h3.1c2.4,0,4.3-2,4.3-4.6v-5C48.5,55.8,47.6,54.3,46.3,53.5z M24.5,78.5c-3.2,0-8.4-2.8-11.8-8.1
				c2.4,1.2,5,1.6,7.5,1.8c0.6,1.2,2.1,2,3.9,2c2.3,0,4.1-1.4,4.1-3.1c0-1.7-1.9-3.1-4.1-3.1c-1.7,0-3.1,0.8-3.8,1.9
				c-3.5-0.2-7.4-1.1-9.8-4.2c-0.6-2-1-4.2-1-6.6c0-1.4,0.1-1.9,0.9-3c0.7-0.8,1.5-1.6,2.3-2.3c1.5-1.4,3-3.5,4.2-5.2
				c1.9,0.6,3.9,1.9,5.8,2.2c2.1,0.3,3.9-0.1,5.1-0.5c2,0.5,3.8,0.8,4.9,1.8c-0.3-1.1,0-1-0.4-1.4c1.1,0.4,2.1,1,2.7,1.4
				c0.5,0.4,0.6,0.1,0.5-0.4c1.3,0.9,2.2,2.2,3.1,3.2c0.2,0.7,0.5,1.5,0.6,2.4c0.1,0.7,0.2,1.1,0.3,1.3c0,0.2,0,0.3,0,0.5
				C39.5,71.7,29.6,78.5,24.5,78.5z M42.1,53c-0.6-4.2-1.5-8.4-3.4-11c-3.1-4.2-7.7-6.4-13.8-6.4S14.1,37.8,11.1,42
				c-1.9,2.6-3.5,6.8-4.1,11H5.3c0.3-12.4,7.2-19.7,19.6-19.7S43.4,40.6,43.7,53H42.1z"/>
		</g>
	</g>
</g>
</svg>
