<?xml version="1.0" encoding="utf-8"?>
<!-- Generator: Adobe Illustrator 22.1.0, SVG Export Plug-In . SVG Version: 6.00 Build 0)  -->
<svg version="1.1" id="Layer_1" xmlns="http://www.w3.org/2000/svg" xmlns:xlink="http://www.w3.org/1999/xlink" x="0px" y="0px"
	 viewBox="0 0 107 107" style="enable-background:new 0 0 107 107;" xml:space="preserve">
<style type="text/css">
	.st0{fill:#FFFFFF;}
	.st1{fill:#D2DCD5;}
	.st2{fill:#6CA68B;}
</style>
<g>
	<g>
		<path class="st0" d="M9.6,69.7h87.8v3.6c0,2.5-2.1,4.6-4.6,4.6H14.2c-2.5,0-4.6-2.1-4.6-4.6V69.7z"/>
		<path class="st1" d="M97.8,68.6H9.3V29.5c0-5,4-9,9-9h70.5c5,0,9,4,9,9V68.6z"/>
		<g>
			<g>
				<path class="st2" d="M90.2,18.7H16.8c-5.4,0-9.8,4.4-9.8,9.8v40.2v1.8c0,5.4,4.4,9.8,9.8,9.8h23.8l-2.9,14.3h-9.3
					c-1,0-1.8,0.8-1.8,1.8c0,1,0.8,1.8,1.8,1.8h50.1c1,0,1.8-0.8,1.8-1.8c0-1-0.8-1.8-1.8-1.8h-9.3l-2.9-14.3h23.8
					c5.4,0,9.8-4.4,9.8-9.8v-1.8V28.5C100,23.1,95.6,18.7,90.2,18.7z M41.4,94.7l2.9-14.3h18.5l2.9,14.3L41.4,94.7L41.4,94.7z
					 M96.4,70.5c0,3.5-2.8,6.3-6.3,6.3H16.8c-3.5,0-6.3-2.8-6.3-6.3l0,0H96.4L96.4,70.5L96.4,70.5z M96.4,66.9H10.6V28.5
					c0-3.5,2.8-6.3,6.3-6.3h73.3c3.5,0,6.3,2.8,6.3,6.3L96.4,66.9L96.4,66.9z"/>
			</g>
		</g>
	</g>
	<g>
		<path class="st1" d="M34.6,23c-0.3-0.2,1-6.1,1-6.1l2.8-4.5c0,0,6.2-3.1,6.7-3.2c0.6-0.1,5.4-2,6.2-2c0.8,0,7.5-0.4,7.6,0
			s4.2,2.6,4.9,3c0.7,0.5,3.7,2.5,3.9,2.7c0.3,0.1,2.1,1.6,2.3,2.1s1.6,3,1.8,3.8s0.5,2.1,0.5,2.6c0,0.5,0.6,0.6-1.2,1.6
			c-1.8,0.9,1.5,0.6-5.3,1.9c-6.7,1.3-21.4,1.4-22.2,1.1C43,25.6,34.6,23,34.6,23z"/>
		<g>
			<path class="st2" d="M45.6,30.3c0-1.5,0-2.6,0-3.8c0-0.8,0.2-1,0.9-1.2c2.1-0.6,4.3-1.2,6.4-1.8c0.4-0.1,0.8-0.1,1.3,0
				c2.1,0.6,4.2,1.2,6.3,1.8c0.7,0.2,0.9,0.5,0.9,1.2c0,2.3,0,4.6,0,6.9c-0.1,4.3-3.2,8.3-7.3,9.6c-0.4,0.1-0.8,0.2-1.3,0
				c-4.1-1.5-6.5-4.4-7.2-8.7C45.4,32.9,45.6,31.4,45.6,30.3z"/>
			<g>
				<path class="st2" d="M39.9,33.5c0,2.4,0,4.7,0,7.1c0,1.2-0.4,2.2-1.5,2.9c-1.5,0.9-3.3,0.5-4.3-0.9c-0.3-0.5-0.7-0.6-1.2-0.6
					c-3.6-0.1-5.7-2.2-5.7-5.8c0-1.8,0-3.7,0-5.5c0-3.2,2.2-5.4,5.3-5.5c0.9,0,1-0.1,1-1.1c0.2-7.4,3.5-13.2,9.8-17.1
					C50.1,2.8,59,3.2,65.3,8c5.3,4,8,9.4,8.1,16c0,1,0.1,1.1,1,1.1c3.1,0.1,5.2,2.3,5.3,5.4c0,2,0,4,0,6c0,3-2.2,5.3-5.2,5.4
					c-1,0-1.1,0.1-1.2,1.1c-1,6.6-6.7,11.5-13.4,11.5c-0.2,0-0.4,0-0.7,0c-1-0.1-1.8,0.1-2.5,1c-1.2,1.6-5.1,1.6-6.5,0.2
					c-0.9-0.9-1.3-2-0.8-3.3c0.5-1.2,1.4-2,2.7-2.1c0.8-0.1,1.7,0,2.5,0c1.1,0.1,1.9,0.6,2.5,1.5c0.2,0.3,0.4,0.5,0.8,0.6
					c3,0.2,5.9-0.3,8.4-2.1c1.9-1.4,3.3-3.2,4.2-5.4c0.2-0.6,0.2-0.8-0.5-0.9c-1.9-0.3-2.9-1.5-3-3.4c0-4.7,0-9.4,0-14.2
					c0-2.1,1.4-3.5,3.5-3.4c0.5,0,0.7-0.1,0.7-0.7c-0.3-2.6-1-5-2.3-7.2c-0.2-0.4-0.4-0.5-0.8-0.3c-2.1,0.8-3.9,0.5-5.6-1
					c-4.9-4.3-12.2-4.6-17.3-0.6c-0.2,0.2-0.5,0.4-0.7,0.6c-1.6,1.5-3.4,1.8-5.5,1c-0.5-0.2-0.7-0.1-1,0.4c-1.3,2.2-2,4.6-2.3,7.1
					c-0.1,0.5,0.1,0.7,0.7,0.7c2.1-0.1,3.5,1.3,3.5,3.4C39.9,28.8,39.9,31.1,39.9,33.5z"/>
				<g>
					<path class="st0" d="M37.8,33.5c0,2.2,0,4.3,0,6.5c0,0.2,0,0.5,0,0.7c0,0.7-0.4,1.1-1,1.1c-0.6,0-1-0.4-1.1-1.2
						c0-1.4,0-2.7,0-4.1c0-3.2,0-6.4,0-9.6c0-0.3,0-0.5,0-0.8c0-0.7,0.4-1.1,1-1.1c0.6,0,1.1,0.4,1.1,1.2
						C37.8,28.7,37.7,31.1,37.8,33.5C37.7,33.5,37.7,33.5,37.8,33.5z"/>
					<path class="st0" d="M71.3,33.6c0,2.1,0,4.2,0,6.4c0,0.2,0,0.5,0,0.7c0,0.8-0.4,1.2-1.1,1.2c-0.6,0-1-0.4-1-1.2
						c0-4.8,0-9.5,0-14.3c0-0.8,0.4-1.2,1.1-1.2c0.6,0,1,0.4,1,1.2C71.3,28.7,71.3,31.1,71.3,33.6C71.3,33.6,71.3,33.6,71.3,33.6z"
						/>
					<path class="st0" d="M58.2,30.9c0,0.3-0.2,0.6-0.4,0.8c-1.5,1.5-3,3-4.5,4.5c-0.6,0.6-1.1,0.6-1.7,0c-0.7-0.7-1.4-1.4-2.1-2.1
						C49,33.6,49,33,49.4,32.6c0.4-0.4,1-0.3,1.5,0.1c0.4,0.3,0.7,0.7,1.1,1.1c0.4,0.4,0.6,0.4,1,0c1.1-1.1,2.2-2.3,3.4-3.4
						c0.3-0.3,0.5-0.5,0.9-0.5C57.8,29.9,58.3,30.3,58.2,30.9z"/>
				</g>
			</g>
		</g>
	</g>
	<g>
		<g>
			<path class="st2" d="M53.5,72.6c-0.7,0-1.2,0.5-1.2,1.2s0.5,1.2,1.2,1.2s1.2-0.5,1.2-1.2S54.2,72.6,53.5,72.6z"/>
		</g>
	</g>
</g>
</svg>
