<?xml version="1.0" encoding="utf-8"?>
<!-- Generator: Adobe Illustrator 22.1.0, SVG Export Plug-In . SVG Version: 6.00 Build 0)  -->
<svg version="1.1" id="Layer_1" xmlns="http://www.w3.org/2000/svg" xmlns:xlink="http://www.w3.org/1999/xlink" x="0px" y="0px"
	 viewBox="0 0 107 107" style="enable-background:new 0 0 107 107;" xml:space="preserve">
<style type="text/css">
	.st0{fill:#FFFFFF;}
	.st1{fill:#F8DFD9;}
	.st2{fill:#E07A5F;}
</style>
<path class="st0" d="M9.6,69.7h87.8v3.6c0,2.5-2.1,4.6-4.6,4.6H14.2c-2.5,0-4.6-2.1-4.6-4.6V69.7z"/>
<path class="st1" d="M97.8,68.6H9.3V29.5c0-5,4-9,9-9h70.5c5,0,9,4,9,9V68.6z"/>
<g>
	<g>
		<path class="st2" d="M90.2,18.7H16.8c-5.4,0-9.8,4.4-9.8,9.8v40.2v1.8c0,5.4,4.4,9.8,9.8,9.8h23.8l-2.9,14.3h-9.3
			c-1,0-1.8,0.8-1.8,1.8c0,1,0.8,1.8,1.8,1.8h50.1c1,0,1.8-0.8,1.8-1.8c0-1-0.8-1.8-1.8-1.8h-9.3l-2.9-14.3h23.8
			c5.4,0,9.8-4.4,9.8-9.8v-1.8V28.5C100,23.1,95.6,18.7,90.2,18.7z M41.4,94.7l2.9-14.3h18.5l2.9,14.3L41.4,94.7L41.4,94.7z
			 M96.4,70.5c0,3.5-2.8,6.3-6.3,6.3H16.8c-3.5,0-6.3-2.8-6.3-6.3l0,0H96.4L96.4,70.5L96.4,70.5z M96.4,66.9H10.6V28.5
			c0-3.5,2.8-6.3,6.3-6.3h73.3c3.5,0,6.3,2.8,6.3,6.3L96.4,66.9L96.4,66.9z"/>
	</g>
</g>
<g>
	<path class="st1" d="M48.8,23c-0.3-0.2,1-6.1,1-6.1l2.8-4.5c0,0,6.2-3.1,6.7-3.2c0.6-0.1,5.4-2,6.2-2s7.5-0.4,7.6,0s4.2,2.6,4.9,3
		c0.7,0.5,3.7,2.5,3.9,2.7c0.3,0.1,2.1,1.6,2.3,2.1s1.6,3,1.8,3.8s0.5,2.1,0.5,2.6c0,0.5,0.6,0.6-1.2,1.6c-1.8,0.9,1.5,0.6-5.3,1.9
		C73.5,26.2,58.8,26.3,58,26C57.1,25.6,48.8,23,48.8,23z"/>
	<g>
		<path class="st2" d="M59.7,30.3c0-1.5,0-2.6,0-3.8c0-0.8,0.2-1,0.9-1.2c2.1-0.6,4.3-1.2,6.4-1.8c0.4-0.1,0.8-0.1,1.3,0
			c2.1,0.6,4.2,1.2,6.3,1.8c0.7,0.2,0.9,0.5,0.9,1.2c0,2.3,0,4.6,0,6.9c-0.1,4.3-3.2,8.3-7.3,9.6c-0.4,0.1-0.8,0.2-1.3,0
			c-4.1-1.5-6.5-4.4-7.2-8.7C59.6,32.9,59.7,31.4,59.7,30.3z"/>
		<g>
			<path class="st2" d="M54,33.5c0,2.4,0,4.7,0,7.1c0,1.2-0.4,2.2-1.5,2.9c-1.5,0.9-3.3,0.5-4.3-0.9c-0.3-0.5-0.7-0.6-1.2-0.6
				c-3.6-0.1-5.7-2.2-5.7-5.8c0-1.8,0-3.7,0-5.5c0-3.2,2.2-5.4,5.3-5.5c0.9,0,1-0.1,1-1.1c0.2-7.4,3.5-13.2,9.8-17.1
				c6.7-4.2,15.7-3.7,22,1.1c5.3,4,8,9.4,8.1,16c0,1,0.1,1.1,1,1.1c3.1,0.1,5.2,2.3,5.3,5.4c0,2,0,4,0,6c0,3-2.2,5.3-5.2,5.4
				c-1,0-1.1,0.1-1.2,1.1c-1,6.6-6.7,11.5-13.4,11.5c-0.2,0-0.4,0-0.7,0c-1-0.1-1.8,0.1-2.5,1c-1.2,1.6-5.1,1.6-6.5,0.2
				c-0.9-0.9-1.3-2-0.8-3.3c0.5-1.2,1.4-2,2.7-2.1c0.8-0.1,1.7,0,2.5,0c1.1,0.1,1.9,0.6,2.5,1.5c0.2,0.3,0.4,0.5,0.8,0.6
				c3,0.2,5.9-0.3,8.4-2.1c1.9-1.4,3.3-3.2,4.2-5.4c0.2-0.6,0.2-0.8-0.5-0.9c-1.9-0.3-2.9-1.5-3-3.4c0-4.7,0-9.4,0-14.2
				c0-2.1,1.4-3.5,3.5-3.4c0.5,0,0.7-0.1,0.7-0.7c-0.3-2.6-1-5-2.3-7.2c-0.2-0.4-0.4-0.5-0.8-0.3c-2.1,0.8-3.9,0.5-5.6-1
				c-4.9-4.3-12.2-4.6-17.3-0.6c-0.2,0.2-0.5,0.4-0.7,0.6c-1.6,1.5-3.4,1.8-5.5,1c-0.5-0.2-0.7-0.1-1,0.4c-1.3,2.2-2,4.6-2.3,7.1
				C49.8,22.9,50,23,50.5,23c2.1-0.1,3.5,1.3,3.5,3.4C54,28.8,54,31.1,54,33.5z"/>
			<g>
				<path class="st0" d="M51.9,33.5c0,2.2,0,4.3,0,6.5c0,0.2,0,0.5,0,0.7c0,0.7-0.4,1.1-1,1.1c-0.6,0-1-0.4-1.1-1.2
					c0-1.4,0-2.7,0-4.1c0-3.2,0-6.4,0-9.6c0-0.3,0-0.5,0-0.8c0-0.7,0.4-1.1,1-1.1c0.6,0,1.1,0.4,1.1,1.2
					C51.9,28.7,51.9,31.1,51.9,33.5C51.9,33.5,51.9,33.5,51.9,33.5z"/>
				<path class="st0" d="M85.5,33.6c0,2.1,0,4.2,0,6.4c0,0.2,0,0.5,0,0.7c0,0.8-0.4,1.2-1.1,1.2c-0.6,0-1-0.4-1-1.2
					c0-4.8,0-9.5,0-14.3c0-0.8,0.4-1.2,1.1-1.2c0.6,0,1,0.4,1,1.2C85.5,28.7,85.5,31.1,85.5,33.6C85.5,33.6,85.5,33.6,85.5,33.6z"/>
				<path class="st0" d="M72.4,30.9c0,0.3-0.2,0.6-0.4,0.8c-1.5,1.5-3,3-4.5,4.5c-0.6,0.6-1.1,0.6-1.7,0c-0.7-0.7-1.4-1.4-2.1-2.1
					c-0.5-0.5-0.5-1.1-0.1-1.5c0.4-0.4,1-0.3,1.5,0.1c0.4,0.3,0.7,0.7,1.1,1.1c0.4,0.4,0.6,0.4,1,0c1.1-1.1,2.2-2.3,3.4-3.4
					c0.3-0.3,0.5-0.5,0.9-0.5C72,29.9,72.4,30.3,72.4,30.9z"/>
			</g>
		</g>
	</g>
</g>
<g>
	<g>
		<path class="st2" d="M53.5,72.6c-0.7,0-1.2,0.5-1.2,1.2s0.5,1.2,1.2,1.2s1.2-0.5,1.2-1.2S54.2,72.6,53.5,72.6z"/>
	</g>
</g>
<path class="st0" d="M16.8,59.7c0,0.6,0.5,1.1,1.1,1.1h15c0.6,0,1.1-0.5,1.1-1.1V49.2H16.8V59.7z"/>
<path class="st1" d="M34,44.6c0-0.6-0.5-1.1-1.1-1.1h-15c-0.6,0-1.1,0.5-1.1,1.1v2.7H34V44.6z"/>
<g>
	<path class="st2" d="M33.1,41.8H17.7c-1.5,0-2.7,1.2-2.7,2.7v15.4c0,1.5,1.2,2.7,2.7,2.7h15.4c1.5,0,2.7-1.2,2.7-2.7V44.5
		C35.8,43,34.6,41.8,33.1,41.8z M16.8,44.6c0-0.6,0.5-1.1,1.1-1.1h15c0.6,0,1.1,0.5,1.1,1.1v2.7H16.8V44.6z M34,59.7
		c0,0.6-0.5,1.1-1.1,1.1h-15c-0.6,0-1.1-0.5-1.1-1.1V49.2H34V59.7z"/>
	<g>
		<path class="st2" d="M29,45.8L29,45.8c-0.5,0-0.9-0.4-0.9-0.9v-4.4c0-0.5,0.4-0.9,0.9-0.9h0c0.5,0,0.9,0.4,0.9,0.9V45
			C29.9,45.4,29.5,45.8,29,45.8z"/>
		<path class="st2" d="M21.8,45.8L21.8,45.8c-0.5,0-0.9-0.4-0.9-0.9v-4.4c0-0.5,0.4-0.9,0.9-0.9l0,0c0.5,0,0.9,0.4,0.9,0.9V45
			C22.7,45.4,22.3,45.8,21.8,45.8z"/>
	</g>
</g>
<path class="st2" d="M24.1,58.4c-0.3,0-0.5-0.1-0.8-0.3c-0.8-0.9-1.7-1.7-2.6-2.6c-0.4-0.5-0.5-1-0.1-1.4c0.4-0.4,1-0.4,1.4,0
	c0.5,0.5,1,1,1.6,1.5c0.4,0.4,0.4,0.4,0.8,0c1.4-1.4,2.8-2.8,4.2-4.2c0.6-0.6,1.3-0.5,1.6,0.1c0.2,0.4,0.2,0.9-0.3,1.3
	c-1.4,1.5-2.9,2.9-4.4,4.4c-0.3,0.3-0.6,0.6-0.9,0.9C24.6,58.3,24.3,58.4,24.1,58.4z"/>
</svg>
