<?xml version="1.0" encoding="utf-8"?>
<!-- Generator: Adobe Illustrator 22.1.0, SVG Export Plug-In . SVG Version: 6.00 Build 0)  -->
<svg version="1.1" id="Layer_1" xmlns="http://www.w3.org/2000/svg" xmlns:xlink="http://www.w3.org/1999/xlink" x="0px" y="0px"
	 viewBox="0 0 107 107" style="enable-background:new 0 0 107 107;" xml:space="preserve">
<style type="text/css">
	.st0{fill:#FF5224;}
</style>
<g>
	<path class="st0" d="M53.5,7C27.8,7,7,27.8,7,53.5C7,79.2,27.8,100,53.5,100S100,79.2,100,53.5C100,27.8,79.2,7,53.5,7z M53.5,90.8
		c-20.6,0-37.3-16.7-37.3-37.3s16.7-37.3,37.3-37.3s37.3,16.7,37.3,37.3S74.1,90.8,53.5,90.8z"/>
	<path class="st0" d="M53.5,25.2c-15.6,0-28.3,12.7-28.3,28.3s12.7,28.3,28.3,28.3s28.3-12.7,28.3-28.3S69.1,25.2,53.5,25.2z
		 M53.5,71.5c-10,0-18-8.1-18-18s8.1-18,18-18s18,8.1,18,18S63.5,71.5,53.5,71.5z"/>
	<circle class="st0" cx="53.5" cy="53.5" r="9.4"/>
</g>
</svg>
