<?xml version="1.0" encoding="utf-8"?>
<!-- Generator: Adobe Illustrator 22.1.0, SVG Export Plug-In . SVG Version: 6.00 Build 0)  -->
<svg version="1.1" id="Layer_1" xmlns="http://www.w3.org/2000/svg" xmlns:xlink="http://www.w3.org/1999/xlink" x="0px" y="0px"
	 viewBox="0 0 107 107" style="enable-background:new 0 0 107 107;" xml:space="preserve">
<style type="text/css">
	.st0{fill:#FFB7C1;}
	.st1{fill:#FE4A65;}
</style>
<g>
	<g>
		<path class="st0" d="M48,57.2c-0.4,0.2-0.8,0.5-1.2,0.7c-0.8,0.4-1.7,0.5-2.4,0.5c-1.9,0-3.5-1-4.4-2.8c-1.3-2.5-0.4-5.3,2.2-6.8
			c3.2-1.9,6.4-3.8,9.6-5.6l4.2-2.4c7.3-4.2,14.6-8.4,22-12.7C70,17.5,57.5,10.7,43.4,10.7c-23.7,0-42.9,19.2-42.9,42.9
			c0,23.7,19.2,42.9,42.9,42.9s42.9-19.2,42.9-42.9c0-5.9-1.2-11.5-3.3-16.6c-8.5,4.9-16.9,9.8-25.4,14.7L48,57.2z"/>
	</g>
	<path class="st1" d="M92.8,31.2c-0.4-0.1-0.8,0-1.1-0.2c-2.4-1.3-4.4-0.2-6.4,1C72.5,39.5,59.6,47,46.7,54.4
		c-0.4,0.2-0.7,0.4-1.1,0.6c-1.2,0.5-2.3,0.5-3-0.9c-0.6-1.2-0.1-2.2,1-2.8c3.2-1.9,6.4-3.8,9.6-5.6C63.8,39.6,74.4,33.5,85,27.4
		c1.2-0.7,1.9-1.6,2.1-3c0.2-1.9,1.2-3,2.9-3.8c3.4-1.8,6.7-3.8,10.1-5.7c0.4-0.2,0.9-0.7,1.3-0.4c0.5,0.3,0.2,1,0.1,1.5
		c-0.2,1.4-0.5,2.7-0.7,4.1c-0.2,1,0.1,1.6,1.2,1.8c1.3,0.3,2.7,0.7,4,1c0.3,0.1,0.7,0.1,0.7,0.5c0,0.2-0.3,0.4-0.5,0.6
		c-4,2.3-8.1,4.7-12.1,7C93.6,31.1,93.1,31.1,92.8,31.2z"/>
	<g>
		<path class="st1" d="M77.8,53.6c0,19-15.4,34.4-34.4,34.4S9,72.6,9,53.6s15.4-34.4,34.4-34.4c11,0,20.7,5.1,27,13.2
			c2.5-1.4,4.9-2.9,7.4-4.3C70,17.5,57.5,10.7,43.4,10.7c-23.7,0-42.9,19.2-42.9,42.9c0,23.7,19.2,42.9,42.9,42.9
			s42.9-19.2,42.9-42.9c0-5.9-1.2-11.5-3.3-16.6c-2.5,1.4-5,2.9-7.4,4.3C77,45.1,77.8,49.2,77.8,53.6z"/>
		<path class="st1" d="M60,53.6c0,9.2-7.4,16.6-16.6,16.6s-16.6-7.4-16.6-16.6s7.4-16.6,16.6-16.6c4.4,0,8.3,1.7,11.3,4.5l1-0.6
			c2.5-1.4,5-2.9,7.5-4.3c-4.8-5.5-11.8-9.1-19.7-9.1c-14.4,0-26.1,11.7-26.1,26.1S29,79.6,43.4,79.6S69.5,68,69.5,53.6
			c0-2.8-0.5-5.5-1.3-8.1c-2.8,1.6-5.6,3.3-8.5,4.9C59.9,51.4,60,52.5,60,53.6z"/>
		<path class="st1" d="M46.7,57.8c-0.8,0.4-1.7,0.5-2.4,0.5c-1.9,0-3.5-1-4.4-2.8c-1.3-2.5-0.4-5.3,2.2-6.8c1.7-1,3.4-2,5.1-3
			c-1.1-0.6-2.4-0.9-3.8-0.9c-4.8,0-8.7,3.9-8.7,8.7s3.9,8.7,8.7,8.7c4.3,0,7.9-3.2,8.6-7.4l-4,2.3C47.7,57.4,47.2,57.6,46.7,57.8z"
			/>
	</g>
</g>
</svg>
