<?xml version="1.0" encoding="utf-8"?>
<!-- Generator: Adobe Illustrator 22.1.0, SVG Export Plug-In . SVG Version: 6.00 Build 0)  -->
<svg version="1.1" id="Layer_1" xmlns="http://www.w3.org/2000/svg" xmlns:xlink="http://www.w3.org/1999/xlink" x="0px" y="0px"
	 viewBox="0 0 107 107" style="enable-background:new 0 0 107 107;" xml:space="preserve">
<style type="text/css">
	.st0{fill:#FE4A65;}
	.st1{fill:#FFE5E9;}
	.st2{fill:#FFFFFF;}
</style>
<g>
	<g>
		<path class="st0" d="M96.6,17.8H20.2c-1.9,0-3.4,1.5-3.4,3.4v6.6c0,1,0.8,1.7,1.7,1.7l0,0c1,0,1.7-0.8,1.7-1.7v-4.5
			c0-1.2,0.9-2.1,2.1-2.1h72c1.2,0,2.1,0.9,2.1,2.1v50c0,1.2-0.9,2.1-2.1,2.1H52.1c-1,0-1.7,0.8-1.7,1.7l0,0c0,1,0.8,1.7,1.7,1.7
			h44.5c1.9,0,3.4-1.5,3.4-3.4V21.2C100,19.3,98.5,17.8,96.6,17.8z"/>
		<path class="st1" d="M94.4,21.3h-72c-1.2,0-2.1,0.9-2.1,2.1v35.7L32.8,67l11.9-2.7c0,1.2,1.1,6.3,2.3,6.3l-8.3,4.9h55.8
			c1.2,0,2.1-0.9,2.1-2.1v-50C96.5,22.3,95.6,21.3,94.4,21.3z"/>
	</g>
	<g>
		<path class="st1" d="M25.5,44.8c0-3.7-3-6.6-6.7-6.6c-3.7,0-6.6,3-6.5,6.7c0,3.7,3.1,6.6,6.8,6.5C22.6,51.4,25.5,48.5,25.5,44.8z"
			/>
	</g>
	<path class="st0" d="M18.8,54.8c0.1,0,0.3,0,0.3,0c5.2,0.1,9.8-4.6,9.8-10c0-5.6-4.4-10-10.1-10h-0.1c-5.5,0.1-9.8,4.4-9.8,9.9
		C8.9,50.4,13.1,54.6,18.8,54.8z M18.8,38.2c3.7,0,6.7,2.9,6.7,6.6c0,3.6-2.9,6.6-6.4,6.7c-3.7,0.1-6.8-2.9-6.8-6.5
		C12.2,41.2,15.1,38.3,18.8,38.2z"/>
	<g>
		<path class="st1" d="M70.7,81.6c0,0.7,0.5,1.2,1.2,1.2h16.5c0.7,0,1.2-0.5,1.2-1.2V70.1H70.7V81.6z"/>
		<path class="st2" d="M89.6,65.2c0-0.7-0.5-1.2-1.2-1.2H71.9c-0.7,0-1.2,0.5-1.2,1.2v3h18.9C89.6,68.2,89.6,65.2,89.6,65.2z"/>
		<g>
			<g>
				<path class="st0" d="M88.5,62H71.7c-1.6,0-3,1.3-3,3v16.8c0,1.6,1.3,3,3,3h16.8c1.6,0,3-1.3,3-3V65C91.5,63.3,90.2,62,88.5,62z
					 M70.7,65.2c0-0.7,0.5-1.2,1.2-1.2h16.5c0.7,0,1.2,0.5,1.2,1.2v3H70.7V65.2z M89.6,81.6c0,0.7-0.5,1.2-1.2,1.2H71.9
					c-0.7,0-1.2-0.5-1.2-1.2V70.1h18.9C89.6,70.1,89.6,81.6,89.6,81.6z"/>
				<g>
					<path class="st0" d="M84.1,66.5L84.1,66.5c-0.5,0-1-0.4-1-1v-4.8c0-0.5,0.4-1,1-1l0,0c0.5,0,1,0.4,1,1v4.8
						C85,66,84.6,66.5,84.1,66.5z"/>
					<path class="st0" d="M76.2,66.5L76.2,66.5c-0.5,0-1-0.4-1-1v-4.8c0-0.5,0.4-1,1-1l0,0c0.5,0,1,0.4,1,1v4.8
						C77.2,66,76.7,66.5,76.2,66.5z"/>
				</g>
			</g>
			<path class="st0" d="M78.6,80.2c-0.3,0-0.6-0.1-0.8-0.4C76.9,78.9,76,78,75,77.1c-0.5-0.5-0.5-1.1-0.1-1.6c0.4-0.4,1.1-0.4,1.6,0
				c0.6,0.6,1.1,1.1,1.7,1.7c0.4,0.4,0.4,0.4,0.9,0c1.5-1.5,3-3,4.6-4.6c0.6-0.6,1.4-0.6,1.8,0.1c0.3,0.4,0.2,0.9-0.3,1.4
				c-1.6,1.6-3.2,3.2-4.8,4.8c-0.3,0.3-0.6,0.6-1,1C79.2,80.1,79,80.3,78.6,80.2z"/>
		</g>
	</g>
	<g>
		<path class="st0" d="M61.5,51.3c1.1-1.2,1.5-2.4-0.1-3.4c-1.2-0.8-2,0.1-2.7,0.9c-3.8,4.2-7.5,8.3-11.2,12.5
			c-1.1,1.3-2.1,2.3-4,1.4c-1.3-0.6-2.7-0.2-4,0.2c-2.1,0.7-4.2,1.3-6.2,2.1c-1.8,0.7-2.7,0.5-3.6-1.5c-2-4.4-6.3-6.8-10.8-6.7
			c-0.9,0-1.7,0.1-2.6,0.3c-5.5,1.3-9.1,6-9.1,11.8c0,3.7,0,7.4,0,11.1l0,0c0,4.2,0,2.2,0,6.4c0,1,0.2,2,1.3,2.5
			c0.6,0.3,1.2,0.2,1.7-0.2c0.9-0.6,0.9-1.5,0.9-2.5c0-4.5-0.1-2.8,0-7.3c0.1-4.2-0.5-8.4,0.5-12.5c0.8-3.3,3.4-5.5,6.3-5.8
			c3.8-0.4,7,1.2,8.4,4.2c0.4,0.8,0.9,1.7-0.1,2.4c-1.1,0.7-2,1.5-1.2,2.9c0.9,1.4,2.1,0.9,3.3,0.5c4.1-1.4,8.2-2.7,12.3-4.1
			c1.6-0.6,3.2-0.6,3.8,1.2c0.7,1.9-0.7,2.7-2.3,3.3c-4.5,1.5-8.9,2.9-13.4,4.4c-1.5,0.5-2.8,0.3-3.9-0.8c-1.8-1.7-3.6-3.3-5.4-4.8
			c-0.9-0.7-2-0.9-2.8,0.1c-0.9,1.1-0.4,2,0.5,2.8c2,1.8,3.9,3.6,5.9,5.4c1.8,1.5,3.8,2.1,6.1,1.4c1.6-0.5,3.3-1.1,4.9-1.6
			c3.4-1.1,6.8-2.2,10.2-3.4c3-1,4.4-3.1,4.3-6.2c-0.1-1.6,0.5-2.7,1.5-3.8C53.6,60.2,57.5,55.7,61.5,51.3z"/>
		<path class="st0" d="M28.9,89.1L28.9,89.1c-1.1,0-1.9-0.9-1.9-1.9v-2.4c0-1.1,0.9-1.9,1.9-1.9l0,0c1.1,0,1.9,0.9,1.9,1.9v2.4
			C30.9,88.2,30,89.1,28.9,89.1z"/>
	</g>
</g>
</svg>
