<?xml version="1.0" encoding="utf-8"?>
<!-- Generator: Adobe Illustrator 22.1.0, SVG Export Plug-In . SVG Version: 6.00 Build 0)  -->
<svg version="1.1" id="Layer_1" xmlns="http://www.w3.org/2000/svg" xmlns:xlink="http://www.w3.org/1999/xlink" x="0px" y="0px"
	 viewBox="0 0 107 107" style="enable-background:new 0 0 107 107;" xml:space="preserve">
<style type="text/css">
	.st0{fill:#CDE0D7;}
	.st1{fill:#81B29A;}
</style>
<g>
	<g>
		<path class="st0" d="M46.5,82.5c0.9-0.2,1.7-0.2,2.6-0.2c14.2,0,28.3,0,42.5,0c3.2,0,3.2,0,3.2-3.2c0-11,0-21.9,0-32.9L89.5,51
			c0,0-10-2.2-10.4-2.3c-0.4-0.1-7.3-9.4-7.8-9.6c-0.5-0.1-3-5.9-3-5.9c0-0.3-0.1-4.3-0.1-7c-16.6,0-33.3,0-49.9,0
			c-2.5,0-3.4,0.7-3.1,3.1c0.1,1.1,0.1,2.2-0.1,3.3c-0.1,1-0.8,1.8-1.9,1.8c-0.1,0-0.1,0-0.2,0v4c0,0,0.1,0,0.1,0
			c6.8,0,12.2,5.3,12.2,12.1c0,6.5-5.5,12.2-11.8,12.1c-0.2,0-0.3,0-0.5,0c0,0.2,0,0.4,0,0.6c4.8-0.1,9.3,2.4,11.4,7
			c1,2,1.9,2.3,3.8,1.5c2.1-0.9,4.4-1.5,6.6-2.2c1.4-0.5,2.9-0.8,4.2-0.2c2,0.9,3-0.1,4.2-1.5c3.9-4.4,7.9-8.8,11.9-13.2
			c0.8-0.9,1.7-1.7,2.9-0.9c1.7,1.1,1.2,2.3,0.1,3.6c-4.2,4.6-8.3,9.3-12.5,13.9c-1.1,1.2-1.7,2.4-1.6,4c0.1,3.3-1.4,5.5-4.6,6.6
			c-3.6,1.2-7.2,2.4-10.8,3.6l16-0.3c-0.1-0.2-0.1-0.4-0.2-0.7C44.5,83.4,45.3,82.7,46.5,82.5z"/>
		<path class="st0" d="M21.3,50.5c0-4.5-3.7-8-8.2-8c-4.5,0-8,3.6-7.9,8.2c0,4.4,3.8,8,8.2,7.9C17.8,58.5,21.3,54.9,21.3,50.5z"/>
	</g>
	<g>
		<path class="st1" d="M58.1,57.4c1.1-1.3,1.6-2.5-0.1-3.6c-1.2-0.8-2.1,0.1-2.9,0.9c-4,4.4-7.9,8.8-11.9,13.2
			c-1.2,1.3-2.2,2.4-4.2,1.5c-1.3-0.6-2.8-0.2-4.2,0.2c-2.2,0.7-4.4,1.3-6.6,2.2c-1.9,0.8-2.9,0.5-3.8-1.5c-2.2-4.6-6.6-7.2-11.4-7
			c-0.9,0-1.8,0.1-2.8,0.3C4.5,65,0.6,70,0.7,76.1c0,3.9,0,7.8,0,11.8c0,0,0,0,0,0c0,4.4,0,2.3,0,6.7c0,1.1,0.2,2.1,1.3,2.6
			c0.6,0.3,1.2,0.2,1.8-0.2c0.9-0.7,0.9-1.6,0.9-2.6c0-4.7-0.1-3,0-7.7c0.1-4.4-0.6-8.8,0.5-13.2c0.8-3.4,3.6-5.8,6.6-6.1
			c4-0.4,7.3,1.2,8.9,4.4c0.4,0.9,1,1.8-0.2,2.5c-1.1,0.8-2.2,1.6-1.2,3.1c0.9,1.4,2.2,0.9,3.4,0.5c4.3-1.4,8.7-2.8,13-4.3
			c1.7-0.6,3.3-0.6,4,1.3c0.7,2-0.7,2.9-2.4,3.4c-4.7,1.6-9.4,3.1-14.1,4.7c-1.6,0.6-2.9,0.3-4.2-0.9c-1.9-1.8-3.8-3.5-5.7-5.1
			c-0.9-0.8-2.1-0.9-3,0.1c-0.9,1.1-0.4,2.1,0.5,2.9c2.1,1.9,4.1,3.8,6.2,5.7c1.9,1.6,4,2.2,6.5,1.4c1.7-0.6,3.5-1.1,5.2-1.7
			c3.6-1.2,7.2-2.4,10.8-3.6c3.1-1.1,4.7-3.3,4.6-6.6c-0.1-1.7,0.5-2.8,1.6-4C49.9,66.8,54,62.1,58.1,57.4z"/>
		<path class="st1" d="M13.1,62.7c0.2,0,0.3,0,0.5,0c6.3,0.1,11.8-5.6,11.8-12.1c0-6.8-5.4-12.1-12.2-12.1c0,0-0.1,0-0.1,0
			C6.3,38.6,1.1,43.9,1.1,50.6C1.1,57.3,6.2,62.4,13.1,62.7z M13.1,42.5c4.5,0,8.1,3.5,8.2,8c0,4.4-3.5,8-7.9,8.1
			c-4.5,0.1-8.2-3.5-8.2-7.9C5.1,46.1,8.6,42.6,13.1,42.5z"/>
		<path class="st1" d="M23.6,89.7c-2.5,0-1.7,2.3-1.9,3.5c0,0.8,0,1.3,0,1.7c0,1.3,0.5,2.4,2,2.4c1.4,0,1.8-1.1,2-2.2
			c0.1-0.5,0.1-0.9,0-1.4C25.6,92.1,26.1,89.7,23.6,89.7z"/>
		<path class="st1" d="M104.7,29c0-5.9-1.5-11.2-4.8-14.4c-3.3-3.2-8.1-4.8-14.3-4.8c-6.1,0-10.9,1.6-14.3,4.8
			c-2,1.9-3.5,4.5-4.4,7.6c-4,0-7.9,0-11.9,0c-9.9,0-19.8,0-29.8,0c-3.7,0-7.4,0-11,0c-1.4,0-2.8,0.3-2.9,1.9
			c-0.2,2.9-0.1,5.8,0,8.6c0,1,0.7,1.6,1.7,1.7c0.1,0,0.1,0,0.2,0c1.2,0,1.8-0.8,1.9-1.8c0.2-1.1,0.2-2.2,0.1-3.3
			c-0.3-2.4,0.6-3.1,3.1-3.1c15.9,0.1,31.8,0.1,47.8,0c-0.1,0.9-0.2,1.8-0.2,2.8c-1.2,0.6-2,1.9-2,3.3v4.2c0,2.1,1.7,3.8,3.8,3.8
			h2.8c2.7,7.6,9.7,12.2,14.8,12.2c2.9,0,6.5-1.5,9.5-4.2c0,10.3,0,20.5,0,30.8c0,3.2,0,3.2-3.2,3.2c-14.2,0-28.3,0-42.5,0
			c-0.9,0-1.8,0-2.6,0.2c-1.1,0.2-1.9,0.9-1.9,2.1c0,0.3,0.1,0.5,0.2,0.7c0.3,0.7,0.9,1,1.7,1.2c0.7,0.1,1.4,0.1,2.1,0.1
			c15.4,0,30.7,0,46.1,0c3.6,0,4.1-0.5,4.1-4.2c0-13.1,0-26.2,0-39.3c0.5-0.9,0.9-1.9,1.3-2.9h2.8c2.1,0,3.8-1.7,3.8-3.8v-4.2
			C106.7,30.9,105.9,29.6,104.7,29z M85.3,49.8c-2.9,0-7.5-2.3-10.5-6.7c2.1,1,4.5,1.4,6.7,1.5c0.5,1,1.9,1.7,3.4,1.7
			c2,0,3.7-1.2,3.7-2.6c0-1.4-1.7-2.6-3.7-2.6c-1.5,0-2.8,0.6-3.4,1.6c-3.1-0.2-6.6-0.9-8.7-3.5c-0.6-1.7-0.9-3.5-0.9-5.5
			c0-1.1,0.1-1.6,0.8-2.5c0.6-0.7,1.3-1.3,2-2c1.3-1.1,2.6-2.9,3.8-4.3c1.7,0.5,3.5,1.6,5.1,1.8c1.9,0.3,3.4-0.1,4.6-0.4
			c1.8,0.4,3.4,0.7,4.4,1.5c-0.2-0.9,0-0.8-0.4-1.2c0.9,0.4,1.8,0.8,2.4,1.2c0.5,0.3,0.5,0.1,0.5-0.3c1.2,0.8,1.9,1.8,2.7,2.7
			c0.2,0.6,0.4,1.3,0.5,2c0.1,0.6,0.2,0.9,0.3,1.1c0,0.1,0,0.3,0,0.4C98.6,44.1,89.8,49.8,85.3,49.8z M100.9,28.5
			c-0.5-3.5-1.4-7-3.1-9.2c-2.7-3.5-6.9-5.3-12.3-5.3s-9.6,1.8-12.3,5.3c-1.7,2.2-3.2,5.7-3.7,9.2h-1.5c0.2-10.3,6.5-16.4,17.4-16.4
			s16.6,6.1,16.8,16.4H100.9z"/>
	</g>
</g>
</svg>
