<?xml version="1.0" encoding="utf-8"?>
<!-- Generator: Adobe Illustrator 22.1.0, SVG Export Plug-In . SVG Version: 6.00 Build 0)  -->
<svg version="1.1" id="Layer_1" xmlns="http://www.w3.org/2000/svg" xmlns:xlink="http://www.w3.org/1999/xlink" x="0px" y="0px"
	 viewBox="0 0 107 107" style="enable-background:new 0 0 107 107;" xml:space="preserve">
<style type="text/css">
	.st0{fill:#845DB7;}
	.st1{fill:#ECE0FC;}
</style>
<g>
	<path class="st0" d="M96.6,17.8H20.2c-1.9,0-3.4,1.5-3.4,3.4v6.6c0,1,0.8,1.7,1.7,1.7l0,0c1,0,1.7-0.8,1.7-1.7v-4.5
		c0-1.2,0.9-2.1,2.1-2.1h72c1.2,0,2.1,0.9,2.1,2.1v50c0,1.2-0.9,2.1-2.1,2.1H52.1c-1,0-1.7,0.8-1.7,1.7l0,0c0,1,0.8,1.7,1.7,1.7
		h44.5c1.9,0,3.4-1.5,3.4-3.4V21.2C100,19.3,98.5,17.8,96.6,17.8z"/>
	<path class="st1" d="M94.4,21.3h-72c-1.2,0-2.1,0.9-2.1,2.1v35.7L32.8,67l11.9-2.7c0,1.2,1.1,6.3,2.3,6.3l-8.3,4.9h55.8
		c1.2,0,2.1-0.9,2.1-2.1v-50C96.5,22.3,95.6,21.3,94.4,21.3z"/>
	<g>
		<path class="st1" d="M25.7,44.8c0-3.7-3.1-6.8-6.9-6.8c-3.8,0-6.8,3-6.7,6.9c0,3.7,3.2,6.8,7,6.7C22.7,51.6,25.7,48.5,25.7,44.8z"
			/>
	</g>
	<path class="st0" d="M18.8,55.1c0.1,0,0.3,0,0.4,0c5.4,0.1,10-4.7,10-10.3c0-5.7-4.6-10.3-10.4-10.3h-0.1
		c-5.6,0.1-10.1,4.6-10.1,10.2C8.6,50.5,12.9,54.8,18.8,55.1z M18.8,38c3.8,0,6.9,2.9,6.9,6.8c0,3.7-2.9,6.8-6.6,6.9
		c-3.7,0.1-7-2.9-7-6.7C12,41.1,15,38.1,18.8,38z"/>
	<g>
		<path class="st0" d="M61.5,51.3c1.1-1.2,1.5-2.4-0.1-3.4c-1.2-0.8-2,0.1-2.7,0.9c-3.8,4.2-7.5,8.3-11.2,12.5
			c-1.1,1.3-2.1,2.3-4,1.4c-1.3-0.6-2.7-0.2-4,0.2c-2.1,0.7-4.2,1.3-6.2,2.1c-1.8,0.7-2.7,0.5-3.6-1.5c-2-4.4-6.3-6.8-10.8-6.7
			c-0.9,0-1.7,0.1-2.6,0.3c-5.5,1.3-9.1,6-9.1,11.8c0,3.7,0,7.4,0,11.1l0,0c0,4.2,0,2.2,0,6.4c0,1,0.2,2,1.3,2.5
			c0.6,0.3,1.2,0.2,1.7-0.2c0.9-0.6,0.9-1.5,0.9-2.5c0-4.5-0.1-2.8,0-7.3c0.1-4.2-0.5-8.4,0.5-12.5c0.8-3.3,3.4-5.5,6.3-5.8
			c3.8-0.4,7,1.2,8.4,4.2c0.4,0.8,0.9,1.7-0.1,2.4c-1.1,0.7-2,1.5-1.2,2.9c0.9,1.4,2.1,0.9,3.3,0.5c4.1-1.4,8.2-2.7,12.3-4.1
			c1.6-0.6,3.2-0.6,3.8,1.2c0.7,1.9-0.7,2.7-2.3,3.3c-4.5,1.5-8.9,2.9-13.4,4.4c-1.5,0.5-2.8,0.3-3.9-0.8c-1.8-1.7-3.6-3.3-5.4-4.8
			c-0.9-0.7-2-0.9-2.8,0.1c-0.9,1.1-0.4,2,0.5,2.8c2,1.8,3.9,3.6,5.9,5.4c1.8,1.5,3.8,2.1,6.1,1.4c1.6-0.5,3.3-1.1,4.9-1.6
			c3.4-1.1,6.8-2.2,10.2-3.4c3-1,4.4-3.1,4.3-6.2c-0.1-1.6,0.5-2.7,1.5-3.8C53.6,60.2,57.5,55.7,61.5,51.3z"/>
		<path class="st0" d="M28.9,89.1L28.9,89.1c-1.1,0-1.9-0.9-1.9-1.9v-2.4c0-1.1,0.9-1.9,1.9-1.9l0,0c1.1,0,1.9,0.9,1.9,1.9v2.4
			C30.9,88.2,30,89.1,28.9,89.1z"/>
	</g>
</g>
</svg>
