<?xml version="1.0" encoding="utf-8"?>
<!-- Generator: Adobe Illustrator 22.1.0, SVG Export Plug-In . SVG Version: 6.00 Build 0)  -->
<svg version="1.1" id="Layer_1" xmlns="http://www.w3.org/2000/svg" xmlns:xlink="http://www.w3.org/1999/xlink" x="0px" y="0px"
	 viewBox="0 0 107 107" style="enable-background:new 0 0 107 107;" xml:space="preserve">
<style type="text/css">
	.st0{fill:#D2DCD5;}
	.st1{fill:#5F7268;}
</style>
<g>
	<g>
		<path class="st0" d="M41,74.5c-0.3-0.1-0.5-0.2-0.8-0.3c-1.9,0.7-4,1.2-6.2,1.2c0,0-0.1,0-0.1,0c-1.8,0-3.5-0.3-5.1-0.8
			c-0.1,0.2-0.1,0.3-0.2,0.5c-1.6,4.7-3.2,9.5-4.9,14.3c-0.4,1.2-0.8,2.3-1.1,3.5c-0.4,1.6,0.1,2.5,1.6,3c1.2,0.4,2.4,0.8,3.5,1.2
			c0.7,0.3,1.2,0.1,1.6-0.5c1.2-1.7,3-2.4,5.1-2.4c0.8,0.3,1.2-0.1,1.5-0.9c1.9-5.8,3.9-11.5,5.9-17.3C42,75.2,41.8,74.7,41,74.5z"
			/>
		<path class="st0" d="M83.9,92.6c-0.1-0.4-0.2-0.8-0.3-1.2c-0.1-0.8,0.3-1.4,1.1-1.7c0.1,0,0.1,0,0.2,0l0,0l-0.7-4.7l0,0
			c-0.1,0-0.2,0.1-0.3,0.1c-1-0.1-1.5-0.6-1.5-1.5c0-0.8,0.4-1.3,1-1.5l0,0l-1.2-3.2c-0.8,0.3-1.5,0.1-1.9-0.6
			c-2.4-3.9-5.7-7.1-8.5-10.7c-0.3-0.3-0.5-0.6-0.8-1c-1.4-1.7-1.3-2.1,0.4-3.5c0.8-0.7,1.3-1.5,1.5-2.6c0.9-5.9,1.8-11.8,2.7-17.7
			c0.4-2.8,0.8-5.6,1.3-8.3c0.6-3.6-0.7-6.6-3.6-7.9c-3.7-1.6-7-1.4-9.7,1.4c-1.3,1.4-2.7,2.8-4.2,4.1c2.3,2,3.9,4.7,4.4,7.8
			c0.1,0.5,0.1,1,0.2,1.5l0,0.5c0,0.1,0,0.3,0,0.4c0,4.3-2.1,8.2-5.3,10.7c-0.2,1.5-0.4,2.9-0.7,4.4c-0.4,2.3,0.1,4,2.3,5.2
			c1.7,0.9,2.6,2.8,3.9,4.3c3.2,3.8,6.4,7.7,9.7,11.6c0.8,0.9,1.3,1.9,1.6,3c1.6,6.2,3.2,12.5,4.9,18.7c0.2,0.6,0.3,1.2,0.5,1.7
			c0.6,1.3,1.9,1.9,3.2,1.4c1.3-0.5,2.1-1.7,1.8-3C85.2,97.5,84.6,95.1,83.9,92.6z"/>
		<circle class="st0" cx="34" cy="57.5" r="12.8"/>
		<path class="st0" d="M34.1,97.3c-1.6,0-2.9,1.2-3,2.8c0,1.5,1.3,2.8,2.8,2.8c1.6,0,2.8-1.2,2.8-2.8C36.8,98.6,35.7,97.4,34.1,97.3
			z"/>
		<path class="st0" d="M63.6,71.8c0-0.5,0-0.9-0.3-1.3c-1.4-1.7-2.9-3.5-4.3-5.2c-0.2-0.2-0.4-0.5-0.7-0.4c-0.4,0.1-0.3,0.5-0.3,0.8
			c0,2.4,0,4.8,0.2,7.2c0.3,3.7,0.2,7.2-1.8,10.5c-1.5,2.5-2.6,5.2-3.8,7.8c-1.2,2.6-2.5,5.2-3.7,7.9c-0.7,1.6-0.2,3.1,1.1,3.8
			c1.4,0.7,2.8,0.1,3.7-1.5c0.3-0.6,0.6-1.2,0.9-1.9c2.3-4.9,4.6-9.8,7-14.6c1.5-3,2.8-5.9,2.1-9.4C63.6,74.4,63.6,73.1,63.6,71.8z"
			/>
		<path class="st0" d="M77.7,17.5c3.9,0,7-3.1,7-6.9c0-3.9-3-7-6.8-7c-3.9,0-6.9,3-6.9,6.9C70.8,14.4,73.9,17.5,77.7,17.5z"/>
		<path class="st0" d="M94.5,44.5c-1.6-0.1-3.2-0.1-4.8-0.3c-3.5-0.3-7,0.1-10.3-1.3c-0.5-0.2-0.6,0.1-0.8,0.5
			c-0.5,1.3-0.1,2,1.2,2.4c4.1,1.1,8.4,0.7,12.6,1.1c0.6,0,1.3,0.1,1.9,0.1c0.9,0.1,1.6-0.2,1.7-1.2C96,44.8,95.3,44.6,94.5,44.5z"
			/>
	</g>
	<g>
		<path class="st1" d="M98.6,43.6c-0.9-1.6-2.4-2.2-4.1-2.3c-3.6-0.2-7.3-0.4-10.9-0.6c-1.2-0.1-2.3-0.4-3.3-0.8
			c-0.7-0.3-1.1-0.8-0.9-1.6c0.2-1.3,0.4-2.5,0.6-3.8c0.8-4.7-1.2-8.9-5.3-10.8c-4.5-2.1-9.4-1.9-12.8,1.5c-1.7,1.7-3.4,3.3-5.2,4.8
			c0.6,0.3,1.1,0.6,1.7,1c0.4,0.3,0.7,0.5,1.1,0.8c1.5-1.3,2.9-2.6,4.2-4.1c2.7-2.8,6-3,9.7-1.4c2.9,1.2,4.2,4.3,3.6,7.9
			c-0.5,2.8-0.8,5.6-1.3,8.3c-0.9,5.9-1.8,11.8-2.7,17.7c-0.2,1-0.6,1.9-1.5,2.6c-1.7,1.3-1.7,1.8-0.4,3.5c0.3,0.3,0.5,0.6,0.8,1
			c2.8,3.6,6.1,6.8,8.5,10.7c0.4,0.7,1.1,1,1.9,0.6c0.9-0.4,1.1-1.1,0.8-2c-0.3-1-0.9-1.8-1.5-2.6c-2.3-2.7-4.5-5.5-6.8-8.2
			c-0.6-0.7-0.7-1.2-0.1-1.9c0.8-1,1.2-2.2,1.4-3.4c0.6-3.7,1.1-7.4,1.7-11.1c0.1-0.8,0.4-1.1,1.3-0.8C84.2,50,89.7,50,95.2,50
			C98.4,50,100.1,46.4,98.6,43.6z M94.3,47c-0.6,0-1.3-0.1-1.9-0.1c-4.2-0.4-8.5,0-12.6-1.1c-1.3-0.3-1.7-1.1-1.2-2.4
			c0.1-0.4,0.3-0.7,0.8-0.5c3.3,1.4,6.9,1,10.3,1.3c1.6,0.2,3.2,0.2,4.8,0.3c0.8,0,1.5,0.3,1.5,1.3C95.9,46.8,95.2,47,94.3,47z"/>
		<path class="st1" d="M86.8,91.4c-0.1-0.3-0.2-0.6-0.3-0.9c-0.4-0.7-0.9-1.1-1.7-0.9c-0.1,0-0.1,0-0.2,0c-0.8,0.3-1.2,0.9-1.1,1.7
			c0.1,0.4,0.2,0.8,0.3,1.2c0.6,2.5,1.3,5,1.9,7.5c0.3,1.4-0.4,2.6-1.8,3c-1.3,0.4-2.6-0.1-3.2-1.4c-0.2-0.5-0.4-1.1-0.5-1.7
			c-1.6-6.2-3.3-12.5-4.9-18.7c-0.3-1.2-0.8-2.1-1.6-3c-3.2-3.8-6.4-7.7-9.7-11.6c-1.2-1.5-2.2-3.3-3.9-4.3
			c-2.2-1.2-2.7-2.9-2.3-5.2c0.2-1.5,0.5-2.9,0.7-4.4c-0.5,0.4-1.1,0.8-1.7,1.1c-0.6,0.3-1.1,0.6-1.7,0.8c0,0-1.5,0.5-2.2,0.7
			c-0.2,0-0.5,0.1-0.7,0.1c-0.2,0-0.4,0.1-0.5,0.1c0.1,0.6,0.1,1.2,0.1,1.8c0,1.3-0.1,2.6-0.4,3.8c-0.1,0.4-0.2,0.8-0.3,1.2
			c-1.4,4.8-4.8,8.8-9.3,11c-0.5,0.2-1,0.5-1.6,0.7c0.3,0.1,0.5,0.2,0.8,0.3c0.8,0.3,1,0.7,0.7,1.5c-2,5.7-3.9,11.5-5.9,17.3
			c-0.3,0.8-0.7,1.2-1.5,0.9c-2.1,0-3.9,0.7-5.1,2.4c-0.5,0.7-0.9,0.8-1.6,0.5c-1.2-0.4-2.4-0.8-3.5-1.2c-1.5-0.6-2-1.4-1.6-3
			c0.3-1.2,0.7-2.4,1.1-3.5c1.6-4.8,3.2-9.5,4.9-14.3c0.1-0.2,0.1-0.3,0.2-0.5c-0.3-0.1-0.7-0.2-1-0.4c-0.6-0.2-1.3-0.5-1.9-0.8
			c0,0,0,0.1,0,0.1c-0.4,1.1-0.7,1.7-2,1.1c-0.8-0.4-1.6,0-1.9,0.9c-0.3,0.9,0.1,1.5,0.8,2c0.1,0.1,0.2,0.1,0.4,0.2
			c0.9,0.3,1.1,0.8,0.7,1.7c-0.5,1.4-1,2.9-1.4,4.3c-0.3,1-0.7,1.5-1.7,0.9c0,0-0.1,0-0.1,0c-0.9-0.2-1.7,0-2.1,0.9
			c-0.4,1,0.2,1.6,1,1.9c1.2,0.4,1.4,1.1,0.9,2.2c-0.4,0.8-0.6,1.6-0.8,2.5c-0.8,2.9,0.4,5.4,3.1,6.5c1,0.4,2,0.8,3,1
			c1.5,0.4,2.8,0.9,2.9,2.7c0,0.3,0.3,0.7,0.5,1c1.8,2.8,5.5,3.6,8.3,1.8c2.8-1.8,3.6-5.5,1.6-8.4c-0.5-0.7-0.6-1.3-0.3-2.1
			c1.3-3.7,2.6-7.5,3.8-11.3c1.9-6.1,4.3-11.8,7.7-17.2c0.4-0.6,0.6-1.4,1.5-1.5c1.2-0.2,2.1-0.9,3.1-2.2c0.1,4.2,0,8,0.3,11.8
			c0.3,2.8-0.2,5.5-1.7,7.9c-0.9,1.5-1.6,3.2-2.3,4.9c-1.7,3.5-3.4,7.1-5,10.6c-1.3,2.8-0.7,5.7,1.5,7.4c3,2.3,7.1,1.5,8.8-2
			c3.4-6.9,6.6-13.8,9.9-20.7c0.5-1,0.6-2,0.6-3.1c0-1.4,0-2.8,0-4.6c1.6,1.9,2.8,3.4,4.2,4.9c0.9,1,1.5,2.2,1.8,3.5
			c1.6,6.3,3.2,12.6,4.9,18.8c0.9,3.3,4,5.1,7,4.2c3.3-0.9,5-3.9,4.2-7.3C88.2,96.4,87.5,93.9,86.8,91.4z M34,103
			c-1.5,0-2.8-1.3-2.8-2.8c0-1.6,1.4-2.9,3-2.8c1.6,0,2.7,1.3,2.7,2.9C36.8,101.8,35.6,103,34,103z M61.4,85.1
			c-2.4,4.8-4.6,9.7-7,14.6c-0.3,0.6-0.6,1.3-0.9,1.9c-0.9,1.6-2.3,2.1-3.7,1.5c-1.4-0.7-1.8-2.2-1.1-3.8c1.2-2.6,2.5-5.3,3.7-7.9
			c1.2-2.6,2.3-5.3,3.8-7.8c2-3.3,2.1-6.9,1.8-10.5c-0.2-2.4-0.1-4.8-0.2-7.2c0-0.3-0.1-0.7,0.3-0.8c0.3-0.1,0.5,0.2,0.7,0.4
			c1.5,1.7,2.9,3.5,4.3,5.2c0.3,0.4,0.3,0.8,0.3,1.3c0,1.3,0,2.6,0,3.9C64.2,79.1,62.9,82.1,61.4,85.1z"/>
		<path class="st1" d="M77.7,20.6c5.4,0.1,10.1-4.5,10.1-10c0-5.6-4.5-10.2-10-10.2c-5.6,0-10,4.4-10.1,10
			C67.7,16,72.1,20.5,77.7,20.6z M77.8,3.6c3.9,0,6.8,3,6.8,7c0,3.8-3.1,6.9-7,6.9c-3.8,0-6.8-3.1-6.8-7C70.8,6.6,73.8,3.6,77.8,3.6
			z"/>
		<path class="st1" d="M84.1,84.8c0.7-0.1,1.2-0.6,1.2-1.5c0-0.9-0.5-1.5-1.4-1.5c-0.2,0-0.4,0-0.5,0.1c-0.6,0.2-1,0.7-1,1.5
			c0,0.9,0.5,1.4,1.5,1.5C84,84.9,84,84.9,84.1,84.8z"/>
		<path class="st1" d="M34,71.5c7.8,0,14.1-6.4,14.1-14.1c0-7.8-6.3-14-14.1-14c-7.8,0-14.1,6.3-14,14.1
			C19.9,65.3,26.2,71.6,34,71.5z M34.1,45.6c6.5,0,11.8,5.4,11.8,11.9c0,6.6-5.4,11.9-12,11.9c-6.6,0-11.9-5.3-11.8-11.9
			C22.1,50.9,27.4,45.6,34.1,45.6z"/>
		<path class="st1" d="M34,40.9c1.1,0,2.1,0.1,3.1,0.3c0.1-0.1,0.2-0.1,0.3-0.2c2.1-3.2,2.4-6.6,0.7-10.1c-1.7-3.5-4.6-5.4-8.5-5.5
			c-6.2-0.2-11,5-10.3,11.2c0.4,3.2,2,5.6,4.8,7.3c0.1,0,0.2,0.1,0.3,0.1c1.1-0.8,2.3-1.5,3.6-2c-3.6-1.1-5.6-3.5-5.6-6.8
			c0.1-3.1,2.2-5.7,5.2-6.5c3-0.7,6.1,0.7,7.5,3.3c1.6,3,0.9,6-2,8.8C33.3,40.9,33.6,40.9,34,40.9z"/>
		<path class="st1" d="M30.5,51.3c0.2-0.2,0.4-0.3,0.5-0.3c0.2,0,0.4,0.3,0.4,0.9v2.3h-1.9v2.3h1.9v7.8l2.1,1.5
			c0.7-0.2,1.1-0.3,1.4-0.4c3.7-1.3,5.5-3.2,5.5-5.7c0-1.2-0.5-2.1-1.5-2.8c-0.5-0.3-1-0.4-1.4-0.4c-1.4,0-2.2,0.6-2.6,1.7l1.3,1.7
			c0.7-0.6,1.2-0.9,1.3-0.8c0.4,0.1,0.5,0.3,0.5,0.8c0,0.6-0.2,1-0.5,1.3c-0.7,0.7-1.9,1.3-3.5,1.8v-6.5h1.8v-2.2h-1.8V51
			c0-0.7-0.3-1.4-0.8-1.8c-0.5-0.5-1.2-0.7-1.9-0.7c-0.7,0-1.4,0.5-2.2,1.4l1.1,1.8L30.5,51.3z"/>
		<path class="st1" d="M50.1,52c5.5,0.1,10-4.3,10.1-9.8c-0.1-0.6-0.1-1.2-0.2-1.8c-0.8-4.9-5.4-8.4-10.3-8.1
			c-5.1,0.4-9.1,4.6-9.2,9.5c0,0.2,0,0.3,0.1,0.4c4.2,1.8,7.5,5.3,9.1,9.6C49.7,51.9,49.9,52,50.1,52z M47.3,41.5v-1.7h1.4v-1.7
			c0-0.5-0.1-0.7-0.3-0.7c-0.1,0-0.2,0.1-0.4,0.2l-0.3,0.3l-0.8-1.4c0.6-0.7,1.1-1.1,1.6-1.1c0.6,0,1,0.2,1.5,0.5
			c0.4,0.4,0.6,0.8,0.6,1.4v2.4h1.3v1.6h-1.3v4.9c1.2-0.4,2-0.8,2.6-1.4c0.2-0.2,0.4-0.6,0.4-1c0-0.3-0.1-0.5-0.4-0.6
			c-0.1,0-0.4,0.2-1,0.6l-0.9-1.3c0.3-0.9,0.9-1.3,2-1.3c0.3,0,0.7,0.1,1,0.3c0.8,0.5,1.1,1.2,1.1,2.1c0,1.9-1.4,3.3-4.1,4.3
			c-0.2,0.1-0.5,0.2-1,0.3l-1.5-1.1v-5.8H47.3z"/>
		<path class="st1" d="M18.4,51.4c-0.4-0.2-0.5-0.5-0.3-0.9c0.3-0.7,0.5-1.4,0.7-2.1c0.2-0.6,0-1.1-0.5-1.6c-1.2-1.1-2.3-2.4-3-3.9
			c-0.4-0.8-1-1.1-1.8-1.1c-0.8,0-1.6,0.1-2.5,0.2c-0.2-0.9-0.5-1.9-0.7-2.8c-0.1-0.4,0-0.6,0.4-0.7c0.7-0.3,1.4-0.7,2.1-1.1
			c0.5-0.3,0.7-0.7,0.7-1.4c-0.1-1.6,0.1-3.2,0.6-4.8c0.1-0.4,0.2-0.7,0.1-1c0-0.3-0.1-0.6-0.3-0.8c0,0,0-0.1-0.1-0.1c0,0,0,0,0,0
			c-0.1-0.2-0.2-0.3-0.4-0.5c-0.4-0.4-0.8-0.7-1.3-1.1c0,0-0.1-0.1-0.1-0.1c-0.1-0.1-0.2-0.4-0.2-0.5c0.5-0.9,1.1-1.8,1.6-2.6
			c1.1,0.3,2,0.6,2.9,0.9c0.5,0.1,1,0,1.4-0.5c1.2-1.3,2.6-2.4,4.1-3.2c0.6-0.3,0.9-0.8,0.9-1.4c0-0.8,0-1.5-0.1-2.3
			c0-0.3,0-0.6,0.4-0.7c0.8-0.2,1.6-0.4,2.4-0.6c0.4-0.1,0.7,0,0.9,0.5c0.3,0.7,0.6,1.4,1,2c0.3,0.5,0.8,0.8,1.5,0.8
			c1.7-0.1,3.3,0.1,4.9,0.7c0.9,0.3,1.5,0.1,2.1-0.5c0.6-0.6,1.1-1.2,1.7-1.9c1,0.6,2,1.2,2.9,1.7c-0.3,0.9-0.6,1.7-0.8,2.5
			c-0.2,0.7-0.1,1.4,0.5,1.9c1.3,1.1,2.3,2.5,3.1,4c0.2,0.5,0.6,0.8,1.1,0.8c0.9,0,1.7-0.1,2.6-0.1c0.2,0,0.5,0.2,0.6,0.3
			c0.2,0.4,0.3,0.8,0.5,1.2c0.7-0.1,1.4-0.2,2.2-0.3c-0.4-0.9-0.7-1.8-1-2.7c-0.3-0.8-0.7-1-1.6-0.9c-0.7,0.1-1.4,0.2-2.1,0.2
			c-0.2,0-0.5-0.1-0.6-0.3c-1-1.2-1.9-2.4-2.8-3.7c-0.1-0.2-0.2-0.5-0.2-0.7c0.2-0.7,0.6-1.4,0.8-2.2c0.3-0.7,0.2-1.2-0.4-1.6
			c-1.5-0.9-3.1-1.8-4.6-2.7c-0.7-0.4-1.1-0.2-1.6,0.4c-0.5,0.6-0.9,1.2-1.4,1.8c-0.1,0.2-0.4,0.3-0.6,0.2c-1.5-0.2-3.1-0.4-4.6-0.7
			c-0.2,0-0.6-0.2-0.7-0.4c-0.3-0.7-0.6-1.4-0.9-2.1c-0.2-0.5-0.6-0.8-1.2-0.8c-1.9,0.2-3.8,0.6-5.5,1.4c-0.6,0.3-0.8,0.7-0.7,1.3
			c0.1,0.8,0.2,1.5,0.3,2.3c0,0.2-0.1,0.5-0.3,0.7c-1.2,1-2.4,1.9-3.7,2.8c-0.2,0.1-0.5,0.2-0.7,0.1c-0.7-0.2-1.4-0.6-2.1-0.9
			c-0.7-0.3-1.2-0.3-1.6,0.4c-0.4,0.7-0.9,1.5-1.3,2.2c-0.5,0.8-1,1.6-1.4,2.5c-0.1,0.2-0.1,0.3-0.2,0.4c-0.1,0.4,0.1,0.8,0.6,1.1
			c0.1,0.1,0.1,0.1,0.2,0.2c0.4,0.3,0.7,0.6,1.1,0.9c0.1,0.1,0.3,0.2,0.4,0.4c0.1,0.1,0.1,0.2,0.2,0.3c0,0.1,0,0.2,0,0.3
			c-0.2,1.5-0.4,3.1-0.6,4.6c0,0.2-0.2,0.5-0.4,0.6c-0.7,0.3-1.4,0.6-2.1,0.9c-0.7,0.3-1,0.6-0.8,1.4c0,0.2,0.1,0.4,0.2,0.6
			c0.2,0.7,0.3,1.3,0.5,2c0.2,0.9,0.4,1.7,0.7,2.6c0.2,0.8,0.7,0.9,1.4,0.8c0.7-0.1,1.5-0.2,2.2-0.3c0.2,0,0.5,0.1,0.6,0.3
			c1,1.2,1.9,2.5,2.8,3.7c0.1,0.2,0.2,0.6,0.2,0.8c-0.2,0.7-0.6,1.4-0.9,2.1c-0.2,0.5-0.2,1,0.3,1.4c0.6,0.5,1.2,0.9,1.8,1.3
			C17.9,52.8,18.1,52.1,18.4,51.4C18.4,51.4,18.4,51.4,18.4,51.4z"/>
	</g>
</g>
</svg>
