<?xml version="1.0" encoding="utf-8"?>
<!-- Generator: Adobe Illustrator 22.1.0, SVG Export Plug-In . SVG Version: 6.00 Build 0)  -->
<svg version="1.1" id="Layer_1" xmlns="http://www.w3.org/2000/svg" xmlns:xlink="http://www.w3.org/1999/xlink" x="0px" y="0px"
	 viewBox="0 0 107 107" style="enable-background:new 0 0 107 107;" xml:space="preserve">
<style type="text/css">
	.st0{fill:#FEEED5;}
	.st1{fill:#A17E55;}
</style>
<g>
	<g>
		<g>
			<path class="st0" d="M38.7,74.4l-7.6,21.7l2,4.2c0,0-1.3,3.7-1.4,3.7c0,0-2.9,0.2-3.5,0s-1.9,0.6-2.9-1.5c-1-2.1-1.2-2.9-1.2-2.9
				s-1.5-0.6-3-1.3c-1.5-0.8-5.1-1.8-5.3-2.6c-0.2-0.8-1-3.8,0-5.2c1-1.4,5.9-14.1,5.9-14.1l3.3-5.9h4L38.7,74.4z"/>
			<path class="st0" d="M53.7,38.6c0,0-3.3,0.9-3.7,2.4c-0.4,1.4-0.7,4.8-0.7,5.1c0,0.3-1.2,8-1.3,9.3s0.5,6.6,0.5,6.6s-4,1-4.4,0.9
				s-1.7-6.2-1.5-7.5c0.2-1.3,1-11.1,0.9-12c-0.1-0.9,5.4-8.8,5.4-8.8l8.4-6.7l6-4c0,0,3.7,0.9,4.3,1c0.6,0.1,5.3,2.6,5.3,2.6
				s0.2,5.9,0,6.8c-0.2,0.9,0,6.2,0,6.2l3.7,0.5l11.5,2l3.8,0.5c0,0,0.2,3.8,0,4.2c-0.2,0.4,0.3,0.2-1.9,0.6
				c-2.2,0.4-9.2,0.7-10.3,0s-7.9-1.7-7.9-1.7s-1.3,6.8-1.3,7.4s-0.6,5.2-0.6,6.1c0,0.9-1.9,5.1-1.9,5.1l9.2,13.8l1.2,3.2l0.8,3
				l0.7,4.7l1.5,5.7l1,7.9l-3.5,1.9c0,0-2.5-0.6-3.3-1.2c-0.8-0.7-6.2-18.2-6.2-19c0-0.8-8.1-12.5-8.1-12.5l-1.7,7.9l-10.3,22.9
				l-5,1.9l-2.5-3c0,0,2.7-7,2.7-8c0-0.9,7.4-17.1,7.4-17.1l-0.7-16.1L53.7,38.6z"/>
			<circle class="st0" cx="72.7" cy="10.2" r="8.1"/>
		</g>
	</g>
	<g>
		<g>
			<path class="st1" d="M93.5,43.7c-0.9-1.6-2.4-2.2-4.1-2.3c-3.6-0.2-7.3-0.4-10.9-0.6c-1.2-0.1-2.3-0.4-3.3-0.8
				c-0.7-0.3-1.1-0.8-0.9-1.6c0.2-1.3,0.4-2.5,0.6-3.8c0.8-4.7-1.2-8.9-5.3-10.8c-4.5-2.1-9.4-1.9-12.8,1.5
				c-2.7,2.8-5.8,5.3-8.7,7.9c-2.8,2.5-4.6,5.6-5.6,9.2c-0.5,1.9-0.6,3.9-0.6,5.9c0,4.7-1.3,9.6,1.2,14.1c0.3,0.5,0.1,1-0.2,1.4
				c-1.3,2.4-2.7,4.8-4,7.3c-0.4,0.8-0.9,0.9-1.7,0.6c-2.3-0.9-4.7-1.7-7-2.6c-1.2-0.4-2.5-0.7-3.8-0.5c-2.8,0.6-4.7,2.2-5.6,4.9
				c-0.4,1.1-0.7,1.7-2,1.1c-0.8-0.4-1.6,0-1.9,0.9c-0.3,0.9,0.1,1.5,0.8,2c0.1,0.1,0.2,0.1,0.4,0.2c0.9,0.3,1.1,0.8,0.7,1.7
				c-0.5,1.4-1,2.9-1.4,4.3c-0.3,1-0.7,1.5-1.7,0.9c0,0-0.1,0-0.1,0c-0.9-0.2-1.7,0-2.1,0.9c-0.4,1,0.2,1.6,1,1.9
				c1.2,0.4,1.4,1.1,0.9,2.2c-0.4,0.8-0.6,1.6-0.8,2.5c-0.8,2.9,0.4,5.4,3.1,6.5c1,0.4,2,0.8,3,1c1.5,0.4,2.8,0.9,2.9,2.7
				c0,0.3,0.3,0.7,0.5,1c1.8,2.8,5.5,3.6,8.3,1.8c2.8-1.8,3.6-5.5,1.6-8.4c-0.5-0.7-0.6-1.3-0.3-2.1c1.3-3.7,2.6-7.5,3.8-11.3
				c1.9-6.1,4.3-11.8,7.7-17.2c0.4-0.6,0.6-1.3,1.5-1.5c1.2-0.2,2.1-0.9,3.1-2.2c0.1,4.2,0,8,0.3,11.8c0.3,2.8-0.2,5.5-1.7,7.9
				c-0.9,1.5-1.6,3.2-2.3,4.9c-1.7,3.5-3.4,7.1-5,10.6c-1.3,2.8-0.7,5.7,1.5,7.4c3,2.3,7.1,1.5,8.8-2c3.4-6.9,6.6-13.8,9.9-20.7
				c0.5-1,0.6-2,0.6-3.1c0-1.4,0-2.8,0-4.6c1.6,1.9,2.8,3.4,4.2,4.9c0.9,1,1.5,2.2,1.8,3.5c1.6,6.3,3.2,12.6,4.9,18.8
				c0.9,3.3,4,5.1,7,4.2c3.3-0.9,5-3.9,4.2-7.3c-0.6-2.5-1.3-5-1.9-7.5c-0.1-0.3-0.2-0.6-0.3-0.9c-0.4-0.7-1-1.2-1.8-0.9
				c-0.8,0.3-1.2,0.9-1.1,1.7c0.1,0.4,0.2,0.8,0.3,1.2c0.6,2.5,1.3,5,1.9,7.5c0.3,1.4-0.4,2.6-1.8,3c-1.3,0.4-2.6-0.1-3.2-1.4
				c-0.2-0.5-0.4-1.1-0.5-1.7c-1.6-6.2-3.3-12.5-4.9-18.7c-0.3-1.2-0.8-2.1-1.6-3c-3.2-3.8-6.4-7.7-9.7-11.6
				c-1.2-1.5-2.2-3.3-3.9-4.3c-2.2-1.2-2.7-2.9-2.3-5.2c0.7-4.5,1.4-9,2.1-13.5c0.3-2,0.6-4.1,0.9-6.1c0.1-0.7-0.1-1.4-0.8-1.8
				c-0.5-0.3-1.1-0.3-1.6,0.1c-3,2.2-5.3,4.9-5.8,8.7c-0.5,3.8-0.5,7.7-0.6,11.6c0,1.4-0.2,2.8-0.3,4.3c0,0.4-0.2,0.8-0.6,0.8
				c-0.4,0.1-0.5-0.4-0.6-0.7c-0.7-1.7-1.4-3.4-1.2-5.3c0.3-2.1,0.3-4.1,0.3-6.2c-0.1-6.3,2-11.5,7.1-15.4c2.3-1.7,4.4-3.8,6.4-5.9
				c2.7-2.8,6-3,9.7-1.4c2.9,1.2,4.2,4.3,3.6,7.9c-0.5,2.8-0.8,5.6-1.3,8.3c-0.9,5.9-1.8,11.8-2.7,17.7c-0.2,1-0.6,1.9-1.5,2.6
				c-1.7,1.3-1.7,1.8-0.4,3.5c0.3,0.3,0.5,0.6,0.8,1c2.8,3.6,6.1,6.8,8.5,10.7c0.4,0.7,1.1,1,1.9,0.6c0.9-0.4,1.1-1.1,0.8-2
				c-0.3-1-0.9-1.8-1.5-2.6c-2.3-2.7-4.5-5.5-6.8-8.2c-0.6-0.7-0.7-1.2-0.1-1.9c0.8-1,1.2-2.2,1.4-3.4c0.6-3.7,1.1-7.4,1.7-11.1
				c0.1-0.8,0.4-1.1,1.3-0.8c5.4,1.3,10.9,1.2,16.3,1.3C93.3,50.1,95.1,46.5,93.5,43.7z M29,103.1c-1.5,0-2.8-1.3-2.8-2.8
				c0-1.6,1.4-2.9,3-2.8c1.6,0,2.7,1.3,2.7,2.9C31.8,101.9,30.5,103.1,29,103.1z M36.7,76.1c-2,5.7-3.9,11.5-5.9,17.3
				c-0.3,0.8-0.7,1.2-1.5,0.9c-2.1,0-3.9,0.7-5.1,2.4c-0.5,0.7-0.9,0.8-1.6,0.5c-1.2-0.4-2.4-0.8-3.5-1.2c-1.5-0.6-2-1.4-1.6-3
				c0.3-1.2,0.7-2.4,1.1-3.5c1.6-4.8,3.2-9.5,4.9-14.3c1.1-3.3,2.9-4.1,6.2-2.9c2.1,0.8,4.1,1.6,6.2,2.3
				C36.8,74.8,37,75.2,36.7,76.1z M53,73c-0.2-2.4-0.1-4.8-0.2-7.2c0-0.3-0.1-0.7,0.3-0.8c0.3-0.1,0.5,0.2,0.7,0.4
				c1.5,1.7,2.9,3.5,4.3,5.2c0.3,0.4,0.3,0.8,0.3,1.3c0,1.3,0,2.6,0,3.9c0.6,3.4-0.7,6.4-2.1,9.4c-2.4,4.8-4.6,9.7-7,14.6
				c-0.3,0.6-0.6,1.3-0.9,1.9c-0.9,1.6-2.3,2.1-3.7,1.5c-1.4-0.7-1.8-2.2-1.1-3.8c1.2-2.6,2.5-5.3,3.7-7.9c1.2-2.6,2.3-5.3,3.8-7.8
				C53.2,80.2,53.3,76.7,53,73z M50.1,45.2c0.2-1.7,2.1-4.2,2.1-4.2l-2.1,14.4C50.1,55.4,49.9,46.9,50.1,45.2z M89.2,47
				c-0.6,0-1.3-0.1-1.9-0.1c-4.2-0.4-8.5,0-12.6-1.1c-1.3-0.3-1.7-1.1-1.2-2.4c0.1-0.4,0.3-0.7,0.8-0.5c3.3,1.4,6.9,1,10.3,1.3
				c1.6,0.2,3.2,0.2,4.8,0.3c0.8,0,1.5,0.3,1.5,1.3C90.8,46.9,90.1,47.1,89.2,47z"/>
			<path class="st1" d="M72.6,20.7c5.4,0.1,10.1-4.5,10.1-10c0-5.6-4.5-10.2-10-10.2c-5.6,0-10,4.4-10.1,10
				C62.6,16.1,67,20.6,72.6,20.7z M72.7,3.7c3.9,0,6.8,3,6.8,7c0,3.8-3.1,6.9-7,6.9c-3.8,0-6.8-3.1-6.8-7
				C65.8,6.6,68.8,3.7,72.7,3.7z"/>
			<path class="st1" d="M77.3,83.4c0,0.9,0.5,1.4,1.5,1.5c0.9-0.1,1.5-0.6,1.5-1.5c0-0.9-0.5-1.5-1.4-1.5
				C77.9,81.9,77.3,82.5,77.3,83.4z"/>
		</g>
	</g>
</g>
</svg>
